<svg width="280" height="360" viewBox="0 0 280 360" fill="none" xmlns="http://www.w3.org/2000/svg">
<path d="M5.25969 173.158C5.75969 173.178 6.39969 173.198 7.17969 173.218C7.95969 173.238 8.73969 173.248 9.51969 173.248C10.4997 173.248 11.4297 173.238 12.3097 173.218C13.1897 173.198 13.8097 173.188 14.1697 173.188C16.8497 173.188 18.8397 173.738 20.1397 174.838C21.4597 175.938 22.1197 177.358 22.1197 179.098C22.1197 179.818 21.9897 180.578 21.7297 181.378C21.4697 182.158 21.0197 182.888 20.3797 183.568C19.7397 184.228 18.8597 184.768 17.7397 185.188C16.6397 185.608 15.2297 185.818 13.5097 185.818H10.5097V185.218H13.2097C14.4697 185.218 15.4297 184.948 16.0897 184.408C16.7697 183.868 17.2197 183.158 17.4397 182.278C17.6797 181.398 17.7997 180.448 17.7997 179.428C17.7997 177.528 17.4897 176.108 16.8697 175.168C16.2497 174.228 15.1797 173.758 13.6597 173.758C12.8397 173.758 12.2997 173.928 12.0397 174.268C11.7997 174.608 11.6797 175.298 11.6797 176.338V191.098C11.6797 191.858 11.7597 192.428 11.9197 192.808C12.0797 193.188 12.3897 193.438 12.8497 193.558C13.3097 193.678 13.9697 193.748 14.8297 193.768V194.398C14.2497 194.358 13.4997 194.338 12.5797 194.338C11.6597 194.318 10.7097 194.308 9.72969 194.308C8.88969 194.308 8.07969 194.318 7.29969 194.338C6.51969 194.338 5.83969 194.358 5.25969 194.398V193.798C5.91969 193.758 6.40969 193.678 6.72969 193.558C7.06969 193.438 7.28969 193.198 7.38969 192.838C7.50969 192.478 7.56969 191.938 7.56969 191.218V176.338C7.56969 175.598 7.50969 175.058 7.38969 174.718C7.28969 174.358 7.06969 174.118 6.72969 173.998C6.40969 173.858 5.91969 173.778 5.25969 173.758V173.158ZM33.5818 178.468C34.2018 178.468 34.7118 178.598 35.1118 178.858C35.5318 179.118 35.8418 179.448 36.0418 179.848C36.2418 180.248 36.3418 180.668 36.3418 181.108C36.3418 181.768 36.1418 182.318 35.7418 182.758C35.3618 183.198 34.8518 183.418 34.2118 183.418C33.6118 183.418 33.1218 183.258 32.7418 182.938C32.3618 182.618 32.1718 182.178 32.1718 181.618C32.1718 181.118 32.2918 180.698 32.5318 180.358C32.7918 180.018 33.0818 179.748 33.4018 179.548C33.1818 179.428 32.9318 179.388 32.6518 179.428C32.1718 179.468 31.7318 179.638 31.3318 179.938C30.9318 180.238 30.5918 180.608 30.3118 181.048C30.0318 181.488 29.8118 181.958 29.6518 182.458C29.5118 182.958 29.4418 183.438 29.4418 183.898V191.308C29.4418 192.288 29.6918 192.948 30.1918 193.288C30.6918 193.608 31.4218 193.768 32.3818 193.768V194.398C31.9218 194.378 31.2518 194.358 30.3718 194.338C29.5118 194.298 28.6118 194.278 27.6718 194.278C26.8918 194.278 26.1118 194.298 25.3318 194.338C24.5718 194.358 24.0018 194.378 23.6218 194.398V193.768C24.3618 193.768 24.8818 193.618 25.1818 193.318C25.5018 193.018 25.6618 192.448 25.6618 191.608V182.158C25.6618 181.258 25.5118 180.598 25.2118 180.178C24.9318 179.738 24.4018 179.518 23.6218 179.518V178.888C24.2618 178.948 24.8818 178.978 25.4818 178.978C26.2218 178.978 26.9218 178.948 27.5818 178.888C28.2618 178.808 28.8818 178.698 29.4418 178.558V181.678C29.6818 181.118 29.9918 180.598 30.3718 180.118C30.7718 179.638 31.2418 179.248 31.7818 178.948C32.3418 178.628 32.9418 178.468 33.5818 178.468ZM44.5426 178.468C45.9226 178.468 47.1426 178.748 48.2026 179.308C49.2826 179.848 50.1326 180.718 50.7526 181.918C51.3926 183.118 51.7126 184.698 51.7126 186.658C51.7126 188.618 51.3926 190.198 50.7526 191.398C50.1326 192.598 49.2826 193.468 48.2026 194.008C47.1426 194.548 45.9226 194.818 44.5426 194.818C43.1626 194.818 41.9326 194.548 40.8526 194.008C39.7726 193.468 38.9226 192.598 38.3026 191.398C37.6826 190.198 37.3726 188.618 37.3726 186.658C37.3726 184.698 37.6826 183.118 38.3026 181.918C38.9226 180.718 39.7726 179.848 40.8526 179.308C41.9326 178.748 43.1626 178.468 44.5426 178.468ZM44.5426 179.068C43.6026 179.068 42.8326 179.668 42.2326 180.868C41.6526 182.048 41.3626 183.978 41.3626 186.658C41.3626 189.338 41.6526 191.268 42.2326 192.448C42.8326 193.628 43.6026 194.218 44.5426 194.218C45.4626 194.218 46.2226 193.628 46.8226 192.448C47.4226 191.268 47.7226 189.338 47.7226 186.658C47.7226 183.978 47.4226 182.048 46.8226 180.868C46.2226 179.668 45.4626 179.068 44.5426 179.068ZM64.2404 178.468C65.0204 178.468 65.6704 178.578 66.1904 178.798C66.7304 179.018 67.1504 179.298 67.4504 179.638C67.8104 180.018 68.0604 180.528 68.2004 181.168C68.3404 181.788 68.4104 182.578 68.4104 183.538V191.608C68.4104 192.448 68.5504 193.018 68.8304 193.318C69.1304 193.618 69.6304 193.768 70.3304 193.768V194.398C69.9704 194.378 69.4304 194.358 68.7104 194.338C67.9904 194.298 67.2904 194.278 66.6104 194.278C65.8904 194.278 65.1904 194.298 64.5104 194.338C63.8504 194.358 63.3504 194.378 63.0104 194.398V193.768C63.5904 193.768 64.0004 193.618 64.2404 193.318C64.5004 193.018 64.6304 192.448 64.6304 191.608V182.518C64.6304 181.978 64.5904 181.498 64.5104 181.078C64.4304 180.638 64.2604 180.298 64.0004 180.058C63.7404 179.798 63.3404 179.668 62.8004 179.668C62.1804 179.668 61.6204 179.848 61.1204 180.208C60.6204 180.568 60.2204 181.068 59.9204 181.708C59.6404 182.328 59.5004 183.028 59.5004 183.808V191.608C59.5004 192.448 59.6204 193.018 59.8604 193.318C60.1004 193.618 60.5204 193.768 61.1204 193.768V194.398C60.7804 194.378 60.2804 194.358 59.6204 194.338C58.9804 194.298 58.3204 194.278 57.6404 194.278C56.9004 194.278 56.1504 194.298 55.3904 194.338C54.6304 194.358 54.0604 194.378 53.6804 194.398V193.768C54.4204 193.768 54.9404 193.618 55.2404 193.318C55.5604 193.018 55.7204 192.448 55.7204 191.608V182.158C55.7204 181.258 55.5704 180.598 55.2704 180.178C54.9904 179.738 54.4604 179.518 53.6804 179.518V178.888C54.3204 178.948 54.9404 178.978 55.5404 178.978C56.2804 178.978 56.9804 178.948 57.6404 178.888C58.3204 178.808 58.9404 178.698 59.5004 178.558V181.558C60.0004 180.458 60.6704 179.668 61.5104 179.188C62.3504 178.708 63.2604 178.468 64.2404 178.468ZM73.2704 178.468C74.0504 178.468 74.7004 178.578 75.2204 178.798C75.7604 179.018 76.1804 179.298 76.4804 179.638C76.8404 180.018 77.0904 180.528 77.2304 181.168C77.3704 181.788 77.4404 182.578 77.4404 183.538V191.608C77.4404 192.448 77.5904 193.018 77.8904 193.318C78.2104 193.618 78.7404 193.768 79.4804 193.768V194.398C79.1204 194.378 78.5604 194.358 77.8004 194.338C77.0604 194.298 76.3404 194.278 75.6404 194.278C74.9204 194.278 74.2204 194.298 73.5404 194.338C72.8804 194.358 72.3804 194.378 72.0404 194.398V193.768C72.6204 193.768 73.0304 193.618 73.2704 193.318C73.5304 193.018 73.6604 192.448 73.6604 191.608V182.518C73.6604 181.978 73.6104 181.498 73.5104 181.078C73.4304 180.638 73.2504 180.298 72.9704 180.058C72.6904 179.798 72.2704 179.668 71.7104 179.668C71.0904 179.668 70.5304 179.858 70.0304 180.238C69.5304 180.618 69.1304 181.128 68.8304 181.768C68.5504 182.388 68.4004 183.088 68.3804 183.868L68.2304 181.708C68.7704 180.468 69.4904 179.618 70.3904 179.158C71.2904 178.698 72.2504 178.468 73.2704 178.468ZM88.2828 178.468C89.6628 178.468 90.8828 178.748 91.9428 179.308C93.0228 179.848 93.8728 180.718 94.4928 181.918C95.1328 183.118 95.4528 184.698 95.4528 186.658C95.4528 188.618 95.1328 190.198 94.4928 191.398C93.8728 192.598 93.0228 193.468 91.9428 194.008C90.8828 194.548 89.6628 194.818 88.2828 194.818C86.9028 194.818 85.6728 194.548 84.5928 194.008C83.5128 193.468 82.6628 192.598 82.0428 191.398C81.4228 190.198 81.1128 188.618 81.1128 186.658C81.1128 184.698 81.4228 183.118 82.0428 181.918C82.6628 180.718 83.5128 179.848 84.5928 179.308C85.6728 178.748 86.9028 178.468 88.2828 178.468ZM88.2828 179.068C87.3428 179.068 86.5728 179.668 85.9728 180.868C85.3928 182.048 85.1028 183.978 85.1028 186.658C85.1028 189.338 85.3928 191.268 85.9728 192.448C86.5728 193.628 87.3428 194.218 88.2828 194.218C89.2028 194.218 89.9628 193.628 90.5628 192.448C91.1628 191.268 91.4628 189.338 91.4628 186.658C91.4628 183.978 91.1628 182.048 90.5628 180.868C89.9628 179.668 89.2028 179.068 88.2828 179.068ZM103.091 173.968V178.918H106.931V179.518H103.091V191.458C103.091 192.178 103.221 192.688 103.481 192.988C103.741 193.288 104.111 193.438 104.591 193.438C105.051 193.438 105.471 193.268 105.851 192.928C106.231 192.568 106.571 191.978 106.871 191.158L107.411 191.398C107.111 192.378 106.641 193.198 106.001 193.858C105.381 194.498 104.501 194.818 103.361 194.818C102.681 194.818 102.101 194.728 101.621 194.548C101.161 194.388 100.761 194.148 100.421 193.828C99.9806 193.368 99.6806 192.818 99.5206 192.178C99.3806 191.538 99.3106 190.688 99.3106 189.628V179.518H96.6706V178.918H99.3106V174.748C100.031 174.728 100.701 174.658 101.321 174.538C101.941 174.418 102.531 174.228 103.091 173.968ZM115.469 178.468C117.229 178.468 118.609 178.998 119.609 180.058C120.609 181.118 121.109 182.808 121.109 185.128H110.999L110.969 184.558H117.629C117.669 183.578 117.609 182.678 117.449 181.858C117.289 181.018 117.029 180.348 116.669 179.848C116.329 179.348 115.879 179.098 115.319 179.098C114.559 179.098 113.899 179.548 113.339 180.448C112.779 181.328 112.429 182.778 112.289 184.798L112.409 184.978C112.369 185.238 112.339 185.518 112.319 185.818C112.319 186.118 112.319 186.418 112.319 186.718C112.319 188.098 112.519 189.238 112.919 190.138C113.319 191.038 113.839 191.698 114.479 192.118C115.119 192.538 115.779 192.748 116.459 192.748C116.919 192.748 117.389 192.678 117.869 192.538C118.349 192.398 118.819 192.138 119.279 191.758C119.739 191.378 120.159 190.838 120.539 190.138L121.109 190.378C120.889 191.078 120.519 191.778 119.999 192.478C119.499 193.158 118.849 193.718 118.049 194.158C117.249 194.598 116.309 194.818 115.229 194.818C113.869 194.818 112.669 194.518 111.629 193.918C110.589 193.318 109.779 192.428 109.199 191.248C108.619 190.048 108.329 188.588 108.329 186.868C108.329 185.048 108.629 183.518 109.229 182.278C109.849 181.038 110.699 180.098 111.779 179.458C112.859 178.798 114.089 178.468 115.469 178.468ZM128.785 178.468C129.625 178.468 130.345 178.588 130.945 178.828C131.545 179.068 131.985 179.278 132.265 179.458C132.945 179.958 133.355 179.638 133.495 178.498H134.155C134.115 179.078 134.085 179.768 134.065 180.568C134.045 181.348 134.035 182.398 134.035 183.718H133.375C133.275 182.978 133.085 182.258 132.805 181.558C132.525 180.858 132.115 180.278 131.575 179.818C131.035 179.338 130.325 179.098 129.445 179.098C128.825 179.098 128.305 179.278 127.885 179.638C127.485 179.998 127.285 180.508 127.285 181.168C127.285 181.768 127.465 182.298 127.825 182.758C128.185 183.198 128.645 183.618 129.205 184.018C129.785 184.398 130.385 184.818 131.005 185.278C131.725 185.758 132.365 186.248 132.925 186.748C133.485 187.228 133.935 187.768 134.275 188.368C134.615 188.948 134.785 189.638 134.785 190.438C134.785 191.358 134.525 192.148 134.005 192.808C133.505 193.448 132.835 193.948 131.995 194.308C131.175 194.648 130.265 194.818 129.265 194.818C128.725 194.818 128.235 194.768 127.795 194.668C127.355 194.568 126.965 194.438 126.625 194.278C126.365 194.138 126.125 194.008 125.905 193.888C125.705 193.768 125.495 193.668 125.275 193.588C125.075 193.488 124.895 193.528 124.735 193.708C124.595 193.888 124.485 194.188 124.405 194.608H123.745C123.785 193.968 123.815 193.188 123.835 192.268C123.855 191.348 123.865 190.128 123.865 188.608H124.525C124.665 189.708 124.875 190.678 125.155 191.518C125.455 192.338 125.885 192.988 126.445 193.468C127.005 193.928 127.725 194.158 128.605 194.158C128.985 194.158 129.345 194.078 129.685 193.918C130.045 193.758 130.335 193.508 130.555 193.168C130.795 192.828 130.915 192.368 130.915 191.788C130.915 190.908 130.615 190.178 130.015 189.598C129.415 189.018 128.665 188.398 127.765 187.738C127.085 187.238 126.445 186.748 125.845 186.268C125.265 185.788 124.785 185.248 124.405 184.648C124.045 184.048 123.865 183.338 123.865 182.518C123.865 181.618 124.095 180.878 124.555 180.298C125.015 179.698 125.615 179.248 126.355 178.948C127.115 178.628 127.925 178.468 128.785 178.468ZM144.244 173.158C144.744 173.178 145.384 173.198 146.164 173.218C146.944 173.238 147.724 173.248 148.504 173.248C149.484 173.248 150.414 173.238 151.294 173.218C152.174 173.198 152.794 173.188 153.154 173.188C154.954 173.188 156.434 173.408 157.594 173.848C158.774 174.268 159.654 174.868 160.234 175.648C160.814 176.428 161.104 177.348 161.104 178.408C161.104 179.068 160.974 179.748 160.714 180.448C160.454 181.128 160.004 181.758 159.364 182.338C158.724 182.918 157.844 183.398 156.724 183.778C155.624 184.138 154.214 184.318 152.494 184.318H149.614V183.718H152.194C153.454 183.718 154.414 183.498 155.074 183.058C155.754 182.598 156.204 181.998 156.424 181.258C156.664 180.498 156.784 179.658 156.784 178.738C156.784 177.158 156.474 175.938 155.854 175.078C155.234 174.198 154.164 173.758 152.644 173.758C151.824 173.758 151.284 173.928 151.024 174.268C150.784 174.608 150.664 175.298 150.664 176.338V191.218C150.664 191.938 150.724 192.478 150.844 192.838C150.964 193.198 151.184 193.438 151.504 193.558C151.844 193.678 152.334 193.758 152.974 193.798V194.398C152.474 194.358 151.834 194.338 151.054 194.338C150.274 194.318 149.484 194.308 148.684 194.308C147.784 194.308 146.944 194.318 146.164 194.338C145.384 194.338 144.744 194.358 144.244 194.398V193.798C144.904 193.758 145.394 193.678 145.714 193.558C146.054 193.438 146.274 193.198 146.374 192.838C146.494 192.478 146.554 191.938 146.554 191.218V176.338C146.554 175.598 146.494 175.058 146.374 174.718C146.274 174.358 146.054 174.118 145.714 173.998C145.394 173.858 144.904 173.778 144.244 173.758V173.158ZM149.614 183.808C150.554 183.848 151.334 183.898 151.954 183.958C152.594 183.998 153.134 184.038 153.574 184.078C154.034 184.118 154.444 184.168 154.804 184.228C156.464 184.388 157.684 184.778 158.464 185.398C159.264 185.998 159.794 186.918 160.054 188.158L160.744 191.248C160.924 192.068 161.114 192.658 161.314 193.018C161.534 193.358 161.844 193.518 162.244 193.498C162.524 193.498 162.764 193.428 162.964 193.288C163.164 193.128 163.364 192.918 163.564 192.658L163.984 193.018C163.484 193.638 162.954 194.098 162.394 194.398C161.834 194.678 161.124 194.818 160.264 194.818C159.304 194.818 158.494 194.598 157.834 194.158C157.174 193.698 156.724 192.838 156.484 191.578L155.914 188.578C155.754 187.738 155.564 186.998 155.344 186.358C155.144 185.718 154.864 185.218 154.504 184.858C154.144 184.498 153.614 184.318 152.914 184.318H149.674L149.614 183.808ZM171.807 178.468C173.567 178.468 174.947 178.998 175.947 180.058C176.947 181.118 177.447 182.808 177.447 185.128H167.337L167.307 184.558H173.967C174.007 183.578 173.947 182.678 173.787 181.858C173.627 181.018 173.367 180.348 173.007 179.848C172.667 179.348 172.217 179.098 171.657 179.098C170.897 179.098 170.237 179.548 169.677 180.448C169.117 181.328 168.767 182.778 168.627 184.798L168.747 184.978C168.707 185.238 168.677 185.518 168.657 185.818C168.657 186.118 168.657 186.418 168.657 186.718C168.657 188.098 168.857 189.238 169.257 190.138C169.657 191.038 170.177 191.698 170.817 192.118C171.457 192.538 172.117 192.748 172.797 192.748C173.257 192.748 173.727 192.678 174.207 192.538C174.687 192.398 175.157 192.138 175.617 191.758C176.077 191.378 176.497 190.838 176.877 190.138L177.447 190.378C177.227 191.078 176.857 191.778 176.337 192.478C175.837 193.158 175.187 193.718 174.387 194.158C173.587 194.598 172.647 194.818 171.567 194.818C170.207 194.818 169.007 194.518 167.967 193.918C166.927 193.318 166.117 192.428 165.537 191.248C164.957 190.048 164.667 188.588 164.667 186.868C164.667 185.048 164.967 183.518 165.567 182.278C166.187 181.038 167.037 180.098 168.117 179.458C169.197 178.798 170.427 178.468 171.807 178.468ZM187.073 178.468C187.813 178.468 188.493 178.558 189.113 178.738C189.753 178.898 190.303 179.128 190.763 179.428C191.243 179.728 191.623 180.108 191.903 180.568C192.183 181.008 192.323 181.498 192.323 182.038C192.323 182.698 192.123 183.228 191.723 183.628C191.323 184.028 190.823 184.228 190.223 184.228C189.603 184.228 189.093 184.048 188.693 183.688C188.313 183.328 188.123 182.848 188.123 182.248C188.123 181.668 188.293 181.188 188.633 180.808C188.973 180.428 189.383 180.178 189.863 180.058C189.683 179.798 189.403 179.588 189.023 179.428C188.643 179.248 188.223 179.158 187.763 179.158C187.163 179.158 186.623 179.318 186.143 179.638C185.663 179.938 185.243 180.398 184.883 181.018C184.543 181.618 184.273 182.368 184.073 183.268C183.893 184.148 183.803 185.168 183.803 186.328C183.803 187.948 183.993 189.228 184.373 190.168C184.773 191.108 185.283 191.778 185.903 192.178C186.523 192.558 187.183 192.748 187.883 192.748C188.303 192.748 188.753 192.668 189.233 192.508C189.713 192.348 190.183 192.078 190.643 191.698C191.123 191.318 191.553 190.778 191.933 190.078L192.503 190.288C192.283 190.988 191.923 191.688 191.423 192.388C190.943 193.088 190.313 193.668 189.533 194.128C188.753 194.588 187.803 194.818 186.683 194.818C185.403 194.818 184.243 194.528 183.203 193.948C182.163 193.348 181.333 192.448 180.713 191.248C180.113 190.048 179.813 188.558 179.813 186.778C179.813 185.018 180.123 183.528 180.743 182.308C181.363 181.068 182.223 180.118 183.323 179.458C184.443 178.798 185.693 178.468 187.073 178.468ZM208.5 178.888V179.518C208.12 179.598 207.76 179.808 207.42 180.148C207.1 180.488 206.79 181.088 206.49 181.948L202.05 194.128L201.12 195.538L194.94 181.198C194.56 180.438 194.2 179.968 193.86 179.788C193.52 179.608 193.24 179.518 193.02 179.518V178.888C193.6 178.948 194.2 178.998 194.82 179.038C195.46 179.058 196.1 179.068 196.74 179.068C197.48 179.068 198.19 179.048 198.87 179.008C199.57 178.968 200.22 178.928 200.82 178.888V179.518C200.36 179.518 199.95 179.548 199.59 179.608C199.23 179.668 198.99 179.838 198.87 180.118C198.77 180.378 198.85 180.838 199.11 181.498L202.86 190.648L202.62 190.768L205.26 183.628C205.6 182.688 205.74 181.928 205.68 181.348C205.62 180.768 205.4 180.328 205.02 180.028C204.64 179.728 204.12 179.558 203.46 179.518V178.888C203.78 178.908 204.1 178.928 204.42 178.948C204.74 178.968 205.05 178.988 205.35 179.008C205.65 179.008 205.94 179.008 206.22 179.008C206.64 179.008 207.05 178.998 207.45 178.978C207.87 178.958 208.22 178.928 208.5 178.888ZM202.05 194.128L200.91 197.158C200.73 197.658 200.53 198.078 200.31 198.418C200.11 198.778 199.88 199.068 199.62 199.288C199.32 199.548 198.95 199.738 198.51 199.858C198.09 199.978 197.62 200.038 197.1 200.038C196.64 200.038 196.19 199.958 195.75 199.798C195.33 199.638 194.97 199.398 194.67 199.078C194.39 198.758 194.25 198.338 194.25 197.818C194.25 197.258 194.44 196.808 194.82 196.468C195.2 196.128 195.72 195.958 196.38 195.958C196.96 195.958 197.43 196.098 197.79 196.378C198.17 196.678 198.36 197.118 198.36 197.698C198.36 198.078 198.25 198.418 198.03 198.718C197.81 199.018 197.5 199.248 197.1 199.408C197.2 199.428 197.29 199.438 197.37 199.438C197.47 199.458 197.55 199.468 197.61 199.468C198.19 199.468 198.71 199.278 199.17 198.898C199.63 198.518 200 197.918 200.28 197.098L201.36 194.128H202.05ZM216.81 178.468C217.55 178.468 218.23 178.558 218.85 178.738C219.49 178.898 220.04 179.128 220.5 179.428C220.98 179.728 221.36 180.108 221.64 180.568C221.92 181.008 222.06 181.498 222.06 182.038C222.06 182.698 221.86 183.228 221.46 183.628C221.06 184.028 220.56 184.228 219.96 184.228C219.34 184.228 218.83 184.048 218.43 183.688C218.05 183.328 217.86 182.848 217.86 182.248C217.86 181.668 218.03 181.188 218.37 180.808C218.71 180.428 219.12 180.178 219.6 180.058C219.42 179.798 219.14 179.588 218.76 179.428C218.38 179.248 217.96 179.158 217.5 179.158C216.9 179.158 216.36 179.318 215.88 179.638C215.4 179.938 214.98 180.398 214.62 181.018C214.28 181.618 214.01 182.368 213.81 183.268C213.63 184.148 213.54 185.168 213.54 186.328C213.54 187.948 213.73 189.228 214.11 190.168C214.51 191.108 215.02 191.778 215.64 192.178C216.26 192.558 216.92 192.748 217.62 192.748C218.04 192.748 218.49 192.668 218.97 192.508C219.45 192.348 219.92 192.078 220.38 191.698C220.86 191.318 221.29 190.778 221.67 190.078L222.24 190.288C222.02 190.988 221.66 191.688 221.16 192.388C220.68 193.088 220.05 193.668 219.27 194.128C218.49 194.588 217.54 194.818 216.42 194.818C215.14 194.818 213.98 194.528 212.94 193.948C211.9 193.348 211.07 192.448 210.45 191.248C209.85 190.048 209.55 188.558 209.55 186.778C209.55 185.018 209.86 183.528 210.48 182.308C211.1 181.068 211.96 180.118 213.06 179.458C214.18 178.798 215.43 178.468 216.81 178.468ZM229.565 170.908V191.608C229.565 192.448 229.715 193.018 230.015 193.318C230.335 193.618 230.865 193.768 231.605 193.768V194.398C231.245 194.378 230.695 194.358 229.955 194.338C229.235 194.298 228.495 194.278 227.735 194.278C226.995 194.278 226.235 194.298 225.455 194.338C224.695 194.358 224.125 194.378 223.745 194.398V193.768C224.485 193.768 225.005 193.618 225.305 193.318C225.625 193.018 225.785 192.448 225.785 191.608V174.508C225.785 173.608 225.645 172.948 225.365 172.528C225.085 172.088 224.545 171.868 223.745 171.868V171.238C224.385 171.298 225.005 171.328 225.605 171.328C226.365 171.328 227.075 171.298 227.735 171.238C228.395 171.158 229.005 171.048 229.565 170.908ZM236.727 171.238C237.447 171.238 238.037 171.438 238.497 171.838C238.957 172.238 239.187 172.768 239.187 173.428C239.187 174.088 238.957 174.618 238.497 175.018C238.037 175.418 237.447 175.618 236.727 175.618C236.007 175.618 235.417 175.418 234.957 175.018C234.497 174.618 234.267 174.088 234.267 173.428C234.267 172.768 234.497 172.238 234.957 171.838C235.417 171.438 236.007 171.238 236.727 171.238ZM238.827 178.558V191.608C238.827 192.448 238.977 193.018 239.277 193.318C239.597 193.618 240.127 193.768 240.867 193.768V194.398C240.507 194.378 239.957 194.358 239.217 194.338C238.477 194.298 237.727 194.278 236.967 194.278C236.227 194.278 235.477 194.298 234.717 194.338C233.957 194.358 233.387 194.378 233.007 194.398V193.768C233.747 193.768 234.267 193.618 234.567 193.318C234.887 193.018 235.047 192.448 235.047 191.608V182.188C235.047 181.268 234.897 180.598 234.597 180.178C234.317 179.738 233.787 179.518 233.007 179.518V178.888C233.647 178.948 234.267 178.978 234.867 178.978C235.607 178.978 236.307 178.948 236.967 178.888C237.647 178.808 238.267 178.698 238.827 178.558ZM253.005 178.468C253.845 178.468 254.515 178.578 255.015 178.798C255.535 179.018 255.955 179.298 256.275 179.638C256.635 180.018 256.885 180.508 257.025 181.108C257.185 181.708 257.265 182.518 257.265 183.538V191.608C257.265 192.448 257.415 193.018 257.715 193.318C258.035 193.618 258.565 193.768 259.305 193.768V194.398C258.945 194.378 258.385 194.358 257.625 194.338C256.885 194.298 256.165 194.278 255.465 194.278C254.725 194.278 254.005 194.298 253.305 194.338C252.605 194.358 252.085 194.378 251.745 194.398V193.768C252.385 193.768 252.835 193.618 253.095 193.318C253.355 193.018 253.485 192.448 253.485 191.608V182.518C253.485 181.978 253.435 181.498 253.335 181.078C253.235 180.638 253.035 180.298 252.735 180.058C252.435 179.798 252.005 179.668 251.445 179.668C250.785 179.668 250.195 179.848 249.675 180.208C249.175 180.568 248.775 181.068 248.475 181.708C248.195 182.328 248.055 183.028 248.055 183.808V191.608C248.055 192.448 248.185 193.018 248.445 193.318C248.705 193.618 249.155 193.768 249.795 193.768V194.398C249.455 194.378 248.945 194.358 248.265 194.338C247.585 194.298 246.895 194.278 246.195 194.278C245.455 194.278 244.705 194.298 243.945 194.338C243.185 194.358 242.615 194.378 242.235 194.398V193.768C242.975 193.768 243.495 193.618 243.795 193.318C244.115 193.018 244.275 192.448 244.275 191.608V182.158C244.275 181.258 244.125 180.598 243.825 180.178C243.545 179.738 243.015 179.518 242.235 179.518V178.888C242.875 178.948 243.495 178.978 244.095 178.978C244.835 178.978 245.535 178.948 246.195 178.888C246.875 178.808 247.495 178.698 248.055 178.558V181.558C248.555 180.418 249.245 179.618 250.125 179.158C251.005 178.698 251.965 178.468 253.005 178.468ZM265.953 200.038C264.773 200.038 263.703 199.928 262.743 199.708C261.783 199.488 261.023 199.158 260.463 198.718C259.903 198.298 259.623 197.758 259.623 197.098C259.623 196.458 259.903 195.888 260.463 195.388C261.023 194.888 261.843 194.508 262.923 194.248L263.133 194.728C262.753 194.948 262.463 195.248 262.263 195.628C262.063 196.008 261.963 196.408 261.963 196.828C261.963 197.688 262.353 198.348 263.133 198.808C263.933 199.288 264.993 199.528 266.313 199.528C267.213 199.528 268.043 199.408 268.803 199.168C269.563 198.928 270.173 198.558 270.633 198.058C271.093 197.558 271.323 196.938 271.323 196.198C271.323 195.578 271.093 195.058 270.633 194.638C270.193 194.218 269.303 194.008 267.963 194.008H265.983C265.243 194.008 264.563 193.928 263.943 193.768C263.343 193.608 262.863 193.348 262.503 192.988C262.143 192.628 261.963 192.128 261.963 191.488C261.963 190.708 262.283 190.008 262.923 189.388C263.563 188.748 264.563 188.128 265.923 187.528L266.253 187.798C265.753 188.058 265.303 188.338 264.903 188.638C264.523 188.938 264.333 189.318 264.333 189.778C264.333 190.418 264.773 190.738 265.653 190.738H269.043C270.083 190.738 271.003 190.868 271.803 191.128C272.623 191.388 273.273 191.798 273.753 192.358C274.233 192.918 274.473 193.658 274.473 194.578C274.473 195.538 274.163 196.428 273.543 197.248C272.923 198.088 271.983 198.758 270.723 199.258C269.483 199.778 267.893 200.038 265.953 200.038ZM266.223 188.008C265.143 188.008 264.163 187.848 263.283 187.528C262.423 187.188 261.743 186.668 261.243 185.968C260.743 185.248 260.493 184.338 260.493 183.238C260.493 182.138 260.743 181.238 261.243 180.538C261.743 179.838 262.423 179.318 263.283 178.978C264.163 178.638 265.143 178.468 266.223 178.468C267.323 178.468 268.303 178.638 269.163 178.978C270.023 179.318 270.703 179.838 271.203 180.538C271.703 181.238 271.953 182.138 271.953 183.238C271.953 184.338 271.703 185.248 271.203 185.968C270.703 186.668 270.023 187.188 269.163 187.528C268.303 187.848 267.323 188.008 266.223 188.008ZM266.223 187.468C266.823 187.468 267.293 187.168 267.633 186.568C267.993 185.948 268.173 184.838 268.173 183.238C268.173 181.638 267.993 180.538 267.633 179.938C267.293 179.318 266.823 179.008 266.223 179.008C265.623 179.008 265.143 179.318 264.783 179.938C264.443 180.538 264.273 181.638 264.273 183.238C264.273 184.838 264.443 185.948 264.783 186.568C265.143 187.168 265.623 187.468 266.223 187.468ZM270.753 181.018L270.183 180.808C270.483 180.068 270.973 179.448 271.653 178.948C272.333 178.428 273.053 178.168 273.813 178.168C274.393 178.168 274.843 178.328 275.163 178.648C275.503 178.968 275.673 179.418 275.673 179.998C275.673 180.598 275.513 181.038 275.193 181.318C274.873 181.598 274.523 181.738 274.143 181.738C273.803 181.738 273.493 181.628 273.213 181.408C272.933 181.168 272.773 180.808 272.733 180.328C272.693 179.828 272.853 179.208 273.213 178.468L273.513 178.588C272.733 178.888 272.153 179.218 271.773 179.578C271.393 179.938 271.053 180.418 270.753 181.018Z" fill="white"/>
<path d="M42.4411 236.578C40.7131 236.578 39.3571 236.092 38.3731 235.12C37.4011 234.148 36.9151 232.744 36.9151 230.908V223.798H39.2551V230.818C39.2551 232.114 39.5311 233.056 40.0831 233.644C40.6471 234.232 41.4391 234.526 42.4591 234.526C43.4791 234.526 44.2651 234.232 44.8171 233.644C45.3691 233.056 45.6451 232.114 45.6451 230.818V223.798H47.9491V230.908C47.9491 232.744 47.4571 234.148 46.4731 235.12C45.5011 236.092 44.1571 236.578 42.4411 236.578ZM53.9802 236.524C53.1762 236.524 52.4022 236.422 51.6582 236.218C50.9262 236.002 50.3442 235.744 49.9122 235.444L50.7762 233.734C51.2082 234.01 51.7242 234.238 52.3242 234.418C52.9242 234.598 53.5242 234.688 54.1242 234.688C54.8322 234.688 55.3422 234.592 55.6542 234.4C55.9782 234.208 56.1402 233.95 56.1402 233.626C56.1402 233.362 56.0322 233.164 55.8162 233.032C55.6002 232.888 55.3182 232.78 54.9702 232.708C54.6222 232.636 54.2322 232.57 53.8002 232.51C53.3802 232.45 52.9542 232.372 52.5222 232.276C52.1022 232.168 51.7182 232.018 51.3702 231.826C51.0222 231.622 50.7402 231.352 50.5242 231.016C50.3082 230.68 50.2002 230.236 50.2002 229.684C50.2002 229.072 50.3742 228.544 50.7222 228.1C51.0702 227.644 51.5562 227.296 52.1802 227.056C52.8162 226.804 53.5662 226.678 54.4302 226.678C55.0782 226.678 55.7322 226.75 56.3922 226.894C57.0522 227.038 57.5982 227.242 58.0302 227.506L57.1662 229.216C56.7102 228.94 56.2482 228.754 55.7802 228.658C55.3242 228.55 54.8682 228.496 54.4122 228.496C53.7282 228.496 53.2182 228.598 52.8822 228.802C52.5582 229.006 52.3962 229.264 52.3962 229.576C52.3962 229.864 52.5042 230.08 52.7202 230.224C52.9362 230.368 53.2182 230.482 53.5662 230.566C53.9142 230.65 54.2982 230.722 54.7182 230.782C55.1502 230.83 55.5762 230.908 55.9962 231.016C56.4162 231.124 56.8002 231.274 57.1482 231.466C57.5082 231.646 57.7962 231.904 58.0122 232.24C58.2282 232.576 58.3362 233.014 58.3362 233.554C58.3362 234.154 58.1562 234.676 57.7962 235.12C57.4482 235.564 56.9502 235.912 56.3022 236.164C55.6542 236.404 54.8802 236.524 53.9802 236.524ZM64.7919 236.524C63.7239 236.524 62.7879 236.314 61.9839 235.894C61.1919 235.462 60.5739 234.874 60.1299 234.13C59.6979 233.386 59.4819 232.54 59.4819 231.592C59.4819 230.632 59.6919 229.786 60.1119 229.054C60.5439 228.31 61.1319 227.728 61.8759 227.308C62.6319 226.888 63.4899 226.678 64.4499 226.678C65.3859 226.678 66.2199 226.882 66.9519 227.29C67.6839 227.698 68.2599 228.274 68.6799 229.018C69.0999 229.762 69.3099 230.638 69.3099 231.646C69.3099 231.742 69.3039 231.85 69.2919 231.97C69.2919 232.09 69.2859 232.204 69.2739 232.312H61.2639V230.818H68.0859L67.2039 231.286C67.2159 230.734 67.1019 230.248 66.8619 229.828C66.6219 229.408 66.2919 229.078 65.8719 228.838C65.4639 228.598 64.9899 228.478 64.4499 228.478C63.8979 228.478 63.4119 228.598 62.9919 228.838C62.5839 229.078 62.2599 229.414 62.0199 229.846C61.7919 230.266 61.6779 230.764 61.6779 231.34V231.7C61.6779 232.276 61.8099 232.786 62.0739 233.23C62.3379 233.674 62.7099 234.016 63.1899 234.256C63.6699 234.496 64.2219 234.616 64.8459 234.616C65.3859 234.616 65.8719 234.532 66.3039 234.364C66.7359 234.196 67.1199 233.932 67.4559 233.572L68.6619 234.958C68.2299 235.462 67.6839 235.852 67.0239 236.128C66.3759 236.392 65.6319 236.524 64.7919 236.524ZM75.5391 236.524C74.6151 236.524 73.7811 236.32 73.0371 235.912C72.3051 235.492 71.7291 234.916 71.3091 234.184C70.8891 233.452 70.6791 232.588 70.6791 231.592C70.6791 230.596 70.8891 229.732 71.3091 229C71.7291 228.268 72.3051 227.698 73.0371 227.29C73.7811 226.882 74.6151 226.678 75.5391 226.678C76.3431 226.678 77.0631 226.858 77.6991 227.218C78.3351 227.566 78.8391 228.1 79.2111 228.82C79.5831 229.54 79.7691 230.464 79.7691 231.592C79.7691 232.708 79.5891 233.632 79.2291 234.364C78.8691 235.084 78.3711 235.624 77.7351 235.984C77.0991 236.344 76.3671 236.524 75.5391 236.524ZM75.8091 234.598C76.3491 234.598 76.8291 234.478 77.2491 234.238C77.6811 233.998 78.0231 233.65 78.2751 233.194C78.5391 232.738 78.6711 232.204 78.6711 231.592C78.6711 230.968 78.5391 230.434 78.2751 229.99C78.0231 229.534 77.6811 229.186 77.2491 228.946C76.8291 228.706 76.3491 228.586 75.8091 228.586C75.2691 228.586 74.7831 228.706 74.3511 228.946C73.9311 229.186 73.5891 229.534 73.3251 229.99C73.0731 230.434 72.9471 230.968 72.9471 231.592C72.9471 232.204 73.0731 232.738 73.3251 233.194C73.5891 233.65 73.9311 233.998 74.3511 234.238C74.7831 234.478 75.2691 234.598 75.8091 234.598ZM78.7251 236.398V234.13L78.8151 231.574L78.6351 229.018V223.042H80.8671V236.398H78.7251ZM90.9271 236.398L87.3991 226.786H89.5231L92.5471 235.264H91.5391L94.7071 226.786H96.5971L99.6751 235.264H98.6851L101.799 226.786H103.797L100.251 236.398H98.0911L95.2831 228.892H95.9491L93.0871 236.398H90.9271ZM110.967 236.398V234.454L110.841 234.04V230.638C110.841 229.978 110.643 229.468 110.247 229.108C109.851 228.736 109.251 228.55 108.447 228.55C107.907 228.55 107.373 228.634 106.845 228.802C106.329 228.97 105.891 229.204 105.531 229.504L104.649 227.866C105.165 227.47 105.777 227.176 106.485 226.984C107.205 226.78 107.949 226.678 108.717 226.678C110.109 226.678 111.183 227.014 111.939 227.686C112.707 228.346 113.091 229.372 113.091 230.764V236.398H110.967ZM107.943 236.524C107.223 236.524 106.593 236.404 106.053 236.164C105.513 235.912 105.093 235.57 104.793 235.138C104.505 234.694 104.361 234.196 104.361 233.644C104.361 233.104 104.487 232.618 104.739 232.186C105.003 231.754 105.429 231.412 106.017 231.16C106.605 230.908 107.385 230.782 108.357 230.782H111.147V232.276H108.519C107.751 232.276 107.235 232.402 106.971 232.654C106.707 232.894 106.575 233.194 106.575 233.554C106.575 233.962 106.737 234.286 107.061 234.526C107.385 234.766 107.835 234.886 108.411 234.886C108.963 234.886 109.455 234.76 109.887 234.508C110.331 234.256 110.649 233.884 110.841 233.392L111.219 234.742C111.003 235.306 110.613 235.744 110.049 236.056C109.497 236.368 108.795 236.524 107.943 236.524ZM119.597 236.524C118.541 236.524 117.725 236.254 117.149 235.714C116.573 235.162 116.285 234.352 116.285 233.284V224.662H118.535V233.23C118.535 233.686 118.649 234.04 118.877 234.292C119.117 234.544 119.447 234.67 119.867 234.67C120.371 234.67 120.791 234.538 121.127 234.274L121.757 235.876C121.493 236.092 121.169 236.254 120.785 236.362C120.401 236.47 120.005 236.524 119.597 236.524ZM114.701 228.658V226.858H121.109V228.658H114.701ZM127.809 236.524C126.741 236.524 125.805 236.314 125.001 235.894C124.209 235.462 123.591 234.874 123.147 234.13C122.715 233.386 122.499 232.54 122.499 231.592C122.499 230.632 122.709 229.786 123.129 229.054C123.561 228.31 124.149 227.728 124.893 227.308C125.649 226.888 126.507 226.678 127.467 226.678C128.403 226.678 129.237 226.882 129.969 227.29C130.701 227.698 131.277 228.274 131.697 229.018C132.117 229.762 132.327 230.638 132.327 231.646C132.327 231.742 132.321 231.85 132.309 231.97C132.309 232.09 132.303 232.204 132.291 232.312H124.281V230.818H131.103L130.221 231.286C130.233 230.734 130.119 230.248 129.879 229.828C129.639 229.408 129.309 229.078 128.889 228.838C128.481 228.598 128.007 228.478 127.467 228.478C126.915 228.478 126.429 228.598 126.009 228.838C125.601 229.078 125.277 229.414 125.037 229.846C124.809 230.266 124.695 230.764 124.695 231.34V231.7C124.695 232.276 124.827 232.786 125.091 233.23C125.355 233.674 125.727 234.016 126.207 234.256C126.687 234.496 127.239 234.616 127.863 234.616C128.403 234.616 128.889 234.532 129.321 234.364C129.753 234.196 130.137 233.932 130.473 233.572L131.679 234.958C131.247 235.462 130.701 235.852 130.041 236.128C129.393 236.392 128.649 236.524 127.809 236.524ZM134.489 236.398V226.786H136.631V229.432L136.379 228.658C136.667 228.01 137.117 227.518 137.729 227.182C138.353 226.846 139.127 226.678 140.051 226.678V228.82C139.955 228.796 139.865 228.784 139.781 228.784C139.697 228.772 139.613 228.766 139.529 228.766C138.677 228.766 137.999 229.018 137.495 229.522C136.991 230.014 136.739 230.752 136.739 231.736V236.398H134.489ZM152.35 236.524C151.534 236.524 150.808 236.344 150.172 235.984C149.536 235.624 149.032 235.084 148.66 234.364C148.3 233.632 148.12 232.708 148.12 231.592C148.12 230.464 148.306 229.54 148.678 228.82C149.062 228.1 149.572 227.566 150.208 227.218C150.856 226.858 151.57 226.678 152.35 226.678C153.298 226.678 154.132 226.882 154.852 227.29C155.584 227.698 156.16 228.268 156.58 229C157.012 229.732 157.228 230.596 157.228 231.592C157.228 232.588 157.012 233.452 156.58 234.184C156.16 234.916 155.584 235.492 154.852 235.912C154.132 236.32 153.298 236.524 152.35 236.524ZM147.022 236.398V223.042H149.272V229.018L149.092 231.574L149.164 234.13V236.398H147.022ZM152.098 234.598C152.638 234.598 153.118 234.478 153.538 234.238C153.97 233.998 154.312 233.65 154.564 233.194C154.816 232.738 154.942 232.204 154.942 231.592C154.942 230.968 154.816 230.434 154.564 229.99C154.312 229.534 153.97 229.186 153.538 228.946C153.118 228.706 152.638 228.586 152.098 228.586C151.558 228.586 151.072 228.706 150.64 228.946C150.208 229.186 149.866 229.534 149.614 229.99C149.362 230.434 149.236 230.968 149.236 231.592C149.236 232.204 149.362 232.738 149.614 233.194C149.866 233.65 150.208 233.998 150.64 234.238C151.072 234.478 151.558 234.598 152.098 234.598ZM163.682 236.524C162.698 236.524 161.822 236.314 161.054 235.894C160.286 235.462 159.68 234.874 159.236 234.13C158.792 233.386 158.57 232.54 158.57 231.592C158.57 230.632 158.792 229.786 159.236 229.054C159.68 228.31 160.286 227.728 161.054 227.308C161.822 226.888 162.698 226.678 163.682 226.678C164.678 226.678 165.56 226.888 166.328 227.308C167.108 227.728 167.714 228.304 168.146 229.036C168.59 229.768 168.812 230.62 168.812 231.592C168.812 232.54 168.59 233.386 168.146 234.13C167.714 234.874 167.108 235.462 166.328 235.894C165.56 236.314 164.678 236.524 163.682 236.524ZM163.682 234.598C164.234 234.598 164.726 234.478 165.158 234.238C165.59 233.998 165.926 233.65 166.166 233.194C166.418 232.738 166.544 232.204 166.544 231.592C166.544 230.968 166.418 230.434 166.166 229.99C165.926 229.534 165.59 229.186 165.158 228.946C164.726 228.706 164.24 228.586 163.7 228.586C163.148 228.586 162.656 228.706 162.224 228.946C161.804 229.186 161.468 229.534 161.216 229.99C160.964 230.434 160.838 230.968 160.838 231.592C160.838 232.204 160.964 232.738 161.216 233.194C161.468 233.65 161.804 233.998 162.224 234.238C162.656 234.478 163.142 234.598 163.682 234.598ZM174.581 236.524C173.525 236.524 172.709 236.254 172.133 235.714C171.557 235.162 171.269 234.352 171.269 233.284V224.662H173.519V233.23C173.519 233.686 173.633 234.04 173.861 234.292C174.101 234.544 174.431 234.67 174.851 234.67C175.355 234.67 175.775 234.538 176.111 234.274L176.741 235.876C176.477 236.092 176.153 236.254 175.769 236.362C175.385 236.47 174.989 236.524 174.581 236.524ZM169.685 228.658V226.858H176.093V228.658H169.685ZM181.982 236.524C180.926 236.524 180.11 236.254 179.534 235.714C178.958 235.162 178.67 234.352 178.67 233.284V224.662H180.92V233.23C180.92 233.686 181.034 234.04 181.262 234.292C181.502 234.544 181.832 234.67 182.252 234.67C182.756 234.67 183.176 234.538 183.512 234.274L184.142 235.876C183.878 236.092 183.554 236.254 183.17 236.362C182.786 236.47 182.39 236.524 181.982 236.524ZM177.086 228.658V226.858H183.494V228.658H177.086ZM185.993 236.398V223.042H188.243V236.398H185.993ZM195.714 236.524C194.646 236.524 193.71 236.314 192.906 235.894C192.114 235.462 191.496 234.874 191.052 234.13C190.62 233.386 190.404 232.54 190.404 231.592C190.404 230.632 190.614 229.786 191.034 229.054C191.466 228.31 192.054 227.728 192.798 227.308C193.554 226.888 194.412 226.678 195.372 226.678C196.308 226.678 197.142 226.882 197.874 227.29C198.606 227.698 199.182 228.274 199.602 229.018C200.022 229.762 200.232 230.638 200.232 231.646C200.232 231.742 200.226 231.85 200.214 231.97C200.214 232.09 200.208 232.204 200.196 232.312H192.186V230.818H199.008L198.126 231.286C198.138 230.734 198.024 230.248 197.784 229.828C197.544 229.408 197.214 229.078 196.794 228.838C196.386 228.598 195.912 228.478 195.372 228.478C194.82 228.478 194.334 228.598 193.914 228.838C193.506 229.078 193.182 229.414 192.942 229.846C192.714 230.266 192.6 230.764 192.6 231.34V231.7C192.6 232.276 192.732 232.786 192.996 233.23C193.26 233.674 193.632 234.016 194.112 234.256C194.592 234.496 195.144 234.616 195.768 234.616C196.308 234.616 196.794 234.532 197.226 234.364C197.658 234.196 198.042 233.932 198.378 233.572L199.584 234.958C199.152 235.462 198.606 235.852 197.946 236.128C197.298 236.392 196.554 236.524 195.714 236.524ZM205.363 236.524C204.559 236.524 203.785 236.422 203.041 236.218C202.309 236.002 201.727 235.744 201.295 235.444L202.159 233.734C202.591 234.01 203.107 234.238 203.707 234.418C204.307 234.598 204.907 234.688 205.507 234.688C206.215 234.688 206.725 234.592 207.037 234.4C207.361 234.208 207.523 233.95 207.523 233.626C207.523 233.362 207.415 233.164 207.199 233.032C206.983 232.888 206.701 232.78 206.353 232.708C206.005 232.636 205.615 232.57 205.183 232.51C204.763 232.45 204.337 232.372 203.905 232.276C203.485 232.168 203.101 232.018 202.753 231.826C202.405 231.622 202.123 231.352 201.907 231.016C201.691 230.68 201.583 230.236 201.583 229.684C201.583 229.072 201.757 228.544 202.105 228.1C202.453 227.644 202.939 227.296 203.563 227.056C204.199 226.804 204.949 226.678 205.813 226.678C206.461 226.678 207.115 226.75 207.775 226.894C208.435 227.038 208.981 227.242 209.413 227.506L208.549 229.216C208.093 228.94 207.631 228.754 207.163 228.658C206.707 228.55 206.251 228.496 205.795 228.496C205.111 228.496 204.601 228.598 204.265 228.802C203.941 229.006 203.779 229.264 203.779 229.576C203.779 229.864 203.887 230.08 204.103 230.224C204.319 230.368 204.601 230.482 204.949 230.566C205.297 230.65 205.681 230.722 206.101 230.782C206.533 230.83 206.959 230.908 207.379 231.016C207.799 231.124 208.183 231.274 208.531 231.466C208.891 231.646 209.179 231.904 209.395 232.24C209.611 232.576 209.719 233.014 209.719 233.554C209.719 234.154 209.539 234.676 209.179 235.12C208.831 235.564 208.333 235.912 207.685 236.164C207.037 236.404 206.263 236.524 205.363 236.524ZM222.553 236.398V234.454L222.427 234.04V230.638C222.427 229.978 222.229 229.468 221.833 229.108C221.437 228.736 220.837 228.55 220.033 228.55C219.493 228.55 218.959 228.634 218.431 228.802C217.915 228.97 217.477 229.204 217.117 229.504L216.235 227.866C216.751 227.47 217.363 227.176 218.071 226.984C218.791 226.78 219.535 226.678 220.303 226.678C221.695 226.678 222.769 227.014 223.525 227.686C224.293 228.346 224.677 229.372 224.677 230.764V236.398H222.553ZM219.529 236.524C218.809 236.524 218.179 236.404 217.639 236.164C217.099 235.912 216.679 235.57 216.379 235.138C216.091 234.694 215.947 234.196 215.947 233.644C215.947 233.104 216.073 232.618 216.325 232.186C216.589 231.754 217.015 231.412 217.603 231.16C218.191 230.908 218.971 230.782 219.943 230.782H222.733V232.276H220.105C219.337 232.276 218.821 232.402 218.557 232.654C218.293 232.894 218.161 233.194 218.161 233.554C218.161 233.962 218.323 234.286 218.647 234.526C218.971 234.766 219.421 234.886 219.997 234.886C220.549 234.886 221.041 234.76 221.473 234.508C221.917 234.256 222.235 233.884 222.427 233.392L222.805 234.742C222.589 235.306 222.199 235.744 221.635 236.056C221.083 236.368 220.381 236.524 219.529 236.524ZM227.565 236.398V226.786H229.707V229.432L229.455 228.658C229.743 228.01 230.193 227.518 230.805 227.182C231.429 226.846 232.203 226.678 233.127 226.678V228.82C233.031 228.796 232.941 228.784 232.857 228.784C232.773 228.772 232.689 228.766 232.605 228.766C231.753 228.766 231.075 229.018 230.571 229.522C230.067 230.014 229.815 230.752 229.815 231.736V236.398H227.565ZM239.466 236.524C238.398 236.524 237.462 236.314 236.658 235.894C235.866 235.462 235.248 234.874 234.804 234.13C234.372 233.386 234.156 232.54 234.156 231.592C234.156 230.632 234.366 229.786 234.786 229.054C235.218 228.31 235.806 227.728 236.55 227.308C237.306 226.888 238.164 226.678 239.124 226.678C240.06 226.678 240.894 226.882 241.626 227.29C242.358 227.698 242.934 228.274 243.354 229.018C243.774 229.762 243.984 230.638 243.984 231.646C243.984 231.742 243.978 231.85 243.966 231.97C243.966 232.09 243.96 232.204 243.948 232.312H235.938V230.818H242.76L241.878 231.286C241.89 230.734 241.776 230.248 241.536 229.828C241.296 229.408 240.966 229.078 240.546 228.838C240.138 228.598 239.664 228.478 239.124 228.478C238.572 228.478 238.086 228.598 237.666 228.838C237.258 229.078 236.934 229.414 236.694 229.846C236.466 230.266 236.352 230.764 236.352 231.34V231.7C236.352 232.276 236.484 232.786 236.748 233.23C237.012 233.674 237.384 234.016 237.864 234.256C238.344 234.496 238.896 234.616 239.52 234.616C240.06 234.616 240.546 234.532 240.978 234.364C241.41 234.196 241.794 233.932 242.13 233.572L243.336 234.958C242.904 235.462 242.358 235.852 241.698 236.128C241.05 236.392 240.306 236.524 239.466 236.524ZM30.8819 262.524C29.9579 262.524 29.1239 262.32 28.3799 261.912C27.6479 261.492 27.0719 260.916 26.6519 260.184C26.2319 259.452 26.0219 258.588 26.0219 257.592C26.0219 256.596 26.2319 255.732 26.6519 255C27.0719 254.268 27.6479 253.698 28.3799 253.29C29.1239 252.882 29.9579 252.678 30.8819 252.678C31.6859 252.678 32.4059 252.858 33.0419 253.218C33.6779 253.566 34.1819 254.1 34.5539 254.82C34.9259 255.54 35.1119 256.464 35.1119 257.592C35.1119 258.708 34.9319 259.632 34.5719 260.364C34.2119 261.084 33.7139 261.624 33.0779 261.984C32.4419 262.344 31.7099 262.524 30.8819 262.524ZM31.1519 260.598C31.6919 260.598 32.1719 260.478 32.5919 260.238C33.0239 259.998 33.3659 259.65 33.6179 259.194C33.8819 258.738 34.0139 258.204 34.0139 257.592C34.0139 256.968 33.8819 256.434 33.6179 255.99C33.3659 255.534 33.0239 255.186 32.5919 254.946C32.1719 254.706 31.6919 254.586 31.1519 254.586C30.6119 254.586 30.1259 254.706 29.6939 254.946C29.2739 255.186 28.9319 255.534 28.6679 255.99C28.4159 256.434 28.2899 256.968 28.2899 257.592C28.2899 258.204 28.4159 258.738 28.6679 259.194C28.9319 259.65 29.2739 259.998 29.6939 260.238C30.1259 260.478 30.6119 260.598 31.1519 260.598ZM34.0679 262.398V260.13L34.1579 257.574L33.9779 255.018V249.042H36.2099V262.398H34.0679ZM43.2393 262.524C42.4233 262.524 41.7033 262.374 41.0793 262.074C40.4553 261.762 39.9693 261.294 39.6213 260.67C39.2733 260.034 39.0993 259.236 39.0993 258.276V252.786H41.3493V257.97C41.3493 258.834 41.5413 259.482 41.9253 259.914C42.3213 260.334 42.8793 260.544 43.5993 260.544C44.1273 260.544 44.5833 260.436 44.9673 260.22C45.3633 260.004 45.6693 259.68 45.8853 259.248C46.1133 258.816 46.2273 258.282 46.2273 257.646V252.786H48.4773V262.398H46.3353V259.806L46.7133 260.598C46.3893 261.222 45.9153 261.702 45.2913 262.038C44.6673 262.362 43.9833 262.524 43.2393 262.524ZM51.4233 262.398V252.786H53.5653V255.432L53.3133 254.658C53.6013 254.01 54.0513 253.518 54.6633 253.182C55.2873 252.846 56.0613 252.678 56.9853 252.678V254.82C56.8893 254.796 56.7993 254.784 56.7153 254.784C56.6313 254.772 56.5473 254.766 56.4633 254.766C55.6113 254.766 54.9333 255.018 54.4293 255.522C53.9253 256.014 53.6733 256.752 53.6733 257.736V262.398H51.4233ZM64.1304 262.398V260.454L64.0044 260.04V256.638C64.0044 255.978 63.8064 255.468 63.4104 255.108C63.0144 254.736 62.4144 254.55 61.6104 254.55C61.0704 254.55 60.5364 254.634 60.0084 254.802C59.4924 254.97 59.0544 255.204 58.6944 255.504L57.8124 253.866C58.3284 253.47 58.9404 253.176 59.6484 252.984C60.3684 252.78 61.1124 252.678 61.8804 252.678C63.2724 252.678 64.3464 253.014 65.1024 253.686C65.8704 254.346 66.2544 255.372 66.2544 256.764V262.398H64.1304ZM61.1064 262.524C60.3864 262.524 59.7564 262.404 59.2164 262.164C58.6764 261.912 58.2564 261.57 57.9564 261.138C57.6684 260.694 57.5244 260.196 57.5244 259.644C57.5244 259.104 57.6504 258.618 57.9024 258.186C58.1664 257.754 58.5924 257.412 59.1804 257.16C59.7684 256.908 60.5484 256.782 61.5204 256.782H64.3104V258.276H61.6824C60.9144 258.276 60.3984 258.402 60.1344 258.654C59.8704 258.894 59.7384 259.194 59.7384 259.554C59.7384 259.962 59.9004 260.286 60.2244 260.526C60.5484 260.766 60.9984 260.886 61.5744 260.886C62.1264 260.886 62.6184 260.76 63.0504 260.508C63.4944 260.256 63.8124 259.884 64.0044 259.392L64.3824 260.742C64.1664 261.306 63.7764 261.744 63.2124 262.056C62.6604 262.368 61.9584 262.524 61.1064 262.524ZM74.47 262.524C73.654 262.524 72.928 262.344 72.292 261.984C71.656 261.624 71.152 261.084 70.78 260.364C70.42 259.632 70.24 258.708 70.24 257.592C70.24 256.464 70.426 255.54 70.798 254.82C71.182 254.1 71.692 253.566 72.328 253.218C72.976 252.858 73.69 252.678 74.47 252.678C75.418 252.678 76.252 252.882 76.972 253.29C77.704 253.698 78.28 254.268 78.7 255C79.132 255.732 79.348 256.596 79.348 257.592C79.348 258.588 79.132 259.452 78.7 260.184C78.28 260.916 77.704 261.492 76.972 261.912C76.252 262.32 75.418 262.524 74.47 262.524ZM69.142 262.398V249.042H71.392V255.018L71.212 257.574L71.284 260.13V262.398H69.142ZM74.218 260.598C74.758 260.598 75.238 260.478 75.658 260.238C76.09 259.998 76.432 259.65 76.684 259.194C76.936 258.738 77.062 258.204 77.062 257.592C77.062 256.968 76.936 256.434 76.684 255.99C76.432 255.534 76.09 255.186 75.658 254.946C75.238 254.706 74.758 254.586 74.218 254.586C73.678 254.586 73.192 254.706 72.76 254.946C72.328 255.186 71.986 255.534 71.734 255.99C71.482 256.434 71.356 256.968 71.356 257.592C71.356 258.204 71.482 258.738 71.734 259.194C71.986 259.65 72.328 259.998 72.76 260.238C73.192 260.478 73.678 260.598 74.218 260.598ZM81.4819 262.398V249.042H83.7319V262.398H81.4819ZM91.203 262.524C90.135 262.524 89.199 262.314 88.395 261.894C87.603 261.462 86.985 260.874 86.541 260.13C86.109 259.386 85.893 258.54 85.893 257.592C85.893 256.632 86.103 255.786 86.523 255.054C86.955 254.31 87.543 253.728 88.287 253.308C89.043 252.888 89.901 252.678 90.861 252.678C91.797 252.678 92.631 252.882 93.363 253.29C94.095 253.698 94.671 254.274 95.091 255.018C95.511 255.762 95.721 256.638 95.721 257.646C95.721 257.742 95.715 257.85 95.703 257.97C95.703 258.09 95.697 258.204 95.685 258.312H87.675V256.818H94.497L93.615 257.286C93.627 256.734 93.513 256.248 93.273 255.828C93.033 255.408 92.703 255.078 92.283 254.838C91.875 254.598 91.401 254.478 90.861 254.478C90.309 254.478 89.823 254.598 89.403 254.838C88.995 255.078 88.671 255.414 88.431 255.846C88.203 256.266 88.089 256.764 88.089 257.34V257.7C88.089 258.276 88.221 258.786 88.485 259.23C88.749 259.674 89.121 260.016 89.601 260.256C90.081 260.496 90.633 260.616 91.257 260.616C91.797 260.616 92.283 260.532 92.715 260.364C93.147 260.196 93.531 259.932 93.867 259.572L95.073 260.958C94.641 261.462 94.095 261.852 93.435 262.128C92.787 262.392 92.043 262.524 91.203 262.524ZM108.779 262.398V260.454L108.653 260.04V256.638C108.653 255.978 108.455 255.468 108.059 255.108C107.663 254.736 107.063 254.55 106.259 254.55C105.719 254.55 105.185 254.634 104.657 254.802C104.141 254.97 103.703 255.204 103.343 255.504L102.461 253.866C102.977 253.47 103.589 253.176 104.297 252.984C105.017 252.78 105.761 252.678 106.529 252.678C107.921 252.678 108.995 253.014 109.751 253.686C110.519 254.346 110.903 255.372 110.903 256.764V262.398H108.779ZM105.755 262.524C105.035 262.524 104.405 262.404 103.865 262.164C103.325 261.912 102.905 261.57 102.605 261.138C102.317 260.694 102.173 260.196 102.173 259.644C102.173 259.104 102.299 258.618 102.551 258.186C102.815 257.754 103.241 257.412 103.829 257.16C104.417 256.908 105.197 256.782 106.169 256.782H108.959V258.276H106.331C105.563 258.276 105.047 258.402 104.783 258.654C104.519 258.894 104.387 259.194 104.387 259.554C104.387 259.962 104.549 260.286 104.873 260.526C105.197 260.766 105.647 260.886 106.223 260.886C106.775 260.886 107.267 260.76 107.699 260.508C108.143 260.256 108.461 259.884 108.653 259.392L109.031 260.742C108.815 261.306 108.425 261.744 107.861 262.056C107.309 262.368 106.607 262.524 105.755 262.524ZM119.244 252.678C120.012 252.678 120.696 252.828 121.296 253.128C121.908 253.428 122.388 253.89 122.736 254.514C123.084 255.126 123.258 255.918 123.258 256.89V262.398H121.008V257.178C121.008 256.326 120.804 255.69 120.396 255.27C120 254.85 119.442 254.64 118.722 254.64C118.194 254.64 117.726 254.748 117.318 254.964C116.91 255.18 116.592 255.504 116.364 255.936C116.148 256.356 116.04 256.89 116.04 257.538V262.398H113.79V252.786H115.932V255.378L115.554 254.586C115.89 253.974 116.376 253.506 117.012 253.182C117.66 252.846 118.404 252.678 119.244 252.678ZM130.198 262.524C129.274 262.524 128.44 262.32 127.696 261.912C126.964 261.492 126.388 260.916 125.968 260.184C125.548 259.452 125.338 258.588 125.338 257.592C125.338 256.596 125.548 255.732 125.968 255C126.388 254.268 126.964 253.698 127.696 253.29C128.44 252.882 129.274 252.678 130.198 252.678C131.002 252.678 131.722 252.858 132.358 253.218C132.994 253.566 133.498 254.1 133.87 254.82C134.242 255.54 134.428 256.464 134.428 257.592C134.428 258.708 134.248 259.632 133.888 260.364C133.528 261.084 133.03 261.624 132.394 261.984C131.758 262.344 131.026 262.524 130.198 262.524ZM130.468 260.598C131.008 260.598 131.488 260.478 131.908 260.238C132.34 259.998 132.682 259.65 132.934 259.194C133.198 258.738 133.33 258.204 133.33 257.592C133.33 256.968 133.198 256.434 132.934 255.99C132.682 255.534 132.34 255.186 131.908 254.946C131.488 254.706 131.008 254.586 130.468 254.586C129.928 254.586 129.442 254.706 129.01 254.946C128.59 255.186 128.248 255.534 127.984 255.99C127.732 256.434 127.606 256.968 127.606 257.592C127.606 258.204 127.732 258.738 127.984 259.194C128.248 259.65 128.59 259.998 129.01 260.238C129.442 260.478 129.928 260.598 130.468 260.598ZM133.384 262.398V260.13L133.474 257.574L133.294 255.018V249.042H135.526V262.398H133.384ZM149.384 262.398V260.454L149.258 260.04V256.638C149.258 255.978 149.06 255.468 148.664 255.108C148.268 254.736 147.668 254.55 146.864 254.55C146.324 254.55 145.79 254.634 145.262 254.802C144.746 254.97 144.308 255.204 143.948 255.504L143.066 253.866C143.582 253.47 144.194 253.176 144.902 252.984C145.622 252.78 146.366 252.678 147.134 252.678C148.526 252.678 149.6 253.014 150.356 253.686C151.124 254.346 151.508 255.372 151.508 256.764V262.398H149.384ZM146.36 262.524C145.64 262.524 145.01 262.404 144.47 262.164C143.93 261.912 143.51 261.57 143.21 261.138C142.922 260.694 142.778 260.196 142.778 259.644C142.778 259.104 142.904 258.618 143.156 258.186C143.42 257.754 143.846 257.412 144.434 257.16C145.022 256.908 145.802 256.782 146.774 256.782H149.564V258.276H146.936C146.168 258.276 145.652 258.402 145.388 258.654C145.124 258.894 144.992 259.194 144.992 259.554C144.992 259.962 145.154 260.286 145.478 260.526C145.802 260.766 146.252 260.886 146.828 260.886C147.38 260.886 147.872 260.76 148.304 260.508C148.748 260.256 149.066 259.884 149.258 259.392L149.636 260.742C149.42 261.306 149.03 261.744 148.466 262.056C147.914 262.368 147.212 262.524 146.36 262.524ZM154.396 262.398V252.786H156.538V255.432L156.286 254.658C156.574 254.01 157.024 253.518 157.636 253.182C158.26 252.846 159.034 252.678 159.958 252.678V254.82C159.862 254.796 159.772 254.784 159.688 254.784C159.604 254.772 159.52 254.766 159.436 254.766C158.584 254.766 157.906 255.018 157.402 255.522C156.898 256.014 156.646 256.752 156.646 257.736V262.398H154.396ZM166.297 262.524C165.229 262.524 164.293 262.314 163.489 261.894C162.697 261.462 162.079 260.874 161.635 260.13C161.203 259.386 160.987 258.54 160.987 257.592C160.987 256.632 161.197 255.786 161.617 255.054C162.049 254.31 162.637 253.728 163.381 253.308C164.137 252.888 164.995 252.678 165.955 252.678C166.891 252.678 167.725 252.882 168.457 253.29C169.189 253.698 169.765 254.274 170.185 255.018C170.605 255.762 170.815 256.638 170.815 257.646C170.815 257.742 170.809 257.85 170.797 257.97C170.797 258.09 170.791 258.204 170.779 258.312H162.769V256.818H169.591L168.709 257.286C168.721 256.734 168.607 256.248 168.367 255.828C168.127 255.408 167.797 255.078 167.377 254.838C166.969 254.598 166.495 254.478 165.955 254.478C165.403 254.478 164.917 254.598 164.497 254.838C164.089 255.078 163.765 255.414 163.525 255.846C163.297 256.266 163.183 256.764 163.183 257.34V257.7C163.183 258.276 163.315 258.786 163.579 259.23C163.843 259.674 164.215 260.016 164.695 260.256C165.175 260.496 165.727 260.616 166.351 260.616C166.891 260.616 167.377 260.532 167.809 260.364C168.241 260.196 168.625 259.932 168.961 259.572L170.167 260.958C169.735 261.462 169.189 261.852 168.529 262.128C167.881 262.392 167.137 262.524 166.297 262.524ZM177.951 262.398V252.786H180.093V255.432L179.841 254.658C180.129 254.01 180.579 253.518 181.191 253.182C181.815 252.846 182.589 252.678 183.513 252.678V254.82C183.417 254.796 183.327 254.784 183.243 254.784C183.159 254.772 183.075 254.766 182.991 254.766C182.139 254.766 181.461 255.018 180.957 255.522C180.453 256.014 180.201 256.752 180.201 257.736V262.398H177.951ZM189.851 262.524C188.783 262.524 187.847 262.314 187.043 261.894C186.251 261.462 185.633 260.874 185.189 260.13C184.757 259.386 184.541 258.54 184.541 257.592C184.541 256.632 184.751 255.786 185.171 255.054C185.603 254.31 186.191 253.728 186.935 253.308C187.691 252.888 188.549 252.678 189.509 252.678C190.445 252.678 191.279 252.882 192.011 253.29C192.743 253.698 193.319 254.274 193.739 255.018C194.159 255.762 194.369 256.638 194.369 257.646C194.369 257.742 194.363 257.85 194.351 257.97C194.351 258.09 194.345 258.204 194.333 258.312H186.323V256.818H193.145L192.263 257.286C192.275 256.734 192.161 256.248 191.921 255.828C191.681 255.408 191.351 255.078 190.931 254.838C190.523 254.598 190.049 254.478 189.509 254.478C188.957 254.478 188.471 254.598 188.051 254.838C187.643 255.078 187.319 255.414 187.079 255.846C186.851 256.266 186.737 256.764 186.737 257.34V257.7C186.737 258.276 186.869 258.786 187.133 259.23C187.397 259.674 187.769 260.016 188.249 260.256C188.729 260.496 189.281 260.616 189.905 260.616C190.445 260.616 190.931 260.532 191.363 260.364C191.795 260.196 192.179 259.932 192.515 259.572L193.721 260.958C193.289 261.462 192.743 261.852 192.083 262.128C191.435 262.392 190.691 262.524 189.851 262.524ZM200.941 262.524C199.933 262.524 199.033 262.314 198.241 261.894C197.461 261.462 196.849 260.874 196.405 260.13C195.961 259.386 195.739 258.54 195.739 257.592C195.739 256.632 195.961 255.786 196.405 255.054C196.849 254.31 197.461 253.728 198.241 253.308C199.033 252.888 199.933 252.678 200.941 252.678C201.877 252.678 202.699 252.87 203.407 253.254C204.127 253.626 204.673 254.178 205.045 254.91L203.317 255.918C203.029 255.462 202.675 255.126 202.255 254.91C201.847 254.694 201.403 254.586 200.923 254.586C200.371 254.586 199.873 254.706 199.429 254.946C198.985 255.186 198.637 255.534 198.385 255.99C198.133 256.434 198.007 256.968 198.007 257.592C198.007 258.216 198.133 258.756 198.385 259.212C198.637 259.656 198.985 259.998 199.429 260.238C199.873 260.478 200.371 260.598 200.923 260.598C201.403 260.598 201.847 260.49 202.255 260.274C202.675 260.058 203.029 259.722 203.317 259.266L205.045 260.274C204.673 260.994 204.127 261.552 203.407 261.948C202.699 262.332 201.877 262.524 200.941 262.524ZM207.659 266.016C207.191 266.016 206.723 265.938 206.255 265.782C205.787 265.626 205.397 265.41 205.085 265.134L205.985 263.478C206.213 263.682 206.471 263.844 206.759 263.964C207.047 264.084 207.341 264.144 207.641 264.144C208.049 264.144 208.379 264.042 208.631 263.838C208.883 263.634 209.117 263.292 209.333 262.812L209.891 261.552L210.071 261.282L213.707 252.786H215.867L211.367 263.172C211.067 263.892 210.731 264.462 210.359 264.882C209.999 265.302 209.591 265.596 209.135 265.764C208.691 265.932 208.199 266.016 207.659 266.016ZM209.639 262.74L205.301 252.786H207.641L211.169 261.084L209.639 262.74ZM221.419 262.524C220.411 262.524 219.511 262.314 218.719 261.894C217.939 261.462 217.327 260.874 216.883 260.13C216.439 259.386 216.217 258.54 216.217 257.592C216.217 256.632 216.439 255.786 216.883 255.054C217.327 254.31 217.939 253.728 218.719 253.308C219.511 252.888 220.411 252.678 221.419 252.678C222.355 252.678 223.177 252.87 223.885 253.254C224.605 253.626 225.151 254.178 225.523 254.91L223.795 255.918C223.507 255.462 223.153 255.126 222.733 254.91C222.325 254.694 221.881 254.586 221.401 254.586C220.849 254.586 220.351 254.706 219.907 254.946C219.463 255.186 219.115 255.534 218.863 255.99C218.611 256.434 218.485 256.968 218.485 257.592C218.485 258.216 218.611 258.756 218.863 259.212C219.115 259.656 219.463 259.998 219.907 260.238C220.351 260.478 220.849 260.598 221.401 260.598C221.881 260.598 222.325 260.49 222.733 260.274C223.153 260.058 223.507 259.722 223.795 259.266L225.523 260.274C225.151 260.994 224.605 261.552 223.885 261.948C223.177 262.332 222.355 262.524 221.419 262.524ZM227.38 262.398V249.042H229.63V262.398H227.38ZM237.101 262.524C236.033 262.524 235.097 262.314 234.293 261.894C233.501 261.462 232.883 260.874 232.439 260.13C232.007 259.386 231.791 258.54 231.791 257.592C231.791 256.632 232.001 255.786 232.421 255.054C232.853 254.31 233.441 253.728 234.185 253.308C234.941 252.888 235.799 252.678 236.759 252.678C237.695 252.678 238.529 252.882 239.261 253.29C239.993 253.698 240.569 254.274 240.989 255.018C241.409 255.762 241.619 256.638 241.619 257.646C241.619 257.742 241.613 257.85 241.601 257.97C241.601 258.09 241.595 258.204 241.583 258.312H233.573V256.818H240.395L239.513 257.286C239.525 256.734 239.411 256.248 239.171 255.828C238.931 255.408 238.601 255.078 238.181 254.838C237.773 254.598 237.299 254.478 236.759 254.478C236.207 254.478 235.721 254.598 235.301 254.838C234.893 255.078 234.569 255.414 234.329 255.846C234.101 256.266 233.987 256.764 233.987 257.34V257.7C233.987 258.276 234.119 258.786 234.383 259.23C234.647 259.674 235.019 260.016 235.499 260.256C235.979 260.496 236.531 260.616 237.155 260.616C237.695 260.616 238.181 260.532 238.613 260.364C239.045 260.196 239.429 259.932 239.765 259.572L240.971 260.958C240.539 261.462 239.993 261.852 239.333 262.128C238.685 262.392 237.941 262.524 237.101 262.524ZM247.849 262.524C246.925 262.524 246.091 262.32 245.347 261.912C244.615 261.492 244.039 260.916 243.619 260.184C243.199 259.452 242.989 258.588 242.989 257.592C242.989 256.596 243.199 255.732 243.619 255C244.039 254.268 244.615 253.698 245.347 253.29C246.091 252.882 246.925 252.678 247.849 252.678C248.653 252.678 249.373 252.858 250.009 253.218C250.645 253.566 251.149 254.1 251.521 254.82C251.893 255.54 252.079 256.464 252.079 257.592C252.079 258.708 251.899 259.632 251.539 260.364C251.179 261.084 250.681 261.624 250.045 261.984C249.409 262.344 248.677 262.524 247.849 262.524ZM248.119 260.598C248.659 260.598 249.139 260.478 249.559 260.238C249.991 259.998 250.333 259.65 250.585 259.194C250.849 258.738 250.981 258.204 250.981 257.592C250.981 256.968 250.849 256.434 250.585 255.99C250.333 255.534 249.991 255.186 249.559 254.946C249.139 254.706 248.659 254.586 248.119 254.586C247.579 254.586 247.093 254.706 246.661 254.946C246.241 255.186 245.899 255.534 245.635 255.99C245.383 256.434 245.257 256.968 245.257 257.592C245.257 258.204 245.383 258.738 245.635 259.194C245.899 259.65 246.241 259.998 246.661 260.238C247.093 260.478 247.579 260.598 248.119 260.598ZM251.035 262.398V260.13L251.125 257.574L250.945 255.018V249.042H253.177V262.398H251.035ZM45.2239 288.524C44.1679 288.524 43.3519 288.254 42.7759 287.714C42.1999 287.162 41.9119 286.352 41.9119 285.284V276.662H44.1619V285.23C44.1619 285.686 44.2759 286.04 44.5039 286.292C44.7439 286.544 45.0739 286.67 45.4939 286.67C45.9979 286.67 46.4179 286.538 46.7539 286.274L47.3839 287.876C47.1199 288.092 46.7959 288.254 46.4119 288.362C46.0279 288.47 45.6319 288.524 45.2239 288.524ZM40.3279 280.658V278.858H46.7359V280.658H40.3279ZM53.2384 288.524C52.2544 288.524 51.3784 288.314 50.6104 287.894C49.8424 287.462 49.2364 286.874 48.7924 286.13C48.3484 285.386 48.1264 284.54 48.1264 283.592C48.1264 282.632 48.3484 281.786 48.7924 281.054C49.2364 280.31 49.8424 279.728 50.6104 279.308C51.3784 278.888 52.2544 278.678 53.2384 278.678C54.2344 278.678 55.1164 278.888 55.8844 279.308C56.6644 279.728 57.2704 280.304 57.7024 281.036C58.1464 281.768 58.3684 282.62 58.3684 283.592C58.3684 284.54 58.1464 285.386 57.7024 286.13C57.2704 286.874 56.6644 287.462 55.8844 287.894C55.1164 288.314 54.2344 288.524 53.2384 288.524ZM53.2384 286.598C53.7904 286.598 54.2824 286.478 54.7144 286.238C55.1464 285.998 55.4824 285.65 55.7224 285.194C55.9744 284.738 56.1004 284.204 56.1004 283.592C56.1004 282.968 55.9744 282.434 55.7224 281.99C55.4824 281.534 55.1464 281.186 54.7144 280.946C54.2824 280.706 53.7964 280.586 53.2564 280.586C52.7044 280.586 52.2124 280.706 51.7804 280.946C51.3604 281.186 51.0244 281.534 50.7724 281.99C50.5204 282.434 50.3944 282.968 50.3944 283.592C50.3944 284.204 50.5204 284.738 50.7724 285.194C51.0244 285.65 51.3604 285.998 51.7804 286.238C52.2124 286.478 52.6984 286.598 53.2384 286.598ZM70.0126 288.524C68.9446 288.524 68.0086 288.314 67.2046 287.894C66.4126 287.462 65.7946 286.874 65.3506 286.13C64.9186 285.386 64.7026 284.54 64.7026 283.592C64.7026 282.632 64.9126 281.786 65.3326 281.054C65.7646 280.31 66.3526 279.728 67.0966 279.308C67.8526 278.888 68.7106 278.678 69.6706 278.678C70.6066 278.678 71.4406 278.882 72.1726 279.29C72.9046 279.698 73.4806 280.274 73.9006 281.018C74.3206 281.762 74.5306 282.638 74.5306 283.646C74.5306 283.742 74.5246 283.85 74.5126 283.97C74.5126 284.09 74.5066 284.204 74.4946 284.312H66.4846V282.818H73.3066L72.4246 283.286C72.4366 282.734 72.3226 282.248 72.0826 281.828C71.8426 281.408 71.5126 281.078 71.0926 280.838C70.6846 280.598 70.2106 280.478 69.6706 280.478C69.1186 280.478 68.6326 280.598 68.2126 280.838C67.8046 281.078 67.4806 281.414 67.2406 281.846C67.0126 282.266 66.8986 282.764 66.8986 283.34V283.7C66.8986 284.276 67.0306 284.786 67.2946 285.23C67.5586 285.674 67.9306 286.016 68.4106 286.256C68.8906 286.496 69.4426 286.616 70.0666 286.616C70.6066 286.616 71.0926 286.532 71.5246 286.364C71.9566 286.196 72.3406 285.932 72.6766 285.572L73.8826 286.958C73.4506 287.462 72.9046 287.852 72.2446 288.128C71.5966 288.392 70.8526 288.524 70.0126 288.524ZM76.6918 288.398V275.042H78.9418V288.398H76.6918ZM81.8949 288.398V278.786H84.1449V288.398H81.8949ZM83.0289 277.202C82.6089 277.202 82.2609 277.07 81.9849 276.806C81.7209 276.542 81.5889 276.224 81.5889 275.852C81.5889 275.468 81.7209 275.15 81.9849 274.898C82.2609 274.634 82.6089 274.502 83.0289 274.502C83.4489 274.502 83.7909 274.628 84.0549 274.88C84.3309 275.12 84.4689 275.426 84.4689 275.798C84.4689 276.194 84.3369 276.53 84.0729 276.806C83.8089 277.07 83.4609 277.202 83.0289 277.202ZM99.2301 278.678C99.9981 278.678 100.676 278.828 101.264 279.128C101.864 279.428 102.332 279.89 102.668 280.514C103.004 281.126 103.172 281.918 103.172 282.89V288.398H100.922V283.178C100.922 282.326 100.736 281.69 100.364 281.27C99.9921 280.85 99.4581 280.64 98.7621 280.64C98.2701 280.64 97.8321 280.748 97.4481 280.964C97.0761 281.18 96.7821 281.498 96.5661 281.918C96.3621 282.338 96.2601 282.872 96.2601 283.52V288.398H94.0101V283.178C94.0101 282.326 93.8241 281.69 93.4521 281.27C93.0801 280.85 92.5461 280.64 91.8501 280.64C91.3581 280.64 90.9201 280.748 90.5361 280.964C90.1641 281.18 89.8701 281.498 89.6541 281.918C89.4501 282.338 89.3481 282.872 89.3481 283.52V288.398H87.0981V278.786H89.2401V281.342L88.8621 280.586C89.1861 279.962 89.6541 279.488 90.2661 279.164C90.8901 278.84 91.5981 278.678 92.3901 278.678C93.2901 278.678 94.0701 278.9 94.7301 279.344C95.4021 279.788 95.8461 280.46 96.0621 281.36L95.1801 281.054C95.4921 280.334 96.0081 279.758 96.7281 279.326C97.4481 278.894 98.2821 278.678 99.2301 278.678ZM106.047 288.398V278.786H108.297V288.398H106.047ZM107.181 277.202C106.761 277.202 106.413 277.07 106.137 276.806C105.873 276.542 105.741 276.224 105.741 275.852C105.741 275.468 105.873 275.15 106.137 274.898C106.413 274.634 106.761 274.502 107.181 274.502C107.601 274.502 107.943 274.628 108.207 274.88C108.483 275.12 108.621 275.426 108.621 275.798C108.621 276.194 108.489 276.53 108.225 276.806C107.961 277.07 107.613 277.202 107.181 277.202ZM116.704 278.678C117.472 278.678 118.156 278.828 118.756 279.128C119.368 279.428 119.848 279.89 120.196 280.514C120.544 281.126 120.718 281.918 120.718 282.89V288.398H118.468V283.178C118.468 282.326 118.264 281.69 117.856 281.27C117.46 280.85 116.902 280.64 116.182 280.64C115.654 280.64 115.186 280.748 114.778 280.964C114.37 281.18 114.052 281.504 113.824 281.936C113.608 282.356 113.5 282.89 113.5 283.538V288.398H111.25V278.786H113.392V281.378L113.014 280.586C113.35 279.974 113.836 279.506 114.472 279.182C115.12 278.846 115.864 278.678 116.704 278.678ZM129.495 288.398V286.454L129.369 286.04V282.638C129.369 281.978 129.171 281.468 128.775 281.108C128.379 280.736 127.779 280.55 126.975 280.55C126.435 280.55 125.901 280.634 125.373 280.802C124.857 280.97 124.419 281.204 124.059 281.504L123.177 279.866C123.693 279.47 124.305 279.176 125.013 278.984C125.733 278.78 126.477 278.678 127.245 278.678C128.637 278.678 129.711 279.014 130.467 279.686C131.235 280.346 131.619 281.372 131.619 282.764V288.398H129.495ZM126.471 288.524C125.751 288.524 125.121 288.404 124.581 288.164C124.041 287.912 123.621 287.57 123.321 287.138C123.033 286.694 122.889 286.196 122.889 285.644C122.889 285.104 123.015 284.618 123.267 284.186C123.531 283.754 123.957 283.412 124.545 283.16C125.133 282.908 125.913 282.782 126.885 282.782H129.675V284.276H127.047C126.279 284.276 125.763 284.402 125.499 284.654C125.235 284.894 125.103 285.194 125.103 285.554C125.103 285.962 125.265 286.286 125.589 286.526C125.913 286.766 126.363 286.886 126.939 286.886C127.491 286.886 127.983 286.76 128.415 286.508C128.859 286.256 129.177 285.884 129.369 285.392L129.747 286.742C129.531 287.306 129.141 287.744 128.577 288.056C128.025 288.368 127.323 288.524 126.471 288.524ZM138.124 288.524C137.068 288.524 136.252 288.254 135.676 287.714C135.1 287.162 134.812 286.352 134.812 285.284V276.662H137.062V285.23C137.062 285.686 137.176 286.04 137.404 286.292C137.644 286.544 137.974 286.67 138.394 286.67C138.898 286.67 139.318 286.538 139.654 286.274L140.284 287.876C140.02 288.092 139.696 288.254 139.312 288.362C138.928 288.47 138.532 288.524 138.124 288.524ZM133.228 280.658V278.858H139.636V280.658H133.228ZM146.337 288.524C145.269 288.524 144.333 288.314 143.529 287.894C142.737 287.462 142.119 286.874 141.675 286.13C141.243 285.386 141.027 284.54 141.027 283.592C141.027 282.632 141.237 281.786 141.657 281.054C142.089 280.31 142.677 279.728 143.421 279.308C144.177 278.888 145.035 278.678 145.995 278.678C146.931 278.678 147.765 278.882 148.497 279.29C149.229 279.698 149.805 280.274 150.225 281.018C150.645 281.762 150.855 282.638 150.855 283.646C150.855 283.742 150.849 283.85 150.837 283.97C150.837 284.09 150.831 284.204 150.819 284.312H142.809V282.818H149.631L148.749 283.286C148.761 282.734 148.647 282.248 148.407 281.828C148.167 281.408 147.837 281.078 147.417 280.838C147.009 280.598 146.535 280.478 145.995 280.478C145.443 280.478 144.957 280.598 144.537 280.838C144.129 281.078 143.805 281.414 143.565 281.846C143.337 282.266 143.223 282.764 143.223 283.34V283.7C143.223 284.276 143.355 284.786 143.619 285.23C143.883 285.674 144.255 286.016 144.735 286.256C145.215 286.496 145.767 286.616 146.391 286.616C146.931 286.616 147.417 286.532 147.849 286.364C148.281 286.196 148.665 285.932 149.001 285.572L150.207 286.958C149.775 287.462 149.229 287.852 148.569 288.128C147.921 288.392 147.177 288.524 146.337 288.524ZM163.319 288.524C162.539 288.524 161.825 288.344 161.177 287.984C160.541 287.624 160.031 287.084 159.647 286.364C159.275 285.632 159.089 284.708 159.089 283.592C159.089 282.464 159.269 281.54 159.629 280.82C160.001 280.1 160.505 279.566 161.141 279.218C161.777 278.858 162.503 278.678 163.319 278.678C164.267 278.678 165.101 278.882 165.821 279.29C166.553 279.698 167.129 280.268 167.549 281C167.981 281.732 168.197 282.596 168.197 283.592C168.197 284.588 167.981 285.458 167.549 286.202C167.129 286.934 166.553 287.504 165.821 287.912C165.101 288.32 164.267 288.524 163.319 288.524ZM157.991 291.89V278.786H160.133V281.054L160.061 283.61L160.241 286.166V291.89H157.991ZM163.067 286.598C163.607 286.598 164.087 286.478 164.507 286.238C164.939 285.998 165.281 285.65 165.533 285.194C165.785 284.738 165.911 284.204 165.911 283.592C165.911 282.968 165.785 282.434 165.533 281.99C165.281 281.534 164.939 281.186 164.507 280.946C164.087 280.706 163.607 280.586 163.067 280.586C162.527 280.586 162.041 280.706 161.609 280.946C161.177 281.186 160.835 281.534 160.583 281.99C160.331 282.434 160.205 282.968 160.205 283.592C160.205 284.204 160.331 284.738 160.583 285.194C160.835 285.65 161.177 285.998 161.609 286.238C162.041 286.478 162.527 286.598 163.067 286.598ZM174.65 288.524C173.666 288.524 172.79 288.314 172.022 287.894C171.254 287.462 170.648 286.874 170.204 286.13C169.76 285.386 169.538 284.54 169.538 283.592C169.538 282.632 169.76 281.786 170.204 281.054C170.648 280.31 171.254 279.728 172.022 279.308C172.79 278.888 173.666 278.678 174.65 278.678C175.646 278.678 176.528 278.888 177.296 279.308C178.076 279.728 178.682 280.304 179.114 281.036C179.558 281.768 179.78 282.62 179.78 283.592C179.78 284.54 179.558 285.386 179.114 286.13C178.682 286.874 178.076 287.462 177.296 287.894C176.528 288.314 175.646 288.524 174.65 288.524ZM174.65 286.598C175.202 286.598 175.694 286.478 176.126 286.238C176.558 285.998 176.894 285.65 177.134 285.194C177.386 284.738 177.512 284.204 177.512 283.592C177.512 282.968 177.386 282.434 177.134 281.99C176.894 281.534 176.558 281.186 176.126 280.946C175.694 280.706 175.208 280.586 174.668 280.586C174.116 280.586 173.624 280.706 173.192 280.946C172.772 281.186 172.436 281.534 172.184 281.99C171.932 282.434 171.806 282.968 171.806 283.592C171.806 284.204 171.932 284.738 172.184 285.194C172.436 285.65 172.772 285.998 173.192 286.238C173.624 286.478 174.11 286.598 174.65 286.598ZM181.932 288.398V275.042H184.182V288.398H181.932ZM187.135 288.398V275.042H189.385V288.398H187.135ZM196.406 288.524C195.59 288.524 194.87 288.374 194.246 288.074C193.622 287.762 193.136 287.294 192.788 286.67C192.44 286.034 192.266 285.236 192.266 284.276V278.786H194.516V283.97C194.516 284.834 194.708 285.482 195.092 285.914C195.488 286.334 196.046 286.544 196.766 286.544C197.294 286.544 197.75 286.436 198.134 286.22C198.53 286.004 198.836 285.68 199.052 285.248C199.28 284.816 199.394 284.282 199.394 283.646V278.786H201.644V288.398H199.502V285.806L199.88 286.598C199.556 287.222 199.082 287.702 198.458 288.038C197.834 288.362 197.15 288.524 196.406 288.524ZM208.208 288.524C207.152 288.524 206.336 288.254 205.76 287.714C205.184 287.162 204.896 286.352 204.896 285.284V276.662H207.146V285.23C207.146 285.686 207.26 286.04 207.488 286.292C207.728 286.544 208.058 286.67 208.478 286.67C208.982 286.67 209.402 286.538 209.738 286.274L210.368 287.876C210.104 288.092 209.78 288.254 209.396 288.362C209.012 288.47 208.616 288.524 208.208 288.524ZM203.312 280.658V278.858H209.72V280.658H203.312ZM212.219 288.398V278.786H214.469V288.398H212.219ZM213.353 277.202C212.933 277.202 212.585 277.07 212.309 276.806C212.045 276.542 211.913 276.224 211.913 275.852C211.913 275.468 212.045 275.15 212.309 274.898C212.585 274.634 212.933 274.502 213.353 274.502C213.773 274.502 214.115 274.628 214.379 274.88C214.655 275.12 214.793 275.426 214.793 275.798C214.793 276.194 214.661 276.53 214.397 276.806C214.133 277.07 213.785 277.202 213.353 277.202ZM221.742 288.524C220.758 288.524 219.882 288.314 219.114 287.894C218.346 287.462 217.74 286.874 217.296 286.13C216.852 285.386 216.63 284.54 216.63 283.592C216.63 282.632 216.852 281.786 217.296 281.054C217.74 280.31 218.346 279.728 219.114 279.308C219.882 278.888 220.758 278.678 221.742 278.678C222.738 278.678 223.62 278.888 224.388 279.308C225.168 279.728 225.774 280.304 226.206 281.036C226.65 281.768 226.872 282.62 226.872 283.592C226.872 284.54 226.65 285.386 226.206 286.13C225.774 286.874 225.168 287.462 224.388 287.894C223.62 288.314 222.738 288.524 221.742 288.524ZM221.742 286.598C222.294 286.598 222.786 286.478 223.218 286.238C223.65 285.998 223.986 285.65 224.226 285.194C224.478 284.738 224.604 284.204 224.604 283.592C224.604 282.968 224.478 282.434 224.226 281.99C223.986 281.534 223.65 281.186 223.218 280.946C222.786 280.706 222.3 280.586 221.76 280.586C221.208 280.586 220.716 280.706 220.284 280.946C219.864 281.186 219.528 281.534 219.276 281.99C219.024 282.434 218.898 282.968 218.898 283.592C218.898 284.204 219.024 284.738 219.276 285.194C219.528 285.65 219.864 285.998 220.284 286.238C220.716 286.478 221.202 286.598 221.742 286.598ZM234.478 278.678C235.246 278.678 235.93 278.828 236.53 279.128C237.142 279.428 237.622 279.89 237.97 280.514C238.318 281.126 238.492 281.918 238.492 282.89V288.398H236.242V283.178C236.242 282.326 236.038 281.69 235.63 281.27C235.234 280.85 234.676 280.64 233.956 280.64C233.428 280.64 232.96 280.748 232.552 280.964C232.144 281.18 231.826 281.504 231.598 281.936C231.382 282.356 231.274 282.89 231.274 283.538V288.398H229.024V278.786H231.166V281.378L230.788 280.586C231.124 279.974 231.61 279.506 232.246 279.182C232.894 278.846 233.638 278.678 234.478 278.678Z" fill="white"/>
<g clip-path="url(#clip0_310_717)">
<path fill-rule="evenodd" clip-rule="evenodd" d="M134.295 146.846C134.245 146.773 134.195 146.699 134.149 146.619C133.562 145.572 133.142 144.481 132.823 143.371H117.152C114.364 143.371 112.041 141.283 111.743 138.51L105.265 78.1214H166.477L163.86 102.083C165.089 102.315 166.267 102.692 167.383 103.206L170.124 78.125H175.75V74.5H154V69.0625C154 64.0636 149.933 60 144.937 60H126.812C121.817 60 117.75 64.0636 117.75 69.0625V74.5H96V78.125H101.622L108.14 138.902C108.633 143.516 112.508 146.996 117.152 146.996H134.396C134.364 146.945 134.33 146.895 134.295 146.846ZM150.375 74.5H121.375V69.0625C121.375 66.0646 123.815 63.625 126.812 63.625H144.937C147.935 63.625 150.375 66.0646 150.375 69.0625V74.5Z" fill="white"/>
<path d="M175.335 147.001C178.162 147.001 180.663 145.525 182.03 143.049L182.034 143.053C183.4 140.581 183.32 137.673 181.816 135.285L177.658 128.665L174.588 130.59L178.746 137.21C179.536 138.471 179.576 139.997 178.858 141.299C178.137 142.6 176.821 143.376 175.335 143.376H166.682V147.001H175.335Z" fill="#00A3FF"/>
<path d="M167.588 112.628L171.873 119.451L168.802 121.379L164.518 114.557C163.774 113.375 162.502 112.672 161.11 112.672H161.096C159.696 112.675 158.42 113.393 157.684 114.586L153.559 121.285L150.471 119.382L154.596 112.683C155.995 110.417 158.42 109.058 161.081 109.047C163.789 109.047 166.174 110.377 167.588 112.628Z" fill="#00A3FF"/>
<path d="M143.725 137.238C142.949 138.496 142.916 140.023 143.638 141.313C144.355 142.6 145.671 143.376 147.15 143.376H155.803V147.001H147.15C144.341 147.001 141.847 145.536 140.473 143.082C139.099 140.628 139.161 137.732 140.636 135.339L144.765 128.636L147.853 130.539L143.725 137.238Z" fill="#00A3FF"/>
</g>
<defs>
<clipPath id="clip0_310_717">
<rect width="87" height="87" fill="white" transform="translate(96 60)"/>
</clipPath>
</defs>
</svg>
