<svg width="34" height="34" viewBox="0 0 34 34" fill="none" xmlns="http://www.w3.org/2000/svg">
  <path d="M15.8518 0.53803C20.6286 0.214887 25.3049 1.96261 28.6778 5.3398C32.0507 8.71699 33.7914 13.3936 33.46 18.1734C32.855 26.9106 25.1386 33.5 15.5108 33.5H7.37498C3.58412 33.5 0.5 30.4157 0.5 26.6246V17.4666C0.501375 8.55885 7.24435 1.12244 15.8518 0.53803ZM23.8763 19.0617C25.0148 19.0617 25.9388 18.1376 25.9388 16.9991C25.9388 15.8605 25.0148 14.9365 23.8763 14.9365C22.7378 14.9365 21.8138 15.8605 21.8138 16.9991C21.8138 18.1376 22.7378 19.0617 23.8763 19.0617ZM17.0013 19.0617C18.1398 19.0617 19.0638 18.1376 19.0638 16.9991C19.0638 15.8605 18.1398 14.9365 17.0013 14.9365C15.8628 14.9365 14.9388 15.8605 14.9388 16.9991C14.9388 18.1376 15.8628 19.0617 17.0013 19.0617ZM10.1263 19.0617C11.2648 19.0617 12.1888 18.1376 12.1888 16.9991C12.1888 15.8605 11.2648 14.9365 10.1263 14.9365C8.98785 14.9365 8.06385 15.8605 8.06385 16.9991C8.06385 18.1376 8.98785 19.0617 10.1263 19.0617Z" fill="#000000"/>
</svg>
