<svg width="38" height="38" viewBox="0 0 38 38" fill="none" xmlns="http://www.w3.org/2000/svg">
  <path fillRule="evenodd" clipRule="evenodd" d="M25.7446 23.4171C27.5839 21.6477 30.5039 21.6461 32.3463 23.4063L32.3479 23.4094C32.3479 23.4094 36.0604 26.2639 36.1066 26.3117C37.9644 28.1705 37.9644 31.1961 36.1066 33.0564L34.7006 34.6748C32.8597 36.5244 30.4639 37.5 27.8845 37.5C16.1117 37.5 0.5 21.8927 0.5 10.1233C0.5 7.54467 1.47747 5.15103 3.25202 3.37852L5.02349 1.83259C6.8042 0.0446726 9.83528 0.0431312 11.6946 1.90503C11.7424 1.95281 14.5977 5.66274 14.5977 5.66274C16.3569 7.50615 16.3553 10.4238 14.5885 12.2611L12.1201 15.1849C14.368 20.2851 17.877 23.8009 22.8075 25.8924L25.7446 23.4171Z" fill="#000000"/>
</svg>
