<svg width="40" height="40" viewBox="0 0 40 40" fill="none" xmlns="http://www.w3.org/2000/svg">
<path id="Vector" d="M33.6824 24.0359C31.6501 22.1036 28.4403 22.1043 26.4101 24.0451L23.7219 26.3107C19.152 24.2979 15.8636 21.0058 13.705 16.2673L15.9604 13.5957C17.8956 11.5708 17.8992 8.3709 15.9782 6.33726L15.9619 6.31608L15.8711 6.19823L15.547 5.77724C15.2785 5.42864 14.92 4.96332 14.5601 4.49648C14.2001 4.0297 13.8385 3.56118 13.5638 3.20629C13.4265 3.02891 13.3106 2.87952 13.2274 2.7728C13.1859 2.71955 13.152 2.67624 13.1275 2.64517L13.0961 2.60577L13.0825 2.58918L13.0728 2.57791L13.0726 2.57768C13.0703 2.57494 13.0608 2.56416 13.0484 2.55172C13.0483 2.55162 13.0482 2.55152 13.0481 2.55143L12.6946 2.90503M33.6824 24.0359L35.7006 35.6748C33.8597 37.5244 31.4639 38.5 28.8845 38.5C17.1117 38.5 1.5 22.8927 1.5 11.1233C1.5 8.54467 2.47747 6.15103 4.25202 4.37852L6.02349 2.83259M33.6824 24.0359L33.6944 24.0451L33.8123 24.1358L34.2336 24.4599C34.5824 24.7283 35.048 25.0866 35.5151 25.4465C35.9821 25.8064 36.4508 26.1679 36.8058 26.4426C36.9832 26.5798 37.1326 26.6957 37.2393 26.779C37.2926 26.8205 37.336 26.8545 37.3671 26.8791C37.3768 26.8868 37.3858 26.8939 37.3938 26.9004C37.3985 26.9041 37.4029 26.9077 37.4069 26.9109L37.4242 26.9252L37.4364 26.9357L37.4366 26.9359C37.4392 26.9382 37.4487 26.9466 37.4603 26.9582C39.5091 29.0082 39.5131 32.3406 37.473 34.3972L36.078 36.0027L36.0669 36.0155L36.055 36.0275C34.119 37.9727 31.595 39 28.8845 39C22.8059 39 15.8394 34.9927 10.424 29.5788C5.00854 24.1649 1 17.2003 1 11.1233C1 8.41597 2.02743 5.89385 3.89867 4.02477L3.91058 4.01287L3.92326 4.0018L5.68191 2.46706M33.6824 24.0359L5.68191 2.46706M12.6946 2.90503C10.8353 1.04313 7.8042 1.04467 6.02349 2.83259M12.6946 2.90503C12.7424 2.95281 15.5977 6.66274 15.5977 6.66274L12.6946 2.90503ZM6.02349 2.83259L5.69473 2.45587L5.68191 2.46706M6.02349 2.83259L5.66922 2.47975C5.67344 2.47551 5.67767 2.47128 5.68191 2.46706" fill="#070707" stroke="#070707"/>
</svg>
