<svg width="352" height="61" viewBox="0 0 352 61" fill="none" xmlns="http://www.w3.org/2000/svg">
<rect x="0.5" y="1.02637" width="351" height="59" rx="29.5" fill="#FC581C"/>
<rect x="0.5" y="1.02637" width="351" height="59" rx="29.5" stroke="#FC581C"/>
<path d="M33.984 36.4584C34.96 36.4584 35.8 36.2984 36.504 35.9784C37.208 35.6424 37.944 35.1144 38.712 34.3944L40.536 36.2664C38.76 38.2344 36.6 39.2184 34.056 39.2184C31.528 39.2184 29.424 38.4024 27.744 36.7704C26.08 35.1384 25.248 33.0744 25.248 30.5784C25.248 28.0824 26.096 26.0024 27.792 24.3384C29.504 22.6744 31.656 21.8424 34.248 21.8424C36.856 21.8424 39.032 22.8024 40.776 24.7224L38.976 26.6904C38.176 25.9224 37.416 25.3864 36.696 25.0824C35.992 24.7784 35.16 24.6264 34.2 24.6264C32.504 24.6264 31.08 25.1784 29.928 26.2824C28.776 27.3704 28.2 28.7704 28.2 30.4824C28.2 32.1784 28.768 33.6024 29.904 34.7544C31.056 35.8904 32.416 36.4584 33.984 36.4584ZM53.9599 39.0264H51.5119V37.3224C50.4559 38.5864 49.0399 39.2184 47.2639 39.2184C45.9359 39.2184 44.8319 38.8424 43.9519 38.0904C43.0879 37.3384 42.6559 36.3384 42.6559 35.0904C42.6559 33.8264 43.1199 32.8824 44.0479 32.2584C44.9759 31.6344 46.2319 31.3224 47.8159 31.3224H51.2959V30.8424C51.2959 29.1464 50.3519 28.2984 48.4639 28.2984C47.2799 28.2984 46.0479 28.7304 44.7679 29.5944L43.5679 27.9144C45.1199 26.6824 46.8799 26.0664 48.8479 26.0664C50.3519 26.0664 51.5759 26.4504 52.5199 27.2184C53.4799 27.9704 53.9599 29.1624 53.9599 30.7944V39.0264ZM51.2719 34.2744V33.1944H48.2479C46.3119 33.1944 45.3439 33.8024 45.3439 35.0184C45.3439 35.6424 45.5839 36.1224 46.0639 36.4584C46.5439 36.7784 47.2079 36.9384 48.0559 36.9384C48.9199 36.9384 49.6719 36.6984 50.3119 36.2184C50.9519 35.7384 51.2719 35.0904 51.2719 34.2744ZM60.3898 39.0264H57.7018V21.2184H60.3898V39.0264ZM66.9758 39.0264H64.2878V21.2184H66.9758V39.0264ZM80.1476 32.1144V39.0264H77.4596V26.2584H80.1476V28.5864C80.5796 27.8024 81.1716 27.1864 81.9236 26.7384C82.6916 26.2904 83.5156 26.0664 84.3956 26.0664C85.8356 26.0664 86.9956 26.5064 87.8756 27.3864C88.7716 28.2664 89.2196 29.5384 89.2196 31.2024V39.0264H86.5316V32.0184C86.5316 29.6664 85.5556 28.4904 83.6036 28.4904C82.6756 28.4904 81.8676 28.8024 81.1796 29.4264C80.4916 30.0344 80.1476 30.9304 80.1476 32.1144ZM95.9513 35.6664C96.7193 36.4344 97.6873 36.8184 98.8553 36.8184C100.023 36.8184 100.983 36.4344 101.735 35.6664C102.503 34.8824 102.887 33.8744 102.887 32.6424C102.887 31.4104 102.503 30.4104 101.735 29.6424C100.983 28.8584 100.023 28.4664 98.8553 28.4664C97.6873 28.4664 96.7193 28.8584 95.9513 29.6424C95.1993 30.4104 94.8233 31.4104 94.8233 32.6424C94.8233 33.8744 95.1993 34.8824 95.9513 35.6664ZM103.655 37.3224C102.375 38.5864 100.775 39.2184 98.8553 39.2184C96.9353 39.2184 95.3353 38.5864 94.0553 37.3224C92.7753 36.0424 92.1353 34.4824 92.1353 32.6424C92.1353 30.8024 92.7753 29.2504 94.0553 27.9864C95.3353 26.7064 96.9353 26.0664 98.8553 26.0664C100.775 26.0664 102.375 26.7064 103.655 27.9864C104.935 29.2504 105.575 30.8024 105.575 32.6424C105.575 34.4824 104.935 36.0424 103.655 37.3224ZM114.443 39.0264H111.371L106.955 26.2584H109.739L112.907 35.9064L116.075 26.2584H118.859L122.027 35.9064L125.195 26.2584H127.979L123.563 39.0264H120.491L117.467 30.2904L114.443 39.0264Z" fill="#F2F5FF"/>
<path d="M151.6 22.5344C153.12 22.5344 154.4 22.8624 155.44 23.5184C156.496 24.1744 157.296 25.1264 157.84 26.3744C158.384 27.6064 158.656 29.1184 158.656 30.9104C158.656 32.8144 158.32 34.4224 157.648 35.7344C156.976 37.0464 156.048 38.0384 154.864 38.7104C153.68 39.3824 152.296 39.7184 150.712 39.7184C149.928 39.7184 149.168 39.6384 148.432 39.4784C147.712 39.3184 147.08 39.0704 146.536 38.7344L147.448 36.8624C147.896 37.1504 148.392 37.3584 148.936 37.4864C149.496 37.5984 150.08 37.6544 150.688 37.6544C152.384 37.6544 153.736 37.1264 154.744 36.0704C155.752 34.9984 156.256 33.4144 156.256 31.3184C156.256 30.9824 156.24 30.5824 156.208 30.1184C156.176 29.6544 156.104 29.1984 155.992 28.7504L156.784 29.5664C156.56 30.3024 156.184 30.9264 155.656 31.4384C155.144 31.9344 154.52 32.3104 153.784 32.5664C153.064 32.8064 152.272 32.9264 151.408 32.9264C150.304 32.9264 149.32 32.7184 148.456 32.3024C147.592 31.8864 146.912 31.3024 146.416 30.5504C145.92 29.7824 145.672 28.8784 145.672 27.8384C145.672 26.7504 145.928 25.8144 146.44 25.0304C146.968 24.2304 147.68 23.6144 148.576 23.1824C149.488 22.7504 150.496 22.5344 151.6 22.5344ZM151.696 24.4784C150.976 24.4784 150.336 24.6144 149.776 24.8864C149.216 25.1584 148.776 25.5344 148.456 26.0144C148.152 26.4944 148 27.0704 148 27.7424C148 28.7344 148.344 29.5264 149.032 30.1184C149.72 30.6944 150.648 30.9824 151.816 30.9824C152.584 30.9824 153.256 30.8384 153.832 30.5504C154.424 30.2624 154.88 29.8704 155.2 29.3744C155.536 28.8784 155.704 28.3264 155.704 27.7184C155.704 27.1264 155.552 26.5904 155.248 26.1104C154.944 25.6304 154.496 25.2384 153.904 24.9344C153.312 24.6304 152.576 24.4784 151.696 24.4784ZM163.44 39.5264L170.568 23.7344L171.192 24.8144H161.208L162.408 23.6384V27.8144H160.104V22.7264H172.776V24.3584L165.984 39.5264H163.44ZM180.064 22.5344C181.584 22.5344 182.864 22.8624 183.904 23.5184C184.96 24.1744 185.76 25.1264 186.304 26.3744C186.848 27.6064 187.12 29.1184 187.12 30.9104C187.12 32.8144 186.784 34.4224 186.112 35.7344C185.44 37.0464 184.512 38.0384 183.328 38.7104C182.144 39.3824 180.76 39.7184 179.176 39.7184C178.392 39.7184 177.632 39.6384 176.896 39.4784C176.176 39.3184 175.544 39.0704 175 38.7344L175.912 36.8624C176.36 37.1504 176.856 37.3584 177.4 37.4864C177.96 37.5984 178.544 37.6544 179.152 37.6544C180.848 37.6544 182.2 37.1264 183.208 36.0704C184.216 34.9984 184.72 33.4144 184.72 31.3184C184.72 30.9824 184.704 30.5824 184.672 30.1184C184.64 29.6544 184.568 29.1984 184.456 28.7504L185.248 29.5664C185.024 30.3024 184.648 30.9264 184.12 31.4384C183.608 31.9344 182.984 32.3104 182.248 32.5664C181.528 32.8064 180.736 32.9264 179.872 32.9264C178.768 32.9264 177.784 32.7184 176.92 32.3024C176.056 31.8864 175.376 31.3024 174.88 30.5504C174.384 29.7824 174.136 28.8784 174.136 27.8384C174.136 26.7504 174.392 25.8144 174.904 25.0304C175.432 24.2304 176.144 23.6144 177.04 23.1824C177.952 22.7504 178.96 22.5344 180.064 22.5344ZM180.16 24.4784C179.44 24.4784 178.8 24.6144 178.24 24.8864C177.68 25.1584 177.24 25.5344 176.92 26.0144C176.616 26.4944 176.464 27.0704 176.464 27.7424C176.464 28.7344 176.808 29.5264 177.496 30.1184C178.184 30.6944 179.112 30.9824 180.28 30.9824C181.048 30.9824 181.72 30.8384 182.296 30.5504C182.888 30.2624 183.344 29.8704 183.664 29.3744C184 28.8784 184.168 28.3264 184.168 27.7184C184.168 27.1264 184.016 26.5904 183.712 26.1104C183.408 25.6304 182.96 25.2384 182.368 24.9344C181.776 24.6304 181.04 24.4784 180.16 24.4784ZM194.613 22.5344C196.133 22.5344 197.413 22.8624 198.453 23.5184C199.509 24.1744 200.309 25.1264 200.853 26.3744C201.397 27.6064 201.669 29.1184 201.669 30.9104C201.669 32.8144 201.333 34.4224 200.661 35.7344C199.989 37.0464 199.061 38.0384 197.877 38.7104C196.693 39.3824 195.309 39.7184 193.725 39.7184C192.941 39.7184 192.181 39.6384 191.445 39.4784C190.725 39.3184 190.093 39.0704 189.549 38.7344L190.461 36.8624C190.909 37.1504 191.405 37.3584 191.949 37.4864C192.509 37.5984 193.093 37.6544 193.701 37.6544C195.397 37.6544 196.749 37.1264 197.757 36.0704C198.765 34.9984 199.269 33.4144 199.269 31.3184C199.269 30.9824 199.253 30.5824 199.221 30.1184C199.189 29.6544 199.117 29.1984 199.005 28.7504L199.797 29.5664C199.573 30.3024 199.197 30.9264 198.669 31.4384C198.157 31.9344 197.533 32.3104 196.797 32.5664C196.077 32.8064 195.285 32.9264 194.421 32.9264C193.317 32.9264 192.333 32.7184 191.469 32.3024C190.605 31.8864 189.925 31.3024 189.429 30.5504C188.933 29.7824 188.685 28.8784 188.685 27.8384C188.685 26.7504 188.941 25.8144 189.453 25.0304C189.981 24.2304 190.693 23.6144 191.589 23.1824C192.501 22.7504 193.509 22.5344 194.613 22.5344ZM194.709 24.4784C193.989 24.4784 193.349 24.6144 192.789 24.8864C192.229 25.1584 191.789 25.5344 191.469 26.0144C191.165 26.4944 191.013 27.0704 191.013 27.7424C191.013 28.7344 191.357 29.5264 192.045 30.1184C192.733 30.6944 193.661 30.9824 194.829 30.9824C195.597 30.9824 196.269 30.8384 196.845 30.5504C197.437 30.2624 197.893 29.8704 198.213 29.3744C198.549 28.8784 198.717 28.3264 198.717 27.7184C198.717 27.1264 198.565 26.5904 198.261 26.1104C197.957 25.6304 197.509 25.2384 196.917 24.9344C196.325 24.6304 195.589 24.4784 194.709 24.4784ZM209.161 22.5344C210.681 22.5344 211.961 22.8624 213.001 23.5184C214.057 24.1744 214.857 25.1264 215.401 26.3744C215.945 27.6064 216.217 29.1184 216.217 30.9104C216.217 32.8144 215.881 34.4224 215.209 35.7344C214.537 37.0464 213.609 38.0384 212.425 38.7104C211.241 39.3824 209.857 39.7184 208.273 39.7184C207.489 39.7184 206.729 39.6384 205.993 39.4784C205.273 39.3184 204.641 39.0704 204.097 38.7344L205.009 36.8624C205.457 37.1504 205.953 37.3584 206.497 37.4864C207.057 37.5984 207.641 37.6544 208.249 37.6544C209.945 37.6544 211.297 37.1264 212.305 36.0704C213.313 34.9984 213.817 33.4144 213.817 31.3184C213.817 30.9824 213.801 30.5824 213.769 30.1184C213.737 29.6544 213.665 29.1984 213.553 28.7504L214.345 29.5664C214.121 30.3024 213.745 30.9264 213.217 31.4384C212.705 31.9344 212.081 32.3104 211.345 32.5664C210.625 32.8064 209.833 32.9264 208.969 32.9264C207.865 32.9264 206.881 32.7184 206.017 32.3024C205.153 31.8864 204.473 31.3024 203.977 30.5504C203.481 29.7824 203.233 28.8784 203.233 27.8384C203.233 26.7504 203.489 25.8144 204.001 25.0304C204.529 24.2304 205.241 23.6144 206.137 23.1824C207.049 22.7504 208.057 22.5344 209.161 22.5344ZM209.257 24.4784C208.537 24.4784 207.897 24.6144 207.337 24.8864C206.777 25.1584 206.337 25.5344 206.017 26.0144C205.713 26.4944 205.561 27.0704 205.561 27.7424C205.561 28.7344 205.905 29.5264 206.593 30.1184C207.281 30.6944 208.209 30.9824 209.377 30.9824C210.145 30.9824 210.817 30.8384 211.393 30.5504C211.985 30.2624 212.441 29.8704 212.761 29.3744C213.097 28.8784 213.265 28.3264 213.265 27.7184C213.265 27.1264 213.113 26.5904 212.809 26.1104C212.505 25.6304 212.057 25.2384 211.465 24.9344C210.873 24.6304 210.137 24.4784 209.257 24.4784ZM223.71 22.5344C225.23 22.5344 226.51 22.8624 227.55 23.5184C228.606 24.1744 229.406 25.1264 229.95 26.3744C230.494 27.6064 230.766 29.1184 230.766 30.9104C230.766 32.8144 230.43 34.4224 229.758 35.7344C229.086 37.0464 228.158 38.0384 226.974 38.7104C225.79 39.3824 224.406 39.7184 222.822 39.7184C222.038 39.7184 221.278 39.6384 220.542 39.4784C219.822 39.3184 219.19 39.0704 218.646 38.7344L219.558 36.8624C220.006 37.1504 220.502 37.3584 221.046 37.4864C221.606 37.5984 222.19 37.6544 222.798 37.6544C224.494 37.6544 225.846 37.1264 226.854 36.0704C227.862 34.9984 228.366 33.4144 228.366 31.3184C228.366 30.9824 228.35 30.5824 228.318 30.1184C228.286 29.6544 228.214 29.1984 228.102 28.7504L228.894 29.5664C228.67 30.3024 228.294 30.9264 227.766 31.4384C227.254 31.9344 226.63 32.3104 225.894 32.5664C225.174 32.8064 224.382 32.9264 223.518 32.9264C222.414 32.9264 221.43 32.7184 220.566 32.3024C219.702 31.8864 219.022 31.3024 218.526 30.5504C218.03 29.7824 217.782 28.8784 217.782 27.8384C217.782 26.7504 218.038 25.8144 218.55 25.0304C219.078 24.2304 219.79 23.6144 220.686 23.1824C221.598 22.7504 222.606 22.5344 223.71 22.5344ZM223.806 24.4784C223.086 24.4784 222.446 24.6144 221.886 24.8864C221.326 25.1584 220.886 25.5344 220.566 26.0144C220.262 26.4944 220.11 27.0704 220.11 27.7424C220.11 28.7344 220.454 29.5264 221.142 30.1184C221.83 30.6944 222.758 30.9824 223.926 30.9824C224.694 30.9824 225.366 30.8384 225.942 30.5504C226.534 30.2624 226.99 29.8704 227.31 29.3744C227.646 28.8784 227.814 28.3264 227.814 27.7184C227.814 27.1264 227.662 26.5904 227.358 26.1104C227.054 25.6304 226.606 25.2384 226.014 24.9344C225.422 24.6304 224.686 24.4784 223.806 24.4784ZM238.234 39.7184C237.05 39.7184 235.898 39.5344 234.778 39.1664C233.674 38.7984 232.77 38.3024 232.066 37.6784L233.17 35.7824C233.73 36.3104 234.458 36.7424 235.354 37.0784C236.25 37.4144 237.202 37.5824 238.21 37.5824C239.49 37.5824 240.474 37.3104 241.162 36.7664C241.85 36.2224 242.194 35.4944 242.194 34.5824C242.194 33.9584 242.042 33.4144 241.738 32.9504C241.434 32.4864 240.906 32.1344 240.154 31.8944C239.418 31.6384 238.402 31.5104 237.106 31.5104H233.29L234.178 22.7264H243.658V24.8144H235.066L236.314 23.6384L235.618 30.5744L234.37 29.4224H237.61C239.29 29.4224 240.642 29.6384 241.666 30.0704C242.69 30.5024 243.434 31.1024 243.898 31.8704C244.362 32.6224 244.594 33.4944 244.594 34.4864C244.594 35.4464 244.362 36.3264 243.898 37.1264C243.434 37.9104 242.73 38.5424 241.786 39.0224C240.858 39.4864 239.674 39.7184 238.234 39.7184ZM248.927 39.5264L256.055 23.7344L256.679 24.8144H246.695L247.895 23.6384V27.8144H245.591V22.7264H258.263V24.3584L251.471 39.5264H248.927ZM263.007 39.5264L270.135 23.7344L270.759 24.8144H260.775L261.975 23.6384V27.8144H259.671V22.7264H272.343V24.3584L265.551 39.5264H263.007ZM280.312 39.7184C278.952 39.7184 277.776 39.5184 276.784 39.1184C275.792 38.7184 275.024 38.1504 274.48 37.4144C273.936 36.6624 273.664 35.7824 273.664 34.7744C273.664 33.7824 273.92 32.9424 274.432 32.2544C274.96 31.5504 275.72 31.0224 276.712 30.6704C277.704 30.3024 278.904 30.1184 280.312 30.1184C281.72 30.1184 282.92 30.3024 283.912 30.6704C284.92 31.0224 285.688 31.5504 286.216 32.2544C286.744 32.9584 287.008 33.7984 287.008 34.7744C287.008 35.7824 286.736 36.6624 286.192 37.4144C285.648 38.1504 284.872 38.7184 283.864 39.1184C282.856 39.5184 281.672 39.7184 280.312 39.7184ZM280.312 37.7744C281.656 37.7744 282.704 37.5024 283.456 36.9584C284.224 36.3984 284.608 35.6464 284.608 34.7024C284.608 33.7744 284.224 33.0464 283.456 32.5184C282.704 31.9744 281.656 31.7024 280.312 31.7024C278.984 31.7024 277.944 31.9744 277.192 32.5184C276.44 33.0464 276.064 33.7744 276.064 34.7024C276.064 35.6464 276.44 36.3984 277.192 36.9584C277.944 37.5024 278.984 37.7744 280.312 37.7744ZM280.312 31.4144C279.032 31.4144 277.944 31.2464 277.048 30.9104C276.152 30.5584 275.464 30.0624 274.984 29.4224C274.504 28.7664 274.264 27.9904 274.264 27.0944C274.264 26.1504 274.512 25.3424 275.008 24.6704C275.52 23.9824 276.232 23.4544 277.144 23.0864C278.056 22.7184 279.112 22.5344 280.312 22.5344C281.528 22.5344 282.592 22.7184 283.504 23.0864C284.416 23.4544 285.128 23.9824 285.64 24.6704C286.152 25.3424 286.408 26.1504 286.408 27.0944C286.408 27.9904 286.168 28.7664 285.688 29.4224C285.208 30.0624 284.512 30.5584 283.6 30.9104C282.688 31.2464 281.592 31.4144 280.312 31.4144ZM280.312 29.8784C281.48 29.8784 282.392 29.6384 283.048 29.1584C283.72 28.6784 284.056 28.0224 284.056 27.1904C284.056 26.3424 283.712 25.6784 283.024 25.1984C282.336 24.7184 281.432 24.4784 280.312 24.4784C279.192 24.4784 278.296 24.7184 277.624 25.1984C276.968 25.6784 276.64 26.3424 276.64 27.1904C276.64 28.0224 276.96 28.6784 277.6 29.1584C278.256 29.6384 279.16 29.8784 280.312 29.8784Z" fill="#F2F5FF"/>
<path fillRule="evenodd" clipRule="evenodd" d="M320.693 33.2721C321.836 32.1722 323.651 32.1712 324.796 33.2654L324.797 33.2673C324.797 33.2673 327.105 35.0417 327.134 35.0714C328.289 36.2269 328.289 38.1077 327.134 39.2641L326.26 40.2702C325.116 41.4199 323.626 42.0264 322.023 42.0264C314.705 42.0264 305 32.3245 305 25.0084C305 23.4055 305.608 21.9175 306.711 20.8157L307.812 19.8547C308.919 18.7433 310.803 18.7424 311.959 19.8998C311.989 19.9295 313.763 22.2356 313.763 22.2356C314.857 23.3815 314.856 25.1952 313.758 26.3373L312.223 28.1548C313.621 31.3252 315.802 33.5107 318.867 34.8108L320.693 33.2721Z" fill="#F2F5FF"/>
</svg>
