<svg width="200" height="57" viewBox="0 0 200 57" fill="none" xmlns="http://www.w3.org/2000/svg">
<rect x="0.5" y="0.5" width="198.527" height="55.5269" rx="27.7635" stroke="#F2F5FF"/>
<path d="M34.032 36.9077C32.768 36.9077 31.6 36.6997 30.528 36.2837C29.456 35.8517 28.528 35.2517 27.744 34.4837C26.96 33.7157 26.344 32.8117 25.896 31.7717C25.464 30.7317 25.248 29.5957 25.248 28.3637C25.248 27.1317 25.464 25.9957 25.896 24.9557C26.344 23.9157 26.96 23.0117 27.744 22.2437C28.544 21.4757 29.48 20.8837 30.552 20.4677C31.624 20.0357 32.792 19.8197 34.056 19.8197C35.272 19.8197 36.416 20.0277 37.488 20.4437C38.56 20.8437 39.464 21.4517 40.2 22.2677L39.072 23.3957C38.384 22.6917 37.624 22.1877 36.792 21.8837C35.96 21.5637 35.064 21.4037 34.104 21.4037C33.096 21.4037 32.16 21.5797 31.296 21.9317C30.432 22.2677 29.68 22.7557 29.04 23.3957C28.4 24.0197 27.896 24.7557 27.528 25.6037C27.176 26.4357 27 27.3557 27 28.3637C27 29.3717 27.176 30.2997 27.528 31.1477C27.896 31.9797 28.4 32.7157 29.04 33.3557C29.68 33.9797 30.432 34.4677 31.296 34.8197C32.16 35.1557 33.096 35.3237 34.104 35.3237C35.064 35.3237 35.96 35.1637 36.792 34.8437C37.624 34.5237 38.384 34.0117 39.072 33.3077L40.2 34.4357C39.464 35.2517 38.56 35.8677 37.488 36.2837C36.416 36.6997 35.264 36.9077 34.032 36.9077ZM51.3345 36.7637V33.9797L51.2625 33.5237V28.8677C51.2625 27.7957 50.9585 26.9717 50.3505 26.3957C49.7585 25.8197 48.8705 25.5317 47.6865 25.5317C46.8705 25.5317 46.0945 25.6677 45.3585 25.9397C44.6225 26.2117 43.9985 26.5717 43.4865 27.0197L42.7185 25.7477C43.3585 25.2037 44.1265 24.7877 45.0225 24.4997C45.9185 24.1957 46.8625 24.0437 47.8545 24.0437C49.4865 24.0437 50.7425 24.4517 51.6225 25.2677C52.5185 26.0677 52.9665 27.2917 52.9665 28.9397V36.7637H51.3345ZM46.9905 36.8837C46.0465 36.8837 45.2225 36.7317 44.5185 36.4277C43.8305 36.1077 43.3025 35.6757 42.9345 35.1317C42.5665 34.5717 42.3825 33.9317 42.3825 33.2117C42.3825 32.5557 42.5345 31.9637 42.8385 31.4357C43.1585 30.8917 43.6705 30.4597 44.3745 30.1397C45.0945 29.8037 46.0545 29.6357 47.2545 29.6357H51.5985V30.9077H47.3025C46.0865 30.9077 45.2385 31.1237 44.7585 31.5557C44.2945 31.9877 44.0625 32.5237 44.0625 33.1637C44.0625 33.8837 44.3425 34.4597 44.9025 34.8917C45.4625 35.3237 46.2465 35.5397 47.2545 35.5397C48.2145 35.5397 49.0385 35.3237 49.7265 34.8917C50.4305 34.4437 50.9425 33.8037 51.2625 32.9717L51.6465 34.1477C51.3265 34.9797 50.7665 35.6437 49.9665 36.1397C49.1825 36.6357 48.1905 36.8837 46.9905 36.8837ZM57.5948 36.7637V18.9557H59.2988V36.7637H57.5948ZM64.0401 36.7637V18.9557H65.7441V36.7637H64.0401ZM83.1986 24.0437C84.2226 24.0437 85.1186 24.2437 85.8866 24.6437C86.6706 25.0277 87.2786 25.6197 87.7106 26.4197C88.1586 27.2197 88.3826 28.2277 88.3826 29.4437V36.7637H86.6786V29.6117C86.6786 28.2837 86.3426 27.2837 85.6706 26.6117C85.0146 25.9237 84.0866 25.5797 82.8866 25.5797C81.9906 25.5797 81.2066 25.7637 80.5346 26.1317C79.8786 26.4837 79.3666 27.0037 78.9986 27.6917C78.6466 28.3637 78.4706 29.1797 78.4706 30.1397V36.7637H76.7666V24.1637H78.3986V27.6197L78.1346 26.9717C78.5346 26.0597 79.1746 25.3477 80.0546 24.8357C80.9346 24.3077 81.9826 24.0437 83.1986 24.0437ZM98.1214 36.8837C96.9054 36.8837 95.8094 36.6117 94.8334 36.0677C93.8734 35.5077 93.1134 34.7477 92.5534 33.7877C91.9934 32.8117 91.7134 31.6997 91.7134 30.4517C91.7134 29.1877 91.9934 28.0757 92.5534 27.1157C93.1134 26.1557 93.8734 25.4037 94.8334 24.8597C95.7934 24.3157 96.8894 24.0437 98.1214 24.0437C99.3694 24.0437 100.473 24.3157 101.433 24.8597C102.409 25.4037 103.169 26.1557 103.713 27.1157C104.273 28.0757 104.553 29.1877 104.553 30.4517C104.553 31.6997 104.273 32.8117 103.713 33.7877C103.169 34.7477 102.409 35.5077 101.433 36.0677C100.457 36.6117 99.3534 36.8837 98.1214 36.8837ZM98.1214 35.3717C99.0334 35.3717 99.8414 35.1717 100.545 34.7717C101.249 34.3557 101.801 33.7797 102.201 33.0437C102.617 32.2917 102.825 31.4277 102.825 30.4517C102.825 29.4597 102.617 28.5957 102.201 27.8597C101.801 27.1237 101.249 26.5557 100.545 26.1557C99.8414 25.7397 99.0414 25.5317 98.1454 25.5317C97.2494 25.5317 96.4494 25.7397 95.7454 26.1557C95.0414 26.5557 94.4814 27.1237 94.0654 27.8597C93.6494 28.5957 93.4414 29.4597 93.4414 30.4517C93.4414 31.4277 93.6494 32.2917 94.0654 33.0437C94.4814 33.7797 95.0414 34.3557 95.7454 34.7717C96.4494 35.1717 97.2414 35.3717 98.1214 35.3717ZM110.249 36.7637L105.497 24.1637H107.129L111.449 35.8517H110.705L115.145 24.1637H116.609L121.001 35.8517H120.257L124.649 24.1637H126.209L121.433 36.7637H119.825L115.601 25.7717H116.105L111.857 36.7637H110.249Z" fill="#F2F5FF"/>
<path fill-rule="evenodd" clip-rule="evenodd" d="M154.358 29.2867C154.327 30.873 153.044 32.1572 151.461 32.1933L151.459 32.1926C151.459 32.1926 148.572 32.5698 148.531 32.5691C146.897 32.5686 145.567 31.2387 145.566 29.6044L145.473 28.275C145.469 26.6529 146.093 25.1709 147.227 24.0372C152.402 18.8624 166.124 18.8604 171.297 24.0337C172.431 25.1672 173.053 26.6489 173.052 28.2081L172.953 29.6662C172.956 31.2348 171.625 32.5678 169.989 32.5667C169.947 32.5667 167.061 32.1911 167.061 32.1911C165.478 32.154 164.196 30.8709 164.165 29.2867L163.965 26.9165C160.735 25.6628 157.647 25.6598 154.561 26.9077L154.358 29.2867Z" fill="#F2F5FF"/>
</svg>
