<svg width="46" height="32" viewBox="0 0 46 32" fill="none" xmlns="http://www.w3.org/2000/svg">
<path fillRule="evenodd" clipRule="evenodd" d="M13.4359 10.9808C13.7542 9.7872 15.1547 6.58845 18.2102 3.34197C18.5285 2.30755 18.4966 0.19097 15.8231 0C12.8282 0.534796 6.6552 3.51704 3.4105 9.30977C0.625106 14.2825 0.206496 19.9673 0.545486 22.2002C0.882842 25.0284 3.70454 30.7946 8.66259 31.7487C13.3767 32.6558 16.4106 30.8944 17.4949 29.839C18.6089 28.9637 20.9801 26.497 21.553 23.6325C22.1259 20.768 21.3143 17.8238 20.8369 16.7098C19.8815 15.0389 17.0636 11.5537 13.4359 10.9808ZM37.4086 10.9808C37.7269 9.7872 39.1273 6.58845 42.1828 3.34197C42.5011 2.30755 42.4693 0.19097 39.7957 0C36.8008 0.534796 30.6278 3.51704 27.3832 9.30977C24.5978 14.2825 24.1792 19.9673 24.5181 22.2002C24.8555 25.0284 27.6772 30.7946 32.6352 31.7487C37.3494 32.6558 40.3832 30.8944 41.4676 29.839C42.5816 28.9637 44.9528 26.497 45.5257 23.6325C46.0986 20.768 45.287 17.8238 44.8096 16.7098C43.8541 15.0389 41.0363 11.5537 37.4086 10.9808Z" fill="#83CCFF"/>
</svg>
