<svg width="153" height="23" viewBox="0 0 153 23" fill="none" xmlns="http://www.w3.org/2000/svg">
<path fillRule="evenodd" clipRule="evenodd" d="M139.258 1.05744L152.51 1V2.26475H140.542L140.608 10.8972H151.407V12.1438H140.608L140.613 20.9964H153.002L152.997 22.1247L139.325 22.1822L139.258 1.05744Z" fill="white" stroke="white" stroke-width="0.216"/>
<path fillRule="evenodd" clipRule="evenodd" d="M21.524 17.9751C19.9689 15.0372 20.3976 11.921 22.324 9.23256C22.8164 8.54528 24.6416 6.76097 26.2726 5.20917C26.6015 4.8962 28.274 3.03358 28.5573 2.96374C28.9102 2.87679 35.0753 9.53046 35.5221 10.284C36.5827 12.0727 37.1679 14.2493 35.9055 16.0856L34.3833 15.6132C34.3833 15.6132 34.9082 13.5662 33.9635 11.6766C33.0187 9.78712 30.8667 8.16 29.9219 7.16272C28.9772 6.16549 28.5048 5.74556 28.5048 5.74556C28.5048 5.74556 27.2386 7.02105 26.0094 8.24285C25.3343 8.91382 24.6113 9.53909 24.2533 9.99704C22.994 11.6081 22.5636 12.7813 22.5836 14.0802C22.6002 15.1558 22.8859 16.3576 23.6234 17.6077C23.6234 17.6077 23.361 17.1354 22.5737 17.2928C21.7864 17.4502 21.524 17.9751 21.524 17.9751Z" fill="white"/>
<path fillRule="evenodd" clipRule="evenodd" d="M23.0612 19.6491C24.681 21.1501 27.3464 22.3726 29.5809 22.423C31.3016 22.4618 33.0666 22.1337 34.6543 21.4351C38.9559 19.5423 40.9046 15.165 40.5363 10.9597C40.006 4.90267 35.6333 1.08631 29.4695 1.17333C25.6162 1.22774 22.3075 3.71672 20.4493 6.9236L20.2266 7.43989L20.2873 7.45003C20.2873 7.45003 21.0567 5.86061 22.1197 4.90899C25.301 2.06095 29.2708 1.31441 33.0836 3.20822C34.6123 3.96749 36.222 5.45567 36.7585 6.38704C38.7432 9.83216 38.8767 12.718 36.799 16.1362C36.4852 16.6525 36.141 16.7942 35.7765 16.7436C33.9349 16.4878 31.8657 15.6295 29.9858 16.045C29.0225 16.258 27.8213 16.9162 28.4571 18.1002C28.4571 18.1002 30.9374 17.9989 31.3727 18.171C31.8081 18.3431 32.213 18.7177 32.1624 19.1732C32.1118 19.6288 31.4436 20.0338 30.907 20.1046C27.8694 20.5058 25.8298 19.7621 23.2839 18.2723C23.0223 18.0543 22.3056 18.1749 22.3525 18.6671C22.3728 18.8797 22.4841 19.0923 22.6866 19.3049C22.8891 19.5175 23.0612 19.6491 23.0612 19.6491Z" fill="white"/>
<path fillRule="evenodd" clipRule="evenodd" d="M0 22.1497L8.0758 1.09766H11.1386L19.7094 22.1497H16.5389L14.1034 15.7693H5.2385L2.95491 22.1497H0ZM6.05691 13.5054H13.2311L11.0357 7.669C10.3742 5.89507 9.87427 4.42986 9.52637 3.27338C9.2373 4.64543 8.85011 5.99307 8.365 7.32603L6.05691 13.5054ZM58.594 1.09766H61.3872V13.2555C61.3872 15.3725 61.147 17.0533 60.6717 18.298C60.1916 19.5378 59.3291 20.5522 58.0844 21.3313C56.8347 22.1105 55.2029 22.5025 53.1741 22.5025C51.2091 22.5025 49.5968 22.1644 48.3472 21.4833C47.0927 20.8021 46.2008 19.822 45.6668 18.5333C45.1326 17.2444 44.863 15.4851 44.863 13.2555V1.09766H47.6563V13.2506C47.6563 15.0785 47.8278 16.4309 48.1659 17.2934C48.504 18.1607 49.0823 18.8321 49.9105 19.2977C50.7337 19.7681 51.7432 20.0033 52.9341 20.0033C54.9725 20.0033 56.428 19.5378 57.2954 18.6116C58.1627 17.6806 58.594 15.8968 58.594 13.2506V1.09766ZM63.7297 22.1497L71.8054 1.09766H74.8682L83.4391 22.1497H80.2685L77.833 15.7693H68.9682L66.6845 22.1497H63.7297ZM69.7865 13.5054H76.9607L74.7653 7.669C74.1038 5.89507 73.6039 4.42986 73.256 3.27338C72.9669 4.64543 72.5798 5.99307 72.0946 7.32603L69.7865 13.5054Z" fill="white"/>
<path fillRule="evenodd" clipRule="evenodd" d="M120.727 1.12368L133.937 1.06641V2.32726H122.007L122.073 10.9326H132.838V12.1754H122.073L122.077 21H134.427L134.423 22.1249L120.793 22.1157L120.727 1.12368Z" fill="white" stroke="white" stroke-width="0.216"/>
<path fillRule="evenodd" clipRule="evenodd" d="M85.9453 1.06641L97.8916 1.10232V2.27531H87.1407V10.9107H96.7236V12.0313H87.1407L87.1482 22.1455L85.9453 22.1277V1.06641Z" fill="white" stroke="white" stroke-width="0.216"/>
<path fillRule="evenodd" clipRule="evenodd" d="M109.632 11.6055L115.924 22.0923L114.294 22.0252L108.211 11.8867C108.62 11.8187 109.282 11.7249 109.632 11.6055Z" fill="white" stroke="white" stroke-width="0.216"/>
<path fillRule="evenodd" clipRule="evenodd" d="M107.63 1.06685C108.229 1.05857 108.883 1.16732 109.591 1.3667C110.3 1.56628 110.97 1.88606 111.598 2.32476C115.062 4.74421 114.323 9.9096 110.265 11.5411C109.448 11.8697 108.437 12.0349 107.24 12.0349H104.813V22.0923L103.531 22.1496V1.1242L107.63 1.06685ZM107.351 10.8673C113.301 10.9456 114.224 4.28856 109.615 2.61025C109.05 2.40442 108.439 2.3016 107.788 2.3016H104.861L104.866 10.8315L107.351 10.8673Z" fill="white" stroke="white" stroke-width="0.216"/>
</svg>
