<svg width="35" height="36" viewBox="0 0 35 36" fill="none" xmlns="http://www.w3.org/2000/svg">
<path d="M16.318 1.03918L16.3181 1.03917C21.2381 0.706335 26.056 2.50646 29.5316 5.98647C33.0072 9.46653 34.8001 14.2849 34.4588 19.208C33.8329 28.2464 25.8601 35 16.0108 35H7.87498C3.80795 35 0.5 31.6918 0.5 27.6246V18.4666V18.4665C0.501415 9.30961 7.43457 1.64232 16.318 1.03918ZM24.3763 19.5617C25.2386 19.5617 25.9388 18.8615 25.9388 17.9991C25.9388 17.1366 25.2386 16.4365 24.3763 16.4365C23.514 16.4365 22.8138 17.1366 22.8138 17.9991C22.8138 18.8615 23.514 19.5617 24.3763 19.5617ZM17.5013 19.5617C18.3637 19.5617 19.0638 18.8615 19.0638 17.9991C19.0638 17.1366 18.3637 16.4365 17.5013 16.4365C16.639 16.4365 15.9388 17.1366 15.9388 17.9991C15.9388 18.8615 16.639 19.5617 17.5013 19.5617ZM10.6263 19.5617C11.4887 19.5617 12.1888 18.8615 12.1888 17.9991C12.1888 17.1366 11.4887 16.4365 10.6263 16.4365C9.76402 16.4365 9.06385 17.1366 9.06385 17.9991C9.06385 18.8615 9.76402 19.5617 10.6263 19.5617Z" fill="white" stroke="white"/>
</svg>
