<svg width="39" height="40" viewBox="0 0 39 40" fill="none" xmlns="http://www.w3.org/2000/svg">
<path d="M33.1824 24.0359C31.1501 22.1036 27.9403 22.1043 25.9101 24.0451L23.2219 26.3107C18.652 24.2979 15.3636 21.0058 13.205 16.2673L15.4604 13.5957C17.3956 11.5708 17.3992 8.3709 15.4782 6.33726L15.4619 6.31608L15.3711 6.19823L15.047 5.77724C14.7785 5.42864 14.42 4.96332 14.0601 4.49648C13.7001 4.0297 13.3385 3.56118 13.0638 3.20629C12.9265 3.02891 12.8106 2.87952 12.7274 2.7728C12.6859 2.71955 12.652 2.67624 12.6275 2.64517L12.5961 2.60577L12.5825 2.58918L12.5728 2.57791L12.5726 2.57768C12.5703 2.57494 12.5608 2.56416 12.5484 2.55172C12.5483 2.55162 12.5482 2.55152 12.5481 2.55143L12.1946 2.90503M33.1824 24.0359L35.2006 35.6748C33.3597 37.5244 30.9639 38.5 28.3845 38.5C16.6117 38.5 1 22.8927 1 11.1233C1 8.54467 1.97747 6.15103 3.75202 4.37852L5.52349 2.83259M33.1824 24.0359L33.1944 24.0451L33.3123 24.1358L33.7336 24.4599C34.0824 24.7283 34.548 25.0866 35.0151 25.4465C35.4821 25.8064 35.9508 26.1679 36.3058 26.4426C36.4832 26.5798 36.6326 26.6957 36.7393 26.779C36.7926 26.8205 36.836 26.8545 36.8671 26.8791C36.8768 26.8868 36.8858 26.8939 36.8938 26.9004C36.8985 26.9041 36.9029 26.9077 36.9069 26.9109L36.9242 26.9252L36.9364 26.9357L36.9366 26.9359C36.9392 26.9382 36.9487 26.9466 36.9603 26.9582C39.0091 29.0082 39.0131 32.3406 36.973 34.3972L35.578 36.0027L35.5669 36.0155L35.555 36.0275C33.619 37.9727 31.095 39 28.3845 39C22.3059 39 15.3394 34.9927 9.92396 29.5788C4.50854 24.1649 0.5 17.2003 0.5 11.1233C0.5 8.41597 1.52743 5.89385 3.39867 4.02477L3.41058 4.01287L3.42326 4.0018L5.18191 2.46706M33.1824 24.0359L5.18191 2.46706M12.1946 2.90503C10.3353 1.04313 7.3042 1.04467 5.52349 2.83259M12.1946 2.90503C12.2424 2.95281 15.0977 6.66274 15.0977 6.66274L12.1946 2.90503ZM5.52349 2.83259L5.19473 2.45587L5.18191 2.46706M5.52349 2.83259L5.16922 2.47975C5.17344 2.47551 5.17767 2.47128 5.18191 2.46706" fill="white" stroke="white"/>
</svg>
