<svg width="19" height="18" viewBox="0 0 19 18" fill="none" xmlns="http://www.w3.org/2000/svg">
<path d="M6.26451 1.188L6.42532 1.02714C6.42537 1.02718 6.42541 1.02723 6.42546 1.02727C6.43111 1.03294 6.43539 1.03784 6.43648 1.03909L6.43657 1.03919L6.44095 1.04432L6.44713 1.05186L6.46141 1.06979L6.50689 1.12785C6.54474 1.1764 6.59746 1.24436 6.65991 1.32505C6.78488 1.4865 6.94938 1.69963 7.11313 1.91198L7.5621 2.49462L7.70957 2.68614L7.75084 2.73975L7.75826 2.74939C8.63214 3.67452 8.63052 5.1302 7.75015 6.05137L6.72413 7.26675C7.70612 9.42238 9.20207 10.92 11.281 11.8357L12.5039 10.805C13.4275 9.92207 14.8877 9.92179 15.8122 10.8008L16.7303 16.0956C15.8929 16.937 14.803 17.3808 13.6296 17.3808C8.27393 17.3808 1.17188 10.2808 1.17188 4.92663C1.17188 3.75358 1.61654 2.66466 2.42382 1.85832L3.22969 1.15505M6.26451 1.188C5.41866 0.34099 4.03977 0.341691 3.22969 1.15505M6.26451 1.188C6.28625 1.20974 7.58519 2.89745 7.58519 2.89745L6.26451 1.188ZM3.22969 1.15505L3.08013 0.983671L3.0743 0.988761M3.22969 1.15505L3.06853 0.994534C3.07045 0.992606 3.07237 0.990681 3.0743 0.988761M3.0743 0.988761L2.27426 1.68694L2.26849 1.69198L2.26307 1.69739C1.41181 2.54767 0.944416 3.69503 0.944416 4.92663C0.944416 7.69117 2.76797 10.8595 5.23154 13.3224C7.69513 15.7853 10.8643 17.6083 13.6296 17.6083C14.8626 17.6083 16.0108 17.1409 16.8915 16.256L16.897 16.2506L16.902 16.2447L17.5366 15.5143C18.4647 14.5788 18.4629 13.0628 17.5309 12.1302L17.37 12.291C17.3489 12.2693 15.66 10.9707 15.66 10.9707L3.0743 0.988761Z" fill="white" stroke="white" stroke-width="0.454918"/>
</svg>
