<svg width="33" height="40" viewBox="0 0 33 40" fill="none" xmlns="http://www.w3.org/2000/svg">
<path d="M16.3868 1L16.3879 0.999999C20.5997 1.00463 24.6376 2.67969 27.6159 5.6577C30.5942 8.63571 32.2697 12.6735 32.2748 16.8852V16.8858C32.2748 18.9811 31.4683 21.6042 29.9326 24.708C28.392 27.8215 26.0946 31.4635 23.0596 35.6097L16.3868 1ZM16.3868 1C12.1751 1.00463 8.13713 2.67969 5.15882 5.6577C2.18052 8.63571 0.505056 12.6735 0.5 16.8852V16.8858M16.3868 1L0.5 16.8858M0.5 16.8858C0.5 18.9811 1.30645 21.6042 2.8422 24.708M0.5 16.8858L2.8422 24.708M2.8422 24.708C4.38281 27.8216 6.68026 31.4638 9.71537 35.6101M2.8422 24.708L9.71537 35.6101M9.71537 35.6101C10.4821 36.6604 11.486 37.5148 12.6453 38.1039C13.8047 38.693 15.0868 39.0001 16.3874 39.0001C17.6879 39.0001 18.9701 38.693 20.1295 38.1039C21.2887 37.5148 22.2925 36.6604 23.0592 35.6103L9.71537 35.6101ZM16.3874 22.5186C15.2666 22.5186 14.171 22.1862 13.2391 21.5636C12.3073 20.9409 11.581 20.0559 11.1521 19.0205C10.7232 17.985 10.6109 16.8456 10.8296 15.7464C11.0482 14.6472 11.5879 13.6375 12.3804 12.845C13.1729 12.0525 14.1826 11.5128 15.2819 11.2941C16.3811 11.0755 17.5205 11.1877 18.5559 11.6166C19.5914 12.0455 20.4764 12.7718 21.099 13.7037C21.7217 14.6356 22.054 15.7312 22.054 16.8519C22.054 18.3548 21.457 19.7962 20.3943 20.8589C19.3316 21.9216 17.8903 22.5186 16.3874 22.5186Z" fill="white" stroke="black"/>
</svg>
