<svg width="280" height="360" viewBox="0 0 280 360" fill="none" xmlns="http://www.w3.org/2000/svg">
<g filter="url(#filter0_b_310_718)">
<rect width="280" height="360" rx="50" fill="white" fill-opacity="0.01"/>
<g clipPath="url(#clip0_310_718)">
<path fillRule="evenodd" clipRule="evenodd" d="M139.998 64.6504L164.375 88.4924C177.84 101.957 177.84 123.847 164.389 137.298C157.875 143.815 149.213 147.402 139.998 147.402C130.783 147.402 122.124 143.815 115.604 137.298C102.153 123.843 102.153 101.957 115.604 88.5062L139.998 64.6504ZM139.998 143.949C148.288 143.949 156.085 140.717 161.949 134.855C174.055 122.746 174.055 103.054 161.949 90.9453L139.998 69.4733L118.029 90.9556C105.937 103.051 105.937 122.746 118.043 134.855C123.908 140.717 131.708 143.949 139.998 143.949Z" fill="white"/>
</g>
<g clipPath="url(#clip1_310_718)">
<path fillRule="evenodd" clipRule="evenodd" d="M139.991 95.6738L152.18 107.595C158.912 114.327 158.912 125.272 152.186 131.998C148.93 135.256 144.598 137.05 139.991 137.05C135.384 137.05 131.054 135.256 127.794 131.998C121.069 125.27 121.069 114.327 127.794 107.602L139.991 95.6738ZM139.991 135.323C144.136 135.323 148.035 133.707 150.967 130.776C157.02 124.722 157.02 114.876 150.967 108.821L139.991 98.0853L129.007 108.826C122.961 114.874 122.961 124.722 129.014 130.776C131.946 133.707 135.846 135.323 139.991 135.323Z" fill="#00A3FF"/>
</g>
<path d="M50.9826 173.068L58.2726 191.878C58.5726 192.598 58.8926 193.098 59.2326 193.378C59.5926 193.638 59.9226 193.778 60.2226 193.798V194.398C59.7026 194.358 59.0726 194.338 58.3326 194.338C57.6126 194.318 56.8726 194.308 56.1126 194.308C55.2326 194.308 54.4126 194.318 53.6526 194.338C52.8926 194.338 52.2726 194.358 51.7926 194.398V193.798C52.8126 193.758 53.4626 193.588 53.7426 193.288C54.0226 192.968 53.9626 192.298 53.5626 191.278L48.2826 177.028L48.8226 176.368L44.0226 188.818C43.6426 189.818 43.4126 190.638 43.3326 191.278C43.2526 191.918 43.3026 192.418 43.4826 192.778C43.6626 193.138 43.9626 193.398 44.3826 193.558C44.8026 193.698 45.3226 193.778 45.9426 193.798V194.398C45.3026 194.358 44.6826 194.338 44.0826 194.338C43.4826 194.318 42.8826 194.308 42.2826 194.308C41.8426 194.308 41.4226 194.318 41.0226 194.338C40.6426 194.338 40.3026 194.358 40.0026 194.398V193.798C40.4426 193.698 40.8726 193.438 41.2926 193.018C41.7326 192.598 42.1526 191.868 42.5526 190.828L49.4226 173.068C49.6626 173.088 49.9226 173.098 50.2026 173.098C50.4826 173.098 50.7426 173.088 50.9826 173.068ZM53.5926 185.758V186.358H44.6526L44.9526 185.758H53.5926ZM66.4708 170.908V191.608C66.4708 192.448 66.6208 193.018 66.9208 193.318C67.2408 193.618 67.7708 193.768 68.5108 193.768V194.398C68.1508 194.378 67.6008 194.358 66.8608 194.338C66.1408 194.298 65.4008 194.278 64.6408 194.278C63.9008 194.278 63.1408 194.298 62.3608 194.338C61.6008 194.358 61.0308 194.378 60.6508 194.398V193.768C61.3908 193.768 61.9108 193.618 62.2108 193.318C62.5308 193.018 62.6908 192.448 62.6908 191.608V174.508C62.6908 173.608 62.5508 172.948 62.2708 172.528C61.9908 172.088 61.4508 171.868 60.6508 171.868V171.238C61.2908 171.298 61.9108 171.328 62.5108 171.328C63.2708 171.328 63.9808 171.298 64.6408 171.238C65.3008 171.158 65.9108 171.048 66.4708 170.908ZM75.64 170.908V191.608C75.64 192.448 75.78 193.018 76.06 193.318C76.34 193.618 76.82 193.768 77.5 193.768V194.398C77.16 194.378 76.64 194.358 75.94 194.338C75.24 194.298 74.53 194.278 73.81 194.278C73.07 194.278 72.31 194.298 71.53 194.338C70.77 194.358 70.2 194.378 69.82 194.398V193.768C70.56 193.768 71.08 193.618 71.38 193.318C71.7 193.018 71.86 192.448 71.86 191.608V174.508C71.86 173.608 71.71 172.948 71.41 172.528C71.13 172.088 70.6 171.868 69.82 171.868V171.238C70.46 171.298 71.08 171.328 71.68 171.328C72.44 171.328 73.15 171.298 73.81 171.238C74.47 171.158 75.08 171.048 75.64 170.908ZM85.36 178.888V179.488C84.76 179.608 84.18 179.838 83.62 180.178C83.06 180.498 82.51 180.948 81.97 181.528L79 184.618L79.33 183.958L84.61 192.208C84.89 192.608 85.15 192.948 85.39 193.228C85.65 193.488 85.97 193.668 86.35 193.768V194.398C86.09 194.378 85.68 194.358 85.12 194.338C84.56 194.298 84 194.278 83.44 194.278C82.76 194.278 82.06 194.298 81.34 194.338C80.64 194.358 80.11 194.378 79.75 194.398V193.768C80.15 193.768 80.42 193.678 80.56 193.498C80.72 193.298 80.7 193.048 80.5 192.748L77.38 187.498C77.1 187.058 76.83 186.778 76.57 186.658C76.31 186.518 75.96 186.448 75.52 186.448V185.848C76.02 185.808 76.43 185.718 76.75 185.578C77.09 185.438 77.41 185.218 77.71 184.918L79.96 182.668C80.62 182.008 80.95 181.448 80.95 180.988C80.97 180.528 80.76 180.178 80.32 179.938C79.9 179.678 79.35 179.528 78.67 179.488V178.888C79.21 178.908 79.81 178.938 80.47 178.978C81.13 178.998 81.69 179.008 82.15 179.008C82.51 179.008 82.89 179.008 83.29 179.008C83.71 178.988 84.1 178.968 84.46 178.948C84.84 178.928 85.14 178.908 85.36 178.888ZM91.2508 194.608C90.3908 194.608 89.6608 194.448 89.0608 194.128C88.4608 193.788 88.0108 193.338 87.7108 192.778C87.4108 192.198 87.2608 191.558 87.2608 190.858C87.2608 189.998 87.4608 189.298 87.8608 188.758C88.2608 188.198 88.7708 187.758 89.3908 187.438C90.0308 187.098 90.7008 186.818 91.4008 186.598C92.1008 186.358 92.7608 186.138 93.3808 185.938C94.0008 185.718 94.5108 185.468 94.9108 185.188C95.3108 184.908 95.5108 184.538 95.5108 184.078V181.888C95.5108 181.248 95.4108 180.728 95.2108 180.328C95.0308 179.908 94.7508 179.598 94.3708 179.398C94.0108 179.178 93.5508 179.068 92.9908 179.068C92.5708 179.068 92.1308 179.128 91.6708 179.248C91.2108 179.368 90.8308 179.598 90.5308 179.938C91.0508 180.078 91.4508 180.338 91.7308 180.718C92.0308 181.098 92.1808 181.558 92.1808 182.098C92.1808 182.718 91.9708 183.208 91.5508 183.568C91.1508 183.908 90.6408 184.078 90.0208 184.078C89.3608 184.078 88.8608 183.868 88.5208 183.448C88.1808 183.028 88.0108 182.538 88.0108 181.978C88.0108 181.418 88.1508 180.958 88.4308 180.598C88.7108 180.218 89.1008 179.878 89.6008 179.578C90.1008 179.238 90.7408 178.968 91.5208 178.768C92.3008 178.568 93.1508 178.468 94.0708 178.468C94.9508 178.468 95.7308 178.568 96.4108 178.768C97.0908 178.948 97.6708 179.278 98.1508 179.758C98.6308 180.218 98.9408 180.788 99.0808 181.468C99.2208 182.148 99.2908 182.978 99.2908 183.958V192.178C99.2908 192.678 99.3508 193.038 99.4708 193.258C99.5908 193.458 99.7808 193.558 100.041 193.558C100.241 193.558 100.431 193.508 100.611 193.408C100.791 193.308 100.991 193.168 101.211 192.988L101.541 193.498C101.101 193.838 100.641 194.108 100.161 194.308C99.6808 194.508 99.1008 194.608 98.4208 194.608C97.7208 194.608 97.1608 194.508 96.7408 194.308C96.3408 194.108 96.0408 193.818 95.8408 193.438C95.6608 193.058 95.5608 192.608 95.5408 192.088C95.0608 192.888 94.4708 193.508 93.7708 193.948C93.0708 194.388 92.2308 194.608 91.2508 194.608ZM93.0508 192.928C93.5308 192.928 93.9708 192.798 94.3708 192.538C94.7908 192.278 95.1708 191.888 95.5108 191.368V185.308C95.3108 185.608 95.0208 185.878 94.6408 186.118C94.2808 186.358 93.8908 186.598 93.4708 186.838C93.0508 187.078 92.6508 187.358 92.2708 187.678C91.9108 187.978 91.6008 188.358 91.3408 188.818C91.1008 189.258 90.9808 189.828 90.9808 190.528C90.9808 191.308 91.1708 191.908 91.5508 192.328C91.9308 192.728 92.4308 192.928 93.0508 192.928ZM108.043 170.908V191.608C108.043 192.448 108.193 193.018 108.493 193.318C108.813 193.618 109.343 193.768 110.083 193.768V194.398C109.723 194.378 109.173 194.358 108.433 194.338C107.713 194.298 106.973 194.278 106.213 194.278C105.473 194.278 104.713 194.298 103.933 194.338C103.173 194.358 102.603 194.378 102.223 194.398V193.768C102.963 193.768 103.483 193.618 103.783 193.318C104.103 193.018 104.263 192.448 104.263 191.608V174.508C104.263 173.608 104.123 172.948 103.843 172.528C103.563 172.088 103.023 171.868 102.223 171.868V171.238C102.863 171.298 103.483 171.328 104.083 171.328C104.843 171.328 105.553 171.298 106.213 171.238C106.873 171.158 107.483 171.048 108.043 170.908ZM115.205 171.238C115.925 171.238 116.515 171.438 116.975 171.838C117.435 172.238 117.665 172.768 117.665 173.428C117.665 174.088 117.435 174.618 116.975 175.018C116.515 175.418 115.925 175.618 115.205 175.618C114.485 175.618 113.895 175.418 113.435 175.018C112.975 174.618 112.745 174.088 112.745 173.428C112.745 172.768 112.975 172.238 113.435 171.838C113.895 171.438 114.485 171.238 115.205 171.238ZM117.305 178.558V191.608C117.305 192.448 117.455 193.018 117.755 193.318C118.075 193.618 118.605 193.768 119.345 193.768V194.398C118.985 194.378 118.435 194.358 117.695 194.338C116.955 194.298 116.205 194.278 115.445 194.278C114.705 194.278 113.955 194.298 113.195 194.338C112.435 194.358 111.865 194.378 111.485 194.398V193.768C112.225 193.768 112.745 193.618 113.045 193.318C113.365 193.018 113.525 192.448 113.525 191.608V182.188C113.525 181.268 113.375 180.598 113.075 180.178C112.795 179.738 112.265 179.518 111.485 179.518V178.888C112.125 178.948 112.745 178.978 113.345 178.978C114.085 178.978 114.785 178.948 115.445 178.888C116.125 178.808 116.745 178.698 117.305 178.558ZM131.484 178.468C132.324 178.468 132.994 178.578 133.494 178.798C134.014 179.018 134.434 179.298 134.754 179.638C135.114 180.018 135.364 180.508 135.504 181.108C135.664 181.708 135.744 182.518 135.744 183.538V191.608C135.744 192.448 135.894 193.018 136.194 193.318C136.514 193.618 137.044 193.768 137.784 193.768V194.398C137.424 194.378 136.864 194.358 136.104 194.338C135.364 194.298 134.644 194.278 133.944 194.278C133.204 194.278 132.484 194.298 131.784 194.338C131.084 194.358 130.564 194.378 130.224 194.398V193.768C130.864 193.768 131.314 193.618 131.574 193.318C131.834 193.018 131.964 192.448 131.964 191.608V182.518C131.964 181.978 131.914 181.498 131.814 181.078C131.714 180.638 131.514 180.298 131.214 180.058C130.914 179.798 130.484 179.668 129.924 179.668C129.264 179.668 128.674 179.848 128.154 180.208C127.654 180.568 127.254 181.068 126.954 181.708C126.674 182.328 126.534 183.028 126.534 183.808V191.608C126.534 192.448 126.664 193.018 126.924 193.318C127.184 193.618 127.634 193.768 128.274 193.768V194.398C127.934 194.378 127.424 194.358 126.744 194.338C126.064 194.298 125.374 194.278 124.674 194.278C123.934 194.278 123.184 194.298 122.424 194.338C121.664 194.358 121.094 194.378 120.714 194.398V193.768C121.454 193.768 121.974 193.618 122.274 193.318C122.594 193.018 122.754 192.448 122.754 191.608V182.158C122.754 181.258 122.604 180.598 122.304 180.178C122.024 179.738 121.494 179.518 120.714 179.518V178.888C121.354 178.948 121.974 178.978 122.574 178.978C123.314 178.978 124.014 178.948 124.674 178.888C125.354 178.808 125.974 178.698 126.534 178.558V181.558C127.034 180.418 127.724 179.618 128.604 179.158C129.484 178.698 130.444 178.468 131.484 178.468ZM146.526 178.468C148.286 178.468 149.666 178.998 150.666 180.058C151.666 181.118 152.166 182.808 152.166 185.128H142.056L142.026 184.558H148.686C148.726 183.578 148.666 182.678 148.506 181.858C148.346 181.018 148.086 180.348 147.726 179.848C147.386 179.348 146.936 179.098 146.376 179.098C145.616 179.098 144.956 179.548 144.396 180.448C143.836 181.328 143.486 182.778 143.346 184.798L143.466 184.978C143.426 185.238 143.396 185.518 143.376 185.818C143.376 186.118 143.376 186.418 143.376 186.718C143.376 188.098 143.576 189.238 143.976 190.138C144.376 191.038 144.896 191.698 145.536 192.118C146.176 192.538 146.836 192.748 147.516 192.748C147.976 192.748 148.446 192.678 148.926 192.538C149.406 192.398 149.876 192.138 150.336 191.758C150.796 191.378 151.216 190.838 151.596 190.138L152.166 190.378C151.946 191.078 151.576 191.778 151.056 192.478C150.556 193.158 149.906 193.718 149.106 194.158C148.306 194.598 147.366 194.818 146.286 194.818C144.926 194.818 143.726 194.518 142.686 193.918C141.646 193.318 140.836 192.428 140.256 191.248C139.676 190.048 139.386 188.588 139.386 186.868C139.386 185.048 139.686 183.518 140.286 182.278C140.906 181.038 141.756 180.098 142.836 179.458C143.916 178.798 145.146 178.468 146.526 178.468ZM187.956 173.158V173.758C187.556 173.898 187.116 174.208 186.636 174.688C186.156 175.168 185.756 175.938 185.436 176.998L180.006 194.488C179.886 194.488 179.756 194.478 179.616 194.458C179.496 194.458 179.366 194.458 179.226 194.458C179.106 194.458 178.976 194.458 178.836 194.458C178.716 194.478 178.596 194.488 178.476 194.488L172.116 175.468C171.896 174.788 171.636 174.338 171.336 174.118C171.056 173.898 170.766 173.778 170.466 173.758V173.158C170.946 173.178 171.526 173.198 172.206 173.218C172.906 173.238 173.596 173.248 174.276 173.248C175.116 173.248 175.906 173.238 176.646 173.218C177.386 173.198 177.986 173.178 178.446 173.158V173.758C177.826 173.778 177.346 173.848 177.006 173.968C176.666 174.068 176.466 174.298 176.406 174.658C176.366 174.998 176.466 175.538 176.706 176.278L181.026 189.568L180.426 190.528L184.026 179.158C184.466 177.798 184.666 176.728 184.626 175.948C184.606 175.168 184.376 174.618 183.936 174.298C183.496 173.958 182.866 173.778 182.046 173.758V173.158C182.706 173.178 183.326 173.198 183.906 173.218C184.506 173.238 185.106 173.248 185.706 173.248C186.166 173.248 186.576 173.238 186.936 173.218C187.316 173.198 187.656 173.178 187.956 173.158ZM166.716 173.158V173.758C166.256 173.798 165.936 173.928 165.756 174.148C165.576 174.368 165.496 174.658 165.516 175.018C165.556 175.358 165.656 175.778 165.816 176.278L170.406 189.898L169.626 190.858L173.586 178.918L174.036 179.698L169.206 194.488C169.086 194.488 168.956 194.478 168.816 194.458C168.696 194.458 168.566 194.458 168.426 194.458C168.306 194.458 168.176 194.458 168.036 194.458C167.916 194.478 167.796 194.488 167.676 194.488L161.076 175.678C160.816 174.938 160.496 174.438 160.116 174.178C159.756 173.918 159.426 173.778 159.126 173.758V173.158C159.646 173.178 160.276 173.198 161.016 173.218C161.756 173.238 162.476 173.248 163.176 173.248C163.916 173.248 164.596 173.238 165.216 173.218C165.836 173.198 166.336 173.178 166.716 173.158ZM190.948 194.608C190.088 194.608 189.358 194.448 188.758 194.128C188.158 193.788 187.708 193.338 187.408 192.778C187.108 192.198 186.958 191.558 186.958 190.858C186.958 189.998 187.158 189.298 187.558 188.758C187.958 188.198 188.468 187.758 189.088 187.438C189.728 187.098 190.398 186.818 191.098 186.598C191.798 186.358 192.458 186.138 193.078 185.938C193.698 185.718 194.208 185.468 194.608 185.188C195.008 184.908 195.208 184.538 195.208 184.078V181.888C195.208 181.248 195.108 180.728 194.908 180.328C194.728 179.908 194.448 179.598 194.068 179.398C193.708 179.178 193.248 179.068 192.688 179.068C192.268 179.068 191.828 179.128 191.368 179.248C190.908 179.368 190.528 179.598 190.228 179.938C190.748 180.078 191.148 180.338 191.428 180.718C191.728 181.098 191.878 181.558 191.878 182.098C191.878 182.718 191.668 183.208 191.248 183.568C190.848 183.908 190.338 184.078 189.718 184.078C189.058 184.078 188.558 183.868 188.218 183.448C187.878 183.028 187.708 182.538 187.708 181.978C187.708 181.418 187.848 180.958 188.128 180.598C188.408 180.218 188.798 179.878 189.298 179.578C189.798 179.238 190.438 178.968 191.218 178.768C191.998 178.568 192.848 178.468 193.768 178.468C194.648 178.468 195.428 178.568 196.108 178.768C196.788 178.948 197.368 179.278 197.848 179.758C198.328 180.218 198.638 180.788 198.778 181.468C198.918 182.148 198.988 182.978 198.988 183.958V192.178C198.988 192.678 199.048 193.038 199.168 193.258C199.288 193.458 199.478 193.558 199.738 193.558C199.938 193.558 200.128 193.508 200.308 193.408C200.488 193.308 200.688 193.168 200.908 192.988L201.238 193.498C200.798 193.838 200.338 194.108 199.858 194.308C199.378 194.508 198.798 194.608 198.118 194.608C197.418 194.608 196.858 194.508 196.438 194.308C196.038 194.108 195.738 193.818 195.538 193.438C195.358 193.058 195.258 192.608 195.238 192.088C194.758 192.888 194.168 193.508 193.468 193.948C192.768 194.388 191.928 194.608 190.948 194.608ZM192.748 192.928C193.228 192.928 193.668 192.798 194.068 192.538C194.488 192.278 194.868 191.888 195.208 191.368V185.308C195.008 185.608 194.718 185.878 194.338 186.118C193.978 186.358 193.588 186.598 193.168 186.838C192.748 187.078 192.348 187.358 191.968 187.678C191.608 187.978 191.298 188.358 191.038 188.818C190.798 189.258 190.678 189.828 190.678 190.528C190.678 191.308 190.868 191.908 191.248 192.328C191.628 192.728 192.128 192.928 192.748 192.928ZM207.77 173.968V178.918H211.61V179.518H207.77V191.458C207.77 192.178 207.9 192.688 208.16 192.988C208.42 193.288 208.79 193.438 209.27 193.438C209.73 193.438 210.15 193.268 210.53 192.928C210.91 192.568 211.25 191.978 211.55 191.158L212.09 191.398C211.79 192.378 211.32 193.198 210.68 193.858C210.06 194.498 209.18 194.818 208.04 194.818C207.36 194.818 206.78 194.728 206.3 194.548C205.84 194.388 205.44 194.148 205.1 193.828C204.66 193.368 204.36 192.818 204.2 192.178C204.06 191.538 203.99 190.688 203.99 189.628V179.518H201.35V178.918H203.99V174.748C204.71 174.728 205.38 174.658 206 174.538C206.62 174.418 207.21 174.228 207.77 173.968ZM220.149 178.468C221.909 178.468 223.289 178.998 224.289 180.058C225.289 181.118 225.789 182.808 225.789 185.128H215.679L215.649 184.558H222.309C222.349 183.578 222.289 182.678 222.129 181.858C221.969 181.018 221.709 180.348 221.349 179.848C221.009 179.348 220.559 179.098 219.999 179.098C219.239 179.098 218.579 179.548 218.019 180.448C217.459 181.328 217.109 182.778 216.969 184.798L217.089 184.978C217.049 185.238 217.019 185.518 216.999 185.818C216.999 186.118 216.999 186.418 216.999 186.718C216.999 188.098 217.199 189.238 217.599 190.138C217.999 191.038 218.519 191.698 219.159 192.118C219.799 192.538 220.459 192.748 221.139 192.748C221.599 192.748 222.069 192.678 222.549 192.538C223.029 192.398 223.499 192.138 223.959 191.758C224.419 191.378 224.839 190.838 225.219 190.138L225.789 190.378C225.569 191.078 225.199 191.778 224.679 192.478C224.179 193.158 223.529 193.718 222.729 194.158C221.929 194.598 220.989 194.818 219.909 194.818C218.549 194.818 217.349 194.518 216.309 193.918C215.269 193.318 214.459 192.428 213.879 191.248C213.299 190.048 213.009 188.588 213.009 186.868C213.009 185.048 213.309 183.518 213.909 182.278C214.529 181.038 215.379 180.098 216.459 179.458C217.539 178.798 218.769 178.468 220.149 178.468ZM237.578 178.468C238.198 178.468 238.708 178.598 239.108 178.858C239.528 179.118 239.838 179.448 240.038 179.848C240.238 180.248 240.338 180.668 240.338 181.108C240.338 181.768 240.138 182.318 239.738 182.758C239.358 183.198 238.848 183.418 238.208 183.418C237.608 183.418 237.118 183.258 236.738 182.938C236.358 182.618 236.168 182.178 236.168 181.618C236.168 181.118 236.288 180.698 236.528 180.358C236.788 180.018 237.078 179.748 237.398 179.548C237.178 179.428 236.928 179.388 236.648 179.428C236.168 179.468 235.728 179.638 235.328 179.938C234.928 180.238 234.588 180.608 234.308 181.048C234.028 181.488 233.808 181.958 233.648 182.458C233.508 182.958 233.438 183.438 233.438 183.898V191.308C233.438 192.288 233.688 192.948 234.188 193.288C234.688 193.608 235.418 193.768 236.378 193.768V194.398C235.918 194.378 235.248 194.358 234.368 194.338C233.508 194.298 232.608 194.278 231.668 194.278C230.888 194.278 230.108 194.298 229.328 194.338C228.568 194.358 227.998 194.378 227.618 194.398V193.768C228.358 193.768 228.878 193.618 229.178 193.318C229.498 193.018 229.658 192.448 229.658 191.608V182.158C229.658 181.258 229.508 180.598 229.208 180.178C228.928 179.738 228.398 179.518 227.618 179.518V178.888C228.258 178.948 228.878 178.978 229.478 178.978C230.218 178.978 230.918 178.948 231.578 178.888C232.258 178.808 232.878 178.698 233.438 178.558V181.678C233.678 181.118 233.988 180.598 234.368 180.118C234.768 179.638 235.238 179.248 235.778 178.948C236.338 178.628 236.938 178.468 237.578 178.468Z" fill="white"/>
<path d="M29.0074 236.398V223.798H34.1914C35.3074 223.798 36.2614 223.978 37.0534 224.338C37.8574 224.698 38.4754 225.214 38.9074 225.886C39.3394 226.558 39.5554 227.356 39.5554 228.28C39.5554 229.204 39.3394 230.002 38.9074 230.674C38.4754 231.346 37.8574 231.862 37.0534 232.222C36.2614 232.582 35.3074 232.762 34.1914 232.762H30.3034L31.3474 231.664V236.398H29.0074ZM31.3474 231.916L30.3034 230.782H34.0834C35.1154 230.782 35.8894 230.566 36.4054 230.134C36.9334 229.69 37.1974 229.072 37.1974 228.28C37.1974 227.476 36.9334 226.858 36.4054 226.426C35.8894 225.994 35.1154 225.778 34.0834 225.778H30.3034L31.3474 224.626V231.916ZM45.92 236.524C45.104 236.524 44.384 236.374 43.76 236.074C43.136 235.762 42.65 235.294 42.302 234.67C41.954 234.034 41.78 233.236 41.78 232.276V226.786H44.03V231.97C44.03 232.834 44.222 233.482 44.606 233.914C45.002 234.334 45.56 234.544 46.28 234.544C46.808 234.544 47.264 234.436 47.648 234.22C48.044 234.004 48.35 233.68 48.566 233.248C48.794 232.816 48.908 232.282 48.908 231.646V226.786H51.158V236.398H49.016V233.806L49.394 234.598C49.07 235.222 48.596 235.702 47.972 236.038C47.348 236.362 46.664 236.524 45.92 236.524ZM54.1039 236.398V226.786H56.2459V229.432L55.9939 228.658C56.2819 228.01 56.7319 227.518 57.3439 227.182C57.9679 226.846 58.7419 226.678 59.6659 226.678V228.82C59.5699 228.796 59.4799 228.784 59.3959 228.784C59.3119 228.772 59.2279 228.766 59.1439 228.766C58.2919 228.766 57.6139 229.018 57.1099 229.522C56.6059 230.014 56.3539 230.752 56.3539 231.736V236.398H54.1039ZM66.0047 236.524C64.9367 236.524 64.0007 236.314 63.1967 235.894C62.4047 235.462 61.7867 234.874 61.3427 234.13C60.9107 233.386 60.6947 232.54 60.6947 231.592C60.6947 230.632 60.9047 229.786 61.3247 229.054C61.7567 228.31 62.3447 227.728 63.0887 227.308C63.8447 226.888 64.7027 226.678 65.6627 226.678C66.5987 226.678 67.4327 226.882 68.1647 227.29C68.8967 227.698 69.4727 228.274 69.8927 229.018C70.3127 229.762 70.5227 230.638 70.5227 231.646C70.5227 231.742 70.5167 231.85 70.5047 231.97C70.5047 232.09 70.4987 232.204 70.4867 232.312H62.4767V230.818H69.2987L68.4167 231.286C68.4287 230.734 68.3147 230.248 68.0747 229.828C67.8347 229.408 67.5047 229.078 67.0847 228.838C66.6767 228.598 66.2027 228.478 65.6627 228.478C65.1107 228.478 64.6247 228.598 64.2047 228.838C63.7967 229.078 63.4727 229.414 63.2327 229.846C63.0047 230.266 62.8907 230.764 62.8907 231.34V231.7C62.8907 232.276 63.0227 232.786 63.2867 233.23C63.5507 233.674 63.9227 234.016 64.4027 234.256C64.8827 234.496 65.4347 234.616 66.0587 234.616C66.5987 234.616 67.0847 234.532 67.5167 234.364C67.9487 234.196 68.3327 233.932 68.6687 233.572L69.8747 234.958C69.4427 235.462 68.8967 235.852 68.2367 236.128C67.5887 236.392 66.8447 236.524 66.0047 236.524ZM83.5806 236.398V234.454L83.4546 234.04V230.638C83.4546 229.978 83.2566 229.468 82.8606 229.108C82.4646 228.736 81.8646 228.55 81.0606 228.55C80.5206 228.55 79.9866 228.634 79.4586 228.802C78.9426 228.97 78.5046 229.204 78.1446 229.504L77.2626 227.866C77.7786 227.47 78.3906 227.176 79.0986 226.984C79.8186 226.78 80.5626 226.678 81.3306 226.678C82.7226 226.678 83.7966 227.014 84.5526 227.686C85.3206 228.346 85.7046 229.372 85.7046 230.764V236.398H83.5806ZM80.5566 236.524C79.8366 236.524 79.2066 236.404 78.6666 236.164C78.1266 235.912 77.7066 235.57 77.4066 235.138C77.1186 234.694 76.9746 234.196 76.9746 233.644C76.9746 233.104 77.1006 232.618 77.3526 232.186C77.6166 231.754 78.0426 231.412 78.6306 231.16C79.2186 230.908 79.9986 230.782 80.9706 230.782H83.7606V232.276H81.1326C80.3646 232.276 79.8486 232.402 79.5846 232.654C79.3206 232.894 79.1886 233.194 79.1886 233.554C79.1886 233.962 79.3506 234.286 79.6746 234.526C79.9986 234.766 80.4486 234.886 81.0246 234.886C81.5766 234.886 82.0686 234.76 82.5006 234.508C82.9446 234.256 83.2626 233.884 83.4546 233.392L83.8326 234.742C83.6166 235.306 83.2266 235.744 82.6626 236.056C82.1106 236.368 81.4086 236.524 80.5566 236.524ZM94.0462 226.678C94.8142 226.678 95.4982 226.828 96.0982 227.128C96.7102 227.428 97.1902 227.89 97.5382 228.514C97.8862 229.126 98.0602 229.918 98.0602 230.89V236.398H95.8102V231.178C95.8102 230.326 95.6062 229.69 95.1982 229.27C94.8022 228.85 94.2442 228.64 93.5242 228.64C92.9962 228.64 92.5282 228.748 92.1202 228.964C91.7122 229.18 91.3942 229.504 91.1662 229.936C90.9502 230.356 90.8422 230.89 90.8422 231.538V236.398H88.5922V226.786H90.7342V229.378L90.3562 228.586C90.6922 227.974 91.1782 227.506 91.8142 227.182C92.4622 226.846 93.2062 226.678 94.0462 226.678ZM105 236.524C104.076 236.524 103.242 236.32 102.498 235.912C101.766 235.492 101.19 234.916 100.77 234.184C100.35 233.452 100.14 232.588 100.14 231.592C100.14 230.596 100.35 229.732 100.77 229C101.19 228.268 101.766 227.698 102.498 227.29C103.242 226.882 104.076 226.678 105 226.678C105.804 226.678 106.524 226.858 107.16 227.218C107.796 227.566 108.3 228.1 108.672 228.82C109.044 229.54 109.23 230.464 109.23 231.592C109.23 232.708 109.05 233.632 108.69 234.364C108.33 235.084 107.832 235.624 107.196 235.984C106.56 236.344 105.828 236.524 105 236.524ZM105.27 234.598C105.81 234.598 106.29 234.478 106.71 234.238C107.142 233.998 107.484 233.65 107.736 233.194C108 232.738 108.132 232.204 108.132 231.592C108.132 230.968 108 230.434 107.736 229.99C107.484 229.534 107.142 229.186 106.71 228.946C106.29 228.706 105.81 228.586 105.27 228.586C104.73 228.586 104.244 228.706 103.812 228.946C103.392 229.186 103.05 229.534 102.786 229.99C102.534 230.434 102.408 230.968 102.408 231.592C102.408 232.204 102.534 232.738 102.786 233.194C103.05 233.65 103.392 233.998 103.812 234.238C104.244 234.478 104.73 234.598 105.27 234.598ZM108.186 236.398V234.13L108.276 231.574L108.096 229.018V223.042H110.328V236.398H108.186ZM121.882 236.524C120.826 236.524 120.01 236.254 119.434 235.714C118.858 235.162 118.57 234.352 118.57 233.284V224.662H120.82V233.23C120.82 233.686 120.934 234.04 121.162 234.292C121.402 234.544 121.732 234.67 122.152 234.67C122.656 234.67 123.076 234.538 123.412 234.274L124.042 235.876C123.778 236.092 123.454 236.254 123.07 236.362C122.686 236.47 122.29 236.524 121.882 236.524ZM116.986 228.658V226.858H123.394V228.658H116.986ZM130.095 236.524C129.027 236.524 128.091 236.314 127.287 235.894C126.495 235.462 125.877 234.874 125.433 234.13C125.001 233.386 124.785 232.54 124.785 231.592C124.785 230.632 124.995 229.786 125.415 229.054C125.847 228.31 126.435 227.728 127.179 227.308C127.935 226.888 128.793 226.678 129.753 226.678C130.689 226.678 131.523 226.882 132.255 227.29C132.987 227.698 133.563 228.274 133.983 229.018C134.403 229.762 134.613 230.638 134.613 231.646C134.613 231.742 134.607 231.85 134.595 231.97C134.595 232.09 134.589 232.204 134.577 232.312H126.567V230.818H133.389L132.507 231.286C132.519 230.734 132.405 230.248 132.165 229.828C131.925 229.408 131.595 229.078 131.175 228.838C130.767 228.598 130.293 228.478 129.753 228.478C129.201 228.478 128.715 228.598 128.295 228.838C127.887 229.078 127.563 229.414 127.323 229.846C127.095 230.266 126.981 230.764 126.981 231.34V231.7C126.981 232.276 127.113 232.786 127.377 233.23C127.641 233.674 128.013 234.016 128.493 234.256C128.973 234.496 129.525 234.616 130.149 234.616C130.689 234.616 131.175 234.532 131.607 234.364C132.039 234.196 132.423 233.932 132.759 233.572L133.965 234.958C133.533 235.462 132.987 235.852 132.327 236.128C131.679 236.392 130.935 236.524 130.095 236.524ZM139.744 236.524C138.94 236.524 138.166 236.422 137.422 236.218C136.69 236.002 136.108 235.744 135.676 235.444L136.54 233.734C136.972 234.01 137.488 234.238 138.088 234.418C138.688 234.598 139.288 234.688 139.888 234.688C140.596 234.688 141.106 234.592 141.418 234.4C141.742 234.208 141.904 233.95 141.904 233.626C141.904 233.362 141.796 233.164 141.58 233.032C141.364 232.888 141.082 232.78 140.734 232.708C140.386 232.636 139.996 232.57 139.564 232.51C139.144 232.45 138.718 232.372 138.286 232.276C137.866 232.168 137.482 232.018 137.134 231.826C136.786 231.622 136.504 231.352 136.288 231.016C136.072 230.68 135.964 230.236 135.964 229.684C135.964 229.072 136.138 228.544 136.486 228.1C136.834 227.644 137.32 227.296 137.944 227.056C138.58 226.804 139.33 226.678 140.194 226.678C140.842 226.678 141.496 226.75 142.156 226.894C142.816 227.038 143.362 227.242 143.794 227.506L142.93 229.216C142.474 228.94 142.012 228.754 141.544 228.658C141.088 228.55 140.632 228.496 140.176 228.496C139.492 228.496 138.982 228.598 138.646 228.802C138.322 229.006 138.16 229.264 138.16 229.576C138.16 229.864 138.268 230.08 138.484 230.224C138.7 230.368 138.982 230.482 139.33 230.566C139.678 230.65 140.062 230.722 140.482 230.782C140.914 230.83 141.34 230.908 141.76 231.016C142.18 231.124 142.564 231.274 142.912 231.466C143.272 231.646 143.56 231.904 143.776 232.24C143.992 232.576 144.1 233.014 144.1 233.554C144.1 234.154 143.92 234.676 143.56 235.12C143.212 235.564 142.714 235.912 142.066 236.164C141.418 236.404 140.644 236.524 139.744 236.524ZM149.656 236.524C148.6 236.524 147.784 236.254 147.208 235.714C146.632 235.162 146.344 234.352 146.344 233.284V224.662H148.594V233.23C148.594 233.686 148.708 234.04 148.936 234.292C149.176 234.544 149.506 234.67 149.926 234.67C150.43 234.67 150.85 234.538 151.186 234.274L151.816 235.876C151.552 236.092 151.228 236.254 150.844 236.362C150.46 236.47 150.064 236.524 149.656 236.524ZM144.76 228.658V226.858H151.168V228.658H144.76ZM157.868 236.524C156.8 236.524 155.864 236.314 155.06 235.894C154.268 235.462 153.65 234.874 153.206 234.13C152.774 233.386 152.558 232.54 152.558 231.592C152.558 230.632 152.768 229.786 153.188 229.054C153.62 228.31 154.208 227.728 154.952 227.308C155.708 226.888 156.566 226.678 157.526 226.678C158.462 226.678 159.296 226.882 160.028 227.29C160.76 227.698 161.336 228.274 161.756 229.018C162.176 229.762 162.386 230.638 162.386 231.646C162.386 231.742 162.38 231.85 162.368 231.97C162.368 232.09 162.362 232.204 162.35 232.312H154.34V230.818H161.162L160.28 231.286C160.292 230.734 160.178 230.248 159.938 229.828C159.698 229.408 159.368 229.078 158.948 228.838C158.54 228.598 158.066 228.478 157.526 228.478C156.974 228.478 156.488 228.598 156.068 228.838C155.66 229.078 155.336 229.414 155.096 229.846C154.868 230.266 154.754 230.764 154.754 231.34V231.7C154.754 232.276 154.886 232.786 155.15 233.23C155.414 233.674 155.786 234.016 156.266 234.256C156.746 234.496 157.298 234.616 157.922 234.616C158.462 234.616 158.948 234.532 159.38 234.364C159.812 234.196 160.196 233.932 160.532 233.572L161.738 234.958C161.306 235.462 160.76 235.852 160.1 236.128C159.452 236.392 158.708 236.524 157.868 236.524ZM168.615 236.524C167.691 236.524 166.857 236.32 166.113 235.912C165.381 235.492 164.805 234.916 164.385 234.184C163.965 233.452 163.755 232.588 163.755 231.592C163.755 230.596 163.965 229.732 164.385 229C164.805 228.268 165.381 227.698 166.113 227.29C166.857 226.882 167.691 226.678 168.615 226.678C169.419 226.678 170.139 226.858 170.775 227.218C171.411 227.566 171.915 228.1 172.287 228.82C172.659 229.54 172.845 230.464 172.845 231.592C172.845 232.708 172.665 233.632 172.305 234.364C171.945 235.084 171.447 235.624 170.811 235.984C170.175 236.344 169.443 236.524 168.615 236.524ZM168.885 234.598C169.425 234.598 169.905 234.478 170.325 234.238C170.757 233.998 171.099 233.65 171.351 233.194C171.615 232.738 171.747 232.204 171.747 231.592C171.747 230.968 171.615 230.434 171.351 229.99C171.099 229.534 170.757 229.186 170.325 228.946C169.905 228.706 169.425 228.586 168.885 228.586C168.345 228.586 167.859 228.706 167.427 228.946C167.007 229.186 166.665 229.534 166.401 229.99C166.149 230.434 166.023 230.968 166.023 231.592C166.023 232.204 166.149 232.738 166.401 233.194C166.665 233.65 167.007 233.998 167.427 234.238C167.859 234.478 168.345 234.598 168.885 234.598ZM171.801 236.398V234.13L171.891 231.574L171.711 229.018V223.042H173.943V236.398H171.801ZM187.801 236.398V234.454L187.675 234.04V230.638C187.675 229.978 187.477 229.468 187.081 229.108C186.685 228.736 186.085 228.55 185.281 228.55C184.741 228.55 184.207 228.634 183.679 228.802C183.163 228.97 182.725 229.204 182.365 229.504L181.483 227.866C181.999 227.47 182.611 227.176 183.319 226.984C184.039 226.78 184.783 226.678 185.551 226.678C186.943 226.678 188.017 227.014 188.773 227.686C189.541 228.346 189.925 229.372 189.925 230.764V236.398H187.801ZM184.777 236.524C184.057 236.524 183.427 236.404 182.887 236.164C182.347 235.912 181.927 235.57 181.627 235.138C181.339 234.694 181.195 234.196 181.195 233.644C181.195 233.104 181.321 232.618 181.573 232.186C181.837 231.754 182.263 231.412 182.851 231.16C183.439 230.908 184.219 230.782 185.191 230.782H187.981V232.276H185.353C184.585 232.276 184.069 232.402 183.805 232.654C183.541 232.894 183.409 233.194 183.409 233.554C183.409 233.962 183.571 234.286 183.895 234.526C184.219 234.766 184.669 234.886 185.245 234.886C185.797 234.886 186.289 234.76 186.721 234.508C187.165 234.256 187.483 233.884 187.675 233.392L188.053 234.742C187.837 235.306 187.447 235.744 186.883 236.056C186.331 236.368 185.629 236.524 184.777 236.524ZM192.813 236.398V223.042H195.063V236.398H192.813ZM199.852 234.256L199.906 231.43L204.928 226.786H207.628L203.362 231.07L202.174 232.06L199.852 234.256ZM198.016 236.398V223.042H200.266V236.398H198.016ZM205.27 236.398L201.76 232.06L203.182 230.26L208.006 236.398H205.27ZM215.206 236.398V234.454L215.08 234.04V230.638C215.08 229.978 214.882 229.468 214.486 229.108C214.09 228.736 213.49 228.55 212.686 228.55C212.146 228.55 211.612 228.634 211.084 228.802C210.568 228.97 210.13 229.204 209.77 229.504L208.888 227.866C209.404 227.47 210.016 227.176 210.724 226.984C211.444 226.78 212.188 226.678 212.956 226.678C214.348 226.678 215.422 227.014 216.178 227.686C216.946 228.346 217.33 229.372 217.33 230.764V236.398H215.206ZM212.182 236.524C211.462 236.524 210.832 236.404 210.292 236.164C209.752 235.912 209.332 235.57 209.032 235.138C208.744 234.694 208.6 234.196 208.6 233.644C208.6 233.104 208.726 232.618 208.978 232.186C209.242 231.754 209.668 231.412 210.256 231.16C210.844 230.908 211.624 230.782 212.596 230.782H215.386V232.276H212.758C211.99 232.276 211.474 232.402 211.21 232.654C210.946 232.894 210.814 233.194 210.814 233.554C210.814 233.962 210.976 234.286 211.3 234.526C211.624 234.766 212.074 234.886 212.65 234.886C213.202 234.886 213.694 234.76 214.126 234.508C214.57 234.256 214.888 233.884 215.08 233.392L215.458 234.742C215.242 235.306 214.852 235.744 214.288 236.056C213.736 236.368 213.034 236.524 212.182 236.524ZM220.217 236.398V223.042H222.467V236.398H220.217ZM225.42 236.398V226.786H227.67V236.398H225.42ZM226.554 225.202C226.134 225.202 225.786 225.07 225.51 224.806C225.246 224.542 225.114 224.224 225.114 223.852C225.114 223.468 225.246 223.15 225.51 222.898C225.786 222.634 226.134 222.502 226.554 222.502C226.974 222.502 227.316 222.628 227.58 222.88C227.856 223.12 227.994 223.426 227.994 223.798C227.994 224.194 227.862 224.53 227.598 224.806C227.334 225.07 226.986 225.202 226.554 225.202ZM236.077 226.678C236.845 226.678 237.529 226.828 238.129 227.128C238.741 227.428 239.221 227.89 239.569 228.514C239.917 229.126 240.091 229.918 240.091 230.89V236.398H237.841V231.178C237.841 230.326 237.637 229.69 237.229 229.27C236.833 228.85 236.275 228.64 235.555 228.64C235.027 228.64 234.559 228.748 234.151 228.964C233.743 229.18 233.425 229.504 233.197 229.936C232.981 230.356 232.873 230.89 232.873 231.538V236.398H230.623V226.786H232.765V229.378L232.387 228.586C232.723 227.974 233.209 227.506 233.845 227.182C234.493 226.846 235.237 226.678 236.077 226.678ZM247.481 236.524C246.413 236.524 245.477 236.314 244.673 235.894C243.881 235.462 243.263 234.874 242.819 234.13C242.387 233.386 242.171 232.54 242.171 231.592C242.171 230.632 242.381 229.786 242.801 229.054C243.233 228.31 243.821 227.728 244.565 227.308C245.321 226.888 246.179 226.678 247.139 226.678C248.075 226.678 248.909 226.882 249.641 227.29C250.373 227.698 250.949 228.274 251.369 229.018C251.789 229.762 251.999 230.638 251.999 231.646C251.999 231.742 251.993 231.85 251.981 231.97C251.981 232.09 251.975 232.204 251.963 232.312H243.953V230.818H250.775L249.893 231.286C249.905 230.734 249.791 230.248 249.551 229.828C249.311 229.408 248.981 229.078 248.561 228.838C248.153 228.598 247.679 228.478 247.139 228.478C246.587 228.478 246.101 228.598 245.681 228.838C245.273 229.078 244.949 229.414 244.709 229.846C244.481 230.266 244.367 230.764 244.367 231.34V231.7C244.367 232.276 244.499 232.786 244.763 233.23C245.027 233.674 245.399 234.016 245.879 234.256C246.359 234.496 246.911 234.616 247.535 234.616C248.075 234.616 248.561 234.532 248.993 234.364C249.425 234.196 249.809 233.932 250.145 233.572L251.351 234.958C250.919 235.462 250.373 235.852 249.713 236.128C249.065 236.392 248.321 236.524 247.481 236.524ZM62.8197 262.398L59.2917 252.786H61.4157L64.4397 261.264H63.4317L66.5997 252.786H68.4897L71.5677 261.264H70.5777L73.6917 252.786H75.6897L72.1437 262.398H69.9837L67.1757 254.892H67.8417L64.9797 262.398H62.8197ZM82.8599 262.398V260.454L82.7339 260.04V256.638C82.7339 255.978 82.5359 255.468 82.1399 255.108C81.7439 254.736 81.1439 254.55 80.3399 254.55C79.7999 254.55 79.2659 254.634 78.7379 254.802C78.2219 254.97 77.7839 255.204 77.4239 255.504L76.5419 253.866C77.0579 253.47 77.6699 253.176 78.3779 252.984C79.0979 252.78 79.8419 252.678 80.6099 252.678C82.0019 252.678 83.0759 253.014 83.8319 253.686C84.5999 254.346 84.9839 255.372 84.9839 256.764V262.398H82.8599ZM79.8359 262.524C79.1159 262.524 78.4859 262.404 77.9459 262.164C77.4059 261.912 76.9859 261.57 76.6859 261.138C76.3979 260.694 76.2539 260.196 76.2539 259.644C76.2539 259.104 76.3799 258.618 76.6319 258.186C76.8959 257.754 77.3219 257.412 77.9099 257.16C78.4979 256.908 79.2779 256.782 80.2499 256.782H83.0399V258.276H80.4119C79.6439 258.276 79.1279 258.402 78.8639 258.654C78.5999 258.894 78.4679 259.194 78.4679 259.554C78.4679 259.962 78.6299 260.286 78.9539 260.526C79.2779 260.766 79.7279 260.886 80.3039 260.886C80.8559 260.886 81.3479 260.76 81.7799 260.508C82.2239 260.256 82.5419 259.884 82.7339 259.392L83.1119 260.742C82.8959 261.306 82.5059 261.744 81.9419 262.056C81.3899 262.368 80.6879 262.524 79.8359 262.524ZM91.4895 262.524C90.4335 262.524 89.6175 262.254 89.0415 261.714C88.4655 261.162 88.1775 260.352 88.1775 259.284V250.662H90.4275V259.23C90.4275 259.686 90.5415 260.04 90.7695 260.292C91.0095 260.544 91.3395 260.67 91.7595 260.67C92.2635 260.67 92.6835 260.538 93.0195 260.274L93.6495 261.876C93.3855 262.092 93.0615 262.254 92.6775 262.362C92.2935 262.47 91.8975 262.524 91.4895 262.524ZM86.5935 254.658V252.858H93.0015V254.658H86.5935ZM99.702 262.524C98.634 262.524 97.698 262.314 96.894 261.894C96.102 261.462 95.484 260.874 95.04 260.13C94.608 259.386 94.392 258.54 94.392 257.592C94.392 256.632 94.602 255.786 95.022 255.054C95.454 254.31 96.042 253.728 96.786 253.308C97.542 252.888 98.4 252.678 99.36 252.678C100.296 252.678 101.13 252.882 101.862 253.29C102.594 253.698 103.17 254.274 103.59 255.018C104.01 255.762 104.22 256.638 104.22 257.646C104.22 257.742 104.214 257.85 104.202 257.97C104.202 258.09 104.196 258.204 104.184 258.312H96.174V256.818H102.996L102.114 257.286C102.126 256.734 102.012 256.248 101.772 255.828C101.532 255.408 101.202 255.078 100.782 254.838C100.374 254.598 99.9 254.478 99.36 254.478C98.808 254.478 98.322 254.598 97.902 254.838C97.494 255.078 97.17 255.414 96.93 255.846C96.702 256.266 96.588 256.764 96.588 257.34V257.7C96.588 258.276 96.72 258.786 96.984 259.23C97.248 259.674 97.62 260.016 98.1 260.256C98.58 260.496 99.132 260.616 99.756 260.616C100.296 260.616 100.782 260.532 101.214 260.364C101.646 260.196 102.03 259.932 102.366 259.572L103.572 260.958C103.14 261.462 102.594 261.852 101.934 262.128C101.286 262.392 100.542 262.524 99.702 262.524ZM106.381 262.398V252.786H108.523V255.432L108.271 254.658C108.559 254.01 109.009 253.518 109.621 253.182C110.245 252.846 111.019 252.678 111.943 252.678V254.82C111.847 254.796 111.757 254.784 111.673 254.784C111.589 254.772 111.505 254.766 111.421 254.766C110.569 254.766 109.891 255.018 109.387 255.522C108.883 256.014 108.631 256.752 108.631 257.736V262.398H106.381ZM118.914 262.398V252.786H121.164V262.398H118.914ZM120.048 251.202C119.628 251.202 119.28 251.07 119.004 250.806C118.74 250.542 118.608 250.224 118.608 249.852C118.608 249.468 118.74 249.15 119.004 248.898C119.28 248.634 119.628 248.502 120.048 248.502C120.468 248.502 120.81 248.628 121.074 248.88C121.35 249.12 121.488 249.426 121.488 249.798C121.488 250.194 121.356 250.53 121.092 250.806C120.828 251.07 120.48 251.202 120.048 251.202ZM129.572 252.678C130.34 252.678 131.024 252.828 131.624 253.128C132.236 253.428 132.716 253.89 133.064 254.514C133.412 255.126 133.586 255.918 133.586 256.89V262.398H131.336V257.178C131.336 256.326 131.132 255.69 130.724 255.27C130.328 254.85 129.77 254.64 129.05 254.64C128.522 254.64 128.054 254.748 127.646 254.964C127.238 255.18 126.92 255.504 126.692 255.936C126.476 256.356 126.368 256.89 126.368 257.538V262.398H124.118V252.786H126.26V255.378L125.882 254.586C126.218 253.974 126.704 253.506 127.34 253.182C127.988 252.846 128.732 252.678 129.572 252.678ZM141.63 262.398V249.798H147.534C149.046 249.798 150.198 250.098 150.99 250.698C151.782 251.286 152.178 252.078 152.178 253.074C152.178 253.746 152.022 254.322 151.71 254.802C151.398 255.27 150.978 255.636 150.45 255.9C149.934 256.152 149.37 256.278 148.758 256.278L149.082 255.63C149.79 255.63 150.426 255.762 150.99 256.026C151.554 256.278 151.998 256.65 152.322 257.142C152.658 257.634 152.826 258.246 152.826 258.978C152.826 260.058 152.412 260.898 151.584 261.498C150.756 262.098 149.526 262.398 147.894 262.398H141.63ZM143.97 260.562H147.75C148.626 260.562 149.298 260.418 149.766 260.13C150.234 259.842 150.468 259.38 150.468 258.744C150.468 258.12 150.234 257.664 149.766 257.376C149.298 257.076 148.626 256.926 147.75 256.926H143.79V255.108H147.282C148.098 255.108 148.722 254.964 149.154 254.676C149.598 254.388 149.82 253.956 149.82 253.38C149.82 252.792 149.598 252.354 149.154 252.066C148.722 251.778 148.098 251.634 147.282 251.634H143.97V260.562ZM155.324 262.398V249.798H160.508C161.624 249.798 162.578 249.978 163.37 250.338C164.174 250.698 164.792 251.214 165.224 251.886C165.656 252.558 165.872 253.356 165.872 254.28C165.872 255.204 165.656 256.002 165.224 256.674C164.792 257.346 164.174 257.862 163.37 258.222C162.578 258.582 161.624 258.762 160.508 258.762H156.62L157.664 257.664V262.398H155.324ZM157.664 257.916L156.62 256.782H160.4C161.432 256.782 162.206 256.566 162.722 256.134C163.25 255.69 163.514 255.072 163.514 254.28C163.514 253.476 163.25 252.858 162.722 252.426C162.206 251.994 161.432 251.778 160.4 251.778H156.62L157.664 250.626V257.916ZM165.794 262.398L171.464 249.798H173.768L179.456 262.398H177.008L172.13 251.04H173.066L168.206 262.398H165.794ZM168.404 259.482L169.034 257.646H175.838L176.468 259.482H168.404ZM186.123 262.398V252.246C186.123 251.238 186.417 250.434 187.005 249.834C187.605 249.222 188.457 248.916 189.561 248.916C189.957 248.916 190.329 248.958 190.677 249.042C191.037 249.126 191.337 249.258 191.577 249.438L190.965 251.13C190.797 250.998 190.605 250.902 190.389 250.842C190.173 250.77 189.951 250.734 189.723 250.734C189.255 250.734 188.901 250.866 188.661 251.13C188.421 251.382 188.301 251.766 188.301 252.282V253.362L188.373 254.37V262.398H186.123ZM184.539 254.658V252.858H190.947V254.658H184.539ZM192.479 262.398V252.786H194.621V255.432L194.369 254.658C194.657 254.01 195.107 253.518 195.719 253.182C196.343 252.846 197.117 252.678 198.041 252.678V254.82C197.945 254.796 197.855 254.784 197.771 254.784C197.687 254.772 197.603 254.766 197.519 254.766C196.667 254.766 195.989 255.018 195.485 255.522C194.981 256.014 194.729 256.752 194.729 257.736V262.398H192.479ZM204.38 262.524C203.312 262.524 202.376 262.314 201.572 261.894C200.78 261.462 200.162 260.874 199.718 260.13C199.286 259.386 199.07 258.54 199.07 257.592C199.07 256.632 199.28 255.786 199.7 255.054C200.132 254.31 200.72 253.728 201.464 253.308C202.22 252.888 203.078 252.678 204.038 252.678C204.974 252.678 205.808 252.882 206.54 253.29C207.272 253.698 207.848 254.274 208.268 255.018C208.688 255.762 208.898 256.638 208.898 257.646C208.898 257.742 208.892 257.85 208.88 257.97C208.88 258.09 208.874 258.204 208.862 258.312H200.852V256.818H207.674L206.792 257.286C206.804 256.734 206.69 256.248 206.45 255.828C206.21 255.408 205.88 255.078 205.46 254.838C205.052 254.598 204.578 254.478 204.038 254.478C203.486 254.478 203 254.598 202.58 254.838C202.172 255.078 201.848 255.414 201.608 255.846C201.38 256.266 201.266 256.764 201.266 257.34V257.7C201.266 258.276 201.398 258.786 201.662 259.23C201.926 259.674 202.298 260.016 202.778 260.256C203.258 260.496 203.81 260.616 204.434 260.616C204.974 260.616 205.46 260.532 205.892 260.364C206.324 260.196 206.708 259.932 207.044 259.572L208.25 260.958C207.818 261.462 207.272 261.852 206.612 262.128C205.964 262.392 205.22 262.524 204.38 262.524ZM215.577 262.524C214.509 262.524 213.573 262.314 212.769 261.894C211.977 261.462 211.359 260.874 210.915 260.13C210.483 259.386 210.267 258.54 210.267 257.592C210.267 256.632 210.477 255.786 210.897 255.054C211.329 254.31 211.917 253.728 212.661 253.308C213.417 252.888 214.275 252.678 215.235 252.678C216.171 252.678 217.005 252.882 217.737 253.29C218.469 253.698 219.045 254.274 219.465 255.018C219.885 255.762 220.095 256.638 220.095 257.646C220.095 257.742 220.089 257.85 220.077 257.97C220.077 258.09 220.071 258.204 220.059 258.312H212.049V256.818H218.871L217.989 257.286C218.001 256.734 217.887 256.248 217.647 255.828C217.407 255.408 217.077 255.078 216.657 254.838C216.249 254.598 215.775 254.478 215.235 254.478C214.683 254.478 214.197 254.598 213.777 254.838C213.369 255.078 213.045 255.414 212.805 255.846C212.577 256.266 212.463 256.764 212.463 257.34V257.7C212.463 258.276 212.595 258.786 212.859 259.23C213.123 259.674 213.495 260.016 213.975 260.256C214.455 260.496 215.007 260.616 215.631 260.616C216.171 260.616 216.657 260.532 217.089 260.364C217.521 260.196 217.905 259.932 218.241 259.572L219.447 260.958C219.015 261.462 218.469 261.852 217.809 262.128C217.161 262.392 216.417 262.524 215.577 262.524ZM39.5398 288.524C38.7358 288.524 37.9618 288.422 37.2178 288.218C36.4858 288.002 35.9038 287.744 35.4718 287.444L36.3358 285.734C36.7678 286.01 37.2838 286.238 37.8838 286.418C38.4838 286.598 39.0838 286.688 39.6838 286.688C40.3918 286.688 40.9018 286.592 41.2138 286.4C41.5378 286.208 41.6998 285.95 41.6998 285.626C41.6998 285.362 41.5918 285.164 41.3758 285.032C41.1598 284.888 40.8778 284.78 40.5298 284.708C40.1818 284.636 39.7918 284.57 39.3598 284.51C38.9398 284.45 38.5138 284.372 38.0818 284.276C37.6618 284.168 37.2778 284.018 36.9298 283.826C36.5818 283.622 36.2998 283.352 36.0838 283.016C35.8678 282.68 35.7598 282.236 35.7598 281.684C35.7598 281.072 35.9338 280.544 36.2817 280.1C36.6298 279.644 37.1158 279.296 37.7397 279.056C38.3758 278.804 39.1258 278.678 39.9898 278.678C40.6378 278.678 41.2918 278.75 41.9518 278.894C42.6118 279.038 43.1578 279.242 43.5898 279.506L42.7258 281.216C42.2698 280.94 41.8078 280.754 41.3398 280.658C40.8838 280.55 40.4278 280.496 39.9718 280.496C39.2878 280.496 38.7778 280.598 38.4418 280.802C38.1178 281.006 37.9558 281.264 37.9558 281.576C37.9558 281.864 38.0638 282.08 38.2798 282.224C38.4958 282.368 38.7778 282.482 39.1258 282.566C39.4738 282.65 39.8578 282.722 40.2778 282.782C40.7098 282.83 41.1358 282.908 41.5558 283.016C41.9758 283.124 42.3598 283.274 42.7078 283.466C43.0678 283.646 43.3558 283.904 43.5718 284.24C43.7878 284.576 43.8958 285.014 43.8958 285.554C43.8958 286.154 43.7158 286.676 43.3558 287.12C43.0078 287.564 42.5098 287.912 41.8618 288.164C41.2138 288.404 40.4398 288.524 39.5398 288.524ZM49.9014 288.524C49.0854 288.524 48.3654 288.374 47.7414 288.074C47.1174 287.762 46.6314 287.294 46.2834 286.67C45.9354 286.034 45.7614 285.236 45.7614 284.276V278.786H48.0114V283.97C48.0114 284.834 48.2034 285.482 48.5874 285.914C48.9834 286.334 49.5414 286.544 50.2614 286.544C50.7894 286.544 51.2454 286.436 51.6294 286.22C52.0254 286.004 52.3314 285.68 52.5474 285.248C52.7754 284.816 52.8894 284.282 52.8894 283.646V278.786H55.1394V288.398H52.9974V285.806L53.3754 286.598C53.0514 287.222 52.5774 287.702 51.9534 288.038C51.3294 288.362 50.6454 288.524 49.9014 288.524ZM61.0554 288.524C60.2514 288.524 59.4774 288.422 58.7334 288.218C58.0014 288.002 57.4194 287.744 56.9874 287.444L57.8514 285.734C58.2834 286.01 58.7994 286.238 59.3994 286.418C59.9994 286.598 60.5994 286.688 61.1994 286.688C61.9074 286.688 62.4174 286.592 62.7294 286.4C63.0534 286.208 63.2154 285.95 63.2154 285.626C63.2154 285.362 63.1074 285.164 62.8914 285.032C62.6754 284.888 62.3934 284.78 62.0454 284.708C61.6974 284.636 61.3074 284.57 60.8754 284.51C60.4554 284.45 60.0294 284.372 59.5974 284.276C59.1774 284.168 58.7934 284.018 58.4454 283.826C58.0974 283.622 57.8154 283.352 57.5994 283.016C57.3834 282.68 57.2754 282.236 57.2754 281.684C57.2754 281.072 57.4494 280.544 57.7974 280.1C58.1454 279.644 58.6314 279.296 59.2554 279.056C59.8914 278.804 60.6414 278.678 61.5054 278.678C62.1534 278.678 62.8074 278.75 63.4674 278.894C64.1274 279.038 64.6734 279.242 65.1054 279.506L64.2414 281.216C63.7854 280.94 63.3234 280.754 62.8554 280.658C62.3994 280.55 61.9434 280.496 61.4874 280.496C60.8034 280.496 60.2934 280.598 59.9574 280.802C59.6334 281.006 59.4714 281.264 59.4714 281.576C59.4714 281.864 59.5794 282.08 59.7954 282.224C60.0114 282.368 60.2934 282.482 60.6414 282.566C60.9894 282.65 61.3734 282.722 61.7934 282.782C62.2254 282.83 62.6514 282.908 63.0714 283.016C63.4914 283.124 63.8754 283.274 64.2234 283.466C64.5834 283.646 64.8714 283.904 65.0874 284.24C65.3034 284.576 65.4114 285.014 65.4114 285.554C65.4114 286.154 65.2314 286.676 64.8714 287.12C64.5234 287.564 64.0254 287.912 63.3774 288.164C62.7294 288.404 61.9554 288.524 61.0554 288.524ZM70.967 288.524C69.911 288.524 69.095 288.254 68.519 287.714C67.943 287.162 67.655 286.352 67.655 285.284V276.662H69.905V285.23C69.905 285.686 70.019 286.04 70.247 286.292C70.487 286.544 70.817 286.67 71.237 286.67C71.741 286.67 72.161 286.538 72.497 286.274L73.127 287.876C72.863 288.092 72.539 288.254 72.155 288.362C71.771 288.47 71.375 288.524 70.967 288.524ZM66.071 280.658V278.858H72.479V280.658H66.071ZM80.9 288.398V286.454L80.774 286.04V282.638C80.774 281.978 80.576 281.468 80.18 281.108C79.784 280.736 79.184 280.55 78.38 280.55C77.84 280.55 77.306 280.634 76.778 280.802C76.262 280.97 75.824 281.204 75.464 281.504L74.582 279.866C75.098 279.47 75.71 279.176 76.418 278.984C77.138 278.78 77.882 278.678 78.65 278.678C80.042 278.678 81.116 279.014 81.872 279.686C82.64 280.346 83.024 281.372 83.024 282.764V288.398H80.9ZM77.876 288.524C77.156 288.524 76.526 288.404 75.986 288.164C75.446 287.912 75.026 287.57 74.726 287.138C74.438 286.694 74.294 286.196 74.294 285.644C74.294 285.104 74.42 284.618 74.672 284.186C74.936 283.754 75.362 283.412 75.95 283.16C76.538 282.908 77.318 282.782 78.29 282.782H81.08V284.276H78.452C77.684 284.276 77.168 284.402 76.904 284.654C76.64 284.894 76.508 285.194 76.508 285.554C76.508 285.962 76.67 286.286 76.994 286.526C77.318 286.766 77.768 286.886 78.344 286.886C78.896 286.886 79.388 286.76 79.82 286.508C80.264 286.256 80.582 285.884 80.774 285.392L81.152 286.742C80.936 287.306 80.546 287.744 79.982 288.056C79.43 288.368 78.728 288.524 77.876 288.524ZM85.9115 288.398V278.786H88.1615V288.398H85.9115ZM87.0455 277.202C86.6255 277.202 86.2775 277.07 86.0015 276.806C85.7375 276.542 85.6055 276.224 85.6055 275.852C85.6055 275.468 85.7375 275.15 86.0015 274.898C86.2775 274.634 86.6255 274.502 87.0455 274.502C87.4655 274.502 87.8075 274.628 88.0715 274.88C88.3475 275.12 88.4855 275.426 88.4855 275.798C88.4855 276.194 88.3535 276.53 88.0895 276.806C87.8255 277.07 87.4775 277.202 87.0455 277.202ZM96.5687 278.678C97.3367 278.678 98.0207 278.828 98.6207 279.128C99.2327 279.428 99.7127 279.89 100.061 280.514C100.409 281.126 100.583 281.918 100.583 282.89V288.398H98.3327V283.178C98.3327 282.326 98.1287 281.69 97.7207 281.27C97.3247 280.85 96.7667 280.64 96.0467 280.64C95.5187 280.64 95.0507 280.748 94.6427 280.964C94.2347 281.18 93.9167 281.504 93.6887 281.936C93.4727 282.356 93.3647 282.89 93.3647 283.538V288.398H91.1147V278.786H93.2567V281.378L92.8787 280.586C93.2147 279.974 93.7007 279.506 94.3367 279.182C94.9847 278.846 95.7287 278.678 96.5687 278.678ZM109.359 288.398V286.454L109.233 286.04V282.638C109.233 281.978 109.035 281.468 108.639 281.108C108.243 280.736 107.643 280.55 106.839 280.55C106.299 280.55 105.765 280.634 105.237 280.802C104.721 280.97 104.283 281.204 103.923 281.504L103.041 279.866C103.557 279.47 104.169 279.176 104.877 278.984C105.597 278.78 106.341 278.678 107.109 278.678C108.501 278.678 109.575 279.014 110.331 279.686C111.099 280.346 111.483 281.372 111.483 282.764V288.398H109.359ZM106.335 288.524C105.615 288.524 104.985 288.404 104.445 288.164C103.905 287.912 103.485 287.57 103.185 287.138C102.897 286.694 102.753 286.196 102.753 285.644C102.753 285.104 102.879 284.618 103.131 284.186C103.395 283.754 103.821 283.412 104.409 283.16C104.997 282.908 105.777 282.782 106.749 282.782H109.539V284.276H106.911C106.143 284.276 105.627 284.402 105.363 284.654C105.099 284.894 104.967 285.194 104.967 285.554C104.967 285.962 105.129 286.286 105.453 286.526C105.777 286.766 106.227 286.886 106.803 286.886C107.355 286.886 107.847 286.76 108.279 286.508C108.723 286.256 109.041 285.884 109.233 285.392L109.611 286.742C109.395 287.306 109.005 287.744 108.441 288.056C107.889 288.368 107.187 288.524 106.335 288.524ZM119.699 288.524C118.883 288.524 118.157 288.344 117.521 287.984C116.885 287.624 116.381 287.084 116.009 286.364C115.649 285.632 115.469 284.708 115.469 283.592C115.469 282.464 115.655 281.54 116.027 280.82C116.411 280.1 116.921 279.566 117.557 279.218C118.205 278.858 118.919 278.678 119.699 278.678C120.647 278.678 121.481 278.882 122.201 279.29C122.933 279.698 123.509 280.268 123.929 281C124.361 281.732 124.577 282.596 124.577 283.592C124.577 284.588 124.361 285.452 123.929 286.184C123.509 286.916 122.933 287.492 122.201 287.912C121.481 288.32 120.647 288.524 119.699 288.524ZM114.371 288.398V275.042H116.621V281.018L116.441 283.574L116.513 286.13V288.398H114.371ZM119.447 286.598C119.987 286.598 120.467 286.478 120.887 286.238C121.319 285.998 121.661 285.65 121.913 285.194C122.165 284.738 122.291 284.204 122.291 283.592C122.291 282.968 122.165 282.434 121.913 281.99C121.661 281.534 121.319 281.186 120.887 280.946C120.467 280.706 119.987 280.586 119.447 280.586C118.907 280.586 118.421 280.706 117.989 280.946C117.557 281.186 117.215 281.534 116.963 281.99C116.711 282.434 116.585 282.968 116.585 283.592C116.585 284.204 116.711 284.738 116.963 285.194C117.215 285.65 117.557 285.998 117.989 286.238C118.421 286.478 118.907 286.598 119.447 286.598ZM126.71 288.398V275.042H128.96V288.398H126.71ZM136.432 288.524C135.364 288.524 134.428 288.314 133.624 287.894C132.832 287.462 132.214 286.874 131.77 286.13C131.338 285.386 131.122 284.54 131.122 283.592C131.122 282.632 131.332 281.786 131.752 281.054C132.184 280.31 132.772 279.728 133.516 279.308C134.272 278.888 135.13 278.678 136.09 278.678C137.026 278.678 137.86 278.882 138.592 279.29C139.324 279.698 139.9 280.274 140.32 281.018C140.74 281.762 140.95 282.638 140.95 283.646C140.95 283.742 140.944 283.85 140.932 283.97C140.932 284.09 140.926 284.204 140.914 284.312H132.904V282.818H139.726L138.844 283.286C138.856 282.734 138.742 282.248 138.502 281.828C138.262 281.408 137.932 281.078 137.512 280.838C137.104 280.598 136.63 280.478 136.09 280.478C135.538 280.478 135.052 280.598 134.632 280.838C134.224 281.078 133.9 281.414 133.66 281.846C133.432 282.266 133.318 282.764 133.318 283.34V283.7C133.318 284.276 133.45 284.786 133.714 285.23C133.978 285.674 134.35 286.016 134.83 286.256C135.31 286.496 135.862 286.616 136.486 286.616C137.026 286.616 137.512 286.532 137.944 286.364C138.376 286.196 138.76 285.932 139.096 285.572L140.302 286.958C139.87 287.462 139.324 287.852 138.664 288.128C138.016 288.392 137.272 288.524 136.432 288.524ZM153.413 288.524C152.633 288.524 151.919 288.344 151.271 287.984C150.635 287.624 150.125 287.084 149.741 286.364C149.369 285.632 149.183 284.708 149.183 283.592C149.183 282.464 149.363 281.54 149.723 280.82C150.095 280.1 150.599 279.566 151.235 279.218C151.871 278.858 152.597 278.678 153.413 278.678C154.361 278.678 155.195 278.882 155.915 279.29C156.647 279.698 157.223 280.268 157.643 281C158.075 281.732 158.291 282.596 158.291 283.592C158.291 284.588 158.075 285.458 157.643 286.202C157.223 286.934 156.647 287.504 155.915 287.912C155.195 288.32 154.361 288.524 153.413 288.524ZM148.085 291.89V278.786H150.227V281.054L150.155 283.61L150.335 286.166V291.89H148.085ZM153.161 286.598C153.701 286.598 154.181 286.478 154.601 286.238C155.033 285.998 155.375 285.65 155.627 285.194C155.879 284.738 156.005 284.204 156.005 283.592C156.005 282.968 155.879 282.434 155.627 281.99C155.375 281.534 155.033 281.186 154.601 280.946C154.181 280.706 153.701 280.586 153.161 280.586C152.621 280.586 152.135 280.706 151.703 280.946C151.271 281.186 150.929 281.534 150.677 281.99C150.425 282.434 150.299 282.968 150.299 283.592C150.299 284.204 150.425 284.738 150.677 285.194C150.929 285.65 151.271 285.998 151.703 286.238C152.135 286.478 152.621 286.598 153.161 286.598ZM166.224 288.398V286.454L166.098 286.04V282.638C166.098 281.978 165.9 281.468 165.504 281.108C165.108 280.736 164.508 280.55 163.704 280.55C163.164 280.55 162.63 280.634 162.102 280.802C161.586 280.97 161.148 281.204 160.788 281.504L159.906 279.866C160.422 279.47 161.034 279.176 161.742 278.984C162.462 278.78 163.206 278.678 163.974 278.678C165.366 278.678 166.44 279.014 167.196 279.686C167.964 280.346 168.348 281.372 168.348 282.764V288.398H166.224ZM163.2 288.524C162.48 288.524 161.85 288.404 161.31 288.164C160.77 287.912 160.35 287.57 160.05 287.138C159.762 286.694 159.618 286.196 159.618 285.644C159.618 285.104 159.744 284.618 159.996 284.186C160.26 283.754 160.686 283.412 161.274 283.16C161.862 282.908 162.642 282.782 163.614 282.782H166.404V284.276H163.776C163.008 284.276 162.492 284.402 162.228 284.654C161.964 284.894 161.832 285.194 161.832 285.554C161.832 285.962 161.994 286.286 162.318 286.526C162.642 286.766 163.092 286.886 163.668 286.886C164.22 286.886 164.712 286.76 165.144 286.508C165.588 286.256 165.906 285.884 166.098 285.392L166.476 286.742C166.26 287.306 165.87 287.744 165.306 288.056C164.754 288.368 164.052 288.524 163.2 288.524ZM175.663 288.524C174.655 288.524 173.755 288.314 172.963 287.894C172.183 287.462 171.571 286.874 171.127 286.13C170.683 285.386 170.461 284.54 170.461 283.592C170.461 282.632 170.683 281.786 171.127 281.054C171.571 280.31 172.183 279.728 172.963 279.308C173.755 278.888 174.655 278.678 175.663 278.678C176.599 278.678 177.421 278.87 178.129 279.254C178.849 279.626 179.395 280.178 179.767 280.91L178.039 281.918C177.751 281.462 177.397 281.126 176.977 280.91C176.569 280.694 176.125 280.586 175.645 280.586C175.093 280.586 174.595 280.706 174.151 280.946C173.707 281.186 173.359 281.534 173.107 281.99C172.855 282.434 172.729 282.968 172.729 283.592C172.729 284.216 172.855 284.756 173.107 285.212C173.359 285.656 173.707 285.998 174.151 286.238C174.595 286.478 175.093 286.598 175.645 286.598C176.125 286.598 176.569 286.49 176.977 286.274C177.397 286.058 177.751 285.722 178.039 285.266L179.767 286.274C179.395 286.994 178.849 287.552 178.129 287.948C177.421 288.332 176.599 288.524 175.663 288.524ZM183.46 286.256L183.514 283.43L188.536 278.786H191.236L186.97 283.07L185.782 284.06L183.46 286.256ZM181.624 288.398V275.042H183.874V288.398H181.624ZM188.878 288.398L185.368 284.06L186.79 282.26L191.614 288.398H188.878ZM198.814 288.398V286.454L198.688 286.04V282.638C198.688 281.978 198.49 281.468 198.094 281.108C197.698 280.736 197.098 280.55 196.294 280.55C195.754 280.55 195.22 280.634 194.692 280.802C194.176 280.97 193.738 281.204 193.378 281.504L192.496 279.866C193.012 279.47 193.624 279.176 194.332 278.984C195.052 278.78 195.796 278.678 196.564 278.678C197.956 278.678 199.03 279.014 199.786 279.686C200.554 280.346 200.938 281.372 200.938 282.764V288.398H198.814ZM195.79 288.524C195.07 288.524 194.44 288.404 193.9 288.164C193.36 287.912 192.94 287.57 192.64 287.138C192.352 286.694 192.208 286.196 192.208 285.644C192.208 285.104 192.334 284.618 192.586 284.186C192.85 283.754 193.276 283.412 193.864 283.16C194.452 282.908 195.232 282.782 196.204 282.782H198.994V284.276H196.366C195.598 284.276 195.082 284.402 194.818 284.654C194.554 284.894 194.422 285.194 194.422 285.554C194.422 285.962 194.584 286.286 194.908 286.526C195.232 286.766 195.682 286.886 196.258 286.886C196.81 286.886 197.302 286.76 197.734 286.508C198.178 286.256 198.496 285.884 198.688 285.392L199.066 286.742C198.85 287.306 198.46 287.744 197.896 288.056C197.344 288.368 196.642 288.524 195.79 288.524ZM208.199 292.016C207.311 292.016 206.441 291.896 205.589 291.656C204.749 291.428 204.059 291.092 203.519 290.648L204.527 288.956C204.947 289.304 205.475 289.58 206.111 289.784C206.759 290 207.413 290.108 208.073 290.108C209.129 290.108 209.903 289.862 210.395 289.37C210.887 288.89 211.133 288.164 211.133 287.192V285.482L211.313 283.304L211.241 281.126V278.786H213.383V286.94C213.383 288.68 212.939 289.958 212.051 290.774C211.163 291.602 209.879 292.016 208.199 292.016ZM207.911 287.966C206.999 287.966 206.171 287.774 205.427 287.39C204.695 286.994 204.113 286.448 203.681 285.752C203.261 285.056 203.051 284.24 203.051 283.304C203.051 282.38 203.261 281.57 203.681 280.874C204.113 280.178 204.695 279.638 205.427 279.254C206.171 278.87 206.999 278.678 207.911 278.678C208.727 278.678 209.459 278.84 210.107 279.164C210.755 279.488 211.271 279.992 211.655 280.676C212.051 281.36 212.249 282.236 212.249 283.304C212.249 284.372 212.051 285.254 211.655 285.95C211.271 286.634 210.755 287.144 210.107 287.48C209.459 287.804 208.727 287.966 207.911 287.966ZM208.253 286.058C208.817 286.058 209.321 285.944 209.765 285.716C210.209 285.476 210.551 285.152 210.791 284.744C211.043 284.324 211.169 283.844 211.169 283.304C211.169 282.764 211.043 282.29 210.791 281.882C210.551 281.462 210.209 281.144 209.765 280.928C209.321 280.7 208.817 280.586 208.253 280.586C207.689 280.586 207.179 280.7 206.723 280.928C206.279 281.144 205.931 281.462 205.679 281.882C205.439 282.29 205.319 282.764 205.319 283.304C205.319 283.844 205.439 284.324 205.679 284.744C205.931 285.152 206.279 285.476 206.723 285.716C207.179 285.944 207.689 286.058 208.253 286.058ZM216.341 288.398V278.786H218.591V288.398H216.341ZM217.475 277.202C217.055 277.202 216.707 277.07 216.431 276.806C216.167 276.542 216.035 276.224 216.035 275.852C216.035 275.468 216.167 275.15 216.431 274.898C216.707 274.634 217.055 274.502 217.475 274.502C217.895 274.502 218.237 274.628 218.501 274.88C218.777 275.12 218.915 275.426 218.915 275.798C218.915 276.194 218.783 276.53 218.519 276.806C218.255 277.07 217.907 277.202 217.475 277.202ZM226.998 278.678C227.766 278.678 228.45 278.828 229.05 279.128C229.662 279.428 230.142 279.89 230.49 280.514C230.838 281.126 231.012 281.918 231.012 282.89V288.398H228.762V283.178C228.762 282.326 228.558 281.69 228.15 281.27C227.754 280.85 227.196 280.64 226.476 280.64C225.948 280.64 225.48 280.748 225.072 280.964C224.664 281.18 224.346 281.504 224.118 281.936C223.902 282.356 223.794 282.89 223.794 283.538V288.398H221.544V278.786H223.686V281.378L223.308 280.586C223.644 279.974 224.13 279.506 224.766 279.182C225.414 278.846 226.158 278.678 226.998 278.678ZM238.24 292.016C237.352 292.016 236.482 291.896 235.63 291.656C234.79 291.428 234.1 291.092 233.56 290.648L234.568 288.956C234.988 289.304 235.516 289.58 236.152 289.784C236.8 290 237.454 290.108 238.114 290.108C239.17 290.108 239.944 289.862 240.436 289.37C240.928 288.89 241.174 288.164 241.174 287.192V285.482L241.354 283.304L241.282 281.126V278.786H243.424V286.94C243.424 288.68 242.98 289.958 242.092 290.774C241.204 291.602 239.92 292.016 238.24 292.016ZM237.952 287.966C237.04 287.966 236.212 287.774 235.468 287.39C234.736 286.994 234.154 286.448 233.722 285.752C233.302 285.056 233.092 284.24 233.092 283.304C233.092 282.38 233.302 281.57 233.722 280.874C234.154 280.178 234.736 279.638 235.468 279.254C236.212 278.87 237.04 278.678 237.952 278.678C238.768 278.678 239.5 278.84 240.148 279.164C240.796 279.488 241.312 279.992 241.696 280.676C242.092 281.36 242.29 282.236 242.29 283.304C242.29 284.372 242.092 285.254 241.696 285.95C241.312 286.634 240.796 287.144 240.148 287.48C239.5 287.804 238.768 287.966 237.952 287.966ZM238.294 286.058C238.858 286.058 239.362 285.944 239.806 285.716C240.25 285.476 240.592 285.152 240.832 284.744C241.084 284.324 241.21 283.844 241.21 283.304C241.21 282.764 241.084 282.29 240.832 281.882C240.592 281.462 240.25 281.144 239.806 280.928C239.362 280.7 238.858 280.586 238.294 280.586C237.73 280.586 237.22 280.7 236.764 280.928C236.32 281.144 235.972 281.462 235.72 281.882C235.48 282.29 235.36 282.764 235.36 283.304C235.36 283.844 235.48 284.324 235.72 284.744C235.972 285.152 236.32 285.476 236.764 285.716C237.22 285.944 237.73 286.058 238.294 286.058Z" fill="white"/>
</g>
<defs>
<filter id="filter0_b_310_718" x="-10" y="-10" width="300" height="380" filterUnits="userSpaceOnUse" color-interpolation-filters="sRGB">
<feFlood flood-opacity="0" result="BackgroundImageFix"/>
<feGaussianBlur in="BackgroundImageFix" stdDeviation="5"/>
<feComposite in2="SourceAlpha" operator="in" result="effect1_backgroundBlur_310_718"/>
<feBlend mode="normal" in="SourceGraphic" in2="effect1_backgroundBlur_310_718" result="shape"/>
</filter>
<clipPath id="clip0_310_718">
<rect width="82.7969" height="82.7969" fill="white" transform="translate(98.6016 64.6016)"/>
</clipPath>
<clipPath id="clip1_310_718">
<rect width="41.3984" height="41.3984" fill="white" transform="translate(119.297 95.6504)"/>
</clipPath>
</defs>
</svg>
