<svg width="280" height="360" viewBox="0 0 280 360" fill="none" xmlns="http://www.w3.org/2000/svg">
<g filter="url(#filter0_b_310_718)">
<rect width="280" height="360" rx="50" fill="white" fill-opacity="0.01"/>
<g clip-path="url(#clip0_310_718)">
<path fill-rule="evenodd" clip-rule="evenodd" d="M140.002 64.6504L164.379 88.4924C177.843 101.957 177.843 123.847 164.392 137.298C157.879 143.815 149.216 147.402 140.002 147.402C130.787 147.402 122.128 143.815 115.608 137.298C102.157 123.843 102.157 101.957 115.608 88.5062L140.002 64.6504ZM140.002 143.949C148.292 143.949 156.089 140.717 161.953 134.855C174.059 122.746 174.059 103.054 161.953 90.9453L140.002 69.4733L118.033 90.9556C105.941 103.051 105.941 122.746 118.047 134.855C123.912 140.717 131.712 143.949 140.002 143.949Z" fill="white"/>
</g>
<g clip-path="url(#clip1_310_718)">
<path fill-rule="evenodd" clip-rule="evenodd" d="M139.999 95.6738L152.187 107.595C158.92 114.327 158.92 125.272 152.194 131.998C148.938 135.256 144.606 137.05 139.999 137.05C135.392 137.05 131.062 135.256 127.802 131.998C121.076 125.27 121.076 114.327 127.802 107.602L139.999 95.6738ZM139.999 135.323C144.144 135.323 148.042 133.707 150.975 130.776C157.028 124.722 157.028 114.876 150.975 108.821L139.999 98.0853L129.015 108.826C122.969 114.874 122.969 124.722 129.021 130.776C131.954 133.707 135.854 135.323 139.999 135.323Z" fill="#00A3FF"/>
</g>
<path d="M33.3993 173.158C33.8993 173.178 34.5393 173.198 35.3193 173.218C36.0993 173.238 36.8793 173.248 37.6593 173.248C38.6393 173.248 39.5693 173.238 40.4493 173.218C41.3293 173.198 41.9493 173.188 42.3093 173.188C44.9893 173.188 46.9793 173.738 48.2793 174.838C49.5993 175.938 50.2593 177.358 50.2593 179.098C50.2593 179.818 50.1293 180.578 49.8693 181.378C49.6093 182.158 49.1593 182.888 48.5193 183.568C47.8793 184.228 46.9993 184.768 45.8793 185.188C44.7793 185.608 43.3693 185.818 41.6493 185.818H38.6493V185.218H41.3493C42.6093 185.218 43.5693 184.948 44.2293 184.408C44.9093 183.868 45.3593 183.158 45.5793 182.278C45.8193 181.398 45.9393 180.448 45.9393 179.428C45.9393 177.528 45.6293 176.108 45.0093 175.168C44.3893 174.228 43.3193 173.758 41.7993 173.758C40.9793 173.758 40.4393 173.928 40.1793 174.268C39.9393 174.608 39.8193 175.298 39.8193 176.338V191.098C39.8193 191.858 39.8993 192.428 40.0593 192.808C40.2193 193.188 40.5293 193.438 40.9893 193.558C41.4493 193.678 42.1093 193.748 42.9693 193.768V194.398C42.3893 194.358 41.6393 194.338 40.7193 194.338C39.7993 194.318 38.8493 194.308 37.8693 194.308C37.0293 194.308 36.2193 194.318 35.4393 194.338C34.6593 194.338 33.9793 194.358 33.3993 194.398V193.798C34.0593 193.758 34.5493 193.678 34.8693 193.558C35.2093 193.438 35.4293 193.198 35.5293 192.838C35.6493 192.478 35.7093 191.938 35.7093 191.218V176.338C35.7093 175.598 35.6493 175.058 35.5293 174.718C35.4293 174.358 35.2093 174.118 34.8693 173.998C34.5493 173.858 34.0593 173.778 33.3993 173.758V173.158ZM61.7214 178.468C62.3414 178.468 62.8514 178.598 63.2514 178.858C63.6714 179.118 63.9814 179.448 64.1814 179.848C64.3814 180.248 64.4814 180.668 64.4814 181.108C64.4814 181.768 64.2814 182.318 63.8814 182.758C63.5014 183.198 62.9914 183.418 62.3514 183.418C61.7514 183.418 61.2614 183.258 60.8814 182.938C60.5014 182.618 60.3114 182.178 60.3114 181.618C60.3114 181.118 60.4314 180.698 60.6714 180.358C60.9314 180.018 61.2214 179.748 61.5414 179.548C61.3214 179.428 61.0714 179.388 60.7914 179.428C60.3114 179.468 59.8714 179.638 59.4714 179.938C59.0714 180.238 58.7314 180.608 58.4514 181.048C58.1714 181.488 57.9514 181.958 57.7914 182.458C57.6514 182.958 57.5814 183.438 57.5814 183.898V191.308C57.5814 192.288 57.8314 192.948 58.3314 193.288C58.8314 193.608 59.5614 193.768 60.5214 193.768V194.398C60.0614 194.378 59.3914 194.358 58.5114 194.338C57.6514 194.298 56.7514 194.278 55.8114 194.278C55.0314 194.278 54.2514 194.298 53.4714 194.338C52.7114 194.358 52.1414 194.378 51.7614 194.398V193.768C52.5014 193.768 53.0214 193.618 53.3214 193.318C53.6414 193.018 53.8014 192.448 53.8014 191.608V182.158C53.8014 181.258 53.6514 180.598 53.3514 180.178C53.0714 179.738 52.5414 179.518 51.7614 179.518V178.888C52.4014 178.948 53.0214 178.978 53.6214 178.978C54.3614 178.978 55.0614 178.948 55.7214 178.888C56.4014 178.808 57.0214 178.698 57.5814 178.558V181.678C57.8214 181.118 58.1314 180.598 58.5114 180.118C58.9114 179.638 59.3814 179.248 59.9214 178.948C60.4814 178.628 61.0814 178.468 61.7214 178.468ZM72.6222 178.468C74.3822 178.468 75.7622 178.998 76.7622 180.058C77.7622 181.118 78.2622 182.808 78.2622 185.128H68.1522L68.1222 184.558H74.7822C74.8222 183.578 74.7622 182.678 74.6022 181.858C74.4422 181.018 74.1822 180.348 73.8222 179.848C73.4822 179.348 73.0322 179.098 72.4722 179.098C71.7122 179.098 71.0522 179.548 70.4922 180.448C69.9322 181.328 69.5822 182.778 69.4422 184.798L69.5622 184.978C69.5222 185.238 69.4922 185.518 69.4722 185.818C69.4722 186.118 69.4722 186.418 69.4722 186.718C69.4722 188.098 69.6722 189.238 70.0722 190.138C70.4722 191.038 70.9922 191.698 71.6322 192.118C72.2722 192.538 72.9322 192.748 73.6122 192.748C74.0722 192.748 74.5422 192.678 75.0222 192.538C75.5022 192.398 75.9722 192.138 76.4322 191.758C76.8922 191.378 77.3122 190.838 77.6922 190.138L78.2622 190.378C78.0422 191.078 77.6722 191.778 77.1522 192.478C76.6522 193.158 76.0022 193.718 75.2022 194.158C74.4022 194.598 73.4622 194.818 72.3822 194.818C71.0222 194.818 69.8222 194.518 68.7822 193.918C67.7422 193.318 66.9322 192.428 66.3522 191.248C65.7722 190.048 65.4822 188.588 65.4822 186.868C65.4822 185.048 65.7822 183.518 66.3822 182.278C67.0022 181.038 67.8522 180.098 68.9322 179.458C70.0122 178.798 71.2422 178.468 72.6222 178.468ZM90.6515 178.468C91.4315 178.468 92.0815 178.578 92.6015 178.798C93.1415 179.018 93.5615 179.298 93.8615 179.638C94.2215 180.018 94.4715 180.528 94.6115 181.168C94.7515 181.788 94.8215 182.578 94.8215 183.538V191.608C94.8215 192.448 94.9615 193.018 95.2415 193.318C95.5415 193.618 96.0415 193.768 96.7415 193.768V194.398C96.3815 194.378 95.8415 194.358 95.1215 194.338C94.4015 194.298 93.7015 194.278 93.0215 194.278C92.3015 194.278 91.6015 194.298 90.9215 194.338C90.2615 194.358 89.7615 194.378 89.4215 194.398V193.768C90.0015 193.768 90.4115 193.618 90.6515 193.318C90.9115 193.018 91.0415 192.448 91.0415 191.608V182.518C91.0415 181.978 91.0015 181.498 90.9215 181.078C90.8415 180.638 90.6715 180.298 90.4115 180.058C90.1515 179.798 89.7515 179.668 89.2115 179.668C88.5915 179.668 88.0315 179.848 87.5315 180.208C87.0315 180.568 86.6315 181.068 86.3315 181.708C86.0515 182.328 85.9115 183.028 85.9115 183.808V191.608C85.9115 192.448 86.0315 193.018 86.2715 193.318C86.5115 193.618 86.9315 193.768 87.5315 193.768V194.398C87.1915 194.378 86.6915 194.358 86.0315 194.338C85.3915 194.298 84.7315 194.278 84.0515 194.278C83.3115 194.278 82.5615 194.298 81.8015 194.338C81.0415 194.358 80.4715 194.378 80.0915 194.398V193.768C80.8315 193.768 81.3515 193.618 81.6515 193.318C81.9715 193.018 82.1315 192.448 82.1315 191.608V182.158C82.1315 181.258 81.9815 180.598 81.6815 180.178C81.4015 179.738 80.8715 179.518 80.0915 179.518V178.888C80.7315 178.948 81.3515 178.978 81.9515 178.978C82.6915 178.978 83.3915 178.948 84.0515 178.888C84.7315 178.808 85.3515 178.698 85.9115 178.558V181.558C86.4115 180.458 87.0815 179.668 87.9215 179.188C88.7615 178.708 89.6715 178.468 90.6515 178.468ZM99.6815 178.468C100.462 178.468 101.112 178.578 101.632 178.798C102.172 179.018 102.592 179.298 102.892 179.638C103.252 180.018 103.502 180.528 103.642 181.168C103.782 181.788 103.852 182.578 103.852 183.538V191.608C103.852 192.448 104.002 193.018 104.302 193.318C104.622 193.618 105.152 193.768 105.892 193.768V194.398C105.532 194.378 104.972 194.358 104.212 194.338C103.472 194.298 102.752 194.278 102.052 194.278C101.332 194.278 100.632 194.298 99.9515 194.338C99.2915 194.358 98.7915 194.378 98.4515 194.398V193.768C99.0315 193.768 99.4415 193.618 99.6815 193.318C99.9415 193.018 100.072 192.448 100.072 191.608V182.518C100.072 181.978 100.022 181.498 99.9215 181.078C99.8415 180.638 99.6615 180.298 99.3815 180.058C99.1015 179.798 98.6815 179.668 98.1215 179.668C97.5015 179.668 96.9415 179.858 96.4415 180.238C95.9415 180.618 95.5415 181.128 95.2415 181.768C94.9615 182.388 94.8115 183.088 94.7915 183.868L94.6415 181.708C95.1815 180.468 95.9015 179.618 96.8015 179.158C97.7015 178.698 98.6615 178.468 99.6815 178.468ZM110.794 171.238C111.514 171.238 112.104 171.438 112.564 171.838C113.024 172.238 113.254 172.768 113.254 173.428C113.254 174.088 113.024 174.618 112.564 175.018C112.104 175.418 111.514 175.618 110.794 175.618C110.074 175.618 109.484 175.418 109.024 175.018C108.564 174.618 108.334 174.088 108.334 173.428C108.334 172.768 108.564 172.238 109.024 171.838C109.484 171.438 110.074 171.238 110.794 171.238ZM112.894 178.558V191.608C112.894 192.448 113.044 193.018 113.344 193.318C113.664 193.618 114.194 193.768 114.934 193.768V194.398C114.574 194.378 114.024 194.358 113.284 194.338C112.544 194.298 111.794 194.278 111.034 194.278C110.294 194.278 109.544 194.298 108.784 194.338C108.024 194.358 107.454 194.378 107.074 194.398V193.768C107.814 193.768 108.334 193.618 108.634 193.318C108.954 193.018 109.114 192.448 109.114 191.608V182.188C109.114 181.268 108.964 180.598 108.664 180.178C108.384 179.738 107.854 179.518 107.074 179.518V178.888C107.714 178.948 108.334 178.978 108.934 178.978C109.674 178.978 110.374 178.948 111.034 178.888C111.714 178.808 112.334 178.698 112.894 178.558ZM130.792 178.558V191.158C130.792 192.058 130.942 192.728 131.242 193.168C131.542 193.588 132.072 193.798 132.832 193.798V194.428C132.212 194.368 131.592 194.338 130.972 194.338C130.232 194.338 129.522 194.368 128.842 194.428C128.182 194.488 127.572 194.598 127.012 194.758V191.758C126.512 192.858 125.822 193.648 124.942 194.128C124.082 194.588 123.152 194.818 122.152 194.818C121.372 194.818 120.712 194.708 120.172 194.488C119.652 194.288 119.232 194.008 118.912 193.648C118.572 193.268 118.332 192.768 118.192 192.148C118.052 191.528 117.982 190.728 117.982 189.748V182.158C117.982 181.258 117.832 180.598 117.532 180.178C117.252 179.738 116.722 179.518 115.942 179.518V178.888C116.582 178.948 117.202 178.978 117.802 178.978C118.542 178.978 119.242 178.948 119.902 178.888C120.582 178.808 121.202 178.698 121.762 178.558V190.798C121.762 191.338 121.802 191.818 121.882 192.238C121.982 192.658 122.172 192.998 122.452 193.258C122.732 193.498 123.152 193.618 123.712 193.618C124.332 193.618 124.892 193.438 125.392 193.078C125.892 192.718 126.282 192.228 126.562 191.608C126.862 190.988 127.012 190.288 127.012 189.508V182.158C127.012 181.258 126.862 180.598 126.562 180.178C126.282 179.738 125.752 179.518 124.972 179.518V178.888C125.612 178.948 126.232 178.978 126.832 178.978C127.572 178.978 128.272 178.948 128.932 178.888C129.612 178.808 130.232 178.698 130.792 178.558ZM144.763 178.468C145.543 178.468 146.193 178.578 146.713 178.798C147.253 179.018 147.673 179.298 147.973 179.638C148.333 180.018 148.583 180.528 148.723 181.168C148.863 181.788 148.933 182.578 148.933 183.538V191.608C148.933 192.448 149.073 193.018 149.353 193.318C149.653 193.618 150.153 193.768 150.853 193.768V194.398C150.493 194.378 149.953 194.358 149.233 194.338C148.513 194.298 147.813 194.278 147.133 194.278C146.413 194.278 145.713 194.298 145.033 194.338C144.373 194.358 143.873 194.378 143.533 194.398V193.768C144.113 193.768 144.523 193.618 144.763 193.318C145.023 193.018 145.153 192.448 145.153 191.608V182.518C145.153 181.978 145.113 181.498 145.033 181.078C144.953 180.638 144.783 180.298 144.523 180.058C144.263 179.798 143.863 179.668 143.323 179.668C142.703 179.668 142.143 179.848 141.643 180.208C141.143 180.568 140.743 181.068 140.443 181.708C140.163 182.328 140.023 183.028 140.023 183.808V191.608C140.023 192.448 140.143 193.018 140.383 193.318C140.623 193.618 141.043 193.768 141.643 193.768V194.398C141.303 194.378 140.803 194.358 140.143 194.338C139.503 194.298 138.843 194.278 138.163 194.278C137.423 194.278 136.673 194.298 135.913 194.338C135.153 194.358 134.583 194.378 134.203 194.398V193.768C134.943 193.768 135.463 193.618 135.763 193.318C136.083 193.018 136.243 192.448 136.243 191.608V182.158C136.243 181.258 136.093 180.598 135.793 180.178C135.513 179.738 134.983 179.518 134.203 179.518V178.888C134.843 178.948 135.463 178.978 136.063 178.978C136.803 178.978 137.503 178.948 138.163 178.888C138.843 178.808 139.463 178.698 140.023 178.558V181.558C140.523 180.458 141.193 179.668 142.033 179.188C142.873 178.708 143.783 178.468 144.763 178.468ZM153.793 178.468C154.573 178.468 155.223 178.578 155.743 178.798C156.283 179.018 156.703 179.298 157.003 179.638C157.363 180.018 157.613 180.528 157.753 181.168C157.893 181.788 157.963 182.578 157.963 183.538V191.608C157.963 192.448 158.113 193.018 158.413 193.318C158.733 193.618 159.263 193.768 160.003 193.768V194.398C159.643 194.378 159.083 194.358 158.323 194.338C157.583 194.298 156.863 194.278 156.163 194.278C155.443 194.278 154.743 194.298 154.063 194.338C153.403 194.358 152.903 194.378 152.563 194.398V193.768C153.143 193.768 153.553 193.618 153.793 193.318C154.053 193.018 154.183 192.448 154.183 191.608V182.518C154.183 181.978 154.133 181.498 154.033 181.078C153.953 180.638 153.773 180.298 153.493 180.058C153.213 179.798 152.793 179.668 152.233 179.668C151.613 179.668 151.053 179.858 150.553 180.238C150.053 180.618 149.653 181.128 149.353 181.768C149.073 182.388 148.923 183.088 148.903 183.868L148.753 181.708C149.293 180.468 150.013 179.618 150.913 179.158C151.813 178.698 152.773 178.468 153.793 178.468ZM195.029 173.158V173.758C194.629 173.898 194.189 174.208 193.709 174.688C193.229 175.168 192.829 175.938 192.509 176.998L187.079 194.488C186.959 194.488 186.829 194.478 186.689 194.458C186.569 194.458 186.439 194.458 186.299 194.458C186.179 194.458 186.049 194.458 185.909 194.458C185.789 194.478 185.669 194.488 185.549 194.488L179.189 175.468C178.969 174.788 178.709 174.338 178.409 174.118C178.129 173.898 177.839 173.778 177.539 173.758V173.158C178.019 173.178 178.599 173.198 179.279 173.218C179.979 173.238 180.669 173.248 181.349 173.248C182.189 173.248 182.979 173.238 183.719 173.218C184.459 173.198 185.059 173.178 185.519 173.158V173.758C184.899 173.778 184.419 173.848 184.079 173.968C183.739 174.068 183.539 174.298 183.479 174.658C183.439 174.998 183.539 175.538 183.779 176.278L188.099 189.568L187.499 190.528L191.099 179.158C191.539 177.798 191.739 176.728 191.699 175.948C191.679 175.168 191.449 174.618 191.009 174.298C190.569 173.958 189.939 173.778 189.119 173.758V173.158C189.779 173.178 190.399 173.198 190.979 173.218C191.579 173.238 192.179 173.248 192.779 173.248C193.239 173.248 193.649 173.238 194.009 173.218C194.389 173.198 194.729 173.178 195.029 173.158ZM173.789 173.158V173.758C173.329 173.798 173.009 173.928 172.829 174.148C172.649 174.368 172.569 174.658 172.589 175.018C172.629 175.358 172.729 175.778 172.889 176.278L177.479 189.898L176.699 190.858L180.659 178.918L181.109 179.698L176.279 194.488C176.159 194.488 176.029 194.478 175.889 194.458C175.769 194.458 175.639 194.458 175.499 194.458C175.379 194.458 175.249 194.458 175.109 194.458C174.989 194.478 174.869 194.488 174.749 194.488L168.149 175.678C167.889 174.938 167.569 174.438 167.189 174.178C166.829 173.918 166.499 173.778 166.199 173.758V173.158C166.719 173.178 167.349 173.198 168.089 173.218C168.829 173.238 169.549 173.248 170.249 173.248C170.989 173.248 171.669 173.238 172.289 173.218C172.909 173.198 173.409 173.178 173.789 173.158ZM198.021 194.608C197.161 194.608 196.431 194.448 195.831 194.128C195.231 193.788 194.781 193.338 194.481 192.778C194.181 192.198 194.031 191.558 194.031 190.858C194.031 189.998 194.231 189.298 194.631 188.758C195.031 188.198 195.541 187.758 196.161 187.438C196.801 187.098 197.471 186.818 198.171 186.598C198.871 186.358 199.531 186.138 200.151 185.938C200.771 185.718 201.281 185.468 201.681 185.188C202.081 184.908 202.281 184.538 202.281 184.078V181.888C202.281 181.248 202.181 180.728 201.981 180.328C201.801 179.908 201.521 179.598 201.141 179.398C200.781 179.178 200.321 179.068 199.761 179.068C199.341 179.068 198.901 179.128 198.441 179.248C197.981 179.368 197.601 179.598 197.301 179.938C197.821 180.078 198.221 180.338 198.501 180.718C198.801 181.098 198.951 181.558 198.951 182.098C198.951 182.718 198.741 183.208 198.321 183.568C197.921 183.908 197.411 184.078 196.791 184.078C196.131 184.078 195.631 183.868 195.291 183.448C194.951 183.028 194.781 182.538 194.781 181.978C194.781 181.418 194.921 180.958 195.201 180.598C195.481 180.218 195.871 179.878 196.371 179.578C196.871 179.238 197.511 178.968 198.291 178.768C199.071 178.568 199.921 178.468 200.841 178.468C201.721 178.468 202.501 178.568 203.181 178.768C203.861 178.948 204.441 179.278 204.921 179.758C205.401 180.218 205.711 180.788 205.851 181.468C205.991 182.148 206.061 182.978 206.061 183.958V192.178C206.061 192.678 206.121 193.038 206.241 193.258C206.361 193.458 206.551 193.558 206.811 193.558C207.011 193.558 207.201 193.508 207.381 193.408C207.561 193.308 207.761 193.168 207.981 192.988L208.311 193.498C207.871 193.838 207.411 194.108 206.931 194.308C206.451 194.508 205.871 194.608 205.191 194.608C204.491 194.608 203.931 194.508 203.511 194.308C203.111 194.108 202.811 193.818 202.611 193.438C202.431 193.058 202.331 192.608 202.311 192.088C201.831 192.888 201.241 193.508 200.541 193.948C199.841 194.388 199.001 194.608 198.021 194.608ZM199.821 192.928C200.301 192.928 200.741 192.798 201.141 192.538C201.561 192.278 201.941 191.888 202.281 191.368V185.308C202.081 185.608 201.791 185.878 201.411 186.118C201.051 186.358 200.661 186.598 200.241 186.838C199.821 187.078 199.421 187.358 199.041 187.678C198.681 187.978 198.371 188.358 198.111 188.818C197.871 189.258 197.751 189.828 197.751 190.528C197.751 191.308 197.941 191.908 198.321 192.328C198.701 192.728 199.201 192.928 199.821 192.928ZM214.844 173.968V178.918H218.684V179.518H214.844V191.458C214.844 192.178 214.974 192.688 215.234 192.988C215.494 193.288 215.864 193.438 216.344 193.438C216.804 193.438 217.224 193.268 217.604 192.928C217.984 192.568 218.324 191.978 218.624 191.158L219.164 191.398C218.864 192.378 218.394 193.198 217.754 193.858C217.134 194.498 216.254 194.818 215.114 194.818C214.434 194.818 213.854 194.728 213.374 194.548C212.914 194.388 212.514 194.148 212.174 193.828C211.734 193.368 211.434 192.818 211.274 192.178C211.134 191.538 211.064 190.688 211.064 189.628V179.518H208.424V178.918H211.064V174.748C211.784 174.728 212.454 174.658 213.074 174.538C213.694 174.418 214.284 174.228 214.844 173.968ZM227.222 178.468C228.982 178.468 230.362 178.998 231.362 180.058C232.362 181.118 232.862 182.808 232.862 185.128H222.752L222.722 184.558H229.382C229.422 183.578 229.362 182.678 229.202 181.858C229.042 181.018 228.782 180.348 228.422 179.848C228.082 179.348 227.632 179.098 227.072 179.098C226.312 179.098 225.652 179.548 225.092 180.448C224.532 181.328 224.182 182.778 224.042 184.798L224.162 184.978C224.122 185.238 224.092 185.518 224.072 185.818C224.072 186.118 224.072 186.418 224.072 186.718C224.072 188.098 224.272 189.238 224.672 190.138C225.072 191.038 225.592 191.698 226.232 192.118C226.872 192.538 227.532 192.748 228.212 192.748C228.672 192.748 229.142 192.678 229.622 192.538C230.102 192.398 230.572 192.138 231.032 191.758C231.492 191.378 231.912 190.838 232.292 190.138L232.862 190.378C232.642 191.078 232.272 191.778 231.752 192.478C231.252 193.158 230.602 193.718 229.802 194.158C229.002 194.598 228.062 194.818 226.982 194.818C225.622 194.818 224.422 194.518 223.382 193.918C222.342 193.318 221.532 192.428 220.952 191.248C220.372 190.048 220.082 188.588 220.082 186.868C220.082 185.048 220.382 183.518 220.982 182.278C221.602 181.038 222.452 180.098 223.532 179.458C224.612 178.798 225.842 178.468 227.222 178.468ZM244.651 178.468C245.271 178.468 245.781 178.598 246.181 178.858C246.601 179.118 246.911 179.448 247.111 179.848C247.311 180.248 247.411 180.668 247.411 181.108C247.411 181.768 247.211 182.318 246.811 182.758C246.431 183.198 245.921 183.418 245.281 183.418C244.681 183.418 244.191 183.258 243.811 182.938C243.431 182.618 243.241 182.178 243.241 181.618C243.241 181.118 243.361 180.698 243.601 180.358C243.861 180.018 244.151 179.748 244.471 179.548C244.251 179.428 244.001 179.388 243.721 179.428C243.241 179.468 242.801 179.638 242.401 179.938C242.001 180.238 241.661 180.608 241.381 181.048C241.101 181.488 240.881 181.958 240.721 182.458C240.581 182.958 240.511 183.438 240.511 183.898V191.308C240.511 192.288 240.761 192.948 241.261 193.288C241.761 193.608 242.491 193.768 243.451 193.768V194.398C242.991 194.378 242.321 194.358 241.441 194.338C240.581 194.298 239.681 194.278 238.741 194.278C237.961 194.278 237.181 194.298 236.401 194.338C235.641 194.358 235.071 194.378 234.691 194.398V193.768C235.431 193.768 235.951 193.618 236.251 193.318C236.571 193.018 236.731 192.448 236.731 191.608V182.158C236.731 181.258 236.581 180.598 236.281 180.178C236.001 179.738 235.471 179.518 234.691 179.518V178.888C235.331 178.948 235.951 178.978 236.551 178.978C237.291 178.978 237.991 178.948 238.651 178.888C239.331 178.808 239.951 178.698 240.511 178.558V181.678C240.751 181.118 241.061 180.598 241.441 180.118C241.841 179.638 242.311 179.248 242.851 178.948C243.411 178.628 244.011 178.468 244.651 178.468Z" fill="white"/>
<path d="M37.6822 236.398V223.798H42.8662C43.9822 223.798 44.9362 223.978 45.7282 224.338C46.5322 224.698 47.1502 225.214 47.5822 225.886C48.0142 226.558 48.2302 227.356 48.2302 228.28C48.2302 229.204 48.0142 230.002 47.5822 230.674C47.1502 231.346 46.5322 231.862 45.7282 232.222C44.9362 232.582 43.9822 232.762 42.8662 232.762H38.9782L40.0222 231.664V236.398H37.6822ZM40.0222 231.916L38.9782 230.782H42.7582C43.7902 230.782 44.5642 230.566 45.0802 230.134C45.6082 229.69 45.8722 229.072 45.8722 228.28C45.8722 227.476 45.6082 226.858 45.0802 226.426C44.5642 225.994 43.7902 225.778 42.7582 225.778H38.9782L40.0222 224.626V231.916ZM54.5948 236.524C53.7788 236.524 53.0588 236.374 52.4348 236.074C51.8108 235.762 51.3248 235.294 50.9768 234.67C50.6288 234.034 50.4548 233.236 50.4548 232.276V226.786H52.7048V231.97C52.7048 232.834 52.8968 233.482 53.2808 233.914C53.6768 234.334 54.2348 234.544 54.9548 234.544C55.4828 234.544 55.9388 234.436 56.3228 234.22C56.7188 234.004 57.0248 233.68 57.2408 233.248C57.4688 232.816 57.5828 232.282 57.5828 231.646V226.786H59.8328V236.398H57.6908V233.806L58.0688 234.598C57.7448 235.222 57.2708 235.702 56.6468 236.038C56.0228 236.362 55.3388 236.524 54.5948 236.524ZM62.7787 236.398V226.786H64.9207V229.432L64.6687 228.658C64.9567 228.01 65.4067 227.518 66.0187 227.182C66.6427 226.846 67.4167 226.678 68.3407 226.678V228.82C68.2447 228.796 68.1547 228.784 68.0707 228.784C67.9867 228.772 67.9027 228.766 67.8187 228.766C66.9667 228.766 66.2887 229.018 65.7847 229.522C65.2807 230.014 65.0287 230.752 65.0287 231.736V236.398H62.7787ZM74.6795 236.524C73.6115 236.524 72.6755 236.314 71.8715 235.894C71.0795 235.462 70.4615 234.874 70.0175 234.13C69.5855 233.386 69.3695 232.54 69.3695 231.592C69.3695 230.632 69.5795 229.786 69.9995 229.054C70.4315 228.31 71.0195 227.728 71.7635 227.308C72.5195 226.888 73.3775 226.678 74.3375 226.678C75.2735 226.678 76.1075 226.882 76.8395 227.29C77.5715 227.698 78.1475 228.274 78.5675 229.018C78.9875 229.762 79.1975 230.638 79.1975 231.646C79.1975 231.742 79.1915 231.85 79.1795 231.97C79.1795 232.09 79.1735 232.204 79.1615 232.312H71.1515V230.818H77.9735L77.0915 231.286C77.1035 230.734 76.9895 230.248 76.7495 229.828C76.5095 229.408 76.1795 229.078 75.7595 228.838C75.3515 228.598 74.8775 228.478 74.3375 228.478C73.7855 228.478 73.2995 228.598 72.8795 228.838C72.4715 229.078 72.1475 229.414 71.9075 229.846C71.6795 230.266 71.5655 230.764 71.5655 231.34V231.7C71.5655 232.276 71.6975 232.786 71.9615 233.23C72.2255 233.674 72.5975 234.016 73.0775 234.256C73.5575 234.496 74.1095 234.616 74.7335 234.616C75.2735 234.616 75.7595 234.532 76.1915 234.364C76.6235 234.196 77.0075 233.932 77.3435 233.572L78.5495 234.958C78.1175 235.462 77.5715 235.852 76.9115 236.128C76.2635 236.392 75.5195 236.524 74.6795 236.524ZM89.1054 236.398V225.778H84.9294V223.798H95.6214V225.778H91.4454V236.398H89.1054ZM97.3775 236.398V223.798H102.886C104.254 223.798 105.454 224.062 106.486 224.59C107.518 225.118 108.322 225.85 108.898 226.786C109.474 227.722 109.762 228.826 109.762 230.098C109.762 231.358 109.474 232.462 108.898 233.41C108.322 234.346 107.518 235.078 106.486 235.606C105.454 236.134 104.254 236.398 102.886 236.398H97.3775ZM99.7175 234.418H102.778C103.726 234.418 104.542 234.238 105.226 233.878C105.922 233.518 106.456 233.014 106.828 232.366C107.212 231.718 107.404 230.962 107.404 230.098C107.404 229.222 107.212 228.466 106.828 227.83C106.456 227.182 105.922 226.678 105.226 226.318C104.542 225.958 103.726 225.778 102.778 225.778H99.7175V234.418ZM116.155 236.578C115.171 236.578 114.229 236.44 113.329 236.164C112.429 235.876 111.715 235.51 111.187 235.066L111.997 233.248C112.501 233.644 113.125 233.974 113.869 234.238C114.613 234.502 115.375 234.634 116.155 234.634C116.815 234.634 117.349 234.562 117.757 234.418C118.165 234.274 118.465 234.082 118.657 233.842C118.849 233.59 118.945 233.308 118.945 232.996C118.945 232.612 118.807 232.306 118.531 232.078C118.255 231.838 117.895 231.652 117.451 231.52C117.019 231.376 116.533 231.244 115.993 231.124C115.465 231.004 114.931 230.866 114.391 230.71C113.863 230.542 113.377 230.332 112.933 230.08C112.501 229.816 112.147 229.468 111.871 229.036C111.595 228.604 111.457 228.052 111.457 227.38C111.457 226.696 111.637 226.072 111.997 225.508C112.369 224.932 112.927 224.476 113.671 224.14C114.427 223.792 115.381 223.618 116.533 223.618C117.289 223.618 118.039 223.714 118.783 223.906C119.527 224.098 120.175 224.374 120.727 224.734L119.989 226.552C119.425 226.216 118.843 225.97 118.243 225.814C117.643 225.646 117.067 225.562 116.515 225.562C115.867 225.562 115.339 225.64 114.931 225.796C114.535 225.952 114.241 226.156 114.049 226.408C113.869 226.66 113.779 226.948 113.779 227.272C113.779 227.656 113.911 227.968 114.175 228.208C114.451 228.436 114.805 228.616 115.237 228.748C115.681 228.88 116.173 229.012 116.713 229.144C117.253 229.264 117.787 229.402 118.315 229.558C118.855 229.714 119.341 229.918 119.773 230.17C120.217 230.422 120.571 230.764 120.835 231.196C121.111 231.628 121.249 232.174 121.249 232.834C121.249 233.506 121.063 234.13 120.691 234.706C120.331 235.27 119.773 235.726 119.017 236.074C118.261 236.41 117.307 236.578 116.155 236.578ZM128.634 236.398V226.246C128.634 225.238 128.928 224.434 129.516 223.834C130.116 223.222 130.968 222.916 132.072 222.916C132.468 222.916 132.84 222.958 133.188 223.042C133.548 223.126 133.848 223.258 134.088 223.438L133.476 225.13C133.308 224.998 133.116 224.902 132.9 224.842C132.684 224.77 132.462 224.734 132.234 224.734C131.766 224.734 131.412 224.866 131.172 225.13C130.932 225.382 130.812 225.766 130.812 226.282V227.362L130.884 228.37V236.398H128.634ZM127.05 228.658V226.858H133.458V228.658H127.05ZM134.99 236.398V226.786H137.132V229.432L136.88 228.658C137.168 228.01 137.618 227.518 138.23 227.182C138.854 226.846 139.628 226.678 140.552 226.678V228.82C140.456 228.796 140.366 228.784 140.282 228.784C140.198 228.772 140.114 228.766 140.03 228.766C139.178 228.766 138.5 229.018 137.996 229.522C137.492 230.014 137.24 230.752 137.24 231.736V236.398H134.99ZM146.89 236.524C145.822 236.524 144.886 236.314 144.082 235.894C143.29 235.462 142.672 234.874 142.228 234.13C141.796 233.386 141.58 232.54 141.58 231.592C141.58 230.632 141.79 229.786 142.21 229.054C142.642 228.31 143.23 227.728 143.974 227.308C144.73 226.888 145.588 226.678 146.548 226.678C147.484 226.678 148.318 226.882 149.05 227.29C149.782 227.698 150.358 228.274 150.778 229.018C151.198 229.762 151.408 230.638 151.408 231.646C151.408 231.742 151.402 231.85 151.39 231.97C151.39 232.09 151.384 232.204 151.372 232.312H143.362V230.818H150.184L149.302 231.286C149.314 230.734 149.2 230.248 148.96 229.828C148.72 229.408 148.39 229.078 147.97 228.838C147.562 228.598 147.088 228.478 146.548 228.478C145.996 228.478 145.51 228.598 145.09 228.838C144.682 229.078 144.358 229.414 144.118 229.846C143.89 230.266 143.776 230.764 143.776 231.34V231.7C143.776 232.276 143.908 232.786 144.172 233.23C144.436 233.674 144.808 234.016 145.288 234.256C145.768 234.496 146.32 234.616 146.944 234.616C147.484 234.616 147.97 234.532 148.402 234.364C148.834 234.196 149.218 233.932 149.554 233.572L150.76 234.958C150.328 235.462 149.782 235.852 149.122 236.128C148.474 236.392 147.73 236.524 146.89 236.524ZM158.088 236.524C157.02 236.524 156.084 236.314 155.28 235.894C154.488 235.462 153.87 234.874 153.426 234.13C152.994 233.386 152.778 232.54 152.778 231.592C152.778 230.632 152.988 229.786 153.408 229.054C153.84 228.31 154.428 227.728 155.172 227.308C155.928 226.888 156.786 226.678 157.746 226.678C158.682 226.678 159.516 226.882 160.248 227.29C160.98 227.698 161.556 228.274 161.976 229.018C162.396 229.762 162.606 230.638 162.606 231.646C162.606 231.742 162.6 231.85 162.588 231.97C162.588 232.09 162.582 232.204 162.57 232.312H154.56V230.818H161.382L160.5 231.286C160.512 230.734 160.398 230.248 160.158 229.828C159.918 229.408 159.588 229.078 159.168 228.838C158.76 228.598 158.286 228.478 157.746 228.478C157.194 228.478 156.708 228.598 156.288 228.838C155.88 229.078 155.556 229.414 155.316 229.846C155.088 230.266 154.974 230.764 154.974 231.34V231.7C154.974 232.276 155.106 232.786 155.37 233.23C155.634 233.674 156.006 234.016 156.486 234.256C156.966 234.496 157.518 234.616 158.142 234.616C158.682 234.616 159.168 234.532 159.6 234.364C160.032 234.196 160.416 233.932 160.752 233.572L161.958 234.958C161.526 235.462 160.98 235.852 160.32 236.128C159.672 236.392 158.928 236.524 158.088 236.524ZM171.866 236.398L168.338 226.786H170.462L173.486 235.264H172.478L175.646 226.786H177.536L180.614 235.264H179.624L182.738 226.786H184.736L181.19 236.398H179.03L176.222 228.892H176.888L174.026 236.398H171.866ZM191.906 236.398V234.454L191.78 234.04V230.638C191.78 229.978 191.582 229.468 191.186 229.108C190.79 228.736 190.19 228.55 189.386 228.55C188.846 228.55 188.312 228.634 187.784 228.802C187.268 228.97 186.83 229.204 186.47 229.504L185.588 227.866C186.104 227.47 186.716 227.176 187.424 226.984C188.144 226.78 188.888 226.678 189.656 226.678C191.048 226.678 192.122 227.014 192.878 227.686C193.646 228.346 194.03 229.372 194.03 230.764V236.398H191.906ZM188.882 236.524C188.162 236.524 187.532 236.404 186.992 236.164C186.452 235.912 186.032 235.57 185.732 235.138C185.444 234.694 185.3 234.196 185.3 233.644C185.3 233.104 185.426 232.618 185.678 232.186C185.942 231.754 186.368 231.412 186.956 231.16C187.544 230.908 188.324 230.782 189.296 230.782H192.086V232.276H189.458C188.69 232.276 188.174 232.402 187.91 232.654C187.646 232.894 187.514 233.194 187.514 233.554C187.514 233.962 187.676 234.286 188 234.526C188.324 234.766 188.774 234.886 189.35 234.886C189.902 234.886 190.394 234.76 190.826 234.508C191.27 234.256 191.588 233.884 191.78 233.392L192.158 234.742C191.942 235.306 191.552 235.744 190.988 236.056C190.436 236.368 189.734 236.524 188.882 236.524ZM200.535 236.524C199.479 236.524 198.663 236.254 198.087 235.714C197.511 235.162 197.223 234.352 197.223 233.284V224.662H199.473V233.23C199.473 233.686 199.587 234.04 199.815 234.292C200.055 234.544 200.385 234.67 200.805 234.67C201.309 234.67 201.729 234.538 202.065 234.274L202.695 235.876C202.431 236.092 202.107 236.254 201.723 236.362C201.339 236.47 200.943 236.524 200.535 236.524ZM195.639 228.658V226.858H202.047V228.658H195.639ZM208.748 236.524C207.68 236.524 206.744 236.314 205.94 235.894C205.148 235.462 204.53 234.874 204.086 234.13C203.654 233.386 203.438 232.54 203.438 231.592C203.438 230.632 203.648 229.786 204.068 229.054C204.5 228.31 205.088 227.728 205.832 227.308C206.588 226.888 207.446 226.678 208.406 226.678C209.342 226.678 210.176 226.882 210.908 227.29C211.64 227.698 212.216 228.274 212.636 229.018C213.056 229.762 213.266 230.638 213.266 231.646C213.266 231.742 213.26 231.85 213.248 231.97C213.248 232.09 213.242 232.204 213.23 232.312H205.22V230.818H212.042L211.16 231.286C211.172 230.734 211.058 230.248 210.818 229.828C210.578 229.408 210.248 229.078 209.828 228.838C209.42 228.598 208.946 228.478 208.406 228.478C207.854 228.478 207.368 228.598 206.948 228.838C206.54 229.078 206.216 229.414 205.976 229.846C205.748 230.266 205.634 230.764 205.634 231.34V231.7C205.634 232.276 205.766 232.786 206.03 233.23C206.294 233.674 206.666 234.016 207.146 234.256C207.626 234.496 208.178 234.616 208.802 234.616C209.342 234.616 209.828 234.532 210.26 234.364C210.692 234.196 211.076 233.932 211.412 233.572L212.618 234.958C212.186 235.462 211.64 235.852 210.98 236.128C210.332 236.392 209.588 236.524 208.748 236.524ZM215.427 236.398V226.786H217.569V229.432L217.317 228.658C217.605 228.01 218.055 227.518 218.667 227.182C219.291 226.846 220.065 226.678 220.989 226.678V228.82C220.893 228.796 220.803 228.784 220.719 228.784C220.635 228.772 220.551 228.766 220.467 228.766C219.615 228.766 218.937 229.018 218.433 229.522C217.929 230.014 217.677 230.752 217.677 231.736V236.398H215.427ZM227.96 236.398V226.786H230.21V236.398H227.96ZM229.094 225.202C228.674 225.202 228.326 225.07 228.05 224.806C227.786 224.542 227.654 224.224 227.654 223.852C227.654 223.468 227.786 223.15 228.05 222.898C228.326 222.634 228.674 222.502 229.094 222.502C229.514 222.502 229.856 222.628 230.12 222.88C230.396 223.12 230.534 223.426 230.534 223.798C230.534 224.194 230.402 224.53 230.138 224.806C229.874 225.07 229.526 225.202 229.094 225.202ZM238.618 226.678C239.386 226.678 240.07 226.828 240.67 227.128C241.282 227.428 241.762 227.89 242.11 228.514C242.458 229.126 242.632 229.918 242.632 230.89V236.398H240.382V231.178C240.382 230.326 240.178 229.69 239.77 229.27C239.374 228.85 238.816 228.64 238.096 228.64C237.568 228.64 237.1 228.748 236.692 228.964C236.284 229.18 235.966 229.504 235.738 229.936C235.522 230.356 235.414 230.89 235.414 231.538V236.398H233.164V226.786H235.306V229.378L234.928 228.586C235.264 227.974 235.75 227.506 236.386 227.182C237.034 226.846 237.778 226.678 238.618 226.678ZM45.5133 262.398V249.798H51.4173C52.9293 249.798 54.0813 250.098 54.8733 250.698C55.6653 251.286 56.0613 252.078 56.0613 253.074C56.0613 253.746 55.9053 254.322 55.5933 254.802C55.2813 255.27 54.8613 255.636 54.3333 255.9C53.8173 256.152 53.2533 256.278 52.6413 256.278L52.9653 255.63C53.6733 255.63 54.3093 255.762 54.8733 256.026C55.4373 256.278 55.8813 256.65 56.2053 257.142C56.5413 257.634 56.7093 258.246 56.7093 258.978C56.7093 260.058 56.2953 260.898 55.4673 261.498C54.6393 262.098 53.4093 262.398 51.7773 262.398H45.5133ZM47.8533 260.562H51.6333C52.5093 260.562 53.1813 260.418 53.6493 260.13C54.1173 259.842 54.3513 259.38 54.3513 258.744C54.3513 258.12 54.1173 257.664 53.6493 257.376C53.1813 257.076 52.5093 256.926 51.6333 256.926H47.6733V255.108H51.1653C51.9813 255.108 52.6053 254.964 53.0373 254.676C53.4813 254.388 53.7033 253.956 53.7033 253.38C53.7033 252.792 53.4813 252.354 53.0373 252.066C52.6053 251.778 51.9813 251.634 51.1653 251.634H47.8533V260.562ZM59.2066 262.398V249.798H64.3906C65.5066 249.798 66.4606 249.978 67.2526 250.338C68.0566 250.698 68.6746 251.214 69.1066 251.886C69.5386 252.558 69.7546 253.356 69.7546 254.28C69.7546 255.204 69.5386 256.002 69.1066 256.674C68.6746 257.346 68.0566 257.862 67.2526 258.222C66.4606 258.582 65.5066 258.762 64.3906 258.762H60.5026L61.5466 257.664V262.398H59.2066ZM61.5466 257.916L60.5026 256.782H64.2826C65.3146 256.782 66.0886 256.566 66.6046 256.134C67.1326 255.69 67.3966 255.072 67.3966 254.28C67.3966 253.476 67.1326 252.858 66.6046 252.426C66.0886 251.994 65.3146 251.778 64.2826 251.778H60.5026L61.5466 250.626V257.916ZM69.6766 262.398L75.3466 249.798H77.6506L83.3386 262.398H80.8906L76.0126 251.04H76.9486L72.0886 262.398H69.6766ZM72.2866 259.482L72.9166 257.646H79.7206L80.3506 259.482H72.2866ZM90.0056 262.398V252.246C90.0056 251.238 90.2996 250.434 90.8876 249.834C91.4876 249.222 92.3396 248.916 93.4436 248.916C93.8396 248.916 94.2116 248.958 94.5596 249.042C94.9196 249.126 95.2196 249.258 95.4596 249.438L94.8476 251.13C94.6796 250.998 94.4876 250.902 94.2716 250.842C94.0556 250.77 93.8336 250.734 93.6056 250.734C93.1376 250.734 92.7836 250.866 92.5436 251.13C92.3036 251.382 92.1836 251.766 92.1836 252.282V253.362L92.2556 254.37V262.398H90.0056ZM88.4216 254.658V252.858H94.8296V254.658H88.4216ZM96.3617 262.398V252.786H98.5037V255.432L98.2517 254.658C98.5397 254.01 98.9897 253.518 99.6017 253.182C100.226 252.846 101 252.678 101.924 252.678V254.82C101.828 254.796 101.738 254.784 101.654 254.784C101.57 254.772 101.486 254.766 101.402 254.766C100.55 254.766 99.8717 255.018 99.3677 255.522C98.8637 256.014 98.6117 256.752 98.6117 257.736V262.398H96.3617ZM108.263 262.524C107.195 262.524 106.259 262.314 105.455 261.894C104.663 261.462 104.045 260.874 103.601 260.13C103.169 259.386 102.953 258.54 102.953 257.592C102.953 256.632 103.163 255.786 103.583 255.054C104.015 254.31 104.603 253.728 105.347 253.308C106.103 252.888 106.961 252.678 107.921 252.678C108.857 252.678 109.691 252.882 110.423 253.29C111.155 253.698 111.731 254.274 112.151 255.018C112.571 255.762 112.781 256.638 112.781 257.646C112.781 257.742 112.775 257.85 112.763 257.97C112.763 258.09 112.757 258.204 112.745 258.312H104.735V256.818H111.557L110.675 257.286C110.687 256.734 110.573 256.248 110.333 255.828C110.093 255.408 109.763 255.078 109.343 254.838C108.935 254.598 108.461 254.478 107.921 254.478C107.369 254.478 106.883 254.598 106.463 254.838C106.055 255.078 105.731 255.414 105.491 255.846C105.263 256.266 105.149 256.764 105.149 257.34V257.7C105.149 258.276 105.281 258.786 105.545 259.23C105.809 259.674 106.181 260.016 106.661 260.256C107.141 260.496 107.693 260.616 108.317 260.616C108.857 260.616 109.343 260.532 109.775 260.364C110.207 260.196 110.591 259.932 110.927 259.572L112.133 260.958C111.701 261.462 111.155 261.852 110.495 262.128C109.847 262.392 109.103 262.524 108.263 262.524ZM119.46 262.524C118.392 262.524 117.456 262.314 116.652 261.894C115.86 261.462 115.242 260.874 114.798 260.13C114.366 259.386 114.15 258.54 114.15 257.592C114.15 256.632 114.36 255.786 114.78 255.054C115.212 254.31 115.8 253.728 116.544 253.308C117.3 252.888 118.158 252.678 119.118 252.678C120.054 252.678 120.888 252.882 121.62 253.29C122.352 253.698 122.928 254.274 123.348 255.018C123.768 255.762 123.978 256.638 123.978 257.646C123.978 257.742 123.972 257.85 123.96 257.97C123.96 258.09 123.954 258.204 123.942 258.312H115.932V256.818H122.754L121.872 257.286C121.884 256.734 121.77 256.248 121.53 255.828C121.29 255.408 120.96 255.078 120.54 254.838C120.132 254.598 119.658 254.478 119.118 254.478C118.566 254.478 118.08 254.598 117.66 254.838C117.252 255.078 116.928 255.414 116.688 255.846C116.46 256.266 116.346 256.764 116.346 257.34V257.7C116.346 258.276 116.478 258.786 116.742 259.23C117.006 259.674 117.378 260.016 117.858 260.256C118.338 260.496 118.89 260.616 119.514 260.616C120.054 260.616 120.54 260.532 120.972 260.364C121.404 260.196 121.788 259.932 122.124 259.572L123.33 260.958C122.898 261.462 122.352 261.852 121.692 262.128C121.044 262.392 120.3 262.524 119.46 262.524ZM134.084 262.524C133.28 262.524 132.506 262.422 131.762 262.218C131.03 262.002 130.448 261.744 130.016 261.444L130.88 259.734C131.312 260.01 131.828 260.238 132.428 260.418C133.028 260.598 133.628 260.688 134.228 260.688C134.936 260.688 135.446 260.592 135.758 260.4C136.082 260.208 136.244 259.95 136.244 259.626C136.244 259.362 136.136 259.164 135.92 259.032C135.704 258.888 135.422 258.78 135.074 258.708C134.726 258.636 134.336 258.57 133.904 258.51C133.484 258.45 133.058 258.372 132.626 258.276C132.206 258.168 131.822 258.018 131.474 257.826C131.126 257.622 130.844 257.352 130.628 257.016C130.412 256.68 130.304 256.236 130.304 255.684C130.304 255.072 130.478 254.544 130.826 254.1C131.174 253.644 131.66 253.296 132.284 253.056C132.92 252.804 133.67 252.678 134.534 252.678C135.182 252.678 135.836 252.75 136.496 252.894C137.156 253.038 137.702 253.242 138.134 253.506L137.27 255.216C136.814 254.94 136.352 254.754 135.884 254.658C135.428 254.55 134.972 254.496 134.516 254.496C133.832 254.496 133.322 254.598 132.986 254.802C132.662 255.006 132.5 255.264 132.5 255.576C132.5 255.864 132.608 256.08 132.824 256.224C133.04 256.368 133.322 256.482 133.67 256.566C134.018 256.65 134.402 256.722 134.822 256.782C135.254 256.83 135.68 256.908 136.1 257.016C136.52 257.124 136.904 257.274 137.252 257.466C137.612 257.646 137.9 257.904 138.116 258.24C138.332 258.576 138.44 259.014 138.44 259.554C138.44 260.154 138.26 260.676 137.9 261.12C137.552 261.564 137.054 261.912 136.406 262.164C135.758 262.404 134.984 262.524 134.084 262.524ZM144.445 262.524C143.629 262.524 142.909 262.374 142.285 262.074C141.661 261.762 141.175 261.294 140.827 260.67C140.479 260.034 140.305 259.236 140.305 258.276V252.786H142.555V257.97C142.555 258.834 142.747 259.482 143.131 259.914C143.527 260.334 144.085 260.544 144.805 260.544C145.333 260.544 145.789 260.436 146.173 260.22C146.569 260.004 146.875 259.68 147.091 259.248C147.319 258.816 147.433 258.282 147.433 257.646V252.786H149.683V262.398H147.541V259.806L147.919 260.598C147.595 261.222 147.121 261.702 146.497 262.038C145.873 262.362 145.189 262.524 144.445 262.524ZM155.599 262.524C154.795 262.524 154.021 262.422 153.277 262.218C152.545 262.002 151.963 261.744 151.531 261.444L152.395 259.734C152.827 260.01 153.343 260.238 153.943 260.418C154.543 260.598 155.143 260.688 155.743 260.688C156.451 260.688 156.961 260.592 157.273 260.4C157.597 260.208 157.759 259.95 157.759 259.626C157.759 259.362 157.651 259.164 157.435 259.032C157.219 258.888 156.937 258.78 156.589 258.708C156.241 258.636 155.851 258.57 155.419 258.51C154.999 258.45 154.573 258.372 154.141 258.276C153.721 258.168 153.337 258.018 152.989 257.826C152.641 257.622 152.359 257.352 152.143 257.016C151.927 256.68 151.819 256.236 151.819 255.684C151.819 255.072 151.993 254.544 152.341 254.1C152.689 253.644 153.175 253.296 153.799 253.056C154.435 252.804 155.185 252.678 156.049 252.678C156.697 252.678 157.351 252.75 158.011 252.894C158.671 253.038 159.217 253.242 159.649 253.506L158.785 255.216C158.329 254.94 157.867 254.754 157.399 254.658C156.943 254.55 156.487 254.496 156.031 254.496C155.347 254.496 154.837 254.598 154.501 254.802C154.177 255.006 154.015 255.264 154.015 255.576C154.015 255.864 154.123 256.08 154.339 256.224C154.555 256.368 154.837 256.482 155.185 256.566C155.533 256.65 155.917 256.722 156.337 256.782C156.769 256.83 157.195 256.908 157.615 257.016C158.035 257.124 158.419 257.274 158.767 257.466C159.127 257.646 159.415 257.904 159.631 258.24C159.847 258.576 159.955 259.014 159.955 259.554C159.955 260.154 159.775 260.676 159.415 261.12C159.067 261.564 158.569 261.912 157.921 262.164C157.273 262.404 156.499 262.524 155.599 262.524ZM165.511 262.524C164.455 262.524 163.639 262.254 163.063 261.714C162.487 261.162 162.199 260.352 162.199 259.284V250.662H164.449V259.23C164.449 259.686 164.563 260.04 164.791 260.292C165.031 260.544 165.361 260.67 165.781 260.67C166.285 260.67 166.705 260.538 167.041 260.274L167.671 261.876C167.407 262.092 167.083 262.254 166.699 262.362C166.315 262.47 165.919 262.524 165.511 262.524ZM160.615 254.658V252.858H167.023V254.658H160.615ZM175.444 262.398V260.454L175.318 260.04V256.638C175.318 255.978 175.12 255.468 174.724 255.108C174.328 254.736 173.728 254.55 172.924 254.55C172.384 254.55 171.85 254.634 171.322 254.802C170.806 254.97 170.368 255.204 170.008 255.504L169.126 253.866C169.642 253.47 170.254 253.176 170.962 252.984C171.682 252.78 172.426 252.678 173.194 252.678C174.586 252.678 175.66 253.014 176.416 253.686C177.184 254.346 177.568 255.372 177.568 256.764V262.398H175.444ZM172.42 262.524C171.7 262.524 171.07 262.404 170.53 262.164C169.99 261.912 169.57 261.57 169.27 261.138C168.982 260.694 168.838 260.196 168.838 259.644C168.838 259.104 168.964 258.618 169.216 258.186C169.48 257.754 169.906 257.412 170.494 257.16C171.082 256.908 171.862 256.782 172.834 256.782H175.624V258.276H172.996C172.228 258.276 171.712 258.402 171.448 258.654C171.184 258.894 171.052 259.194 171.052 259.554C171.052 259.962 171.214 260.286 171.538 260.526C171.862 260.766 172.312 260.886 172.888 260.886C173.44 260.886 173.932 260.76 174.364 260.508C174.808 260.256 175.126 259.884 175.318 259.392L175.696 260.742C175.48 261.306 175.09 261.744 174.526 262.056C173.974 262.368 173.272 262.524 172.42 262.524ZM180.455 262.398V252.786H182.705V262.398H180.455ZM181.589 251.202C181.169 251.202 180.821 251.07 180.545 250.806C180.281 250.542 180.149 250.224 180.149 249.852C180.149 249.468 180.281 249.15 180.545 248.898C180.821 248.634 181.169 248.502 181.589 248.502C182.009 248.502 182.351 248.628 182.615 248.88C182.891 249.12 183.029 249.426 183.029 249.798C183.029 250.194 182.897 250.53 182.633 250.806C182.369 251.07 182.021 251.202 181.589 251.202ZM191.113 252.678C191.881 252.678 192.565 252.828 193.165 253.128C193.777 253.428 194.257 253.89 194.605 254.514C194.953 255.126 195.127 255.918 195.127 256.89V262.398H192.877V257.178C192.877 256.326 192.673 255.69 192.265 255.27C191.869 254.85 191.311 254.64 190.591 254.64C190.063 254.64 189.595 254.748 189.187 254.964C188.779 255.18 188.461 255.504 188.233 255.936C188.017 256.356 187.909 256.89 187.909 257.538V262.398H185.659V252.786H187.801V255.378L187.423 254.586C187.759 253.974 188.245 253.506 188.881 253.182C189.529 252.846 190.273 252.678 191.113 252.678ZM203.903 262.398V260.454L203.777 260.04V256.638C203.777 255.978 203.579 255.468 203.183 255.108C202.787 254.736 202.187 254.55 201.383 254.55C200.843 254.55 200.309 254.634 199.781 254.802C199.265 254.97 198.827 255.204 198.467 255.504L197.585 253.866C198.101 253.47 198.713 253.176 199.421 252.984C200.141 252.78 200.885 252.678 201.653 252.678C203.045 252.678 204.119 253.014 204.875 253.686C205.643 254.346 206.027 255.372 206.027 256.764V262.398H203.903ZM200.879 262.524C200.159 262.524 199.529 262.404 198.989 262.164C198.449 261.912 198.029 261.57 197.729 261.138C197.441 260.694 197.297 260.196 197.297 259.644C197.297 259.104 197.423 258.618 197.675 258.186C197.939 257.754 198.365 257.412 198.953 257.16C199.541 256.908 200.321 256.782 201.293 256.782H204.083V258.276H201.455C200.687 258.276 200.171 258.402 199.907 258.654C199.643 258.894 199.511 259.194 199.511 259.554C199.511 259.962 199.673 260.286 199.997 260.526C200.321 260.766 200.771 260.886 201.347 260.886C201.899 260.886 202.391 260.76 202.823 260.508C203.267 260.256 203.585 259.884 203.777 259.392L204.155 260.742C203.939 261.306 203.549 261.744 202.985 262.056C202.433 262.368 201.731 262.524 200.879 262.524ZM214.242 262.524C213.426 262.524 212.7 262.344 212.064 261.984C211.428 261.624 210.924 261.084 210.552 260.364C210.192 259.632 210.012 258.708 210.012 257.592C210.012 256.464 210.198 255.54 210.57 254.82C210.954 254.1 211.464 253.566 212.1 253.218C212.748 252.858 213.462 252.678 214.242 252.678C215.19 252.678 216.024 252.882 216.744 253.29C217.476 253.698 218.052 254.268 218.472 255C218.904 255.732 219.12 256.596 219.12 257.592C219.12 258.588 218.904 259.452 218.472 260.184C218.052 260.916 217.476 261.492 216.744 261.912C216.024 262.32 215.19 262.524 214.242 262.524ZM208.914 262.398V249.042H211.164V255.018L210.984 257.574L211.056 260.13V262.398H208.914ZM213.99 260.598C214.53 260.598 215.01 260.478 215.43 260.238C215.862 259.998 216.204 259.65 216.456 259.194C216.708 258.738 216.834 258.204 216.834 257.592C216.834 256.968 216.708 256.434 216.456 255.99C216.204 255.534 215.862 255.186 215.43 254.946C215.01 254.706 214.53 254.586 213.99 254.586C213.45 254.586 212.964 254.706 212.532 254.946C212.1 255.186 211.758 255.534 211.506 255.99C211.254 256.434 211.128 256.968 211.128 257.592C211.128 258.204 211.254 258.738 211.506 259.194C211.758 259.65 212.1 259.998 212.532 260.238C212.964 260.478 213.45 260.598 213.99 260.598ZM221.254 262.398V249.042H223.504V262.398H221.254ZM230.975 262.524C229.907 262.524 228.971 262.314 228.167 261.894C227.375 261.462 226.757 260.874 226.313 260.13C225.881 259.386 225.665 258.54 225.665 257.592C225.665 256.632 225.875 255.786 226.295 255.054C226.727 254.31 227.315 253.728 228.059 253.308C228.815 252.888 229.673 252.678 230.633 252.678C231.569 252.678 232.403 252.882 233.135 253.29C233.867 253.698 234.443 254.274 234.863 255.018C235.283 255.762 235.493 256.638 235.493 257.646C235.493 257.742 235.487 257.85 235.475 257.97C235.475 258.09 235.469 258.204 235.457 258.312H227.447V256.818H234.269L233.387 257.286C233.399 256.734 233.285 256.248 233.045 255.828C232.805 255.408 232.475 255.078 232.055 254.838C231.647 254.598 231.173 254.478 230.633 254.478C230.081 254.478 229.595 254.598 229.175 254.838C228.767 255.078 228.443 255.414 228.203 255.846C227.975 256.266 227.861 256.764 227.861 257.34V257.7C227.861 258.276 227.993 258.786 228.257 259.23C228.521 259.674 228.893 260.016 229.373 260.256C229.853 260.496 230.405 260.616 231.029 260.616C231.569 260.616 232.055 260.532 232.487 260.364C232.919 260.196 233.303 259.932 233.639 259.572L234.845 260.958C234.413 261.462 233.867 261.852 233.207 262.128C232.559 262.392 231.815 262.524 230.975 262.524ZM97.6556 288.524C96.8756 288.524 96.1616 288.344 95.5136 287.984C94.8776 287.624 94.3676 287.084 93.9836 286.364C93.6116 285.632 93.4256 284.708 93.4256 283.592C93.4256 282.464 93.6056 281.54 93.9656 280.82C94.3376 280.1 94.8416 279.566 95.4776 279.218C96.1136 278.858 96.8396 278.678 97.6556 278.678C98.6036 278.678 99.4376 278.882 100.158 279.29C100.89 279.698 101.466 280.268 101.886 281C102.318 281.732 102.534 282.596 102.534 283.592C102.534 284.588 102.318 285.458 101.886 286.202C101.466 286.934 100.89 287.504 100.158 287.912C99.4376 288.32 98.6036 288.524 97.6556 288.524ZM92.3276 291.89V278.786H94.4696V281.054L94.3976 283.61L94.5776 286.166V291.89H92.3276ZM97.4036 286.598C97.9436 286.598 98.4236 286.478 98.8436 286.238C99.2756 285.998 99.6176 285.65 99.8696 285.194C100.122 284.738 100.248 284.204 100.248 283.592C100.248 282.968 100.122 282.434 99.8696 281.99C99.6176 281.534 99.2756 281.186 98.8436 280.946C98.4236 280.706 97.9436 280.586 97.4036 280.586C96.8636 280.586 96.3776 280.706 95.9456 280.946C95.5136 281.186 95.1716 281.534 94.9196 281.99C94.6676 282.434 94.5416 282.968 94.5416 283.592C94.5416 284.204 94.6676 284.738 94.9196 285.194C95.1716 285.65 95.5136 285.998 95.9456 286.238C96.3776 286.478 96.8636 286.598 97.4036 286.598ZM110.466 288.398V286.454L110.34 286.04V282.638C110.34 281.978 110.142 281.468 109.746 281.108C109.35 280.736 108.75 280.55 107.946 280.55C107.406 280.55 106.872 280.634 106.344 280.802C105.828 280.97 105.39 281.204 105.03 281.504L104.148 279.866C104.664 279.47 105.276 279.176 105.984 278.984C106.704 278.78 107.448 278.678 108.216 278.678C109.608 278.678 110.682 279.014 111.438 279.686C112.206 280.346 112.59 281.372 112.59 282.764V288.398H110.466ZM107.442 288.524C106.722 288.524 106.092 288.404 105.552 288.164C105.012 287.912 104.592 287.57 104.292 287.138C104.004 286.694 103.86 286.196 103.86 285.644C103.86 285.104 103.986 284.618 104.238 284.186C104.502 283.754 104.928 283.412 105.516 283.16C106.104 282.908 106.884 282.782 107.856 282.782H110.646V284.276H108.018C107.25 284.276 106.734 284.402 106.47 284.654C106.206 284.894 106.074 285.194 106.074 285.554C106.074 285.962 106.236 286.286 106.56 286.526C106.884 286.766 107.334 286.886 107.91 286.886C108.462 286.886 108.954 286.76 109.386 286.508C109.83 286.256 110.148 285.884 110.34 285.392L110.718 286.742C110.502 287.306 110.112 287.744 109.548 288.056C108.996 288.368 108.294 288.524 107.442 288.524ZM119.906 288.524C118.898 288.524 117.998 288.314 117.206 287.894C116.426 287.462 115.814 286.874 115.37 286.13C114.926 285.386 114.704 284.54 114.704 283.592C114.704 282.632 114.926 281.786 115.37 281.054C115.814 280.31 116.426 279.728 117.206 279.308C117.998 278.888 118.898 278.678 119.906 278.678C120.842 278.678 121.664 278.87 122.372 279.254C123.092 279.626 123.638 280.178 124.01 280.91L122.282 281.918C121.994 281.462 121.64 281.126 121.22 280.91C120.812 280.694 120.368 280.586 119.888 280.586C119.336 280.586 118.838 280.706 118.394 280.946C117.95 281.186 117.602 281.534 117.35 281.99C117.098 282.434 116.972 282.968 116.972 283.592C116.972 284.216 117.098 284.756 117.35 285.212C117.602 285.656 117.95 285.998 118.394 286.238C118.838 286.478 119.336 286.598 119.888 286.598C120.368 286.598 120.812 286.49 121.22 286.274C121.64 286.058 121.994 285.722 122.282 285.266L124.01 286.274C123.638 286.994 123.092 287.552 122.372 287.948C121.664 288.332 120.842 288.524 119.906 288.524ZM127.703 286.256L127.757 283.43L132.779 278.786H135.479L131.213 283.07L130.025 284.06L127.703 286.256ZM125.867 288.398V275.042H128.117V288.398H125.867ZM133.121 288.398L129.611 284.06L131.033 282.26L135.857 288.398H133.121ZM143.056 288.398V286.454L142.93 286.04V282.638C142.93 281.978 142.732 281.468 142.336 281.108C141.94 280.736 141.34 280.55 140.536 280.55C139.996 280.55 139.462 280.634 138.934 280.802C138.418 280.97 137.98 281.204 137.62 281.504L136.738 279.866C137.254 279.47 137.866 279.176 138.574 278.984C139.294 278.78 140.038 278.678 140.806 278.678C142.198 278.678 143.272 279.014 144.028 279.686C144.796 280.346 145.18 281.372 145.18 282.764V288.398H143.056ZM140.032 288.524C139.312 288.524 138.682 288.404 138.142 288.164C137.602 287.912 137.182 287.57 136.882 287.138C136.594 286.694 136.45 286.196 136.45 285.644C136.45 285.104 136.576 284.618 136.828 284.186C137.092 283.754 137.518 283.412 138.106 283.16C138.694 282.908 139.474 282.782 140.446 282.782H143.236V284.276H140.608C139.84 284.276 139.324 284.402 139.06 284.654C138.796 284.894 138.664 285.194 138.664 285.554C138.664 285.962 138.826 286.286 139.15 286.526C139.474 286.766 139.924 286.886 140.5 286.886C141.052 286.886 141.544 286.76 141.976 286.508C142.42 286.256 142.738 285.884 142.93 285.392L143.308 286.742C143.092 287.306 142.702 287.744 142.138 288.056C141.586 288.368 140.884 288.524 140.032 288.524ZM152.441 292.016C151.553 292.016 150.683 291.896 149.831 291.656C148.991 291.428 148.301 291.092 147.761 290.648L148.769 288.956C149.189 289.304 149.717 289.58 150.353 289.784C151.001 290 151.655 290.108 152.315 290.108C153.371 290.108 154.145 289.862 154.637 289.37C155.129 288.89 155.375 288.164 155.375 287.192V285.482L155.555 283.304L155.483 281.126V278.786H157.625V286.94C157.625 288.68 157.181 289.958 156.293 290.774C155.405 291.602 154.121 292.016 152.441 292.016ZM152.153 287.966C151.241 287.966 150.413 287.774 149.669 287.39C148.937 286.994 148.355 286.448 147.923 285.752C147.503 285.056 147.293 284.24 147.293 283.304C147.293 282.38 147.503 281.57 147.923 280.874C148.355 280.178 148.937 279.638 149.669 279.254C150.413 278.87 151.241 278.678 152.153 278.678C152.969 278.678 153.701 278.84 154.349 279.164C154.997 279.488 155.513 279.992 155.897 280.676C156.293 281.36 156.491 282.236 156.491 283.304C156.491 284.372 156.293 285.254 155.897 285.95C155.513 286.634 154.997 287.144 154.349 287.48C153.701 287.804 152.969 287.966 152.153 287.966ZM152.495 286.058C153.059 286.058 153.563 285.944 154.007 285.716C154.451 285.476 154.793 285.152 155.033 284.744C155.285 284.324 155.411 283.844 155.411 283.304C155.411 282.764 155.285 282.29 155.033 281.882C154.793 281.462 154.451 281.144 154.007 280.928C153.563 280.7 153.059 280.586 152.495 280.586C151.931 280.586 151.421 280.7 150.965 280.928C150.521 281.144 150.173 281.462 149.921 281.882C149.681 282.29 149.561 282.764 149.561 283.304C149.561 283.844 149.681 284.324 149.921 284.744C150.173 285.152 150.521 285.476 150.965 285.716C151.421 285.944 151.931 286.058 152.495 286.058ZM160.583 288.398V278.786H162.833V288.398H160.583ZM161.717 277.202C161.297 277.202 160.949 277.07 160.673 276.806C160.409 276.542 160.277 276.224 160.277 275.852C160.277 275.468 160.409 275.15 160.673 274.898C160.949 274.634 161.297 274.502 161.717 274.502C162.137 274.502 162.479 274.628 162.743 274.88C163.019 275.12 163.157 275.426 163.157 275.798C163.157 276.194 163.025 276.53 162.761 276.806C162.497 277.07 162.149 277.202 161.717 277.202ZM171.241 278.678C172.009 278.678 172.693 278.828 173.293 279.128C173.905 279.428 174.385 279.89 174.733 280.514C175.081 281.126 175.255 281.918 175.255 282.89V288.398H173.005V283.178C173.005 282.326 172.801 281.69 172.393 281.27C171.997 280.85 171.439 280.64 170.719 280.64C170.191 280.64 169.723 280.748 169.315 280.964C168.907 281.18 168.589 281.504 168.361 281.936C168.145 282.356 168.037 282.89 168.037 283.538V288.398H165.787V278.786H167.929V281.378L167.551 280.586C167.887 279.974 168.373 279.506 169.009 279.182C169.657 278.846 170.401 278.678 171.241 278.678ZM182.482 292.016C181.594 292.016 180.724 291.896 179.872 291.656C179.032 291.428 178.342 291.092 177.802 290.648L178.81 288.956C179.23 289.304 179.758 289.58 180.394 289.784C181.042 290 181.696 290.108 182.356 290.108C183.412 290.108 184.186 289.862 184.678 289.37C185.17 288.89 185.416 288.164 185.416 287.192V285.482L185.596 283.304L185.524 281.126V278.786H187.666V286.94C187.666 288.68 187.222 289.958 186.334 290.774C185.446 291.602 184.162 292.016 182.482 292.016ZM182.194 287.966C181.282 287.966 180.454 287.774 179.71 287.39C178.978 286.994 178.396 286.448 177.964 285.752C177.544 285.056 177.334 284.24 177.334 283.304C177.334 282.38 177.544 281.57 177.964 280.874C178.396 280.178 178.978 279.638 179.71 279.254C180.454 278.87 181.282 278.678 182.194 278.678C183.01 278.678 183.742 278.84 184.39 279.164C185.038 279.488 185.554 279.992 185.938 280.676C186.334 281.36 186.532 282.236 186.532 283.304C186.532 284.372 186.334 285.254 185.938 285.95C185.554 286.634 185.038 287.144 184.39 287.48C183.742 287.804 183.01 287.966 182.194 287.966ZM182.536 286.058C183.1 286.058 183.604 285.944 184.048 285.716C184.492 285.476 184.834 285.152 185.074 284.744C185.326 284.324 185.452 283.844 185.452 283.304C185.452 282.764 185.326 282.29 185.074 281.882C184.834 281.462 184.492 281.144 184.048 280.928C183.604 280.7 183.1 280.586 182.536 280.586C181.972 280.586 181.462 280.7 181.006 280.928C180.562 281.144 180.214 281.462 179.962 281.882C179.722 282.29 179.602 282.764 179.602 283.304C179.602 283.844 179.722 284.324 179.962 284.744C180.214 285.152 180.562 285.476 181.006 285.716C181.462 285.944 181.972 286.058 182.536 286.058Z" fill="white"/>
</g>
<defs>
<filter id="filter0_b_310_718" x="-10" y="-10" width="300" height="380" filterUnits="userSpaceOnUse" color-interpolation-filters="sRGB">
<feFlood flood-opacity="0" result="BackgroundImageFix"/>
<feGaussianBlur in="BackgroundImageFix" stdDeviation="5"/>
<feComposite in2="SourceAlpha" operator="in" result="effect1_backgroundBlur_310_718"/>
<feBlend mode="normal" in="SourceGraphic" in2="effect1_backgroundBlur_310_718" result="shape"/>
</filter>
<clipPath id="clip0_310_718">
<rect width="82.7969" height="82.7969" fill="white" transform="translate(98.6016 64.6016)"/>
</clipPath>
<clipPath id="clip1_310_718">
<rect width="41.3984" height="41.3984" fill="white" transform="translate(119.301 95.6504)"/>
</clipPath>
</defs>
</svg>
