<svg width="173" height="29" viewBox="0 0 173 29" fill="none" xmlns="http://www.w3.org/2000/svg">
<path d="M6.72 5.96C8.256 5.96 9.56 6.288 10.632 6.944C11.72 7.584 12.552 8.52 13.128 9.752C13.704 10.984 13.992 12.504 13.992 14.312C13.992 16.232 13.64 17.856 12.936 19.184C12.248 20.512 11.288 21.52 10.056 22.208C8.824 22.896 7.392 23.24 5.76 23.24C4.912 23.24 4.104 23.152 3.336 22.976C2.568 22.8 1.904 22.528 1.344 22.16L2.496 19.808C2.96 20.112 3.464 20.328 4.008 20.456C4.552 20.568 5.112 20.624 5.688 20.624C7.272 20.624 8.528 20.136 9.456 19.16C10.384 18.184 10.848 16.744 10.848 14.84C10.848 14.536 10.84 14.184 10.824 13.784C10.808 13.368 10.752 12.952 10.656 12.536L11.616 13.592C11.344 14.248 10.952 14.8 10.44 15.248C9.928 15.68 9.328 16.008 8.64 16.232C7.952 16.456 7.192 16.568 6.36 16.568C5.272 16.568 4.288 16.36 3.408 15.944C2.544 15.512 1.856 14.912 1.344 14.144C0.832 13.36 0.576 12.448 0.576 11.408C0.576 10.288 0.848 9.328 1.392 8.528C1.936 7.712 2.672 7.08 3.6 6.632C4.544 6.184 5.584 5.96 6.72 5.96ZM6.888 8.408C6.248 8.408 5.68 8.528 5.184 8.768C4.688 8.992 4.296 9.32 4.008 9.752C3.736 10.168 3.6 10.672 3.6 11.264C3.6 12.144 3.904 12.84 4.512 13.352C5.12 13.864 5.936 14.12 6.96 14.12C7.632 14.12 8.224 14 8.736 13.76C9.248 13.504 9.648 13.16 9.936 12.728C10.224 12.28 10.368 11.784 10.368 11.24C10.368 10.712 10.232 10.24 9.96 9.824C9.688 9.392 9.296 9.048 8.784 8.792C8.272 8.536 7.64 8.408 6.888 8.408ZM23.1109 23.24C21.7829 23.24 20.5829 22.904 19.5109 22.232C18.4549 21.56 17.6229 20.584 17.0149 19.304C16.4069 18.008 16.1029 16.44 16.1029 14.6C16.1029 12.76 16.4069 11.2 17.0149 9.92C17.6229 8.624 18.4549 7.64 19.5109 6.968C20.5829 6.296 21.7829 5.96 23.1109 5.96C24.4549 5.96 25.6549 6.296 26.7109 6.968C27.7669 7.64 28.5989 8.624 29.2069 9.92C29.8309 11.2 30.1429 12.76 30.1429 14.6C30.1429 16.44 29.8309 18.008 29.2069 19.304C28.5989 20.584 27.7669 21.56 26.7109 22.232C25.6549 22.904 24.4549 23.24 23.1109 23.24ZM23.1109 20.528C23.8949 20.528 24.5749 20.32 25.1509 19.904C25.7269 19.472 26.1749 18.816 26.4949 17.936C26.8309 17.056 26.9989 15.944 26.9989 14.6C26.9989 13.24 26.8309 12.128 26.4949 11.264C26.1749 10.384 25.7269 9.736 25.1509 9.32C24.5749 8.888 23.8949 8.672 23.1109 8.672C22.3589 8.672 21.6869 8.888 21.0949 9.32C20.5189 9.736 20.0629 10.384 19.7269 11.264C19.4069 12.128 19.2469 13.24 19.2469 14.6C19.2469 15.944 19.4069 17.056 19.7269 17.936C20.0629 18.816 20.5189 19.472 21.0949 19.904C21.6869 20.32 22.3589 20.528 23.1109 20.528ZM34.6033 23L46.0753 6.2H48.4273L36.9553 23H34.6033ZM35.9953 15.248C35.2113 15.248 34.5153 15.056 33.9073 14.672C33.2993 14.288 32.8273 13.752 32.4913 13.064C32.1553 12.376 31.9873 11.568 31.9873 10.64C31.9873 9.712 32.1553 8.904 32.4913 8.216C32.8273 7.528 33.2993 6.992 33.9073 6.608C34.5153 6.224 35.2113 6.032 35.9953 6.032C36.8113 6.032 37.5153 6.224 38.1073 6.608C38.7153 6.992 39.1873 7.528 39.5233 8.216C39.8593 8.904 40.0273 9.712 40.0273 10.64C40.0273 11.568 39.8593 12.376 39.5233 13.064C39.1873 13.752 38.7153 14.288 38.1073 14.672C37.5153 15.056 36.8113 15.248 35.9953 15.248ZM36.0193 13.568C36.6593 13.568 37.1553 13.32 37.5073 12.824C37.8753 12.312 38.0593 11.584 38.0593 10.64C38.0593 9.696 37.8753 8.976 37.5073 8.48C37.1553 7.968 36.6593 7.712 36.0193 7.712C35.3793 7.712 34.8673 7.968 34.4833 8.48C34.1153 8.992 33.9313 9.712 33.9313 10.64C33.9313 11.568 34.1153 12.288 34.4833 12.8C34.8673 13.312 35.3793 13.568 36.0193 13.568ZM47.0113 23.168C46.2273 23.168 45.5313 22.976 44.9233 22.592C44.3153 22.208 43.8433 21.672 43.5073 20.984C43.1713 20.296 43.0033 19.488 43.0033 18.56C43.0033 17.632 43.1713 16.824 43.5073 16.136C43.8433 15.448 44.3153 14.912 44.9233 14.528C45.5313 14.144 46.2273 13.952 47.0113 13.952C47.8273 13.952 48.5313 14.144 49.1233 14.528C49.7313 14.912 50.2033 15.448 50.5393 16.136C50.8753 16.824 51.0433 17.632 51.0433 18.56C51.0433 19.488 50.8753 20.296 50.5393 20.984C50.2033 21.672 49.7313 22.208 49.1233 22.592C48.5313 22.976 47.8273 23.168 47.0113 23.168ZM47.0113 21.488C47.6513 21.488 48.1553 21.232 48.5233 20.72C48.8913 20.208 49.0753 19.488 49.0753 18.56C49.0753 17.632 48.8913 16.912 48.5233 16.4C48.1553 15.888 47.6513 15.632 47.0113 15.632C46.3873 15.632 45.8833 15.888 45.4993 16.4C45.1313 16.896 44.9473 17.616 44.9473 18.56C44.9473 19.504 45.1313 20.232 45.4993 20.744C45.8833 21.24 46.3873 21.488 47.0113 21.488Z" fill="#070707"/>
<g clip-path="url(#clip0_395_709)">
<path d="M168.989 18.9179C168.163 19.5722 167.176 19.9167 166.133 19.9167C165.09 19.9167 164.103 19.5722 163.278 18.9179C163.134 18.8052 162.879 18.8052 162.739 18.9179C161.087 20.2255 158.678 20.2255 157.028 18.9179C156.883 18.8052 156.629 18.8052 156.489 18.9179C154.837 20.2255 152.428 20.2255 150.778 18.9179C150.634 18.8052 150.379 18.8052 150.239 18.9179C150.073 19.049 149.902 19.166 149.721 19.2743C148.976 19.7174 148.019 19.4487 147.589 18.6687C147.162 17.8898 147.421 16.8964 148.171 16.4511C148.234 16.4154 148.291 16.3742 148.347 16.3309C149.599 15.3375 151.418 15.3407 152.67 16.3309C153.221 16.7686 154.042 16.7686 154.596 16.3309C155.847 15.3386 157.667 15.3386 158.92 16.3309C159.471 16.7686 160.292 16.7686 160.846 16.3309C162.097 15.3386 163.917 15.3386 165.17 16.3309C165.721 16.7686 166.542 16.7686 167.096 16.3309C168.347 15.3386 170.167 15.3386 171.42 16.3309C171.474 16.3742 171.533 16.4143 171.595 16.4501C172.345 16.8953 172.606 17.8887 172.178 18.6676C171.748 19.4476 170.793 19.7163 170.045 19.2732C169.865 19.1649 169.692 19.0468 169.529 18.9179C169.386 18.8052 169.13 18.8041 168.989 18.9179ZM148.945 21.0001C148.083 21.0001 147.383 21.7281 147.383 22.6251C147.383 23.5221 148.083 24.2501 148.945 24.2501C149.808 24.2501 150.508 23.5221 150.508 22.6251C150.508 21.7281 149.808 21.0001 148.945 21.0001ZM154.154 24.2501C153.291 24.2501 152.591 24.9781 152.591 25.8751C152.591 26.7721 153.291 27.5001 154.154 27.5001C155.016 27.5001 155.716 26.7721 155.716 25.8751C155.716 24.9781 155.016 24.2501 154.154 24.2501ZM165.612 24.2501C164.749 24.2501 164.049 24.9781 164.049 25.8751C164.049 26.7721 164.749 27.5001 165.612 27.5001C166.474 27.5001 167.174 26.7721 167.174 25.8751C167.174 24.9781 166.474 24.2501 165.612 24.2501ZM159.883 21.0001C159.02 21.0001 158.32 21.7281 158.32 22.6251C158.32 23.5221 159.02 24.2501 159.883 24.2501C160.745 24.2501 161.445 23.5221 161.445 22.6251C161.445 21.7281 160.745 21.0001 159.883 21.0001ZM170.82 21.0001C169.958 21.0001 169.258 21.7281 169.258 22.6251C169.258 23.5221 169.958 24.2501 170.82 24.2501C171.683 24.2501 172.383 23.5221 172.383 22.6251C172.383 21.7281 171.683 21.0001 170.82 21.0001ZM156.201 11.8231C155.217 10.8005 154.674 9.43982 154.674 7.99357C154.674 6.54732 155.217 5.18557 156.201 4.1629L158.057 2.27465C159.064 1.2509 160.702 1.2509 161.709 2.27465L163.554 4.15098C164.549 5.18557 165.092 6.54623 165.092 7.99357C165.092 9.4409 164.549 10.8005 163.566 11.8231C162.583 12.8458 161.274 13.4102 159.884 13.4102C158.493 13.4102 157.184 12.8458 156.201 11.8231ZM157.799 7.99357C157.799 8.57207 158.016 9.1159 158.41 9.5254C159.197 10.3444 160.568 10.3444 161.356 9.5254C161.749 9.1159 161.966 8.57207 161.966 7.99357C161.966 7.41507 161.749 6.87123 161.356 6.46282L159.883 4.9624L158.397 6.47473C158.016 6.87123 157.799 7.41507 157.799 7.99357ZM148.945 14.5001H152.07C152.933 14.5001 153.633 13.7721 153.633 12.8751C153.633 11.9781 152.933 11.2501 152.07 11.2501H148.945C148.083 11.2501 147.383 11.9781 147.383 12.8751C147.383 13.7721 148.083 14.5001 148.945 14.5001ZM167.695 14.5001H170.82C171.683 14.5001 172.383 13.7721 172.383 12.8751C172.383 11.9781 171.683 11.2501 170.82 11.2501H167.695C166.833 11.2501 166.133 11.9781 166.133 12.8751C166.133 13.7721 166.833 14.5001 167.695 14.5001Z" fill="#070707"/>
</g>
<defs>
<clipPath id="clip0_395_709">
<rect width="25" height="26" fill="white" transform="translate(147.383 1.5)"/>
</clipPath>
</defs>
</svg>
