<svg width="280" height="360" viewBox="0 0 280 360" fill="none" xmlns="http://www.w3.org/2000/svg">
<path d="M87.5169 172.798C88.6369 172.798 89.4969 172.918 90.0969 173.158C90.6969 173.398 91.2169 173.658 91.6569 173.938C91.8969 174.078 92.0869 174.188 92.2269 174.268C92.3869 174.328 92.5369 174.358 92.6769 174.358C92.8769 174.358 93.0169 174.248 93.0969 174.028C93.1969 173.808 93.2769 173.478 93.3369 173.038H94.0269C94.0069 173.418 93.9769 173.858 93.9369 174.358C93.9169 174.858 93.8969 175.528 93.8769 176.368C93.8769 177.188 93.8769 178.278 93.8769 179.638H93.1869C93.1269 178.618 92.8969 177.638 92.4969 176.698C92.1169 175.758 91.5669 174.988 90.8469 174.388C90.1469 173.768 89.2469 173.458 88.1469 173.458C87.1669 173.458 86.3469 173.748 85.6869 174.328C85.0469 174.908 84.7269 175.688 84.7269 176.668C84.7269 177.508 84.9369 178.218 85.3569 178.798C85.7769 179.358 86.3669 179.908 87.1269 180.448C87.9069 180.968 88.8269 181.568 89.8869 182.248C90.8669 182.888 91.7469 183.528 92.5269 184.168C93.3069 184.788 93.9169 185.478 94.3569 186.238C94.8169 186.998 95.0469 187.928 95.0469 189.028C95.0469 190.328 94.7269 191.408 94.0869 192.268C93.4469 193.128 92.5869 193.768 91.5069 194.188C90.4269 194.608 89.2469 194.818 87.9669 194.818C86.7869 194.818 85.8469 194.698 85.1469 194.458C84.4669 194.218 83.8769 193.968 83.3769 193.708C82.9369 193.428 82.5969 193.288 82.3569 193.288C82.1569 193.288 82.0069 193.398 81.9069 193.618C81.8269 193.838 81.7569 194.168 81.6969 194.608H81.0069C81.0469 194.148 81.0669 193.608 81.0669 192.988C81.0869 192.368 81.0969 191.568 81.0969 190.588C81.1169 189.588 81.1269 188.328 81.1269 186.808H81.8169C81.8969 188.088 82.1169 189.288 82.4769 190.408C82.8569 191.508 83.4269 192.398 84.1869 193.078C84.9669 193.758 85.9969 194.098 87.2769 194.098C87.9769 194.098 88.6069 193.978 89.1669 193.738C89.7469 193.478 90.2069 193.088 90.5469 192.568C90.8869 192.028 91.0569 191.348 91.0569 190.528C91.0569 189.708 90.8669 188.988 90.4869 188.368C90.1069 187.748 89.5769 187.168 88.8969 186.628C88.2169 186.088 87.4169 185.538 86.4969 184.978C85.5569 184.378 84.6769 183.768 83.8569 183.148C83.0369 182.528 82.3769 181.828 81.8769 181.048C81.3969 180.248 81.1569 179.288 81.1569 178.168C81.1569 176.928 81.4569 175.918 82.0569 175.138C82.6569 174.338 83.4369 173.748 84.3969 173.368C85.3769 172.988 86.4169 172.798 87.5169 172.798ZM101.327 194.608C100.467 194.608 99.737 194.448 99.137 194.128C98.537 193.788 98.087 193.338 97.787 192.778C97.487 192.198 97.337 191.558 97.337 190.858C97.337 189.998 97.537 189.298 97.937 188.758C98.337 188.198 98.847 187.758 99.467 187.438C100.107 187.098 100.777 186.818 101.477 186.598C102.177 186.358 102.837 186.138 103.457 185.938C104.077 185.718 104.587 185.468 104.987 185.188C105.387 184.908 105.587 184.538 105.587 184.078V181.888C105.587 181.248 105.487 180.728 105.287 180.328C105.107 179.908 104.827 179.598 104.447 179.398C104.087 179.178 103.627 179.068 103.067 179.068C102.647 179.068 102.207 179.128 101.747 179.248C101.287 179.368 100.907 179.598 100.607 179.938C101.127 180.078 101.527 180.338 101.807 180.718C102.107 181.098 102.257 181.558 102.257 182.098C102.257 182.718 102.047 183.208 101.627 183.568C101.227 183.908 100.717 184.078 100.097 184.078C99.437 184.078 98.937 183.868 98.597 183.448C98.257 183.028 98.087 182.538 98.087 181.978C98.087 181.418 98.227 180.958 98.507 180.598C98.787 180.218 99.177 179.878 99.677 179.578C100.177 179.238 100.817 178.968 101.597 178.768C102.377 178.568 103.227 178.468 104.147 178.468C105.027 178.468 105.807 178.568 106.487 178.768C107.167 178.948 107.747 179.278 108.227 179.758C108.707 180.218 109.017 180.788 109.157 181.468C109.297 182.148 109.367 182.978 109.367 183.958V192.178C109.367 192.678 109.427 193.038 109.547 193.258C109.667 193.458 109.857 193.558 110.117 193.558C110.317 193.558 110.507 193.508 110.687 193.408C110.867 193.308 111.067 193.168 111.287 192.988L111.617 193.498C111.177 193.838 110.717 194.108 110.237 194.308C109.757 194.508 109.177 194.608 108.497 194.608C107.797 194.608 107.237 194.508 106.817 194.308C106.417 194.108 106.117 193.818 105.917 193.438C105.737 193.058 105.637 192.608 105.617 192.088C105.137 192.888 104.547 193.508 103.847 193.948C103.147 194.388 102.307 194.608 101.327 194.608ZM103.127 192.928C103.607 192.928 104.047 192.798 104.447 192.538C104.867 192.278 105.247 191.888 105.587 191.368V185.308C105.387 185.608 105.097 185.878 104.717 186.118C104.357 186.358 103.967 186.598 103.547 186.838C103.127 187.078 102.727 187.358 102.347 187.678C101.987 187.978 101.677 188.358 101.417 188.818C101.177 189.258 101.057 189.828 101.057 190.528C101.057 191.308 101.247 191.908 101.627 192.328C102.007 192.728 102.507 192.928 103.127 192.928ZM126.465 178.888V179.518C126.085 179.598 125.725 179.808 125.385 180.148C125.065 180.488 124.755 181.088 124.455 181.948L119.865 194.488C119.625 194.468 119.385 194.458 119.145 194.458C118.905 194.458 118.655 194.468 118.395 194.488L112.995 181.198C112.695 180.438 112.385 179.968 112.065 179.788C111.745 179.608 111.475 179.518 111.255 179.518V178.888C111.815 178.928 112.395 178.968 112.995 179.008C113.595 179.028 114.255 179.038 114.975 179.038C115.595 179.038 116.245 179.028 116.925 179.008C117.625 178.968 118.275 178.928 118.875 178.888V179.518C118.435 179.518 118.035 179.548 117.675 179.608C117.335 179.668 117.105 179.828 116.985 180.088C116.865 180.328 116.915 180.758 117.135 181.378L120.735 190.708L120.465 191.038L123.195 183.628C123.535 182.688 123.675 181.928 123.615 181.348C123.555 180.768 123.335 180.328 122.955 180.028C122.595 179.728 122.075 179.558 121.395 179.518V178.888C121.735 178.908 122.055 178.928 122.355 178.948C122.675 178.968 122.985 178.988 123.285 179.008C123.605 179.008 123.905 179.008 124.185 179.008C124.605 179.008 125.015 178.998 125.415 178.978C125.835 178.958 126.185 178.928 126.465 178.888ZM134.453 178.468C136.213 178.468 137.593 178.998 138.593 180.058C139.593 181.118 140.093 182.808 140.093 185.128H129.983L129.953 184.558H136.613C136.653 183.578 136.593 182.678 136.433 181.858C136.273 181.018 136.013 180.348 135.653 179.848C135.313 179.348 134.863 179.098 134.303 179.098C133.543 179.098 132.883 179.548 132.323 180.448C131.763 181.328 131.413 182.778 131.273 184.798L131.393 184.978C131.353 185.238 131.323 185.518 131.303 185.818C131.303 186.118 131.303 186.418 131.303 186.718C131.303 188.098 131.503 189.238 131.903 190.138C132.303 191.038 132.823 191.698 133.463 192.118C134.103 192.538 134.763 192.748 135.443 192.748C135.903 192.748 136.373 192.678 136.853 192.538C137.333 192.398 137.803 192.138 138.263 191.758C138.723 191.378 139.143 190.838 139.523 190.138L140.093 190.378C139.873 191.078 139.503 191.778 138.983 192.478C138.483 193.158 137.833 193.718 137.033 194.158C136.233 194.598 135.293 194.818 134.213 194.818C132.853 194.818 131.653 194.518 130.613 193.918C129.573 193.318 128.763 192.428 128.183 191.248C127.603 190.048 127.313 188.588 127.313 186.868C127.313 185.048 127.613 183.518 128.213 182.278C128.833 181.038 129.683 180.098 130.763 179.458C131.843 178.798 133.073 178.468 134.453 178.468ZM158.368 173.158V173.758C157.688 173.778 157.168 173.858 156.808 173.998C156.468 174.118 156.238 174.358 156.118 174.718C155.998 175.058 155.938 175.598 155.938 176.338V191.458C155.938 192.098 155.988 192.588 156.088 192.928C156.208 193.248 156.418 193.458 156.718 193.558C157.018 193.658 157.448 193.708 158.008 193.708H159.718C160.498 193.708 161.178 193.568 161.758 193.288C162.358 193.008 162.878 192.598 163.318 192.058C163.758 191.518 164.118 190.858 164.398 190.078C164.678 189.278 164.878 188.378 164.998 187.378H165.688C165.628 188.038 165.598 188.898 165.598 189.958C165.598 190.398 165.608 191.028 165.628 191.848C165.668 192.668 165.728 193.518 165.808 194.398C164.788 194.358 163.638 194.338 162.358 194.338C161.078 194.318 159.938 194.308 158.938 194.308C158.458 194.308 157.848 194.308 157.108 194.308C156.368 194.308 155.558 194.318 154.678 194.338C153.818 194.338 152.938 194.348 152.038 194.368C151.158 194.368 150.318 194.378 149.518 194.398V193.798C150.178 193.758 150.668 193.678 150.988 193.558C151.328 193.438 151.548 193.198 151.648 192.838C151.768 192.478 151.828 191.938 151.828 191.218V176.338C151.828 175.598 151.768 175.058 151.648 174.718C151.548 174.358 151.328 174.118 150.988 173.998C150.668 173.858 150.178 173.778 149.518 173.758V173.158C150.018 173.178 150.658 173.198 151.438 173.218C152.218 173.238 153.058 173.248 153.958 173.248C154.778 173.248 155.588 173.238 156.388 173.218C157.188 173.198 157.848 173.178 158.368 173.158ZM171.014 171.238C171.734 171.238 172.324 171.438 172.784 171.838C173.244 172.238 173.474 172.768 173.474 173.428C173.474 174.088 173.244 174.618 172.784 175.018C172.324 175.418 171.734 175.618 171.014 175.618C170.294 175.618 169.704 175.418 169.244 175.018C168.784 174.618 168.554 174.088 168.554 173.428C168.554 172.768 168.784 172.238 169.244 171.838C169.704 171.438 170.294 171.238 171.014 171.238ZM173.114 178.558V191.608C173.114 192.448 173.264 193.018 173.564 193.318C173.884 193.618 174.414 193.768 175.154 193.768V194.398C174.794 194.378 174.244 194.358 173.504 194.338C172.764 194.298 172.014 194.278 171.254 194.278C170.514 194.278 169.764 194.298 169.004 194.338C168.244 194.358 167.674 194.378 167.294 194.398V193.768C168.034 193.768 168.554 193.618 168.854 193.318C169.174 193.018 169.334 192.448 169.334 191.608V182.188C169.334 181.268 169.184 180.598 168.884 180.178C168.604 179.738 168.074 179.518 167.294 179.518V178.888C167.934 178.948 168.554 178.978 169.154 178.978C169.894 178.978 170.594 178.948 171.254 178.888C171.934 178.808 172.554 178.698 173.114 178.558ZM184.262 170.938C184.922 170.938 185.492 171.028 185.972 171.208C186.472 171.368 186.902 171.588 187.262 171.868C187.562 172.108 187.802 172.408 187.982 172.768C188.182 173.128 188.282 173.528 188.282 173.968C188.282 174.508 188.092 174.968 187.712 175.348C187.352 175.728 186.892 175.918 186.332 175.918C185.732 175.918 185.232 175.748 184.832 175.408C184.452 175.048 184.262 174.558 184.262 173.938C184.262 173.458 184.392 173.048 184.652 172.708C184.932 172.348 185.322 172.098 185.822 171.958C185.762 171.818 185.632 171.698 185.432 171.598C185.232 171.498 184.962 171.448 184.622 171.448C184.222 171.448 183.872 171.528 183.572 171.688C183.292 171.848 183.062 172.068 182.882 172.348C182.682 172.688 182.542 173.188 182.462 173.848C182.382 174.508 182.342 175.508 182.342 176.848V178.918H185.552V179.518H182.342V191.308C182.342 192.288 182.602 192.948 183.122 193.288C183.662 193.608 184.382 193.768 185.282 193.768V194.398C184.782 194.378 184.082 194.358 183.182 194.338C182.282 194.298 181.322 194.278 180.302 194.278C179.582 194.278 178.862 194.298 178.142 194.338C177.422 194.358 176.882 194.378 176.522 194.398V193.768C177.262 193.768 177.782 193.618 178.082 193.318C178.402 193.018 178.562 192.448 178.562 191.608V179.518H176.402V178.918H178.562C178.562 177.738 178.622 176.758 178.742 175.978C178.862 175.178 179.042 174.498 179.282 173.938C179.542 173.378 179.892 172.878 180.332 172.438C180.752 171.998 181.302 171.638 181.982 171.358C182.682 171.078 183.442 170.938 184.262 170.938ZM193.897 178.468C195.657 178.468 197.037 178.998 198.037 180.058C199.037 181.118 199.537 182.808 199.537 185.128H189.427L189.397 184.558H196.057C196.097 183.578 196.037 182.678 195.877 181.858C195.717 181.018 195.457 180.348 195.097 179.848C194.757 179.348 194.307 179.098 193.747 179.098C192.987 179.098 192.327 179.548 191.767 180.448C191.207 181.328 190.857 182.778 190.717 184.798L190.837 184.978C190.797 185.238 190.767 185.518 190.747 185.818C190.747 186.118 190.747 186.418 190.747 186.718C190.747 188.098 190.947 189.238 191.347 190.138C191.747 191.038 192.267 191.698 192.907 192.118C193.547 192.538 194.207 192.748 194.887 192.748C195.347 192.748 195.817 192.678 196.297 192.538C196.777 192.398 197.247 192.138 197.707 191.758C198.167 191.378 198.587 190.838 198.967 190.138L199.537 190.378C199.317 191.078 198.947 191.778 198.427 192.478C197.927 193.158 197.277 193.718 196.477 194.158C195.677 194.598 194.737 194.818 193.657 194.818C192.297 194.818 191.097 194.518 190.057 193.918C189.017 193.318 188.207 192.428 187.627 191.248C187.047 190.048 186.757 188.588 186.757 186.868C186.757 185.048 187.057 183.518 187.657 182.278C188.277 181.038 189.127 180.098 190.207 179.458C191.287 178.798 192.517 178.468 193.897 178.468Z" fill="white"/>
<path d="M22.5211 236.398V223.798H28.4251C29.9371 223.798 31.0891 224.098 31.8811 224.698C32.6731 225.286 33.0691 226.078 33.0691 227.074C33.0691 227.746 32.9131 228.322 32.6011 228.802C32.2891 229.27 31.8691 229.636 31.3411 229.9C30.8251 230.152 30.2611 230.278 29.6491 230.278L29.9731 229.63C30.6811 229.63 31.3171 229.762 31.8811 230.026C32.4451 230.278 32.8891 230.65 33.2131 231.142C33.5491 231.634 33.7171 232.246 33.7171 232.978C33.7171 234.058 33.3031 234.898 32.4751 235.498C31.6471 236.098 30.4171 236.398 28.7851 236.398H22.5211ZM24.8611 234.562H28.6411C29.5171 234.562 30.1891 234.418 30.6571 234.13C31.1251 233.842 31.3591 233.38 31.3591 232.744C31.3591 232.12 31.1251 231.664 30.6571 231.376C30.1891 231.076 29.5171 230.926 28.6411 230.926H24.6811V229.108H28.1731C28.9891 229.108 29.6131 228.964 30.0451 228.676C30.4891 228.388 30.7111 227.956 30.7111 227.38C30.7111 226.792 30.4891 226.354 30.0451 226.066C29.6131 225.778 28.9891 225.634 28.1731 225.634H24.8611V234.562ZM35.9985 236.398V223.042H38.2485V236.398H35.9985ZM45.2696 236.524C44.4536 236.524 43.7336 236.374 43.1096 236.074C42.4856 235.762 41.9996 235.294 41.6516 234.67C41.3036 234.034 41.1296 233.236 41.1296 232.276V226.786H43.3796V231.97C43.3796 232.834 43.5716 233.482 43.9556 233.914C44.3516 234.334 44.9096 234.544 45.6296 234.544C46.1576 234.544 46.6136 234.436 46.9976 234.22C47.3936 234.004 47.6996 233.68 47.9156 233.248C48.1436 232.816 48.2576 232.282 48.2576 231.646V226.786H50.5076V236.398H48.3656V233.806L48.7436 234.598C48.4196 235.222 47.9456 235.702 47.3216 236.038C46.6976 236.362 46.0136 236.524 45.2696 236.524ZM57.9715 236.524C56.9035 236.524 55.9675 236.314 55.1635 235.894C54.3715 235.462 53.7535 234.874 53.3095 234.13C52.8775 233.386 52.6615 232.54 52.6615 231.592C52.6615 230.632 52.8715 229.786 53.2915 229.054C53.7235 228.31 54.3115 227.728 55.0555 227.308C55.8115 226.888 56.6695 226.678 57.6295 226.678C58.5655 226.678 59.3995 226.882 60.1315 227.29C60.8635 227.698 61.4395 228.274 61.8595 229.018C62.2795 229.762 62.4895 230.638 62.4895 231.646C62.4895 231.742 62.4835 231.85 62.4715 231.97C62.4715 232.09 62.4655 232.204 62.4535 232.312H54.4435V230.818H61.2655L60.3835 231.286C60.3955 230.734 60.2815 230.248 60.0415 229.828C59.8015 229.408 59.4715 229.078 59.0515 228.838C58.6435 228.598 58.1695 228.478 57.6295 228.478C57.0775 228.478 56.5915 228.598 56.1715 228.838C55.7635 229.078 55.4395 229.414 55.1995 229.846C54.9715 230.266 54.8575 230.764 54.8575 231.34V231.7C54.8575 232.276 54.9895 232.786 55.2535 233.23C55.5175 233.674 55.8895 234.016 56.3695 234.256C56.8495 234.496 57.4015 234.616 58.0255 234.616C58.5655 234.616 59.0515 234.532 59.4835 234.364C59.9155 234.196 60.2995 233.932 60.6355 233.572L61.8415 234.958C61.4095 235.462 60.8635 235.852 60.2035 236.128C59.5555 236.392 58.8115 236.524 57.9715 236.524ZM67.4852 236.398L63.3092 223.798H65.7392L69.4652 235.192H68.2592L72.1292 223.798H74.2892L78.0512 235.192H76.8812L80.6972 223.798H82.9292L78.7532 236.398H76.2692L72.8312 226.12H73.4792L69.9872 236.398H67.4852ZM89.8209 236.398V234.454L89.6949 234.04V230.638C89.6949 229.978 89.4969 229.468 89.1009 229.108C88.7049 228.736 88.1049 228.55 87.3009 228.55C86.7609 228.55 86.2269 228.634 85.6989 228.802C85.1829 228.97 84.7449 229.204 84.3849 229.504L83.5029 227.866C84.0189 227.47 84.6309 227.176 85.3389 226.984C86.0589 226.78 86.8029 226.678 87.5709 226.678C88.9629 226.678 90.0369 227.014 90.7929 227.686C91.5609 228.346 91.9449 229.372 91.9449 230.764V236.398H89.8209ZM86.7969 236.524C86.0769 236.524 85.4469 236.404 84.9069 236.164C84.3669 235.912 83.9469 235.57 83.6469 235.138C83.3589 234.694 83.2149 234.196 83.2149 233.644C83.2149 233.104 83.3409 232.618 83.5929 232.186C83.8569 231.754 84.2829 231.412 84.8709 231.16C85.4589 230.908 86.2389 230.782 87.2109 230.782H90.0009V232.276H87.3729C86.6049 232.276 86.0889 232.402 85.8249 232.654C85.5609 232.894 85.4289 233.194 85.4289 233.554C85.4289 233.962 85.5909 234.286 85.9149 234.526C86.2389 234.766 86.6889 234.886 87.2649 234.886C87.8169 234.886 88.3089 234.76 88.7409 234.508C89.1849 234.256 89.5029 233.884 89.6949 233.392L90.0729 234.742C89.8569 235.306 89.4669 235.744 88.9029 236.056C88.3509 236.368 87.6489 236.524 86.7969 236.524ZM97.2127 236.398L93.0907 226.786H95.4307L98.9767 235.264H97.8247L101.497 226.786H103.657L99.5347 236.398H97.2127ZM109.317 236.524C108.249 236.524 107.313 236.314 106.509 235.894C105.717 235.462 105.099 234.874 104.655 234.13C104.223 233.386 104.007 232.54 104.007 231.592C104.007 230.632 104.217 229.786 104.637 229.054C105.069 228.31 105.657 227.728 106.401 227.308C107.157 226.888 108.015 226.678 108.975 226.678C109.911 226.678 110.745 226.882 111.477 227.29C112.209 227.698 112.785 228.274 113.205 229.018C113.625 229.762 113.835 230.638 113.835 231.646C113.835 231.742 113.829 231.85 113.817 231.97C113.817 232.09 113.811 232.204 113.799 232.312H105.789V230.818H112.611L111.729 231.286C111.741 230.734 111.627 230.248 111.387 229.828C111.147 229.408 110.817 229.078 110.397 228.838C109.989 228.598 109.515 228.478 108.975 228.478C108.423 228.478 107.937 228.598 107.517 228.838C107.109 229.078 106.785 229.414 106.545 229.846C106.317 230.266 106.203 230.764 106.203 231.34V231.7C106.203 232.276 106.335 232.786 106.599 233.23C106.863 233.674 107.235 234.016 107.715 234.256C108.195 234.496 108.747 234.616 109.371 234.616C109.911 234.616 110.397 234.532 110.829 234.364C111.261 234.196 111.645 233.932 111.981 233.572L113.187 234.958C112.755 235.462 112.209 235.852 111.549 236.128C110.901 236.392 110.157 236.524 109.317 236.524ZM123.941 236.524C123.137 236.524 122.363 236.422 121.619 236.218C120.887 236.002 120.305 235.744 119.873 235.444L120.737 233.734C121.169 234.01 121.685 234.238 122.285 234.418C122.885 234.598 123.485 234.688 124.085 234.688C124.793 234.688 125.303 234.592 125.615 234.4C125.939 234.208 126.101 233.95 126.101 233.626C126.101 233.362 125.993 233.164 125.777 233.032C125.561 232.888 125.279 232.78 124.931 232.708C124.583 232.636 124.193 232.57 123.761 232.51C123.341 232.45 122.915 232.372 122.483 232.276C122.063 232.168 121.679 232.018 121.331 231.826C120.983 231.622 120.701 231.352 120.485 231.016C120.269 230.68 120.161 230.236 120.161 229.684C120.161 229.072 120.335 228.544 120.683 228.1C121.031 227.644 121.517 227.296 122.141 227.056C122.777 226.804 123.527 226.678 124.391 226.678C125.039 226.678 125.693 226.75 126.353 226.894C127.013 227.038 127.559 227.242 127.991 227.506L127.127 229.216C126.671 228.94 126.209 228.754 125.741 228.658C125.285 228.55 124.829 228.496 124.373 228.496C123.689 228.496 123.179 228.598 122.843 228.802C122.519 229.006 122.357 229.264 122.357 229.576C122.357 229.864 122.465 230.08 122.681 230.224C122.897 230.368 123.179 230.482 123.527 230.566C123.875 230.65 124.259 230.722 124.679 230.782C125.111 230.83 125.537 230.908 125.957 231.016C126.377 231.124 126.761 231.274 127.109 231.466C127.469 231.646 127.757 231.904 127.973 232.24C128.189 232.576 128.297 233.014 128.297 233.554C128.297 234.154 128.117 234.676 127.757 235.12C127.409 235.564 126.911 235.912 126.263 236.164C125.615 236.404 124.841 236.524 123.941 236.524ZM134.303 236.524C133.487 236.524 132.767 236.374 132.143 236.074C131.519 235.762 131.033 235.294 130.685 234.67C130.337 234.034 130.163 233.236 130.163 232.276V226.786H132.413V231.97C132.413 232.834 132.605 233.482 132.989 233.914C133.385 234.334 133.943 234.544 134.663 234.544C135.191 234.544 135.647 234.436 136.031 234.22C136.427 234.004 136.733 233.68 136.949 233.248C137.177 232.816 137.291 232.282 137.291 231.646V226.786H139.541V236.398H137.399V233.806L137.777 234.598C137.453 235.222 136.979 235.702 136.355 236.038C135.731 236.362 135.047 236.524 134.303 236.524ZM147.815 236.524C147.035 236.524 146.321 236.344 145.673 235.984C145.037 235.624 144.527 235.084 144.143 234.364C143.771 233.632 143.585 232.708 143.585 231.592C143.585 230.464 143.765 229.54 144.125 228.82C144.497 228.1 145.001 227.566 145.637 227.218C146.273 226.858 146.999 226.678 147.815 226.678C148.763 226.678 149.597 226.882 150.317 227.29C151.049 227.698 151.625 228.268 152.045 229C152.477 229.732 152.693 230.596 152.693 231.592C152.693 232.588 152.477 233.458 152.045 234.202C151.625 234.934 151.049 235.504 150.317 235.912C149.597 236.32 148.763 236.524 147.815 236.524ZM142.487 239.89V226.786H144.629V229.054L144.557 231.61L144.737 234.166V239.89H142.487ZM147.563 234.598C148.103 234.598 148.583 234.478 149.003 234.238C149.435 233.998 149.777 233.65 150.029 233.194C150.281 232.738 150.407 232.204 150.407 231.592C150.407 230.968 150.281 230.434 150.029 229.99C149.777 229.534 149.435 229.186 149.003 228.946C148.583 228.706 148.103 228.586 147.563 228.586C147.023 228.586 146.537 228.706 146.105 228.946C145.673 229.186 145.331 229.534 145.079 229.99C144.827 230.434 144.701 230.968 144.701 231.592C144.701 232.204 144.827 232.738 145.079 233.194C145.331 233.65 145.673 233.998 146.105 234.238C146.537 234.478 147.023 234.598 147.563 234.598ZM160.155 236.524C159.375 236.524 158.661 236.344 158.013 235.984C157.377 235.624 156.867 235.084 156.483 234.364C156.111 233.632 155.925 232.708 155.925 231.592C155.925 230.464 156.105 229.54 156.465 228.82C156.837 228.1 157.341 227.566 157.977 227.218C158.613 226.858 159.339 226.678 160.155 226.678C161.103 226.678 161.937 226.882 162.657 227.29C163.389 227.698 163.965 228.268 164.385 229C164.817 229.732 165.033 230.596 165.033 231.592C165.033 232.588 164.817 233.458 164.385 234.202C163.965 234.934 163.389 235.504 162.657 235.912C161.937 236.32 161.103 236.524 160.155 236.524ZM154.827 239.89V226.786H156.969V229.054L156.897 231.61L157.077 234.166V239.89H154.827ZM159.903 234.598C160.443 234.598 160.923 234.478 161.343 234.238C161.775 233.998 162.117 233.65 162.369 233.194C162.621 232.738 162.747 232.204 162.747 231.592C162.747 230.968 162.621 230.434 162.369 229.99C162.117 229.534 161.775 229.186 161.343 228.946C160.923 228.706 160.443 228.586 159.903 228.586C159.363 228.586 158.877 228.706 158.445 228.946C158.013 229.186 157.671 229.534 157.419 229.99C157.167 230.434 157.041 230.968 157.041 231.592C157.041 232.204 157.167 232.738 157.419 233.194C157.671 233.65 158.013 233.998 158.445 234.238C158.877 234.478 159.363 234.598 159.903 234.598ZM171.486 236.524C170.502 236.524 169.626 236.314 168.858 235.894C168.09 235.462 167.484 234.874 167.04 234.13C166.596 233.386 166.374 232.54 166.374 231.592C166.374 230.632 166.596 229.786 167.04 229.054C167.484 228.31 168.09 227.728 168.858 227.308C169.626 226.888 170.502 226.678 171.486 226.678C172.482 226.678 173.364 226.888 174.132 227.308C174.912 227.728 175.518 228.304 175.95 229.036C176.394 229.768 176.616 230.62 176.616 231.592C176.616 232.54 176.394 233.386 175.95 234.13C175.518 234.874 174.912 235.462 174.132 235.894C173.364 236.314 172.482 236.524 171.486 236.524ZM171.486 234.598C172.038 234.598 172.53 234.478 172.962 234.238C173.394 233.998 173.73 233.65 173.97 233.194C174.222 232.738 174.348 232.204 174.348 231.592C174.348 230.968 174.222 230.434 173.97 229.99C173.73 229.534 173.394 229.186 172.962 228.946C172.53 228.706 172.044 228.586 171.504 228.586C170.952 228.586 170.46 228.706 170.028 228.946C169.608 229.186 169.272 229.534 169.02 229.99C168.768 230.434 168.642 230.968 168.642 231.592C168.642 232.204 168.768 232.738 169.02 233.194C169.272 233.65 169.608 233.998 170.028 234.238C170.46 234.478 170.946 234.598 171.486 234.598ZM178.768 236.398V226.786H180.91V229.432L180.658 228.658C180.946 228.01 181.396 227.518 182.008 227.182C182.632 226.846 183.406 226.678 184.33 226.678V228.82C184.234 228.796 184.144 228.784 184.06 228.784C183.976 228.772 183.892 228.766 183.808 228.766C182.956 228.766 182.278 229.018 181.774 229.522C181.27 230.014 181.018 230.752 181.018 231.736V236.398H178.768ZM190.208 236.524C189.152 236.524 188.336 236.254 187.76 235.714C187.184 235.162 186.896 234.352 186.896 233.284V224.662H189.146V233.23C189.146 233.686 189.26 234.04 189.488 234.292C189.728 234.544 190.058 234.67 190.478 234.67C190.982 234.67 191.402 234.538 191.738 234.274L192.368 235.876C192.104 236.092 191.78 236.254 191.396 236.362C191.012 236.47 190.616 236.524 190.208 236.524ZM185.312 228.658V226.858H191.72V228.658H185.312ZM197.189 236.524C196.385 236.524 195.611 236.422 194.867 236.218C194.135 236.002 193.553 235.744 193.121 235.444L193.985 233.734C194.417 234.01 194.933 234.238 195.533 234.418C196.133 234.598 196.733 234.688 197.333 234.688C198.041 234.688 198.551 234.592 198.863 234.4C199.187 234.208 199.349 233.95 199.349 233.626C199.349 233.362 199.241 233.164 199.025 233.032C198.809 232.888 198.527 232.78 198.179 232.708C197.831 232.636 197.441 232.57 197.009 232.51C196.589 232.45 196.163 232.372 195.731 232.276C195.311 232.168 194.927 232.018 194.579 231.826C194.231 231.622 193.949 231.352 193.733 231.016C193.517 230.68 193.409 230.236 193.409 229.684C193.409 229.072 193.583 228.544 193.931 228.1C194.279 227.644 194.765 227.296 195.389 227.056C196.025 226.804 196.775 226.678 197.639 226.678C198.287 226.678 198.941 226.75 199.601 226.894C200.261 227.038 200.807 227.242 201.239 227.506L200.375 229.216C199.919 228.94 199.457 228.754 198.989 228.658C198.533 228.55 198.077 228.496 197.621 228.496C196.937 228.496 196.427 228.598 196.091 228.802C195.767 229.006 195.605 229.264 195.605 229.576C195.605 229.864 195.713 230.08 195.929 230.224C196.145 230.368 196.427 230.482 196.775 230.566C197.123 230.65 197.507 230.722 197.927 230.782C198.359 230.83 198.785 230.908 199.205 231.016C199.625 231.124 200.009 231.274 200.357 231.466C200.717 231.646 201.005 231.904 201.221 232.24C201.437 232.576 201.545 233.014 201.545 233.554C201.545 234.154 201.365 234.676 201.005 235.12C200.657 235.564 200.159 235.912 199.511 236.164C198.863 236.404 198.089 236.524 197.189 236.524ZM208.673 236.398V223.798H213.857C214.973 223.798 215.927 223.978 216.719 224.338C217.523 224.698 218.141 225.214 218.573 225.886C219.005 226.558 219.221 227.356 219.221 228.28C219.221 229.204 219.005 230.002 218.573 230.674C218.141 231.346 217.523 231.862 216.719 232.222C215.927 232.582 214.973 232.762 213.857 232.762H209.969L211.013 231.664V236.398H208.673ZM211.013 231.916L209.969 230.782H213.749C214.781 230.782 215.555 230.566 216.071 230.134C216.599 229.69 216.863 229.072 216.863 228.28C216.863 227.476 216.599 226.858 216.071 226.426C215.555 225.994 214.781 225.778 213.749 225.778H209.969L211.013 224.626V231.916ZM227.176 236.398V234.454L227.05 234.04V230.638C227.05 229.978 226.852 229.468 226.456 229.108C226.06 228.736 225.46 228.55 224.656 228.55C224.116 228.55 223.582 228.634 223.054 228.802C222.538 228.97 222.1 229.204 221.74 229.504L220.858 227.866C221.374 227.47 221.986 227.176 222.694 226.984C223.414 226.78 224.158 226.678 224.926 226.678C226.318 226.678 227.392 227.014 228.148 227.686C228.916 228.346 229.3 229.372 229.3 230.764V236.398H227.176ZM224.152 236.524C223.432 236.524 222.802 236.404 222.262 236.164C221.722 235.912 221.302 235.57 221.002 235.138C220.714 234.694 220.57 234.196 220.57 233.644C220.57 233.104 220.696 232.618 220.948 232.186C221.212 231.754 221.638 231.412 222.226 231.16C222.814 230.908 223.594 230.782 224.566 230.782H227.356V232.276H224.728C223.96 232.276 223.444 232.402 223.18 232.654C222.916 232.894 222.784 233.194 222.784 233.554C222.784 233.962 222.946 234.286 223.27 234.526C223.594 234.766 224.044 234.886 224.62 234.886C225.172 234.886 225.664 234.76 226.096 234.508C226.54 234.256 226.858 233.884 227.05 233.392L227.428 234.742C227.212 235.306 226.822 235.744 226.258 236.056C225.706 236.368 225.004 236.524 224.152 236.524ZM238.11 236.398V234.454L237.984 234.04V230.638C237.984 229.978 237.786 229.468 237.39 229.108C236.994 228.736 236.394 228.55 235.59 228.55C235.05 228.55 234.516 228.634 233.988 228.802C233.472 228.97 233.034 229.204 232.674 229.504L231.792 227.866C232.308 227.47 232.92 227.176 233.628 226.984C234.348 226.78 235.092 226.678 235.86 226.678C237.252 226.678 238.326 227.014 239.082 227.686C239.85 228.346 240.234 229.372 240.234 230.764V236.398H238.11ZM235.086 236.524C234.366 236.524 233.736 236.404 233.196 236.164C232.656 235.912 232.236 235.57 231.936 235.138C231.648 234.694 231.504 234.196 231.504 233.644C231.504 233.104 231.63 232.618 231.882 232.186C232.146 231.754 232.572 231.412 233.16 231.16C233.748 230.908 234.528 230.782 235.5 230.782H238.29V232.276H235.662C234.894 232.276 234.378 232.402 234.114 232.654C233.85 232.894 233.718 233.194 233.718 233.554C233.718 233.962 233.88 234.286 234.204 234.526C234.528 234.766 234.978 234.886 235.554 234.886C236.106 234.886 236.598 234.76 237.03 234.508C237.474 234.256 237.792 233.884 237.984 233.392L238.362 234.742C238.146 235.306 237.756 235.744 237.192 236.056C236.64 236.368 235.938 236.524 235.086 236.524ZM248.576 226.678C249.344 226.678 250.028 226.828 250.628 227.128C251.24 227.428 251.72 227.89 252.068 228.514C252.416 229.126 252.59 229.918 252.59 230.89V236.398H250.34V231.178C250.34 230.326 250.136 229.69 249.728 229.27C249.332 228.85 248.774 228.64 248.054 228.64C247.526 228.64 247.058 228.748 246.65 228.964C246.242 229.18 245.924 229.504 245.696 229.936C245.48 230.356 245.372 230.89 245.372 231.538V236.398H243.122V226.786H245.264V229.378L244.886 228.586C245.222 227.974 245.708 227.506 246.344 227.182C246.992 226.846 247.736 226.678 248.576 226.678ZM255.444 236.398V226.786H257.694V236.398H255.444ZM256.578 225.202C256.158 225.202 255.81 225.07 255.534 224.806C255.27 224.542 255.138 224.224 255.138 223.852C255.138 223.468 255.27 223.15 255.534 222.898C255.81 222.634 256.158 222.502 256.578 222.502C256.998 222.502 257.34 222.628 257.604 222.88C257.88 223.12 258.018 223.426 258.018 223.798C258.018 224.194 257.886 224.53 257.622 224.806C257.358 225.07 257.01 225.202 256.578 225.202ZM22.8965 255.594H29.1785V257.574H22.8965V255.594ZM23.0945 262.398H20.7545V249.798H29.9525V251.76H23.0945V262.398ZM36.0558 262.524C35.0718 262.524 34.1958 262.314 33.4278 261.894C32.6598 261.462 32.0538 260.874 31.6098 260.13C31.1658 259.386 30.9438 258.54 30.9438 257.592C30.9438 256.632 31.1658 255.786 31.6098 255.054C32.0538 254.31 32.6598 253.728 33.4278 253.308C34.1958 252.888 35.0718 252.678 36.0558 252.678C37.0518 252.678 37.9338 252.888 38.7018 253.308C39.4818 253.728 40.0878 254.304 40.5198 255.036C40.9638 255.768 41.1858 256.62 41.1858 257.592C41.1858 258.54 40.9638 259.386 40.5198 260.13C40.0878 260.874 39.4818 261.462 38.7018 261.894C37.9338 262.314 37.0518 262.524 36.0558 262.524ZM36.0558 260.598C36.6078 260.598 37.0998 260.478 37.5318 260.238C37.9638 259.998 38.2998 259.65 38.5398 259.194C38.7918 258.738 38.9178 258.204 38.9178 257.592C38.9178 256.968 38.7918 256.434 38.5398 255.99C38.2998 255.534 37.9638 255.186 37.5318 254.946C37.0998 254.706 36.6138 254.586 36.0738 254.586C35.5218 254.586 35.0298 254.706 34.5978 254.946C34.1778 255.186 33.8418 255.534 33.5898 255.99C33.3378 256.434 33.2118 256.968 33.2118 257.592C33.2118 258.204 33.3378 258.738 33.5898 259.194C33.8418 259.65 34.1778 259.998 34.5978 260.238C35.0298 260.478 35.5158 260.598 36.0558 260.598ZM47.4053 262.524C46.5893 262.524 45.8693 262.374 45.2453 262.074C44.6213 261.762 44.1353 261.294 43.7873 260.67C43.4393 260.034 43.2653 259.236 43.2653 258.276V252.786H45.5153V257.97C45.5153 258.834 45.7073 259.482 46.0913 259.914C46.4873 260.334 47.0453 260.544 47.7653 260.544C48.2933 260.544 48.7493 260.436 49.1333 260.22C49.5293 260.004 49.8353 259.68 50.0513 259.248C50.2793 258.816 50.3933 258.282 50.3933 257.646V252.786H52.6433V262.398H50.5013V259.806L50.8793 260.598C50.5553 261.222 50.0813 261.702 49.4573 262.038C48.8333 262.362 48.1493 262.524 47.4053 262.524ZM61.0433 252.678C61.8113 252.678 62.4953 252.828 63.0953 253.128C63.7073 253.428 64.1873 253.89 64.5353 254.514C64.8833 255.126 65.0573 255.918 65.0573 256.89V262.398H62.8073V257.178C62.8073 256.326 62.6033 255.69 62.1953 255.27C61.7993 254.85 61.2413 254.64 60.5213 254.64C59.9933 254.64 59.5253 254.748 59.1173 254.964C58.7093 255.18 58.3913 255.504 58.1633 255.936C57.9473 256.356 57.8393 256.89 57.8393 257.538V262.398H55.5893V252.786H57.7313V255.378L57.3533 254.586C57.6893 253.974 58.1753 253.506 58.8113 253.182C59.4593 252.846 60.2033 252.678 61.0433 252.678ZM71.9971 262.524C71.0731 262.524 70.2391 262.32 69.4951 261.912C68.7631 261.492 68.1871 260.916 67.7671 260.184C67.3471 259.452 67.1371 258.588 67.1371 257.592C67.1371 256.596 67.3471 255.732 67.7671 255C68.1871 254.268 68.7631 253.698 69.4951 253.29C70.2391 252.882 71.0731 252.678 71.9971 252.678C72.8011 252.678 73.5211 252.858 74.1571 253.218C74.7931 253.566 75.2971 254.1 75.6691 254.82C76.0411 255.54 76.2271 256.464 76.2271 257.592C76.2271 258.708 76.0471 259.632 75.6871 260.364C75.3271 261.084 74.8291 261.624 74.1931 261.984C73.5571 262.344 72.8251 262.524 71.9971 262.524ZM72.2671 260.598C72.8071 260.598 73.2871 260.478 73.7071 260.238C74.1391 259.998 74.4811 259.65 74.7331 259.194C74.9971 258.738 75.1291 258.204 75.1291 257.592C75.1291 256.968 74.9971 256.434 74.7331 255.99C74.4811 255.534 74.1391 255.186 73.7071 254.946C73.2871 254.706 72.8071 254.586 72.2671 254.586C71.7271 254.586 71.2411 254.706 70.8091 254.946C70.3891 255.186 70.0471 255.534 69.7831 255.99C69.5311 256.434 69.4051 256.968 69.4051 257.592C69.4051 258.204 69.5311 258.738 69.7831 259.194C70.0471 259.65 70.3891 259.998 70.8091 260.238C71.2411 260.478 71.7271 260.598 72.2671 260.598ZM75.1831 262.398V260.13L75.2731 257.574L75.0931 255.018V249.042H77.3251V262.398H75.1831ZM86.2085 262.398V260.454L86.0825 260.04V256.638C86.0825 255.978 85.8845 255.468 85.4885 255.108C85.0925 254.736 84.4925 254.55 83.6885 254.55C83.1485 254.55 82.6145 254.634 82.0865 254.802C81.5705 254.97 81.1325 255.204 80.7725 255.504L79.8905 253.866C80.4065 253.47 81.0185 253.176 81.7265 252.984C82.4465 252.78 83.1905 252.678 83.9585 252.678C85.3505 252.678 86.4245 253.014 87.1805 253.686C87.9485 254.346 88.3325 255.372 88.3325 256.764V262.398H86.2085ZM83.1845 262.524C82.4645 262.524 81.8345 262.404 81.2945 262.164C80.7545 261.912 80.3345 261.57 80.0345 261.138C79.7465 260.694 79.6025 260.196 79.6025 259.644C79.6025 259.104 79.7285 258.618 79.9805 258.186C80.2445 257.754 80.6705 257.412 81.2585 257.16C81.8465 256.908 82.6265 256.782 83.5985 256.782H86.3885V258.276H83.7605C82.9925 258.276 82.4765 258.402 82.2125 258.654C81.9485 258.894 81.8165 259.194 81.8165 259.554C81.8165 259.962 81.9785 260.286 82.3025 260.526C82.6265 260.766 83.0765 260.886 83.6525 260.886C84.2045 260.886 84.6965 260.76 85.1285 260.508C85.5725 260.256 85.8905 259.884 86.0825 259.392L86.4605 260.742C86.2445 261.306 85.8545 261.744 85.2905 262.056C84.7385 262.368 84.0365 262.524 83.1845 262.524ZM94.8381 262.524C93.7821 262.524 92.9661 262.254 92.3901 261.714C91.8141 261.162 91.5261 260.352 91.5261 259.284V250.662H93.7761V259.23C93.7761 259.686 93.8901 260.04 94.1181 260.292C94.3581 260.544 94.6881 260.67 95.1081 260.67C95.6121 260.67 96.0321 260.538 96.3681 260.274L96.9981 261.876C96.7341 262.092 96.4101 262.254 96.0261 262.362C95.6421 262.47 95.2461 262.524 94.8381 262.524ZM89.9421 254.658V252.858H96.3501V254.658H89.9421ZM98.849 262.398V252.786H101.099V262.398H98.849ZM99.983 251.202C99.563 251.202 99.215 251.07 98.939 250.806C98.675 250.542 98.543 250.224 98.543 249.852C98.543 249.468 98.675 249.15 98.939 248.898C99.215 248.634 99.563 248.502 99.983 248.502C100.403 248.502 100.745 248.628 101.009 248.88C101.285 249.12 101.423 249.426 101.423 249.798C101.423 250.194 101.291 250.53 101.027 250.806C100.763 251.07 100.415 251.202 99.983 251.202ZM108.372 262.524C107.388 262.524 106.512 262.314 105.744 261.894C104.976 261.462 104.37 260.874 103.926 260.13C103.482 259.386 103.26 258.54 103.26 257.592C103.26 256.632 103.482 255.786 103.926 255.054C104.37 254.31 104.976 253.728 105.744 253.308C106.512 252.888 107.388 252.678 108.372 252.678C109.368 252.678 110.25 252.888 111.018 253.308C111.798 253.728 112.404 254.304 112.836 255.036C113.28 255.768 113.502 256.62 113.502 257.592C113.502 258.54 113.28 259.386 112.836 260.13C112.404 260.874 111.798 261.462 111.018 261.894C110.25 262.314 109.368 262.524 108.372 262.524ZM108.372 260.598C108.924 260.598 109.416 260.478 109.848 260.238C110.28 259.998 110.616 259.65 110.856 259.194C111.108 258.738 111.234 258.204 111.234 257.592C111.234 256.968 111.108 256.434 110.856 255.99C110.616 255.534 110.28 255.186 109.848 254.946C109.416 254.706 108.93 254.586 108.39 254.586C107.838 254.586 107.346 254.706 106.914 254.946C106.494 255.186 106.158 255.534 105.906 255.99C105.654 256.434 105.528 256.968 105.528 257.592C105.528 258.204 105.654 258.738 105.906 259.194C106.158 259.65 106.494 259.998 106.914 260.238C107.346 260.478 107.832 260.598 108.372 260.598ZM121.108 252.678C121.876 252.678 122.56 252.828 123.16 253.128C123.772 253.428 124.252 253.89 124.6 254.514C124.948 255.126 125.122 255.918 125.122 256.89V262.398H122.872V257.178C122.872 256.326 122.668 255.69 122.26 255.27C121.864 254.85 121.306 254.64 120.586 254.64C120.058 254.64 119.59 254.748 119.182 254.964C118.774 255.18 118.456 255.504 118.228 255.936C118.012 256.356 117.904 256.89 117.904 257.538V262.398H115.654V252.786H117.796V255.378L117.418 254.586C117.754 253.974 118.24 253.506 118.876 253.182C119.524 252.846 120.268 252.678 121.108 252.678ZM136.569 262.524C135.513 262.524 134.697 262.254 134.121 261.714C133.545 261.162 133.257 260.352 133.257 259.284V250.662H135.507V259.23C135.507 259.686 135.621 260.04 135.849 260.292C136.089 260.544 136.419 260.67 136.839 260.67C137.343 260.67 137.763 260.538 138.099 260.274L138.729 261.876C138.465 262.092 138.141 262.254 137.757 262.362C137.373 262.47 136.977 262.524 136.569 262.524ZM131.673 254.658V252.858H138.081V254.658H131.673ZM144.583 262.524C143.599 262.524 142.723 262.314 141.955 261.894C141.187 261.462 140.581 260.874 140.137 260.13C139.693 259.386 139.471 258.54 139.471 257.592C139.471 256.632 139.693 255.786 140.137 255.054C140.581 254.31 141.187 253.728 141.955 253.308C142.723 252.888 143.599 252.678 144.583 252.678C145.579 252.678 146.461 252.888 147.229 253.308C148.009 253.728 148.615 254.304 149.047 255.036C149.491 255.768 149.713 256.62 149.713 257.592C149.713 258.54 149.491 259.386 149.047 260.13C148.615 260.874 148.009 261.462 147.229 261.894C146.461 262.314 145.579 262.524 144.583 262.524ZM144.583 260.598C145.135 260.598 145.627 260.478 146.059 260.238C146.491 259.998 146.827 259.65 147.067 259.194C147.319 258.738 147.445 258.204 147.445 257.592C147.445 256.968 147.319 256.434 147.067 255.99C146.827 255.534 146.491 255.186 146.059 254.946C145.627 254.706 145.141 254.586 144.601 254.586C144.049 254.586 143.557 254.706 143.125 254.946C142.705 255.186 142.369 255.534 142.117 255.99C141.865 256.434 141.739 256.968 141.739 257.592C141.739 258.204 141.865 258.738 142.117 259.194C142.369 259.65 142.705 259.998 143.125 260.238C143.557 260.478 144.043 260.598 144.583 260.598ZM162.167 262.524C161.351 262.524 160.625 262.344 159.989 261.984C159.353 261.624 158.849 261.084 158.477 260.364C158.117 259.632 157.937 258.708 157.937 257.592C157.937 256.464 158.123 255.54 158.495 254.82C158.879 254.1 159.389 253.566 160.025 253.218C160.673 252.858 161.387 252.678 162.167 252.678C163.115 252.678 163.949 252.882 164.669 253.29C165.401 253.698 165.977 254.268 166.397 255C166.829 255.732 167.045 256.596 167.045 257.592C167.045 258.588 166.829 259.452 166.397 260.184C165.977 260.916 165.401 261.492 164.669 261.912C163.949 262.32 163.115 262.524 162.167 262.524ZM156.839 262.398V249.042H159.089V255.018L158.909 257.574L158.981 260.13V262.398H156.839ZM161.915 260.598C162.455 260.598 162.935 260.478 163.355 260.238C163.787 259.998 164.129 259.65 164.381 259.194C164.633 258.738 164.759 258.204 164.759 257.592C164.759 256.968 164.633 256.434 164.381 255.99C164.129 255.534 163.787 255.186 163.355 254.946C162.935 254.706 162.455 254.586 161.915 254.586C161.375 254.586 160.889 254.706 160.457 254.946C160.025 255.186 159.683 255.534 159.431 255.99C159.179 256.434 159.053 256.968 159.053 257.592C159.053 258.204 159.179 258.738 159.431 259.194C159.683 259.65 160.025 259.998 160.457 260.238C160.889 260.478 161.375 260.598 161.915 260.598ZM173.247 262.524C172.431 262.524 171.711 262.374 171.087 262.074C170.463 261.762 169.977 261.294 169.629 260.67C169.281 260.034 169.107 259.236 169.107 258.276V252.786H171.357V257.97C171.357 258.834 171.549 259.482 171.933 259.914C172.329 260.334 172.887 260.544 173.607 260.544C174.135 260.544 174.591 260.436 174.975 260.22C175.371 260.004 175.677 259.68 175.893 259.248C176.121 258.816 176.235 258.282 176.235 257.646V252.786H178.485V262.398H176.343V259.806L176.721 260.598C176.397 261.222 175.923 261.702 175.299 262.038C174.675 262.362 173.991 262.524 173.247 262.524ZM181.431 262.398V252.786H183.681V262.398H181.431ZM182.565 251.202C182.145 251.202 181.797 251.07 181.521 250.806C181.257 250.542 181.125 250.224 181.125 249.852C181.125 249.468 181.257 249.15 181.521 248.898C181.797 248.634 182.145 248.502 182.565 248.502C182.985 248.502 183.327 248.628 183.591 248.88C183.867 249.12 184.005 249.426 184.005 249.798C184.005 250.194 183.873 250.53 183.609 250.806C183.345 251.07 182.997 251.202 182.565 251.202ZM186.634 262.398V249.042H188.884V262.398H186.634ZM195.905 262.524C194.981 262.524 194.147 262.32 193.403 261.912C192.671 261.492 192.095 260.916 191.675 260.184C191.255 259.452 191.045 258.588 191.045 257.592C191.045 256.596 191.255 255.732 191.675 255C192.095 254.268 192.671 253.698 193.403 253.29C194.147 252.882 194.981 252.678 195.905 252.678C196.709 252.678 197.429 252.858 198.065 253.218C198.701 253.566 199.205 254.1 199.577 254.82C199.949 255.54 200.135 256.464 200.135 257.592C200.135 258.708 199.955 259.632 199.595 260.364C199.235 261.084 198.737 261.624 198.101 261.984C197.465 262.344 196.733 262.524 195.905 262.524ZM196.175 260.598C196.715 260.598 197.195 260.478 197.615 260.238C198.047 259.998 198.389 259.65 198.641 259.194C198.905 258.738 199.037 258.204 199.037 257.592C199.037 256.968 198.905 256.434 198.641 255.99C198.389 255.534 198.047 255.186 197.615 254.946C197.195 254.706 196.715 254.586 196.175 254.586C195.635 254.586 195.149 254.706 194.717 254.946C194.297 255.186 193.955 255.534 193.691 255.99C193.439 256.434 193.313 256.968 193.313 257.592C193.313 258.204 193.439 258.738 193.691 259.194C193.955 259.65 194.297 259.998 194.717 260.238C195.149 260.478 195.635 260.598 196.175 260.598ZM199.091 262.398V260.13L199.181 257.574L199.001 255.018V249.042H201.233V262.398H199.091ZM211.293 262.398L207.765 252.786H209.889L212.913 261.264H211.905L215.073 252.786H216.963L220.041 261.264H219.051L222.165 252.786H224.163L220.617 262.398H218.457L215.649 254.892H216.315L213.453 262.398H211.293ZM231.334 262.398V260.454L231.208 260.04V256.638C231.208 255.978 231.01 255.468 230.614 255.108C230.218 254.736 229.618 254.55 228.814 254.55C228.274 254.55 227.74 254.634 227.212 254.802C226.696 254.97 226.258 255.204 225.898 255.504L225.016 253.866C225.532 253.47 226.144 253.176 226.852 252.984C227.572 252.78 228.316 252.678 229.084 252.678C230.476 252.678 231.55 253.014 232.306 253.686C233.074 254.346 233.458 255.372 233.458 256.764V262.398H231.334ZM228.31 262.524C227.59 262.524 226.96 262.404 226.42 262.164C225.88 261.912 225.46 261.57 225.16 261.138C224.872 260.694 224.728 260.196 224.728 259.644C224.728 259.104 224.854 258.618 225.106 258.186C225.37 257.754 225.796 257.412 226.384 257.16C226.972 256.908 227.752 256.782 228.724 256.782H231.514V258.276H228.886C228.118 258.276 227.602 258.402 227.338 258.654C227.074 258.894 226.942 259.194 226.942 259.554C226.942 259.962 227.104 260.286 227.428 260.526C227.752 260.766 228.202 260.886 228.778 260.886C229.33 260.886 229.822 260.76 230.254 260.508C230.698 260.256 231.016 259.884 231.208 259.392L231.586 260.742C231.37 261.306 230.98 261.744 230.416 262.056C229.864 262.368 229.162 262.524 228.31 262.524ZM239.963 262.524C238.907 262.524 238.091 262.254 237.515 261.714C236.939 261.162 236.651 260.352 236.651 259.284V250.662H238.901V259.23C238.901 259.686 239.015 260.04 239.243 260.292C239.483 260.544 239.813 260.67 240.233 260.67C240.737 260.67 241.157 260.538 241.493 260.274L242.123 261.876C241.859 262.092 241.535 262.254 241.151 262.362C240.767 262.47 240.371 262.524 239.963 262.524ZM235.067 254.658V252.858H241.475V254.658H235.067ZM248.176 262.524C247.108 262.524 246.172 262.314 245.368 261.894C244.576 261.462 243.958 260.874 243.514 260.13C243.082 259.386 242.866 258.54 242.866 257.592C242.866 256.632 243.076 255.786 243.496 255.054C243.928 254.31 244.516 253.728 245.26 253.308C246.016 252.888 246.874 252.678 247.834 252.678C248.77 252.678 249.604 252.882 250.336 253.29C251.068 253.698 251.644 254.274 252.064 255.018C252.484 255.762 252.694 256.638 252.694 257.646C252.694 257.742 252.688 257.85 252.676 257.97C252.676 258.09 252.67 258.204 252.658 258.312H244.648V256.818H251.47L250.588 257.286C250.6 256.734 250.486 256.248 250.246 255.828C250.006 255.408 249.676 255.078 249.256 254.838C248.848 254.598 248.374 254.478 247.834 254.478C247.282 254.478 246.796 254.598 246.376 254.838C245.968 255.078 245.644 255.414 245.404 255.846C245.176 256.266 245.062 256.764 245.062 257.34V257.7C245.062 258.276 245.194 258.786 245.458 259.23C245.722 259.674 246.094 260.016 246.574 260.256C247.054 260.496 247.606 260.616 248.23 260.616C248.77 260.616 249.256 260.532 249.688 260.364C250.12 260.196 250.504 259.932 250.84 259.572L252.046 260.958C251.614 261.462 251.068 261.852 250.408 262.128C249.76 262.392 249.016 262.524 248.176 262.524ZM254.855 262.398V252.786H256.997V255.432L256.745 254.658C257.033 254.01 257.483 253.518 258.095 253.182C258.719 252.846 259.493 252.678 260.417 252.678V254.82C260.321 254.796 260.231 254.784 260.147 254.784C260.063 254.772 259.979 254.766 259.895 254.766C259.043 254.766 258.365 255.018 257.861 255.522C257.357 256.014 257.105 256.752 257.105 257.736V262.398H254.855ZM27.1296 288.524C26.3256 288.524 25.5516 288.422 24.8076 288.218C24.0756 288.002 23.4936 287.744 23.0616 287.444L23.9256 285.734C24.3576 286.01 24.8736 286.238 25.4736 286.418C26.0736 286.598 26.6736 286.688 27.2736 286.688C27.9816 286.688 28.4916 286.592 28.8036 286.4C29.1276 286.208 29.2896 285.95 29.2896 285.626C29.2896 285.362 29.1816 285.164 28.9656 285.032C28.7496 284.888 28.4676 284.78 28.1196 284.708C27.7716 284.636 27.3816 284.57 26.9496 284.51C26.5296 284.45 26.1036 284.372 25.6716 284.276C25.2516 284.168 24.8676 284.018 24.5196 283.826C24.1716 283.622 23.8896 283.352 23.6736 283.016C23.4576 282.68 23.3496 282.236 23.3496 281.684C23.3496 281.072 23.5236 280.544 23.8716 280.1C24.2196 279.644 24.7056 279.296 25.3296 279.056C25.9656 278.804 26.7156 278.678 27.5796 278.678C28.2276 278.678 28.8816 278.75 29.5416 278.894C30.2016 279.038 30.7476 279.242 31.1796 279.506L30.3156 281.216C29.8596 280.94 29.3976 280.754 28.9296 280.658C28.4736 280.55 28.0176 280.496 27.5616 280.496C26.8776 280.496 26.3676 280.598 26.0316 280.802C25.7076 281.006 25.5456 281.264 25.5456 281.576C25.5456 281.864 25.6536 282.08 25.8696 282.224C26.0856 282.368 26.3676 282.482 26.7156 282.566C27.0636 282.65 27.4476 282.722 27.8676 282.782C28.2996 282.83 28.7256 282.908 29.1456 283.016C29.5656 283.124 29.9496 283.274 30.2976 283.466C30.6576 283.646 30.9456 283.904 31.1616 284.24C31.3776 284.576 31.4856 285.014 31.4856 285.554C31.4856 286.154 31.3056 286.676 30.9456 287.12C30.5976 287.564 30.0996 287.912 29.4516 288.164C28.8036 288.404 28.0296 288.524 27.1296 288.524ZM37.7433 288.524C36.7593 288.524 35.8833 288.314 35.1153 287.894C34.3473 287.462 33.7413 286.874 33.2973 286.13C32.8533 285.386 32.6313 284.54 32.6313 283.592C32.6313 282.632 32.8533 281.786 33.2973 281.054C33.7413 280.31 34.3473 279.728 35.1153 279.308C35.8833 278.888 36.7593 278.678 37.7433 278.678C38.7393 278.678 39.6213 278.888 40.3893 279.308C41.1693 279.728 41.7753 280.304 42.2073 281.036C42.6513 281.768 42.8733 282.62 42.8733 283.592C42.8733 284.54 42.6513 285.386 42.2073 286.13C41.7753 286.874 41.1693 287.462 40.3893 287.894C39.6213 288.314 38.7393 288.524 37.7433 288.524ZM37.7433 286.598C38.2953 286.598 38.7873 286.478 39.2193 286.238C39.6513 285.998 39.9873 285.65 40.2273 285.194C40.4793 284.738 40.6053 284.204 40.6053 283.592C40.6053 282.968 40.4793 282.434 40.2273 281.99C39.9873 281.534 39.6513 281.186 39.2193 280.946C38.7873 280.706 38.3013 280.586 37.7613 280.586C37.2093 280.586 36.7173 280.706 36.2853 280.946C35.8653 281.186 35.5293 281.534 35.2773 281.99C35.0253 282.434 34.8993 282.968 34.8993 283.592C34.8993 284.204 35.0253 284.738 35.2773 285.194C35.5293 285.65 35.8653 285.998 36.2853 286.238C36.7173 286.478 37.2033 286.598 37.7433 286.598ZM49.0928 288.524C48.2768 288.524 47.5568 288.374 46.9328 288.074C46.3088 287.762 45.8228 287.294 45.4748 286.67C45.1268 286.034 44.9528 285.236 44.9528 284.276V278.786H47.2028V283.97C47.2028 284.834 47.3948 285.482 47.7788 285.914C48.1748 286.334 48.7328 286.544 49.4528 286.544C49.9808 286.544 50.4368 286.436 50.8208 286.22C51.2168 286.004 51.5228 285.68 51.7388 285.248C51.9668 284.816 52.0808 284.282 52.0808 283.646V278.786H54.3308V288.398H52.1888V285.806L52.5668 286.598C52.2428 287.222 51.7688 287.702 51.1448 288.038C50.5208 288.362 49.8368 288.524 49.0928 288.524ZM57.2768 288.398V278.786H59.4188V281.432L59.1668 280.658C59.4548 280.01 59.9048 279.518 60.5168 279.182C61.1408 278.846 61.9148 278.678 62.8388 278.678V280.82C62.7428 280.796 62.6528 280.784 62.5688 280.784C62.4848 280.772 62.4008 280.766 62.3168 280.766C61.4648 280.766 60.7868 281.018 60.2828 281.522C59.7788 282.014 59.5268 282.752 59.5268 283.736V288.398H57.2768ZM69.0696 288.524C68.0616 288.524 67.1616 288.314 66.3696 287.894C65.5896 287.462 64.9776 286.874 64.5336 286.13C64.0896 285.386 63.8676 284.54 63.8676 283.592C63.8676 282.632 64.0896 281.786 64.5336 281.054C64.9776 280.31 65.5896 279.728 66.3696 279.308C67.1616 278.888 68.0616 278.678 69.0696 278.678C70.0056 278.678 70.8276 278.87 71.5356 279.254C72.2556 279.626 72.8016 280.178 73.1736 280.91L71.4456 281.918C71.1576 281.462 70.8036 281.126 70.3836 280.91C69.9756 280.694 69.5316 280.586 69.0516 280.586C68.4996 280.586 68.0016 280.706 67.5576 280.946C67.1136 281.186 66.7656 281.534 66.5136 281.99C66.2616 282.434 66.1356 282.968 66.1356 283.592C66.1356 284.216 66.2616 284.756 66.5136 285.212C66.7656 285.656 67.1136 285.998 67.5576 286.238C68.0016 286.478 68.4996 286.598 69.0516 286.598C69.5316 286.598 69.9756 286.49 70.3836 286.274C70.8036 286.058 71.1576 285.722 71.4456 285.266L73.1736 286.274C72.8016 286.994 72.2556 287.552 71.5356 287.948C70.8276 288.332 70.0056 288.524 69.0696 288.524ZM79.496 288.524C78.428 288.524 77.492 288.314 76.688 287.894C75.896 287.462 75.278 286.874 74.834 286.13C74.402 285.386 74.186 284.54 74.186 283.592C74.186 282.632 74.396 281.786 74.816 281.054C75.248 280.31 75.836 279.728 76.58 279.308C77.336 278.888 78.194 278.678 79.154 278.678C80.09 278.678 80.924 278.882 81.656 279.29C82.388 279.698 82.964 280.274 83.384 281.018C83.804 281.762 84.014 282.638 84.014 283.646C84.014 283.742 84.008 283.85 83.996 283.97C83.996 284.09 83.99 284.204 83.978 284.312H75.968V282.818H82.79L81.908 283.286C81.92 282.734 81.806 282.248 81.566 281.828C81.326 281.408 80.996 281.078 80.576 280.838C80.168 280.598 79.694 280.478 79.154 280.478C78.602 280.478 78.116 280.598 77.696 280.838C77.288 281.078 76.964 281.414 76.724 281.846C76.496 282.266 76.382 282.764 76.382 283.34V283.7C76.382 284.276 76.514 284.786 76.778 285.23C77.042 285.674 77.414 286.016 77.894 286.256C78.374 286.496 78.926 286.616 79.55 286.616C80.09 286.616 80.576 286.532 81.008 286.364C81.44 286.196 81.824 285.932 82.16 285.572L83.366 286.958C82.934 287.462 82.388 287.852 81.728 288.128C81.08 288.392 80.336 288.524 79.496 288.524ZM89.1452 288.524C88.3412 288.524 87.5672 288.422 86.8232 288.218C86.0912 288.002 85.5092 287.744 85.0772 287.444L85.9412 285.734C86.3732 286.01 86.8892 286.238 87.4892 286.418C88.0892 286.598 88.6892 286.688 89.2892 286.688C89.9972 286.688 90.5072 286.592 90.8192 286.4C91.1432 286.208 91.3052 285.95 91.3052 285.626C91.3052 285.362 91.1972 285.164 90.9812 285.032C90.7652 284.888 90.4832 284.78 90.1352 284.708C89.7872 284.636 89.3972 284.57 88.9652 284.51C88.5452 284.45 88.1192 284.372 87.6872 284.276C87.2672 284.168 86.8832 284.018 86.5352 283.826C86.1872 283.622 85.9052 283.352 85.6892 283.016C85.4732 282.68 85.3652 282.236 85.3652 281.684C85.3652 281.072 85.5392 280.544 85.8872 280.1C86.2352 279.644 86.7212 279.296 87.3452 279.056C87.9812 278.804 88.7312 278.678 89.5952 278.678C90.2432 278.678 90.8972 278.75 91.5572 278.894C92.2172 279.038 92.7632 279.242 93.1952 279.506L92.3312 281.216C91.8752 280.94 91.4132 280.754 90.9452 280.658C90.4892 280.55 90.0332 280.496 89.5772 280.496C88.8932 280.496 88.3832 280.598 88.0472 280.802C87.7232 281.006 87.5612 281.264 87.5612 281.576C87.5612 281.864 87.6692 282.08 87.8852 282.224C88.1012 282.368 88.3832 282.482 88.7312 282.566C89.0792 282.65 89.4632 282.722 89.8832 282.782C90.3152 282.83 90.7412 282.908 91.1612 283.016C91.5812 283.124 91.9652 283.274 92.3132 283.466C92.6732 283.646 92.9612 283.904 93.1772 284.24C93.3932 284.576 93.5012 285.014 93.5012 285.554C93.5012 286.154 93.3212 286.676 92.9612 287.12C92.6132 287.564 92.1152 287.912 91.4672 288.164C90.8192 288.404 90.0452 288.524 89.1452 288.524ZM100.414 288.398V278.786H102.664V288.398H100.414ZM101.548 277.202C101.128 277.202 100.78 277.07 100.504 276.806C100.24 276.542 100.108 276.224 100.108 275.852C100.108 275.468 100.24 275.15 100.504 274.898C100.78 274.634 101.128 274.502 101.548 274.502C101.968 274.502 102.31 274.628 102.574 274.88C102.85 275.12 102.988 275.426 102.988 275.798C102.988 276.194 102.856 276.53 102.592 276.806C102.328 277.07 101.98 277.202 101.548 277.202ZM111.071 278.678C111.839 278.678 112.523 278.828 113.123 279.128C113.735 279.428 114.215 279.89 114.563 280.514C114.911 281.126 115.085 281.918 115.085 282.89V288.398H112.835V283.178C112.835 282.326 112.631 281.69 112.223 281.27C111.827 280.85 111.269 280.64 110.549 280.64C110.021 280.64 109.553 280.748 109.145 280.964C108.737 281.18 108.419 281.504 108.191 281.936C107.975 282.356 107.867 282.89 107.867 283.538V288.398H105.617V278.786H107.759V281.378L107.381 280.586C107.717 279.974 108.203 279.506 108.839 279.182C109.487 278.846 110.231 278.678 111.071 278.678ZM126.982 288.524C126.058 288.524 125.224 288.32 124.48 287.912C123.748 287.492 123.172 286.916 122.752 286.184C122.332 285.452 122.122 284.588 122.122 283.592C122.122 282.596 122.332 281.732 122.752 281C123.172 280.268 123.748 279.698 124.48 279.29C125.224 278.882 126.058 278.678 126.982 278.678C127.786 278.678 128.506 278.858 129.142 279.218C129.778 279.566 130.282 280.1 130.654 280.82C131.026 281.54 131.212 282.464 131.212 283.592C131.212 284.708 131.032 285.632 130.672 286.364C130.312 287.084 129.814 287.624 129.178 287.984C128.542 288.344 127.81 288.524 126.982 288.524ZM127.252 286.598C127.792 286.598 128.272 286.478 128.692 286.238C129.124 285.998 129.466 285.65 129.718 285.194C129.982 284.738 130.114 284.204 130.114 283.592C130.114 282.968 129.982 282.434 129.718 281.99C129.466 281.534 129.124 281.186 128.692 280.946C128.272 280.706 127.792 280.586 127.252 280.586C126.712 280.586 126.226 280.706 125.794 280.946C125.374 281.186 125.032 281.534 124.768 281.99C124.516 282.434 124.39 282.968 124.39 283.592C124.39 284.204 124.516 284.738 124.768 285.194C125.032 285.65 125.374 285.998 125.794 286.238C126.226 286.478 126.712 286.598 127.252 286.598ZM130.168 288.398V286.13L130.258 283.574L130.078 281.018V275.042H132.31V288.398H130.168ZM135.271 288.398V278.786H137.413V281.432L137.161 280.658C137.449 280.01 137.899 279.518 138.511 279.182C139.135 278.846 139.909 278.678 140.833 278.678V280.82C140.737 280.796 140.647 280.784 140.563 280.784C140.479 280.772 140.395 280.766 140.311 280.766C139.459 280.766 138.781 281.018 138.277 281.522C137.773 282.014 137.521 282.752 137.521 283.736V288.398H135.271ZM146.974 288.524C145.99 288.524 145.114 288.314 144.346 287.894C143.578 287.462 142.972 286.874 142.528 286.13C142.084 285.386 141.862 284.54 141.862 283.592C141.862 282.632 142.084 281.786 142.528 281.054C142.972 280.31 143.578 279.728 144.346 279.308C145.114 278.888 145.99 278.678 146.974 278.678C147.97 278.678 148.852 278.888 149.62 279.308C150.4 279.728 151.006 280.304 151.438 281.036C151.882 281.768 152.104 282.62 152.104 283.592C152.104 284.54 151.882 285.386 151.438 286.13C151.006 286.874 150.4 287.462 149.62 287.894C148.852 288.314 147.97 288.524 146.974 288.524ZM146.974 286.598C147.526 286.598 148.018 286.478 148.45 286.238C148.882 285.998 149.218 285.65 149.458 285.194C149.71 284.738 149.836 284.204 149.836 283.592C149.836 282.968 149.71 282.434 149.458 281.99C149.218 281.534 148.882 281.186 148.45 280.946C148.018 280.706 147.532 280.586 146.992 280.586C146.44 280.586 145.948 280.706 145.516 280.946C145.096 281.186 144.76 281.534 144.508 281.99C144.256 282.434 144.13 282.968 144.13 283.592C144.13 284.204 144.256 284.738 144.508 285.194C144.76 285.65 145.096 285.998 145.516 286.238C145.948 286.478 146.434 286.598 146.974 286.598ZM158.323 288.524C157.507 288.524 156.787 288.374 156.163 288.074C155.539 287.762 155.053 287.294 154.705 286.67C154.357 286.034 154.183 285.236 154.183 284.276V278.786H156.433V283.97C156.433 284.834 156.625 285.482 157.009 285.914C157.405 286.334 157.963 286.544 158.683 286.544C159.211 286.544 159.667 286.436 160.051 286.22C160.447 286.004 160.753 285.68 160.969 285.248C161.197 284.816 161.311 284.282 161.311 283.646V278.786H163.561V288.398H161.419V285.806L161.797 286.598C161.473 287.222 160.999 287.702 160.375 288.038C159.751 288.362 159.067 288.524 158.323 288.524ZM170.863 292.016C169.975 292.016 169.105 291.896 168.253 291.656C167.413 291.428 166.723 291.092 166.183 290.648L167.191 288.956C167.611 289.304 168.139 289.58 168.775 289.784C169.423 290 170.077 290.108 170.737 290.108C171.793 290.108 172.567 289.862 173.059 289.37C173.551 288.89 173.797 288.164 173.797 287.192V285.482L173.977 283.304L173.905 281.126V278.786H176.047V286.94C176.047 288.68 175.603 289.958 174.715 290.774C173.827 291.602 172.543 292.016 170.863 292.016ZM170.575 287.966C169.663 287.966 168.835 287.774 168.091 287.39C167.359 286.994 166.777 286.448 166.345 285.752C165.925 285.056 165.715 284.24 165.715 283.304C165.715 282.38 165.925 281.57 166.345 280.874C166.777 280.178 167.359 279.638 168.091 279.254C168.835 278.87 169.663 278.678 170.575 278.678C171.391 278.678 172.123 278.84 172.771 279.164C173.419 279.488 173.935 279.992 174.319 280.676C174.715 281.36 174.913 282.236 174.913 283.304C174.913 284.372 174.715 285.254 174.319 285.95C173.935 286.634 173.419 287.144 172.771 287.48C172.123 287.804 171.391 287.966 170.575 287.966ZM170.917 286.058C171.481 286.058 171.985 285.944 172.429 285.716C172.873 285.476 173.215 285.152 173.455 284.744C173.707 284.324 173.833 283.844 173.833 283.304C173.833 282.764 173.707 282.29 173.455 281.882C173.215 281.462 172.873 281.144 172.429 280.928C171.985 280.7 171.481 280.586 170.917 280.586C170.353 280.586 169.843 280.7 169.387 280.928C168.943 281.144 168.595 281.462 168.343 281.882C168.103 282.29 167.983 282.764 167.983 283.304C167.983 283.844 168.103 284.324 168.343 284.744C168.595 285.152 168.943 285.476 169.387 285.716C169.843 285.944 170.353 286.058 170.917 286.058ZM184.459 278.678C185.227 278.678 185.911 278.828 186.511 279.128C187.123 279.428 187.603 279.89 187.951 280.514C188.299 281.126 188.473 281.918 188.473 282.89V288.398H186.223V283.178C186.223 282.326 186.019 281.69 185.611 281.27C185.215 280.85 184.657 280.64 183.937 280.64C183.409 280.64 182.941 280.748 182.533 280.964C182.125 281.18 181.807 281.504 181.579 281.936C181.363 282.356 181.255 282.89 181.255 283.538V288.398H179.005V275.042H181.255V281.378L180.769 280.586C181.105 279.974 181.591 279.506 182.227 279.182C182.875 278.846 183.619 278.678 184.459 278.678ZM194.946 288.524C193.89 288.524 193.074 288.254 192.498 287.714C191.922 287.162 191.634 286.352 191.634 285.284V276.662H193.884V285.23C193.884 285.686 193.998 286.04 194.226 286.292C194.466 286.544 194.796 286.67 195.216 286.67C195.72 286.67 196.14 286.538 196.476 286.274L197.106 287.876C196.842 288.092 196.518 288.254 196.134 288.362C195.75 288.47 195.354 288.524 194.946 288.524ZM190.05 280.658V278.858H196.458V280.658H190.05ZM209.259 288.524C208.479 288.524 207.765 288.344 207.117 287.984C206.481 287.624 205.971 287.084 205.587 286.364C205.215 285.632 205.029 284.708 205.029 283.592C205.029 282.464 205.209 281.54 205.569 280.82C205.941 280.1 206.445 279.566 207.081 279.218C207.717 278.858 208.443 278.678 209.259 278.678C210.207 278.678 211.041 278.882 211.761 279.29C212.493 279.698 213.069 280.268 213.489 281C213.921 281.732 214.137 282.596 214.137 283.592C214.137 284.588 213.921 285.458 213.489 286.202C213.069 286.934 212.493 287.504 211.761 287.912C211.041 288.32 210.207 288.524 209.259 288.524ZM203.931 291.89V278.786H206.073V281.054L206.001 283.61L206.181 286.166V291.89H203.931ZM209.007 286.598C209.547 286.598 210.027 286.478 210.447 286.238C210.879 285.998 211.221 285.65 211.473 285.194C211.725 284.738 211.851 284.204 211.851 283.592C211.851 282.968 211.725 282.434 211.473 281.99C211.221 281.534 210.879 281.186 210.447 280.946C210.027 280.706 209.547 280.586 209.007 280.586C208.467 280.586 207.981 280.706 207.549 280.946C207.117 281.186 206.775 281.534 206.523 281.99C206.271 282.434 206.145 282.968 206.145 283.592C206.145 284.204 206.271 284.738 206.523 285.194C206.775 285.65 207.117 285.998 207.549 286.238C207.981 286.478 208.467 286.598 209.007 286.598ZM216.271 288.398V278.786H218.413V281.432L218.161 280.658C218.449 280.01 218.899 279.518 219.511 279.182C220.135 278.846 220.909 278.678 221.833 278.678V280.82C221.737 280.796 221.647 280.784 221.563 280.784C221.479 280.772 221.395 280.766 221.311 280.766C220.459 280.766 219.781 281.018 219.277 281.522C218.773 282.014 218.521 282.752 218.521 283.736V288.398H216.271ZM227.974 288.524C226.99 288.524 226.114 288.314 225.346 287.894C224.578 287.462 223.972 286.874 223.528 286.13C223.084 285.386 222.862 284.54 222.862 283.592C222.862 282.632 223.084 281.786 223.528 281.054C223.972 280.31 224.578 279.728 225.346 279.308C226.114 278.888 226.99 278.678 227.974 278.678C228.97 278.678 229.852 278.888 230.62 279.308C231.4 279.728 232.006 280.304 232.438 281.036C232.882 281.768 233.104 282.62 233.104 283.592C233.104 284.54 232.882 285.386 232.438 286.13C232.006 286.874 231.4 287.462 230.62 287.894C229.852 288.314 228.97 288.524 227.974 288.524ZM227.974 286.598C228.526 286.598 229.018 286.478 229.45 286.238C229.882 285.998 230.218 285.65 230.458 285.194C230.71 284.738 230.836 284.204 230.836 283.592C230.836 282.968 230.71 282.434 230.458 281.99C230.218 281.534 229.882 281.186 229.45 280.946C229.018 280.706 228.532 280.586 227.992 280.586C227.44 280.586 226.948 280.706 226.516 280.946C226.096 281.186 225.76 281.534 225.508 281.99C225.256 282.434 225.13 282.968 225.13 283.592C225.13 284.204 225.256 284.738 225.508 285.194C225.76 285.65 226.096 285.998 226.516 286.238C226.948 286.478 227.434 286.598 227.974 286.598ZM240.709 278.678C241.477 278.678 242.161 278.828 242.761 279.128C243.373 279.428 243.853 279.89 244.201 280.514C244.549 281.126 244.723 281.918 244.723 282.89V288.398H242.473V283.178C242.473 282.326 242.269 281.69 241.861 281.27C241.465 280.85 240.907 280.64 240.187 280.64C239.659 280.64 239.191 280.748 238.783 280.964C238.375 281.18 238.057 281.504 237.829 281.936C237.613 282.356 237.505 282.89 237.505 283.538V288.398H235.255V278.786H237.397V281.378L237.019 280.586C237.355 279.974 237.841 279.506 238.477 279.182C239.125 278.846 239.869 278.678 240.709 278.678ZM252.113 288.524C251.045 288.524 250.109 288.314 249.305 287.894C248.513 287.462 247.895 286.874 247.451 286.13C247.019 285.386 246.803 284.54 246.803 283.592C246.803 282.632 247.013 281.786 247.433 281.054C247.865 280.31 248.453 279.728 249.197 279.308C249.953 278.888 250.811 278.678 251.771 278.678C252.707 278.678 253.541 278.882 254.273 279.29C255.005 279.698 255.581 280.274 256.001 281.018C256.421 281.762 256.631 282.638 256.631 283.646C256.631 283.742 256.625 283.85 256.613 283.97C256.613 284.09 256.607 284.204 256.595 284.312H248.585V282.818H255.407L254.525 283.286C254.537 282.734 254.423 282.248 254.183 281.828C253.943 281.408 253.613 281.078 253.193 280.838C252.785 280.598 252.311 280.478 251.771 280.478C251.219 280.478 250.733 280.598 250.313 280.838C249.905 281.078 249.581 281.414 249.341 281.846C249.113 282.266 248.999 282.764 248.999 283.34V283.7C248.999 284.276 249.131 284.786 249.395 285.23C249.659 285.674 250.031 286.016 250.511 286.256C250.991 286.496 251.543 286.616 252.167 286.616C252.707 286.616 253.193 286.532 253.625 286.364C254.057 286.196 254.441 285.932 254.777 285.572L255.983 286.958C255.551 287.462 255.005 287.852 254.345 288.128C253.697 288.392 252.953 288.524 252.113 288.524ZM122.674 314.398V312.454L122.548 312.04V308.638C122.548 307.978 122.35 307.468 121.954 307.108C121.558 306.736 120.958 306.55 120.154 306.55C119.614 306.55 119.08 306.634 118.552 306.802C118.036 306.97 117.598 307.204 117.238 307.504L116.356 305.866C116.872 305.47 117.484 305.176 118.192 304.984C118.912 304.78 119.656 304.678 120.424 304.678C121.816 304.678 122.89 305.014 123.646 305.686C124.414 306.346 124.798 307.372 124.798 308.764V314.398H122.674ZM119.65 314.524C118.93 314.524 118.3 314.404 117.76 314.164C117.22 313.912 116.8 313.57 116.5 313.138C116.212 312.694 116.068 312.196 116.068 311.644C116.068 311.104 116.194 310.618 116.446 310.186C116.71 309.754 117.136 309.412 117.724 309.16C118.312 308.908 119.092 308.782 120.064 308.782H122.854V310.276H120.226C119.458 310.276 118.942 310.402 118.678 310.654C118.414 310.894 118.282 311.194 118.282 311.554C118.282 311.962 118.444 312.286 118.768 312.526C119.092 312.766 119.542 312.886 120.118 312.886C120.67 312.886 121.162 312.76 121.594 312.508C122.038 312.256 122.356 311.884 122.548 311.392L122.926 312.742C122.71 313.306 122.32 313.744 121.756 314.056C121.204 314.368 120.502 314.524 119.65 314.524ZM127.686 314.398V304.786H129.828V307.432L129.576 306.658C129.864 306.01 130.314 305.518 130.926 305.182C131.55 304.846 132.324 304.678 133.248 304.678V306.82C133.152 306.796 133.062 306.784 132.978 306.784C132.894 306.772 132.81 306.766 132.726 306.766C131.874 306.766 131.196 307.018 130.692 307.522C130.188 308.014 129.936 308.752 129.936 309.736V314.398H127.686ZM139.587 314.524C138.519 314.524 137.583 314.314 136.779 313.894C135.987 313.462 135.369 312.874 134.925 312.13C134.493 311.386 134.277 310.54 134.277 309.592C134.277 308.632 134.487 307.786 134.907 307.054C135.339 306.31 135.927 305.728 136.671 305.308C137.427 304.888 138.285 304.678 139.245 304.678C140.181 304.678 141.015 304.882 141.747 305.29C142.479 305.698 143.055 306.274 143.475 307.018C143.895 307.762 144.105 308.638 144.105 309.646C144.105 309.742 144.099 309.85 144.087 309.97C144.087 310.09 144.081 310.204 144.069 310.312H136.059V308.818H142.881L141.999 309.286C142.011 308.734 141.897 308.248 141.657 307.828C141.417 307.408 141.087 307.078 140.667 306.838C140.259 306.598 139.785 306.478 139.245 306.478C138.693 306.478 138.207 306.598 137.787 306.838C137.379 307.078 137.055 307.414 136.815 307.846C136.587 308.266 136.473 308.764 136.473 309.34V309.7C136.473 310.276 136.605 310.786 136.869 311.23C137.133 311.674 137.505 312.016 137.985 312.256C138.465 312.496 139.017 312.616 139.641 312.616C140.181 312.616 140.667 312.532 141.099 312.364C141.531 312.196 141.915 311.932 142.251 311.572L143.457 312.958C143.025 313.462 142.479 313.852 141.819 314.128C141.171 314.392 140.427 314.524 139.587 314.524ZM151.924 314.398V312.454L151.798 312.04V308.638C151.798 307.978 151.6 307.468 151.204 307.108C150.808 306.736 150.208 306.55 149.404 306.55C148.864 306.55 148.33 306.634 147.802 306.802C147.286 306.97 146.848 307.204 146.488 307.504L145.606 305.866C146.122 305.47 146.734 305.176 147.442 304.984C148.162 304.78 148.906 304.678 149.674 304.678C151.066 304.678 152.14 305.014 152.896 305.686C153.664 306.346 154.048 307.372 154.048 308.764V314.398H151.924ZM148.9 314.524C148.18 314.524 147.55 314.404 147.01 314.164C146.47 313.912 146.05 313.57 145.75 313.138C145.462 312.694 145.318 312.196 145.318 311.644C145.318 311.104 145.444 310.618 145.696 310.186C145.96 309.754 146.386 309.412 146.974 309.16C147.562 308.908 148.342 308.782 149.314 308.782H152.104V310.276H149.476C148.708 310.276 148.192 310.402 147.928 310.654C147.664 310.894 147.532 311.194 147.532 311.554C147.532 311.962 147.694 312.286 148.018 312.526C148.342 312.766 148.792 312.886 149.368 312.886C149.92 312.886 150.412 312.76 150.844 312.508C151.288 312.256 151.606 311.884 151.798 311.392L152.176 312.742C151.96 313.306 151.57 313.744 151.006 314.056C150.454 314.368 149.752 314.524 148.9 314.524ZM159.906 314.524C159.102 314.524 158.328 314.422 157.584 314.218C156.852 314.002 156.27 313.744 155.838 313.444L156.702 311.734C157.134 312.01 157.65 312.238 158.25 312.418C158.85 312.598 159.45 312.688 160.05 312.688C160.758 312.688 161.268 312.592 161.58 312.4C161.904 312.208 162.066 311.95 162.066 311.626C162.066 311.362 161.958 311.164 161.742 311.032C161.526 310.888 161.244 310.78 160.896 310.708C160.548 310.636 160.158 310.57 159.726 310.51C159.306 310.45 158.88 310.372 158.448 310.276C158.028 310.168 157.644 310.018 157.296 309.826C156.948 309.622 156.666 309.352 156.45 309.016C156.234 308.68 156.126 308.236 156.126 307.684C156.126 307.072 156.3 306.544 156.648 306.1C156.996 305.644 157.482 305.296 158.106 305.056C158.742 304.804 159.492 304.678 160.356 304.678C161.004 304.678 161.658 304.75 162.318 304.894C162.978 305.038 163.524 305.242 163.956 305.506L163.092 307.216C162.636 306.94 162.174 306.754 161.706 306.658C161.25 306.55 160.794 306.496 160.338 306.496C159.654 306.496 159.144 306.598 158.808 306.802C158.484 307.006 158.322 307.264 158.322 307.576C158.322 307.864 158.43 308.08 158.646 308.224C158.862 308.368 159.144 308.482 159.492 308.566C159.84 308.65 160.224 308.722 160.644 308.782C161.076 308.83 161.502 308.908 161.922 309.016C162.342 309.124 162.726 309.274 163.074 309.466C163.434 309.646 163.722 309.904 163.938 310.24C164.154 310.576 164.262 311.014 164.262 311.554C164.262 312.154 164.082 312.676 163.722 313.12C163.374 313.564 162.876 313.912 162.228 314.164C161.58 314.404 160.806 314.524 159.906 314.524Z" fill="white"/>
<g clip-path="url(#clip0_310_726)">
<path fill-rule="evenodd" clip-rule="evenodd" d="M172.995 118.26V85.8529C172.995 81.4318 169.392 77.832 164.971 77.832C160.55 77.832 156.951 81.4318 156.951 85.8529V105.096C153.957 102.854 149.69 102.956 146.79 105.555L138.018 113.627C136.648 114.891 135.468 116.31 134.489 117.866C133.514 116.316 132.333 114.885 130.966 113.627L122.179 105.539C119.291 102.953 115.027 102.854 112.034 105.096V85.8529C112.034 81.4318 108.434 77.832 104.013 77.832C99.5919 77.832 95.9922 81.4318 95.9922 85.8529V118.254C95.9922 124.68 98.4947 130.721 103.041 135.268L112.505 144.732C112.82 145.043 113.231 145.201 113.641 145.201C114.052 145.201 114.463 145.047 114.777 144.732C115.403 144.107 115.403 143.09 114.777 142.464L105.312 132.999C101.373 129.063 99.2037 123.823 99.2037 118.254V85.8464C99.2037 83.1932 101.363 81.0339 104.016 81.0339C106.67 81.0339 108.829 83.1932 108.829 85.8464C108.829 85.8464 108.842 111.731 108.861 111.834C108.938 113.57 109.573 115.299 110.776 116.73L119.169 125.46C119.782 126.098 120.796 126.117 121.437 125.505C122.076 124.892 122.095 123.875 121.482 123.236L113.163 114.59C111.639 112.774 111.681 110.069 113.266 108.302C115.034 106.332 118.075 106.165 120.029 107.917L128.801 115.989C132.423 119.319 134.499 124.051 134.499 128.973V143.6C134.499 144.485 135.217 145.204 136.103 145.204C136.988 145.204 137.707 144.485 137.707 143.6V128.973C137.707 126.332 137.197 123.737 136.244 121.321C137.213 119.3 138.538 117.506 140.193 115.986L148.949 107.926C150.925 106.162 153.964 106.332 155.728 108.298C156.514 109.177 156.922 110.288 156.954 111.394V111.516V111.542C156.954 112.61 156.601 113.672 155.901 114.506L147.508 123.236C146.896 123.875 146.915 124.892 147.553 125.505C147.865 125.806 148.266 125.954 148.667 125.954C149.087 125.954 149.507 125.79 149.822 125.463L158.285 116.653C159.475 115.235 160.095 113.489 160.143 111.734C160.152 111.664 160.159 85.8529 160.159 85.8529C160.159 83.1996 162.318 81.0404 164.971 81.0404C167.625 81.0404 169.784 83.1996 169.784 85.8529V118.26C169.784 123.83 167.615 129.066 163.675 133.006L154.211 142.47C153.585 143.096 153.585 144.113 154.211 144.739C154.525 145.05 154.936 145.207 155.346 145.207C155.757 145.207 156.168 145.053 156.482 144.739L165.947 135.274C170.493 130.731 172.995 124.687 172.995 118.26Z" fill="#F7F7FC"/>
<path fill-rule="evenodd" clip-rule="evenodd" d="M118.457 77.6094C118.457 72.4247 122.413 68.209 127.28 68.209C130.366 68.209 132.943 69.5404 134.499 71.7061C136.055 69.5404 138.631 68.209 141.717 68.209C146.584 68.209 150.54 72.4247 150.54 77.6094C150.54 84.395 142.362 92.7142 138.041 96.1632C136.998 96.9942 135.75 97.408 134.499 97.408C133.247 97.408 132.003 96.9942 130.96 96.1632C126.635 92.7142 118.457 84.3982 118.457 77.6094ZM132.962 93.6511C128.271 89.9134 121.665 82.4604 121.665 77.6094C121.665 74.1957 124.184 71.4173 127.28 71.4173C130.585 71.4173 132.895 73.6728 132.895 76.9004C132.895 77.7859 133.613 78.5045 134.499 78.5045C135.384 78.5045 136.103 77.7859 136.103 76.9004C136.103 73.6728 138.413 71.4173 141.717 71.4173C144.813 71.4173 147.332 74.1957 147.332 77.6094C147.332 82.4604 140.726 89.9102 136.039 93.6511C135.134 94.3762 133.867 94.3762 132.962 93.6511Z" fill="#00A3FF"/>
</g>
<defs>
<clipPath id="clip0_310_726">
<rect width="77" height="77" fill="white" transform="translate(96 65)"/>
</clipPath>
</defs>
</svg>
