<svg width="30" height="29" viewBox="0 0 30 29" fill="none" xmlns="http://www.w3.org/2000/svg">
<path d="M25.6093 19.4251C24.6511 20.1551 23.5056 20.5395 22.2961 20.5395C21.0866 20.5395 19.9412 20.1551 18.9842 19.4251C18.8175 19.2994 18.5214 19.2994 18.3595 19.4251C16.4432 20.8839 13.6484 20.8839 11.7344 19.4251C11.5665 19.2994 11.2717 19.2994 11.1098 19.4251C9.19341 20.8839 6.39863 20.8839 4.4847 19.4251C4.31795 19.2994 4.02192 19.2994 3.86001 19.4251C3.66789 19.5713 3.46852 19.7019 3.25949 19.8227C2.39435 20.3171 1.28514 20.0173 0.786117 19.1471C0.290717 18.2781 0.591582 17.1698 1.46155 16.673C1.53405 16.6331 1.60051 16.5872 1.66575 16.5388C3.11812 15.4305 5.2278 15.4341 6.68016 16.5388C7.31935 17.0271 8.27148 17.0271 8.91429 16.5388C10.3655 15.4317 12.4763 15.4317 13.9299 16.5388C14.5691 17.0271 15.5212 17.0271 16.164 16.5388C17.6152 15.4317 19.7261 15.4317 21.1797 16.5388C21.8188 17.0271 22.771 17.0271 23.4138 16.5388C24.865 15.4317 26.9758 15.4317 28.4294 16.5388C28.4922 16.5872 28.5599 16.6319 28.6324 16.6718C29.5024 17.1685 29.8044 18.2769 29.3078 19.1459C28.81 20.0161 27.702 20.3159 26.8345 19.8215C26.6254 19.7007 26.4249 19.5689 26.2352 19.4251C26.0696 19.2994 25.7724 19.2982 25.6093 19.4251ZM2.35931 21.7481C1.35885 21.7481 0.546875 22.5603 0.546875 23.5611C0.546875 24.5618 1.35885 25.3741 2.35931 25.3741C3.35978 25.3741 4.17175 24.5618 4.17175 23.5611C4.17175 22.5603 3.35978 21.7481 2.35931 21.7481ZM8.40077 25.3741C7.4003 25.3741 6.58833 26.1863 6.58833 27.187C6.58833 28.1878 7.4003 29 8.40077 29C9.40124 29 10.2132 28.1878 10.2132 27.187C10.2132 26.1863 9.40124 25.3741 8.40077 25.3741ZM21.692 25.3741C20.6915 25.3741 19.8795 26.1863 19.8795 27.187C19.8795 28.1878 20.6915 29 21.692 29C22.6924 29 23.5044 28.1878 23.5044 27.187C23.5044 26.1863 22.6924 25.3741 21.692 25.3741ZM15.0464 21.7481C14.0459 21.7481 13.2339 22.5603 13.2339 23.5611C13.2339 24.5618 14.0459 25.3741 15.0464 25.3741C16.0468 25.3741 16.8588 24.5618 16.8588 23.5611C16.8588 22.5603 16.0468 21.7481 15.0464 21.7481ZM27.7334 21.7481C26.733 21.7481 25.921 22.5603 25.921 23.5611C25.921 24.5618 26.733 25.3741 27.7334 25.3741C28.7339 25.3741 29.5459 24.5618 29.5459 23.5611C29.5459 22.5603 28.7339 21.7481 27.7334 21.7481ZM10.7751 11.5097C9.63444 10.3687 9.00492 8.85063 9.00492 7.23708C9.00492 5.62354 9.63444 4.10427 10.7751 2.9633L12.9282 0.856629C14.0967 -0.285543 15.9961 -0.285543 17.1645 0.856629L19.3044 2.95001C20.4595 4.10427 21.089 5.62233 21.089 7.23708C21.089 8.85184 20.4595 10.3687 19.3189 11.5097C18.1783 12.6506 16.6607 13.2803 15.0476 13.2803C13.4345 13.2803 11.9157 12.6506 10.7751 11.5097ZM12.6298 7.23708C12.6298 7.8825 12.8811 8.48924 13.3378 8.94611C14.2513 9.85985 15.8414 9.85985 16.7549 8.94611C17.2116 8.48924 17.463 7.8825 17.463 7.23708C17.463 6.59166 17.2116 5.98492 16.7549 5.52926L15.0464 3.85529L13.3233 5.54256C12.8811 5.98492 12.6298 6.59166 12.6298 7.23708ZM2.35931 14.4962H5.98419C6.98465 14.4962 7.79662 13.684 7.79662 12.6833C7.79662 11.6825 6.98465 10.8703 5.98419 10.8703H2.35931C1.35885 10.8703 0.546875 11.6825 0.546875 12.6833C0.546875 13.684 1.35885 14.4962 2.35931 14.4962ZM24.1086 14.4962H27.7334C28.7339 14.4962 29.5459 13.684 29.5459 12.6833C29.5459 11.6825 28.7339 10.8703 27.7334 10.8703H24.1086C23.1081 10.8703 22.2961 11.6825 22.2961 12.6833C22.2961 13.684 23.1081 14.4962 24.1086 14.4962Z" fill="white"/>
</svg>
