<svg width="32" height="38" viewBox="0 0 32 38" fill="none" xmlns="http://www.w3.org/2000/svg">
<path d="M15.8874 0.5C11.808 0.504488 7.89704 2.12688 5.01236 5.01127C2.12768 7.89566 0.504897 11.8065 0.5 15.8858C0.5 19.8479 3.56792 26.0485 9.61896 34.3149C10.3393 35.3018 11.2825 36.1046 12.3718 36.6581C13.461 37.2116 14.6656 37.5001 15.8874 37.5001C17.1092 37.5001 18.3137 37.2116 19.403 36.6581C20.4922 36.1046 21.4354 35.3018 22.1558 34.3149C28.2068 26.0485 31.2748 19.8479 31.2748 15.8858C31.2699 11.8065 29.6471 7.89566 26.7624 5.01127C23.8777 2.12688 19.9667 0.504488 15.8874 0.5ZM15.8874 22.0186C14.6677 22.0186 13.4755 21.6569 12.4614 20.9793C11.4473 20.3017 10.6569 19.3386 10.1901 18.2118C9.72338 17.085 9.60126 15.8451 9.8392 14.6489C10.0771 13.4526 10.6645 12.3538 11.5269 11.4914C12.3893 10.629 13.4881 10.0417 14.6843 9.80374C15.8805 9.5658 17.1204 9.68792 18.2473 10.1547C19.3741 10.6214 20.3372 11.4118 21.0148 12.4259C21.6924 13.44 22.054 14.6323 22.054 15.8519C22.054 17.4874 21.4043 19.0559 20.2479 20.2124C19.0914 21.3689 17.5229 22.0186 15.8874 22.0186Z" fill="#070707"/>
</svg>
