<svg width="34" height="40" viewBox="0 0 34 40" fill="none" xmlns="http://www.w3.org/2000/svg">
<path id="Vector" d="M16.8868 1L16.8879 0.999999C21.0997 1.00463 25.1376 2.67969 28.1159 5.6577C31.0942 8.63571 32.7697 12.6735 32.7748 16.8852V16.8858C32.7748 18.9811 31.9683 21.6042 30.4326 24.708C28.892 27.8215 26.5946 31.4635 23.5596 35.6097L16.8868 1ZM16.8868 1C12.6751 1.00463 8.63713 2.67969 5.65882 5.6577C2.68052 8.63571 1.00506 12.6735 1 16.8852V16.8858M16.8868 1L1 16.8858M1 16.8858C1 18.9811 1.80645 21.6042 3.3422 24.708M1 16.8858L3.3422 24.708M3.3422 24.708C4.88281 27.8216 7.18026 31.4638 10.2154 35.6101M3.3422 24.708L10.2154 35.6101M10.2154 35.6101C10.9821 36.6604 11.986 37.5148 13.1453 38.1039C14.3047 38.693 15.5868 39.0001 16.8874 39.0001C18.1879 39.0001 19.4701 38.693 20.6295 38.1039C21.7887 37.5148 22.7925 36.6604 23.5592 35.6103L10.2154 35.6101ZM16.8874 22.5186C15.7666 22.5186 14.671 22.1862 13.7391 21.5636C12.8073 20.9409 12.081 20.0559 11.6521 19.0205C11.2232 17.985 11.1109 16.8456 11.3296 15.7464C11.5482 14.6472 12.0879 13.6375 12.8804 12.845C13.6729 12.0525 14.6826 11.5128 15.7819 11.2941C16.8811 11.0755 18.0205 11.1877 19.0559 11.6166C20.0914 12.0455 20.9764 12.7718 21.599 13.7037C22.2217 14.6356 22.554 15.7312 22.554 16.8519C22.554 18.3548 21.957 19.7962 20.8943 20.8589C19.8316 21.9216 18.3903 22.5186 16.8874 22.5186Z" fill="#070707" stroke="#F7F7F7"/>
</svg>
