<svg width="154" height="30" viewBox="0 0 154 30" fill="none" xmlns="http://www.w3.org/2000/svg">
<g clip-path="url(#clip0_1032_2166)">
<path fill-rule="evenodd" clip-rule="evenodd" d="M140.258 4.05744L153.51 4V5.26475H141.542L141.608 13.8972H152.407V15.1438H141.608L141.613 23.9964H154.002L153.997 25.1247L140.325 25.1822L140.258 4.05744Z" fill="#1A1A1A" stroke="#1A1A1A" stroke-width="0.216"/>
<path fill-rule="evenodd" clip-rule="evenodd" d="M22.524 20.9751C20.9689 18.0372 21.3976 14.921 23.324 12.2326C23.8164 11.5453 25.6416 9.76097 27.2726 8.20917C27.6015 7.8962 29.274 6.03358 29.5573 5.96374C29.9102 5.87679 36.0753 12.5305 36.5221 13.284C37.5827 15.0727 38.1679 17.2493 36.9055 19.0856L35.3833 18.6132C35.3833 18.6132 35.9082 16.5662 34.9635 14.6766C34.0187 12.7871 31.8667 11.16 30.9219 10.1627C29.9772 9.16549 29.5048 8.74556 29.5048 8.74556C29.5048 8.74556 28.2386 10.021 27.0094 11.2428C26.3343 11.9138 25.6113 12.5391 25.2533 12.997C23.994 14.6081 23.5636 15.7813 23.5836 17.0802C23.6002 18.1558 23.8859 19.3576 24.6234 20.6077C24.6234 20.6077 24.361 20.1354 23.5737 20.2928C22.7864 20.4502 22.524 20.9751 22.524 20.9751Z" fill="#1A1A1A"/>
<path fill-rule="evenodd" clip-rule="evenodd" d="M24.0612 22.6491C25.681 24.1501 28.3464 25.3726 30.5809 25.423C32.3016 25.4618 34.0666 25.1337 35.6543 24.4351C39.9559 22.5423 41.9046 18.165 41.5363 13.9597C41.006 7.90267 36.6333 4.08631 30.4695 4.17333C26.6162 4.22774 23.3075 6.71672 21.4493 9.9236L21.2266 10.4399L21.2873 10.45C21.2873 10.45 22.0567 8.86061 23.1197 7.90899C26.301 5.06095 30.2708 4.31441 34.0836 6.20822C35.6123 6.96749 37.222 8.45567 37.7585 9.38704C39.7432 12.8322 39.8767 15.718 37.799 19.1362C37.4852 19.6525 37.141 19.7942 36.7765 19.7436C34.9349 19.4878 32.8657 18.6295 30.9858 19.045C30.0225 19.258 28.8213 19.9162 29.4571 21.1002C29.4571 21.1002 31.9374 20.9989 32.3727 21.171C32.8081 21.3431 33.213 21.7177 33.1624 22.1732C33.1118 22.6288 32.4436 23.0338 31.907 23.1046C28.8694 23.5058 26.8298 22.7621 24.2839 21.2723C24.0223 21.0543 23.3056 21.1749 23.3525 21.6671C23.3728 21.8797 23.4841 22.0923 23.6866 22.3049C23.8891 22.5175 24.0612 22.6491 24.0612 22.6491Z" fill="#1A1A1A"/>
<path fill-rule="evenodd" clip-rule="evenodd" d="M1 25.1497L9.0758 4.09766H12.1386L20.7094 25.1497H17.5389L15.1034 18.7693H6.2385L3.95491 25.1497H1ZM7.05691 16.5054H14.2311L12.0357 10.669C11.3742 8.89507 10.8743 7.42986 10.5264 6.27338C10.2373 7.64543 9.85011 8.99307 9.365 10.326L7.05691 16.5054ZM59.594 4.09766H62.3872V16.2555C62.3872 18.3725 62.147 20.0533 61.6717 21.298C61.1916 22.5378 60.3291 23.5522 59.0844 24.3313C57.8347 25.1105 56.2029 25.5025 54.1741 25.5025C52.2091 25.5025 50.5968 25.1644 49.3472 24.4833C48.0927 23.8021 47.2008 22.822 46.6668 21.5333C46.1326 20.2444 45.863 18.4851 45.863 16.2555V4.09766H48.6563V16.2506C48.6563 18.0785 48.8278 19.4309 49.1659 20.2934C49.504 21.1607 50.0823 21.8321 50.9105 22.2977C51.7337 22.7681 52.7432 23.0033 53.9341 23.0033C55.9725 23.0033 57.428 22.5378 58.2954 21.6116C59.1627 20.6806 59.594 18.8968 59.594 16.2506V4.09766ZM64.7297 25.1497L72.8054 4.09766H75.8682L84.4391 25.1497H81.2685L78.833 18.7693H69.9682L67.6845 25.1497H64.7297ZM70.7865 16.5054H77.9607L75.7653 10.669C75.1038 8.89507 74.6039 7.42986 74.256 6.27338C73.9669 7.64543 73.5798 8.99307 73.0946 10.326L70.7865 16.5054Z" fill="#1A1A1A"/>
<path fill-rule="evenodd" clip-rule="evenodd" d="M121.727 4.12368L134.937 4.06641V5.32726H123.007L123.073 13.9326H133.838V15.1754H123.073L123.077 24H135.427L135.423 25.1249L121.793 25.1157L121.727 4.12368Z" fill="#1A1A1A" stroke="#1A1A1A" stroke-width="0.216"/>
<path fill-rule="evenodd" clip-rule="evenodd" d="M86.9453 4.06641L98.8916 4.10232V5.27531H88.1407V13.9107H97.7236V15.0313H88.1407L88.1482 25.1455L86.9453 25.1277V4.06641Z" fill="#1A1A1A" stroke="#1A1A1A" stroke-width="0.216"/>
<path fill-rule="evenodd" clip-rule="evenodd" d="M110.632 14.6055L116.924 25.0923L115.294 25.0252L109.211 14.8867C109.62 14.8187 110.282 14.7249 110.632 14.6055Z" fill="#1A1A1A" stroke="#1A1A1A" stroke-width="0.216"/>
<path fill-rule="evenodd" clip-rule="evenodd" d="M108.63 4.06685C109.229 4.05857 109.883 4.16732 110.591 4.3667C111.3 4.56628 111.97 4.88606 112.598 5.32476C116.062 7.74421 115.323 12.9096 111.265 14.5411C110.448 14.8697 109.437 15.0349 108.24 15.0349H105.813V25.0923L104.531 25.1496V4.1242L108.63 4.06685ZM108.351 13.8673C114.301 13.9456 115.224 7.28856 110.615 5.61025C110.05 5.40442 109.439 5.3016 108.788 5.3016H105.861L105.866 13.8315L108.351 13.8673Z" fill="#1A1A1A" stroke="#1A1A1A" stroke-width="0.216"/>
</g>
<defs>
<clipPath id="clip0_1032_2166">
<rect width="154" height="30" fill="white"/>
</clipPath>
</defs>
</svg>
