<svg width="36" height="36" viewBox="0 0 36 36" fill="none" xmlns="http://www.w3.org/2000/svg">
<path id="Vector" d="M16.818 1.03918L16.8181 1.03917C21.7381 0.706335 26.556 2.50646 30.0316 5.98647C33.5072 9.46653 35.3001 14.2849 34.9588 19.208C34.3329 28.2464 26.3601 35 16.5108 35H8.37498C4.30795 35 1 31.6918 1 27.6246V18.4666V18.4665C1.00142 9.30961 7.93457 1.64232 16.818 1.03918ZM24.8763 19.5617C25.7386 19.5617 26.4388 18.8615 26.4388 17.9991C26.4388 17.1366 25.7386 16.4365 24.8763 16.4365C24.014 16.4365 23.3138 17.1366 23.3138 17.9991C23.3138 18.8615 24.014 19.5617 24.8763 19.5617ZM18.0013 19.5617C18.8637 19.5617 19.5638 18.8615 19.5638 17.9991C19.5638 17.1366 18.8637 16.4365 18.0013 16.4365C17.139 16.4365 16.4388 17.1366 16.4388 17.9991C16.4388 18.8615 17.139 19.5617 18.0013 19.5617ZM11.1263 19.5617C11.9887 19.5617 12.6888 18.8615 12.6888 17.9991C12.6888 17.1366 11.9887 16.4365 11.1263 16.4365C10.264 16.4365 9.56385 17.1366 9.56385 17.9991C9.56385 18.8615 10.264 19.5617 11.1263 19.5617Z" fill="#070707" stroke="#070707"/>
</svg>
