<svg width="196" height="76" viewBox="0 0 196 76" fill="none" xmlns="http://www.w3.org/2000/svg">
<path d="M4.87051 73L33.0296 17.2273V16.7841H0.0977832V3.18182H50.4841V16.8864L22.2228 73H4.87051ZM86.1634 74.7045C80.0724 74.7045 74.8224 73.2614 70.4134 70.375C66.0043 67.4659 62.6065 63.2955 60.2202 57.8636C57.8338 52.4091 56.652 45.8523 56.6747 38.1932C56.6974 30.5341 57.8906 24.0341 60.2543 18.6932C62.6406 13.3295 66.027 9.25 70.4134 6.45455C74.8224 3.63636 80.0724 2.22727 86.1634 2.22727C92.2543 2.22727 97.5043 3.63636 101.913 6.45455C106.345 9.25 109.754 13.3295 112.141 18.6932C114.527 24.0568 115.709 30.5568 115.686 38.1932C115.686 45.875 114.493 52.4432 112.107 57.8977C109.72 63.3523 106.322 67.5227 101.913 70.4091C97.527 73.2727 92.277 74.7045 86.1634 74.7045ZM86.1634 60.8977C89.7997 60.8977 92.7429 59.0455 94.9929 55.3409C97.2429 51.6136 98.3565 45.8977 98.3338 38.1932C98.3338 33.1477 97.8224 28.9886 96.7997 25.7159C95.777 22.4205 94.3565 19.9659 92.5384 18.3523C90.7202 16.7386 88.5952 15.9318 86.1634 15.9318C82.5497 15.9318 79.6293 17.7614 77.402 21.4205C75.1747 25.0568 74.0497 30.6477 74.027 38.1932C74.0043 43.3068 74.4929 47.5455 75.4929 50.9091C76.5156 54.2727 77.9474 56.7841 79.7884 58.4432C81.6293 60.0795 83.7543 60.8977 86.1634 60.8977ZM163.493 59.9091V56.2273C163.493 53.3636 164.107 50.7159 165.334 48.2841C166.584 45.8523 168.391 43.8977 170.755 42.4205C173.118 40.9432 176.004 40.2045 179.414 40.2045C182.891 40.2045 185.811 40.9432 188.175 42.4205C190.561 43.875 192.357 45.8182 193.561 48.25C194.789 50.6591 195.402 53.3182 195.402 56.2273V59.9091C195.402 62.7727 194.789 65.4205 193.561 67.8523C192.334 70.2841 190.527 72.2386 188.141 73.7159C185.754 75.1932 182.845 75.9318 179.414 75.9318C175.959 75.9318 173.05 75.1932 170.686 73.7159C168.323 72.2386 166.527 70.2841 165.3 67.8523C164.095 65.4205 163.493 62.7727 163.493 59.9091ZM174.368 56.2273V59.9091C174.368 61.3636 174.72 62.7614 175.425 64.1023C176.152 65.4432 177.482 66.1136 179.414 66.1136C181.391 66.1136 182.72 65.4659 183.402 64.1705C184.084 62.8523 184.425 61.4318 184.425 59.9091V56.2273C184.425 54.7045 184.095 53.2727 183.436 51.9318C182.8 50.5682 181.459 49.8864 179.414 49.8864C177.504 49.8864 176.186 50.5682 175.459 51.9318C174.732 53.2727 174.368 54.7045 174.368 56.2273ZM127.289 19.9545V16.2727C127.289 13.3636 127.914 10.7045 129.164 8.29545C130.436 5.86363 132.254 3.92045 134.618 2.46591C136.982 0.988636 139.845 0.25 143.209 0.25C146.686 0.25 149.607 0.988636 151.97 2.46591C154.357 3.92045 156.164 5.86363 157.391 8.29545C158.618 10.7045 159.232 13.3636 159.232 16.2727V19.9545C159.232 22.8636 158.607 25.5227 157.357 27.9318C156.129 30.3409 154.323 32.2614 151.936 33.6932C149.55 35.125 146.641 35.8409 143.209 35.8409C139.777 35.8409 136.868 35.1136 134.482 33.6591C132.118 32.2045 130.323 30.2727 129.095 27.8636C127.891 25.4545 127.289 22.8182 127.289 19.9545ZM138.266 16.2727V19.9545C138.266 21.4773 138.618 22.8977 139.323 24.2159C140.05 25.5114 141.345 26.1591 143.209 26.1591C145.209 26.1591 146.539 25.5114 147.198 24.2159C147.879 22.8977 148.22 21.4773 148.22 19.9545V16.2727C148.22 14.75 147.902 13.3182 147.266 11.9773C146.629 10.6136 145.277 9.93182 143.209 9.93182C141.3 9.93182 139.993 10.625 139.289 12.0114C138.607 13.3977 138.266 14.8182 138.266 16.2727ZM132.436 73L180.436 3.18182H189.743L141.743 73H132.436Z" fill="url(#paint0_linear_322_3854)"/>
<defs>
<linearGradient id="paint0_linear_322_3854" x1="100" y1="2" x2="100" y2="145" gradientUnits="userSpaceOnUse">
<stop stopColor="#7DFFED"/>
<stop offset="0.345" stopColor="#00A3FF"/>
<stop offset="0.743363" stopColor="#1031DC"/>
<stop offset="1" stopColor="#0B102C"/>
</linearGradient>
</defs>
</svg>
