<svg width="197" height="76" viewBox="0 0 197 76" fill="none" xmlns="http://www.w3.org/2000/svg">
<path d="M1.1546 73V60.8636L26.6205 38.5682C28.5296 36.8409 30.1546 35.2614 31.4955 33.8295C32.8364 32.375 33.8591 30.9205 34.5637 29.4659C35.2682 27.9886 35.6205 26.3864 35.6205 24.6591C35.6205 22.7273 35.2001 21.0795 34.3591 19.7159C33.5182 18.3295 32.3591 17.2614 30.8819 16.5114C29.4046 15.7614 27.7114 15.3864 25.8023 15.3864C23.8705 15.3864 22.1773 15.7841 20.7228 16.5795C19.2682 17.3523 18.1319 18.4773 17.3137 19.9545C16.5182 21.4318 16.1205 23.2273 16.1205 25.3409H0.131874C0.131874 20.5909 1.20006 16.4886 3.33642 13.0341C5.47278 9.57954 8.47278 6.92045 12.3364 5.05682C16.2228 3.17045 20.7341 2.22727 25.8705 2.22727C31.166 2.22727 35.7682 3.11363 39.6773 4.88636C43.5864 6.65909 46.6091 9.13636 48.7455 12.3182C50.9046 15.4773 51.9841 19.1477 51.9841 23.3295C51.9841 25.9886 51.4501 28.625 50.3819 31.2386C49.3137 33.8523 47.3932 36.7386 44.6205 39.8977C41.8705 43.0568 37.9614 46.8409 32.8932 51.25L24.541 58.9545V59.3977H52.8364V73H1.1546ZM59.0611 61.4091V48.25L87.6634 3.18182H99.3565V21.0455H92.5724L75.8338 47.5682V48.1136H117.254V61.4091H59.0611ZM92.777 73V57.3864L93.1179 51.625V3.18182H108.902V73H92.777ZM164.243 59.9091V56.2273C164.243 53.3636 164.857 50.7159 166.084 48.2841C167.334 45.8523 169.141 43.8977 171.505 42.4205C173.868 40.9432 176.754 40.2045 180.164 40.2045C183.641 40.2045 186.561 40.9432 188.925 42.4205C191.311 43.875 193.107 45.8182 194.311 48.25C195.539 50.6591 196.152 53.3182 196.152 56.2273V59.9091C196.152 62.7727 195.539 65.4205 194.311 67.8523C193.084 70.2841 191.277 72.2386 188.891 73.7159C186.504 75.1932 183.595 75.9318 180.164 75.9318C176.709 75.9318 173.8 75.1932 171.436 73.7159C169.073 72.2386 167.277 70.2841 166.05 67.8523C164.845 65.4205 164.243 62.7727 164.243 59.9091ZM175.118 56.2273V59.9091C175.118 61.3636 175.47 62.7614 176.175 64.1023C176.902 65.4432 178.232 66.1136 180.164 66.1136C182.141 66.1136 183.47 65.4659 184.152 64.1705C184.834 62.8523 185.175 61.4318 185.175 59.9091V56.2273C185.175 54.7045 184.845 53.2727 184.186 51.9318C183.55 50.5682 182.209 49.8864 180.164 49.8864C178.254 49.8864 176.936 50.5682 176.209 51.9318C175.482 53.2727 175.118 54.7045 175.118 56.2273ZM128.039 19.9545V16.2727C128.039 13.3636 128.664 10.7045 129.914 8.29545C131.186 5.86363 133.004 3.92045 135.368 2.46591C137.732 0.988636 140.595 0.25 143.959 0.25C147.436 0.25 150.357 0.988636 152.72 2.46591C155.107 3.92045 156.914 5.86363 158.141 8.29545C159.368 10.7045 159.982 13.3636 159.982 16.2727V19.9545C159.982 22.8636 159.357 25.5227 158.107 27.9318C156.879 30.3409 155.073 32.2614 152.686 33.6932C150.3 35.125 147.391 35.8409 143.959 35.8409C140.527 35.8409 137.618 35.1136 135.232 33.6591C132.868 32.2045 131.073 30.2727 129.845 27.8636C128.641 25.4545 128.039 22.8182 128.039 19.9545ZM139.016 16.2727V19.9545C139.016 21.4773 139.368 22.8977 140.073 24.2159C140.8 25.5114 142.095 26.1591 143.959 26.1591C145.959 26.1591 147.289 25.5114 147.948 24.2159C148.629 22.8977 148.97 21.4773 148.97 19.9545V16.2727C148.97 14.75 148.652 13.3182 148.016 11.9773C147.379 10.6136 146.027 9.93182 143.959 9.93182C142.05 9.93182 140.743 10.625 140.039 12.0114C139.357 13.3977 139.016 14.8182 139.016 16.2727ZM133.186 73L181.186 3.18182H190.493L142.493 73H133.186Z" fill="url(#paint0_linear_322_3852)"/>
<defs>
<linearGradient id="paint0_linear_322_3852" x1="100" y1="2" x2="100" y2="147" gradientUnits="userSpaceOnUse">
<stop stop-color="#7DFFED"/>
<stop offset="0.345" stop-color="#00A3FF"/>
<stop offset="0.743363" stop-color="#1031DC"/>
<stop offset="1" stop-color="#0B102C"/>
</linearGradient>
</defs>
</svg>
