<svg width="225" height="97" viewBox="0 0 225 97" fill="none" xmlns="http://www.w3.org/2000/svg">
<path d="M43.8182 1.27273V94.3636H21.3636V22.2727H20.8182L0 35V15.5455L22.9545 1.27273H43.8182Z" fill="url(#paint0_linear_322_3847)"/>
<path d="M101.618 96.6364C93.4965 96.6364 86.4965 94.7121 80.6177 90.8636C74.7389 86.9848 70.2086 81.4242 67.0268 74.1818C63.845 66.9091 62.2692 58.1667 62.2995 47.9545C62.3298 37.7424 63.9208 29.0758 67.0723 21.9545C70.2541 14.803 74.7692 9.36364 80.6177 5.63637C86.4965 1.87879 93.4965 0 101.618 0C109.739 0 116.739 1.87879 122.618 5.63637C128.527 9.36364 133.072 14.803 136.254 21.9545C139.436 29.1061 141.012 37.7727 140.981 47.9545C140.981 58.197 139.39 66.9546 136.209 74.2273C133.027 81.5 128.497 87.0606 122.618 90.9091C116.769 94.7273 109.769 96.6364 101.618 96.6364ZM101.618 78.2273C106.466 78.2273 110.39 75.7576 113.39 70.8182C116.39 65.8485 117.875 58.2273 117.845 47.9545C117.845 41.2273 117.163 35.6818 115.8 31.3182C114.436 26.9242 112.542 23.6515 110.118 21.5C107.693 19.3485 104.86 18.2727 101.618 18.2727C96.7995 18.2727 92.9056 20.7121 89.9359 25.5909C86.9662 30.4394 85.4662 37.8939 85.4359 47.9545C85.4056 54.7727 86.0571 60.4242 87.3905 64.9091C88.7541 69.3939 90.6632 72.7424 93.1177 74.9545C95.5723 77.1364 98.4056 78.2273 101.618 78.2273Z" fill="url(#paint1_linear_322_3847)"/>
<path d="M177.974 24.5455L189.474 47.5455L201.383 24.5455H223.792L204.292 59.4545L224.519 94.3636H202.292L189.474 71.1818L176.974 94.3636H154.428L174.701 59.4545L155.428 24.5455H177.974Z" fill="url(#paint2_linear_322_3847)"/>
<defs>
<linearGradient id="paint0_linear_322_3847" x1="112.26" y1="0" x2="112" y2="151.5" gradientUnits="userSpaceOnUse">
<stop stop-color="#71FFEB"/>
<stop offset="0.345" stop-color="#00A3FF"/>
<stop offset="0.864479" stop-color="#1031DC"/>
<stop offset="1" stop-color="#0B102C"/>
</linearGradient>
<linearGradient id="paint1_linear_322_3847" x1="112.26" y1="0" x2="112" y2="151.5" gradientUnits="userSpaceOnUse">
<stop stop-color="#71FFEB"/>
<stop offset="0.345" stop-color="#00A3FF"/>
<stop offset="0.864479" stop-color="#1031DC"/>
<stop offset="1" stop-color="#0B102C"/>
</linearGradient>
<linearGradient id="paint2_linear_322_3847" x1="112.26" y1="0" x2="112" y2="151.5" gradientUnits="userSpaceOnUse">
<stop stop-color="#71FFEB"/>
<stop offset="0.345" stop-color="#00A3FF"/>
<stop offset="0.864479" stop-color="#1031DC"/>
<stop offset="1" stop-color="#0B102C"/>
</linearGradient>
</defs>
</svg>
