<svg width="133" height="77" viewBox="0 0 133 77" fill="none" xmlns="http://www.w3.org/2000/svg">
<path d="M27.7542 45.9091H41.3905L47.186 53.3068L54.7882 62.0341L66.4814 76.4545H51.2087L43.0269 66.6705L38.186 59.7159L27.7542 45.9091ZM66.9587 36.0909C66.9587 43.7727 65.4814 50.2841 62.5269 55.625C59.5723 60.9659 55.5723 65.0227 50.5269 67.7955C45.5042 70.5682 39.8678 71.9545 33.6178 71.9545C27.3451 71.9545 21.6973 70.5568 16.6746 67.7614C11.6519 64.9659 7.66324 60.9091 4.7087 55.5909C1.77688 50.25 0.310969 43.75 0.310969 36.0909C0.310969 28.4091 1.77688 21.8977 4.7087 16.5568C7.66324 11.2159 11.6519 7.15909 16.6746 4.38636C21.6973 1.61363 27.3451 0.22727 33.6178 0.22727C39.8678 0.22727 45.5042 1.61363 50.5269 4.38636C55.5723 7.15909 59.5723 11.2159 62.5269 16.5568C65.4814 21.8977 66.9587 28.4091 66.9587 36.0909ZM49.7087 36.0909C49.7087 31.5455 49.061 27.7045 47.7655 24.5682C46.4928 21.4318 44.6519 19.0568 42.2428 17.4432C39.8564 15.8295 36.9814 15.0227 33.6178 15.0227C30.2769 15.0227 27.4019 15.8295 24.9928 17.4432C22.5837 19.0568 20.7314 21.4318 19.436 24.5682C18.1632 27.7045 17.5269 31.5455 17.5269 36.0909C17.5269 40.6364 18.1632 44.4773 19.436 47.6136C20.7314 50.75 22.5837 53.125 24.9928 54.7386C27.4019 56.3523 30.2769 57.1591 33.6178 57.1591C36.9814 57.1591 39.8564 56.3523 42.2428 54.7386C44.6519 53.125 46.4928 50.75 47.7655 47.6136C49.061 44.4773 49.7087 40.6364 49.7087 36.0909ZM75.9447 71V1.18182H104.786C110.013 1.18182 114.524 2.125 118.32 4.01136C122.138 5.875 125.081 8.55682 127.149 12.0568C129.217 15.5341 130.252 19.6591 130.252 24.4318C130.252 29.2727 129.195 33.3864 127.081 36.7727C124.967 40.1364 121.967 42.7045 118.081 44.4773C114.195 46.2273 109.592 47.1023 104.274 47.1023H86.0356V33.8068H101.138C103.683 33.8068 105.808 33.4773 107.513 32.8182C109.24 32.1364 110.547 31.1136 111.433 29.75C112.32 28.3636 112.763 26.5909 112.763 24.4318C112.763 22.2727 112.32 20.4886 111.433 19.0795C110.547 17.6477 109.24 16.5795 107.513 15.875C105.786 15.1477 103.661 14.7841 101.138 14.7841H92.8197V71H75.9447ZM115.252 39.0909L132.638 71H114.229L97.1834 39.0909H115.252Z" fill="url(#paint0_linear_322_3853)"/>
<defs>
<linearGradient id="paint0_linear_322_3853" x1="65" y1="2.36336e-06" x2="65" y2="169" gradientUnits="userSpaceOnUse">
<stop stop-color="#7DFFED"/>
<stop offset="0.345" stop-color="#00A3FF"/>
<stop offset="0.743363" stop-color="#1031DC"/>
<stop offset="1" stop-color="#0B102C"/>
</linearGradient>
</defs>
</svg>
