<svg width="173" height="29" viewBox="0 0 173 29" fill="none" xmlns="http://www.w3.org/2000/svg">
<path d="M3.864 23L10.8 7.448L11.616 8.84H2.088L3.576 7.328V11.696H0.672V6.2H13.728V8.288L7.2 23H3.864ZM22.1968 23.24C20.8688 23.24 19.6688 22.904 18.5968 22.232C17.5408 21.56 16.7088 20.584 16.1008 19.304C15.4928 18.008 15.1888 16.44 15.1888 14.6C15.1888 12.76 15.4928 11.2 16.1008 9.92C16.7088 8.624 17.5408 7.64 18.5968 6.968C19.6688 6.296 20.8688 5.96 22.1968 5.96C23.5408 5.96 24.7408 6.296 25.7968 6.968C26.8528 7.64 27.6848 8.624 28.2928 9.92C28.9168 11.2 29.2288 12.76 29.2288 14.6C29.2288 16.44 28.9168 18.008 28.2928 19.304C27.6848 20.584 26.8528 21.56 25.7968 22.232C24.7408 22.904 23.5408 23.24 22.1968 23.24ZM22.1968 20.528C22.9808 20.528 23.6608 20.32 24.2368 19.904C24.8128 19.472 25.2608 18.816 25.5808 17.936C25.9168 17.056 26.0848 15.944 26.0848 14.6C26.0848 13.24 25.9168 12.128 25.5808 11.264C25.2608 10.384 24.8128 9.736 24.2368 9.32C23.6608 8.888 22.9808 8.672 22.1968 8.672C21.4448 8.672 20.7728 8.888 20.1808 9.32C19.6048 9.736 19.1488 10.384 18.8128 11.264C18.4928 12.128 18.3328 13.24 18.3328 14.6C18.3328 15.944 18.4928 17.056 18.8128 17.936C19.1488 18.816 19.6048 19.472 20.1808 19.904C20.7728 20.32 21.4448 20.528 22.1968 20.528ZM33.6893 23L45.1613 6.2H47.5133L36.0413 23H33.6893ZM35.0813 15.248C34.2973 15.248 33.6013 15.056 32.9933 14.672C32.3853 14.288 31.9133 13.752 31.5773 13.064C31.2413 12.376 31.0732 11.568 31.0732 10.64C31.0732 9.712 31.2413 8.904 31.5773 8.216C31.9133 7.528 32.3853 6.992 32.9933 6.608C33.6013 6.224 34.2973 6.032 35.0813 6.032C35.8973 6.032 36.6013 6.224 37.1933 6.608C37.8013 6.992 38.2733 7.528 38.6093 8.216C38.9453 8.904 39.1133 9.712 39.1133 10.64C39.1133 11.568 38.9453 12.376 38.6093 13.064C38.2733 13.752 37.8013 14.288 37.1933 14.672C36.6013 15.056 35.8973 15.248 35.0813 15.248ZM35.1053 13.568C35.7453 13.568 36.2413 13.32 36.5933 12.824C36.9613 12.312 37.1453 11.584 37.1453 10.64C37.1453 9.696 36.9613 8.976 36.5933 8.48C36.2413 7.968 35.7453 7.712 35.1053 7.712C34.4653 7.712 33.9533 7.968 33.5693 8.48C33.2013 8.992 33.0173 9.712 33.0173 10.64C33.0173 11.568 33.2013 12.288 33.5693 12.8C33.9533 13.312 34.4653 13.568 35.1053 13.568ZM46.0973 23.168C45.3133 23.168 44.6173 22.976 44.0093 22.592C43.4013 22.208 42.9293 21.672 42.5933 20.984C42.2573 20.296 42.0893 19.488 42.0893 18.56C42.0893 17.632 42.2573 16.824 42.5933 16.136C42.9293 15.448 43.4013 14.912 44.0093 14.528C44.6173 14.144 45.3133 13.952 46.0973 13.952C46.9133 13.952 47.6173 14.144 48.2093 14.528C48.8173 14.912 49.2893 15.448 49.6253 16.136C49.9613 16.824 50.1293 17.632 50.1293 18.56C50.1293 19.488 49.9613 20.296 49.6253 20.984C49.2893 21.672 48.8173 22.208 48.2093 22.592C47.6173 22.976 46.9133 23.168 46.0973 23.168ZM46.0973 21.488C46.7373 21.488 47.2413 21.232 47.6093 20.72C47.9773 20.208 48.1613 19.488 48.1613 18.56C48.1613 17.632 47.9773 16.912 47.6093 16.4C47.2413 15.888 46.7373 15.632 46.0973 15.632C45.4733 15.632 44.9693 15.888 44.5853 16.4C44.2173 16.896 44.0333 17.616 44.0333 18.56C44.0333 19.504 44.2173 20.232 44.5853 20.744C44.9693 21.24 45.4733 21.488 46.0973 21.488Z" fill="white"/>
<g clipPath="url(#clip0_310_504)">
<path d="M171.77 17.2489L170.136 14.7041L167.532 16.5079L169.169 19.0504C169.224 19.1295 169.256 19.2233 169.262 19.3208C169.267 19.4184 169.246 19.5155 169.2 19.6008C169.148 19.6996 169.071 19.7814 168.977 19.8371C168.883 19.8928 168.777 19.9201 168.669 19.916H162.497V16.1254L157.629 20.7426C157.522 20.8441 157.436 20.9678 157.378 21.1056C157.319 21.2435 157.289 21.3925 157.289 21.5432C157.289 21.6939 157.319 21.8429 157.378 21.9808C157.436 22.1186 157.522 22.2422 157.629 22.3438L162.497 26.9588V23.1671H168.669C169.342 23.1701 170.003 22.9826 170.582 22.6248C171.161 22.267 171.635 21.7524 171.954 21.1359C172.265 20.5314 172.412 19.8505 172.38 19.1658C172.347 18.4811 172.136 17.8185 171.77 17.2489Z" fill="white"/>
<path d="M159.154 5.03685C159.207 4.9486 159.28 4.87585 159.367 4.82557C159.454 4.77529 159.552 4.74919 159.652 4.74977C159.753 4.74285 159.853 4.76437 159.943 4.81205C160.033 4.85973 160.109 4.93179 160.162 5.0206L163.425 10.1079L160.404 12.0774L166.75 13.9191C166.89 13.9595 167.036 13.9691 167.179 13.9475C167.322 13.9258 167.46 13.8733 167.583 13.7933C167.705 13.7132 167.811 13.6074 167.892 13.4827C167.973 13.3579 168.028 13.2169 168.054 13.0687L169.227 6.32277L166.073 8.3811L162.762 3.2201C162.423 2.67543 161.955 2.23094 161.402 1.92957C160.85 1.62821 160.232 1.48017 159.608 1.49977C158.988 1.5062 158.379 1.67464 157.838 1.98962C157.296 2.3046 156.839 2.75603 156.509 3.30243L155.281 5.31527L157.92 7.05727L159.154 5.03685Z" fill="white"/>
<path d="M153.906 13.644L156.757 15.7521L155.962 8.95205C155.944 8.80245 155.897 8.65832 155.822 8.52885C155.748 8.39938 155.649 8.28743 155.531 8.20016C155.413 8.11288 155.278 8.0522 155.136 8.02199C154.994 7.99178 154.848 7.99271 154.706 8.02471L148.27 9.47963L151.355 11.7546L147.948 17.3446C147.597 17.9154 147.403 18.5745 147.384 19.2515C147.366 19.9285 147.525 20.5979 147.844 21.1883C148.168 21.7921 148.641 22.2946 149.215 22.6437C149.789 22.9927 150.443 23.1754 151.107 23.173L154.68 23.1665L154.674 19.9165L151.104 19.923C150.999 19.9262 150.894 19.8992 150.803 19.8449C150.711 19.7907 150.635 19.7112 150.583 19.6153C150.536 19.5331 150.512 19.4385 150.514 19.3426C150.516 19.2466 150.545 19.1533 150.596 19.0736L153.906 13.644Z" fill="white"/>
</g>
<defs>
<clipPath id="clip0_310_504">
<rect width="25" height="26" fill="white" transform="translate(147.383 1.5)"/>
</clipPath>
</defs>
</svg>
