<svg width="193" height="12" viewBox="0 0 193 12" fill="none" xmlns="http://www.w3.org/2000/svg">
<path id="S1 Line" d="M11.3333 6C11.3333 8.94552 8.94553 11.3333 6 11.3333C3.05449 11.3333 0.666672 8.94552 0.666672 6C0.666672 3.05448 3.05449 0.666667 6 0.666667C8.94553 0.666667 11.3333 3.05448 11.3333 6ZM193 7H190.967V5H193V7ZM186.902 7H182.837V5H186.902V7ZM178.772 7H174.707V5H178.772V7ZM170.641 7H166.576V5H170.641V7ZM162.511 7H158.446V5H162.511V7ZM154.38 7H150.315V5H154.38V7ZM146.25 7H142.185V5H146.25V7ZM138.12 7H134.054V5H138.12V7ZM129.989 7H125.924V5H129.989V7ZM121.859 7H117.793V5H121.859V7ZM113.728 7H109.663V5H113.728V7ZM105.598 7H101.533V5H105.598V7ZM97.4674 7H93.4022V5H97.4674V7ZM89.337 7H85.2718V5H89.337V7ZM81.2066 7H77.1413V5H81.2066V7ZM73.0761 7H69.0109V5H73.0761V7ZM64.9457 7H60.8805V5H64.9457V7ZM56.8152 7H52.75V5H56.8152V7ZM48.6848 7H44.6196V5H48.6848V7ZM40.5544 7H36.4892V5H40.5544V7ZM32.424 7H28.3587V5H32.424V7ZM24.2935 7H20.2283V5H24.2935V7ZM16.1631 7H12.0979V5H16.1631V7ZM8.03265 7H6V5H8.03265V7Z" fill="url(#paint0_linear_322_3672)"/>
<defs>
<linearGradient id="paint0_linear_322_3672" x1="6" y1="6.5" x2="193" y2="6.5" gradientUnits="userSpaceOnUse">
<stop stopColor="#92FFED"/>
<stop offset="1" stopColor="#1031DC"/>
</linearGradient>
</defs>
</svg>
