<svg width="165" height="12" viewBox="0 0 165 12" fill="none" xmlns="http://www.w3.org/2000/svg">
<path id="S2 Line" d="M153.667 6C153.667 8.94552 156.054 11.3333 159 11.3333C161.946 11.3333 164.333 8.94552 164.333 6C164.333 3.05448 161.946 0.666667 159 0.666667C156.054 0.666667 153.667 3.05448 153.667 6ZM0 7H1.9875V5H0V7ZM5.9625 7H9.9375V5H5.9625V7ZM13.9125 7H17.8875V5H13.9125V7ZM21.8625 7H25.8375V5H21.8625V7ZM29.8125 7H33.7875V5H29.8125V7ZM37.7625 7H41.7375V5H37.7625V7ZM45.7125 7H49.6875V5H45.7125V7ZM53.6625 7H57.6375V5H53.6625V7ZM61.6125 7H65.5875V5H61.6125V7ZM69.5625 7H73.5375V5H69.5625V7ZM77.5125 7H81.4875V5H77.5125V7ZM85.4625 7H89.4375V5H85.4625V7ZM93.4125 7H97.3875V5H93.4125V7ZM101.362 7H105.337V5H101.362V7ZM109.312 7H113.287V5H109.312V7ZM117.262 7H121.237V5H117.262V7ZM125.212 7H129.187V5H125.212V7ZM133.162 7H137.137V5H133.162V7ZM141.112 7H145.087V5H141.112V7ZM149.062 7H153.038V5H149.062V7ZM157.013 7H159V5H157.013V7Z" fill="url(#paint0_linear_322_3670)"/>
<defs>
<linearGradient id="paint0_linear_322_3670" x1="159" y1="6.5" x2="0" y2="6.5" gradientUnits="userSpaceOnUse">
<stop stopColor="#92FFED"/>
<stop offset="1" stopColor="#1031DC"/>
</linearGradient>
</defs>
</svg>
