<svg width="157" height="12" viewBox="0 0 157 12" fill="none" xmlns="http://www.w3.org/2000/svg">
<path id="S3 LIne" d="M11.3333 6C11.3333 3.05448 8.94553 0.666667 6 0.666667C3.05449 0.666667 0.666672 3.05448 0.666672 6C0.666672 8.94552 3.05449 11.3333 6 11.3333C8.94553 11.3333 11.3333 8.94552 11.3333 6ZM157 5H155.013V7H157V5ZM151.039 5H147.066V7H151.039V5ZM143.092 5H139.118V7H143.092V5ZM135.145 5L131.171 5V7L135.145 7V5ZM127.197 5L123.224 5V7L127.197 7V5ZM119.25 5L115.276 5V7L119.25 7V5ZM111.303 5L107.329 5V7L111.303 7V5ZM103.355 5L99.3816 5V7H103.355V5ZM95.4079 5L91.4342 5V7L95.4079 7V5ZM87.4605 5H83.4868V7H87.4605V5ZM79.5131 5H75.5395V7H79.5131V5ZM71.5658 5H67.5921V7H71.5658V5ZM63.6184 5H59.6447V7L63.6184 7V5ZM55.671 5H51.6973V7H55.671V5ZM47.7236 5L43.75 5V7L47.7236 7V5ZM39.7763 5L35.8026 5V7L39.7763 7V5ZM31.8289 5L27.8552 5V7L31.8289 7V5ZM23.8815 5L19.9079 5V7L23.8815 7V5ZM15.9342 5H11.9605V7H15.9342V5ZM7.98683 5L6 5V7L7.98683 7V5Z" fill="url(#paint0_linear_322_3669)"/>
<defs>
<linearGradient id="paint0_linear_322_3669" x1="157" y1="5.5" x2="6" y2="5.5" gradientUnits="userSpaceOnUse">
<stop stop-color="#1031DC"/>
<stop offset="1" stop-color="#92FFED"/>
</linearGradient>
</defs>
</svg>
