<svg width="164" height="12" viewBox="0 0 164 12" fill="none" xmlns="http://www.w3.org/2000/svg">
<path id="S4 Line" d="M152.667 6C152.667 8.94552 155.054 11.3333 158 11.3333C160.946 11.3333 163.333 8.94552 163.333 6C163.333 3.05448 160.946 0.666667 158 0.666667C155.054 0.666667 152.667 3.05448 152.667 6ZM0 7H1.975V5H0V7ZM5.925 7H9.875V5H5.925V7ZM13.825 7H17.775V5H13.825V7ZM21.725 7H25.675V5H21.725V7ZM29.625 7H33.575V5H29.625V7ZM37.525 7H41.475V5H37.525V7ZM45.425 7H49.375V5H45.425V7ZM53.325 7H57.275V5H53.325V7ZM61.225 7H65.175V5H61.225V7ZM69.125 7H73.075V5H69.125V7ZM77.025 7H80.975V5H77.025V7ZM84.925 7H88.875V5H84.925V7ZM92.825 7H96.775V5H92.825V7ZM100.725 7H104.675V5H100.725V7ZM108.625 7H112.575V5H108.625V7ZM116.525 7H120.475V5H116.525V7ZM124.425 7H128.375V5H124.425V7ZM132.325 7H136.275V5H132.325V7ZM140.225 7H144.175V5H140.225V7ZM148.125 7H152.075V5H148.125V7ZM156.025 7H158V5H156.025V7Z" fill="url(#paint0_linear_322_3671)"/>
<defs>
<linearGradient id="paint0_linear_322_3671" x1="158" y1="6.5" x2="0" y2="6.5" gradientUnits="userSpaceOnUse">
<stop stop-color="#92FFED"/>
<stop offset="1" stop-color="#1031DC"/>
</linearGradient>
</defs>
</svg>
