<svg width="208" height="320" viewBox="0 0 208 320" fill="none" xmlns="http://www.w3.org/2000/svg">
<path d="M219.945 160C219.945 192.861 193.306 219.5 160.445 219.5C127.584 219.5 100.945 192.861 100.945 160C100.945 127.139 127.584 100.5 160.445 100.5C193.306 100.5 219.945 127.139 219.945 160ZM160.445 220.5C193.859 220.5 220.945 193.413 220.945 160C220.945 126.587 193.859 99.5 160.445 99.5C127.032 99.5 99.9453 126.587 99.9453 160C99.9453 193.413 127.032 220.5 160.445 220.5ZM239.945 160C239.945 203.907 204.352 239.5 160.445 239.5C116.539 239.5 80.9453 203.907 80.9453 160C80.9453 116.093 116.539 80.5 160.445 80.5C204.352 80.5 239.945 116.093 239.945 160ZM160.445 240.5C204.904 240.5 240.945 204.459 240.945 160C240.945 115.541 204.904 79.5 160.445 79.5C115.986 79.5 79.9453 115.541 79.9453 160C79.9453 204.459 115.986 240.5 160.445 240.5ZM319.945 160C319.945 248.089 248.535 319.5 160.445 319.5C72.3559 319.5 0.945312 248.089 0.945312 160C0.945312 71.9106 72.3559 0.5 160.445 0.5C248.535 0.5 319.945 71.9106 319.945 160ZM299.945 160C299.945 237.044 237.489 299.5 160.445 299.5C83.4016 299.5 20.9453 237.044 20.9453 160C20.9453 82.9563 83.4016 20.5 160.445 20.5C237.489 20.5 299.945 82.9563 299.945 160ZM160.445 300.5C238.041 300.5 300.945 237.596 300.945 160C300.945 82.404 238.041 19.5 160.445 19.5C82.8493 19.5 19.9453 82.404 19.9453 160C19.9453 237.596 82.8493 300.5 160.445 300.5ZM279.945 160C279.945 225.998 226.443 279.5 160.445 279.5C94.4473 279.5 40.9453 225.998 40.9453 160C40.9453 94.002 94.4473 40.5 160.445 40.5C226.443 40.5 279.945 94.002 279.945 160ZM160.445 280.5C226.996 280.5 280.945 226.55 280.945 160C280.945 93.4497 226.996 39.5 160.445 39.5C93.895 39.5 39.9453 93.4497 39.9453 160C39.9453 226.55 93.895 280.5 160.445 280.5ZM259.945 160C259.945 214.952 215.398 259.5 160.445 259.5C105.493 259.5 60.9453 214.952 60.9453 160C60.9453 105.048 105.493 60.5 160.445 60.5C215.398 60.5 259.945 105.048 259.945 160ZM160.445 260.5C215.95 260.5 260.945 215.505 260.945 160C260.945 104.495 215.95 59.5 160.445 59.5C104.941 59.5 59.9453 104.495 59.9453 160C59.9453 215.505 104.941 260.5 160.445 260.5Z" stroke="#0150F4"/>
</svg>
